<?xml version="1.0" encoding="utf-8"?>
<!-- Generator: Adobe Illustrator 13.0.0, SVG Export Plug-In . SVG Version: 6.00 Build 14948)  -->
<!DOCTYPE svg PUBLIC "-//W3C//DTD SVG 1.1//EN" "http://www.w3.org/Graphics/SVG/1.1/DTD/svg11.dtd">
<svg version="1.1" id="Livello_1" xmlns="http://www.w3.org/2000/svg" xmlns:xlink="http://www.w3.org/1999/xlink" x="0px" y="0px"
	 width="224px" height="28px" viewBox="0 0 224 28" enable-background="new 0 0 224 28" xml:space="preserve">
<ellipse fill="#FFFF00" cx="33.933" cy="14.105" rx="30.55" ry="11.553"/>
<g>
	<g>
		<path fill="#FFFF00" d="M82.307,11.298c-0.08,0.5-0.422,0.911-1.021,1.236c-0.957,0.498-2.264,0.749-3.92,0.749
			c-1.657,0-2.891-0.239-3.7-0.714c-0.246-0.138-0.328-0.412-0.246-0.817c0.017-0.116,0.046-0.278,0.083-0.489
			c1.409,0.292,2.694,0.437,3.85,0.437c1.238,0,2.209-0.174,2.909-0.521c0.199-0.095,0.3-0.222,0.3-0.385
			c0-0.395-0.978-0.59-2.936-0.59c-0.803,0-1.544,0.021-2.227,0.069c-0.564,0.033-1.073,0.017-1.531-0.053
			c-0.524-0.081-0.79-0.79-0.79-2.125c0-0.718,0.129-1.438,0.386-2.158c0.134-0.383,0.381-0.742,0.736-1.08
			c0.61-0.581,1.472-1.113,2.593-1.601c1.212-0.522,2.262-0.783,3.154-0.783c0.198,0,0.382,0.011,0.546,0.035
			c0.138,0.024,0.275,0.145,0.411,0.365c0.199,0.29,0.382,0.738,0.546,1.34c0.135,0.535,0.223,1.005,0.259,1.41
			c0.009,0.117,0.019,0.255,0.028,0.418c0,0.139-0.061,0.227-0.179,0.261c-1.12,0.29-2.292,0.686-3.523,1.185
			c-0.746,0.312-1.359,0.638-1.844,0.973c-0.1,0.07-0.148,0.134-0.148,0.192s0.063,0.087,0.19,0.087
			c0.145-0.011,0.231-0.024,0.261-0.035c0.218-0.045,0.79-0.058,1.72-0.034c1.891,0.045,3.076,0.308,3.548,0.783
			c0.384,0.382,0.574,0.87,0.574,1.461C82.335,11.043,82.328,11.17,82.307,11.298z"/>
		<path fill="#FFFF00" d="M91.158,2.595c-0.064,0.268-0.154,0.68-0.273,1.237c-0.428,2.157-0.642,4.281-0.642,6.371
			c0,0.521,0.012,1.065,0.04,1.635c0,0.104,0.027,0.453,0.084,1.044c-0.266,0.162-0.547,0.244-0.847,0.244
			c-0.267,0-0.424-0.088-0.479-0.262c-0.054-0.174-0.108-0.649-0.162-1.427c-0.103-1.38-0.115-2.767-0.041-4.16
			C88.4,7.429,87.74,7.557,86.856,7.66c-0.136,0.025-0.212,0.099-0.23,0.227c-0.037,0.569-0.056,1.108-0.056,1.62
			c0,1.056,0.09,2.158,0.272,3.307c-0.571,0.174-1.07,0.301-1.487,0.383c-0.311,0.059-0.564,0.087-0.768,0.087
			c-0.39,0-0.69-0.111-0.898-0.332c-0.327-0.335-0.58-1.172-0.752-2.506c-0.128-1.021-0.187-1.938-0.178-2.751l0.027-1.757
			c0.019-0.801,0.102-1.694,0.247-2.68c0.009-0.07,0.204-0.186,0.586-0.349c0.755-0.313,1.627-0.47,2.606-0.47
			c0.375,0,0.707,0.036,0.998,0.104c0.064,0.012,0.102,0.023,0.118,0.036c0.012,0.011,0.022,0.045,0.034,0.104
			c0.035,0.221-0.083,1.05-0.356,2.489L86.841,6.13c0.556-0.243,1.14-0.376,1.748-0.4c0.258,0,0.392-0.064,0.41-0.192l0.396-2.767
			c0.037-0.244,0.077-0.47,0.123-0.679c0.045-0.011,0.087-0.021,0.122-0.034c0.609-0.071,1.083,0.041,1.419,0.331
			C91.135,2.445,91.167,2.515,91.158,2.595z"/>
		<path fill="#FFFF00" d="M101.344,12.204c-0.201,0.128-0.339,0.207-0.41,0.236c-0.073,0.028-0.204,0.089-0.395,0.182
			c-0.684,0.302-1.444,0.453-2.28,0.453c-0.703,0-1.165-0.123-1.394-0.366c-0.092-0.092-0.165-0.196-0.219-0.314
			c-0.101-0.231-0.233-0.544-0.396-0.938c-0.293-0.731-0.599-1.551-0.917-2.455c-0.009-0.045-0.027-0.093-0.054-0.14
			c-0.018-0.011-0.104-0.017-0.26-0.017l-1.323,0.053c-0.183,0.01-0.315,0.127-0.396,0.347c-0.555,1.579-0.89,2.832-0.998,3.76
			c-0.363,0.012-0.692-0.081-0.983-0.279c-0.219-0.15-0.31-0.342-0.272-0.575c0.035-0.163,0.067-0.319,0.095-0.469
			c0.19-0.883,0.533-1.955,1.025-3.221c0.317-0.812,0.675-1.635,1.063-2.471c0.054-0.104,0.064-0.209,0.03-0.313
			c-0.074-0.278-0.219-0.574-0.438-0.887c-0.203-0.278-0.302-0.436-0.302-0.47c0-0.023,0.01-0.045,0.027-0.07
			c1.34-0.822,2.747-1.462,4.233-1.913c0.063-0.024,0.112-0.024,0.149,0c0.037,0.011,0.164,0.168,0.383,0.47
			c0.601,0.824,1.304,2.144,2.11,3.959c0.805,1.817,1.394,3.427,1.769,4.832C101.293,11.977,101.344,12.181,101.344,12.204z
			 M94.788,7.66l-0.329-0.643c-0.01-0.023-0.029-0.064-0.056-0.122c-0.065-0.093-0.13-0.064-0.192,0.083
			c-0.254,0.593-0.396,0.93-0.422,1.011c0.003,0,0.005,0.006,0.005,0.02c0.018,0,0.036,0,0.055,0c0.09,0,0.24-0.017,0.448-0.052
			c0.084-0.011,0.206-0.035,0.369-0.07C94.804,7.852,94.844,7.776,94.788,7.66z"/>
		<path fill="#FFFF00" d="M110.399,7.782c0.007,0.244-0.061,0.436-0.208,0.574c-0.425,0.43-1.25,0.888-2.469,1.375
			c-0.594,0.221-1.18,0.446-1.763,0.68h-0.015c1.667,0.789,2.919,1.543,3.755,2.262c-0.099,0.139-0.181,0.256-0.245,0.348
			c-0.189,0.244-0.413,0.365-0.668,0.365c-0.165,0-0.341-0.046-0.533-0.138c-0.246-0.164-0.696-0.436-1.353-0.818
			c-1.145-0.662-2.398-1.138-3.754-1.428l0.055,2.124c0,0.011,0,0.022,0,0.035c-0.008,0.011-0.033,0.018-0.067,0.018
			c-0.467-0.059-0.82-0.163-1.066-0.315c-0.183-0.116-0.287-0.318-0.316-0.608c-0.079-0.731-0.116-1.48-0.106-2.246
			c0.019-1.507,0.046-2.32,0.081-2.436c0.008-0.046,0.015-0.082,0.015-0.104l-0.247-0.296c-0.264-0.29-0.436-0.777-0.519-1.462
			c-0.109-1.01-0.149-2.025-0.122-3.047c0.009-0.184,0.087-0.283,0.233-0.295c0.909-0.058,1.781-0.034,2.62,0.069
			c0.718,0.083,1.491,0.255,2.321,0.523c0.802,0.244,1.443,0.504,1.924,0.783c0.274,0.151,0.545,0.394,0.807,0.73
			c0.482,0.592,0.865,1.19,1.148,1.794C110.217,6.918,110.379,7.423,110.399,7.782z M107.532,8.087
			c-0.028-0.029-0.094-0.073-0.192-0.131c-0.974-0.359-1.938-0.54-2.896-0.54c-0.455,0-0.81,0.029-1.065,0.087
			c-0.109,0.616-0.169,1.236-0.177,1.863c1.418,0.023,2.781-0.255,4.081-0.836c0.192-0.093,0.289-0.208,0.289-0.347
			C107.572,8.148,107.557,8.115,107.532,8.087z"/>
		<path fill="#FFFF00" d="M118.742,6.669c-0.029,0.174-0.07,0.354-0.125,0.539l-1.748-0.105c-0.857-0.045-2.053,0.013-3.592,0.174
			c-0.037,0-0.144,0.018-0.328,0.052c-0.07,0.547-0.123,1.091-0.15,1.637c0.902-0.093,1.787-0.134,2.652-0.122
			c0.455,0,0.945,0.023,1.475,0.069c0.107,0,0.182,0.024,0.217,0.07c0.207,0.231,0.306,0.557,0.287,0.975
			c-0.008,0.151-0.053,0.226-0.137,0.226c-1.521-0.105-3.045-0.069-4.572,0.103c0,0.058-0.008,0.109-0.016,0.155
			c-0.025,0.584,0.082,0.957,0.328,1.119c0.064,0.044,0.18,0.068,0.342,0.068c0.445,0.012,1.006,0.012,1.678,0
			c0.828-0.034,1.703-0.012,2.625,0.07c0.416,0.035,0.668,0.11,0.75,0.226c0.154,0.221,0.225,0.476,0.219,0.765
			c-0.012,0.083-0.022,0.154-0.035,0.218c-0.016,0.064-0.069,0.096-0.172,0.096c-0.301-0.011-0.657-0.011-1.075,0l-3.947,0.122
			c-0.074,0-0.14-0.006-0.192-0.018c-0.3-0.046-0.638-0.166-1.01-0.356c-0.373-0.191-0.624-0.369-0.751-0.53
			c-0.127-0.164-0.205-0.372-0.233-0.626c-0.098-0.836-0.058-2.055,0.123-3.656c0.012-0.163,0.02-0.262,0.029-0.297
			c0.008-0.15-0.01-0.26-0.056-0.33c-0.117-0.07-0.251-0.151-0.396-0.243c-0.192-0.151-0.333-0.412-0.425-0.785
			c-0.153-0.637-0.194-1.6-0.123-2.888l0.027-0.435c0.109-0.035,0.207-0.063,0.288-0.088c0.802-0.23,1.875-0.319,3.224-0.26
			c0.818,0.047,1.691,0.163,2.613,0.348c0.924,0.185,1.527,0.371,1.811,0.557c0.336,0.22,0.504,0.853,0.504,1.897
			C118.85,5.902,118.811,6.32,118.742,6.669z"/>
		<path fill="#FFFF00" d="M134.293,3.413c-0.008,0.698-0.203,1.452-0.588,2.263c-0.154,0.326-0.402,0.726-0.75,1.202
			c-0.145,0.197-0.291,0.389-0.436,0.573c-0.013,0.024-0.037,0.285-0.082,0.783c-0.109,1.243-0.166,2.298-0.166,3.169
			c0,0.232,0.01,0.411,0.028,0.539c0.021,0.268,0.021,0.43,0.011,0.489c-0.017,0.045-0.14,0.121-0.365,0.225
			c-0.51,0.222-0.826,0.354-0.941,0.401c-0.375,0.14-0.703,0.215-0.984,0.227c-0.555,0.035-0.899-0.128-1.037-0.488
			c-0.375-1.16-0.578-2.349-0.616-3.568c-0.009-0.162-0.021-0.412-0.039-0.749c-0.021-0.196-0.056-0.33-0.109-0.399
			c-0.118-0.116-0.295-0.309-0.532-0.575c-0.453-0.498-0.884-1.039-1.281-1.618c-0.193-0.278-0.607-0.976-1.242-2.089l-0.029-0.052
			c1.148-0.917,2.357-1.375,3.631-1.375c0.174,0,0.346,0.012,0.514,0.035c0.171,0.024,0.271,0.046,0.31,0.07
			c0.033,0.023,0.063,0.099,0.08,0.226c0.127,0.905,0.326,1.862,0.603,2.871c0.153,0.57,0.295,0.945,0.424,1.132
			c0.072,0.117,0.131,0.157,0.176,0.122c0.621-0.441,1.104-1.271,1.445-2.489c0.258-0.893,0.381-1.619,0.371-2.176
			c0.364-0.011,0.707,0.012,1.022,0.07C134.107,2.299,134.303,2.694,134.293,3.413z"/>
		<path fill="#FFFF00" d="M144.223,8.601c-0.32,1.345-0.965,2.477-1.938,3.394s-2.019,1.38-3.129,1.392
			c-1.119,0.011-2.177-0.444-3.171-1.367c-0.987-0.921-1.646-2.062-1.963-3.419c-0.094-0.546-0.082-1.062,0.027-1.55
			c0.182-0.871,0.645-1.763,1.391-2.68c0.748-0.917,1.492-1.515,2.24-1.792c0.463-0.174,0.941-0.262,1.435-0.262
			c0.5,0,0.983,0.088,1.448,0.262c0.746,0.278,1.492,0.875,2.236,1.792c0.748,0.917,1.211,1.81,1.395,2.68
			C144.305,7.539,144.311,8.055,144.223,8.601z M140.123,10.063c0-0.511-0.1-0.945-0.299-1.306
			c-0.201-0.359-0.438-0.539-0.711-0.539c-0.281,0-0.521,0.179-0.717,0.539c-0.193,0.36-0.293,0.795-0.293,1.306
			c0,0.51,0.1,0.947,0.293,1.306c0.194,0.359,0.436,0.54,0.717,0.54c0.272,0,0.51-0.181,0.711-0.54
			C140.023,11.009,140.123,10.573,140.123,10.063z"/>
		<path fill="#FFFF00" d="M155.061,11.785c0,0.036-0.047,0.088-0.143,0.157s-0.246,0.181-0.457,0.332
			c-0.789,0.534-1.436,0.829-1.938,0.888c-0.447,0.069-0.752,0.04-0.916-0.087c-0.365-0.244-0.642-0.871-0.83-1.88l-0.041,0.035
			c-0.857,0.972-1.492,1.568-1.9,1.79c-0.336,0.188-0.561,0.275-0.668,0.264c-0.482-0.059-1.084-0.438-1.795-1.135
			c-0.715-0.699-1.146-1.304-1.293-1.816c-0.055-0.209-0.107-0.471-0.164-0.786c-0.063-0.396-0.096-0.93-0.096-1.606
			c0-1.525,0.125-2.875,0.369-4.051c0.063-0.291,0.129-0.547,0.188-0.769c0.047-0.151,0.347-0.277,0.896-0.375
			c0.552-0.1,1.127-0.131,1.729-0.096c0.638,0.023,1.144,0.064,1.517,0.122c0.344,0.059,0.518,0.181,0.518,0.367
			c0,0.07-0.008,0.151-0.027,0.243c-0.107,0.383-0.273,0.954-0.49,1.709c-0.428,1.489-0.68,2.978-0.754,4.466
			c-0.033,0.674-0.006,1.151,0.084,1.431c0.053,0.175,0.154,0.203,0.301,0.087c0.564-0.429,1.029-0.952,1.394-1.566l-0.014-0.191
			c-0.064-0.8-0.099-1.655-0.099-2.559c0-1.08,0.043-1.764,0.123-2.055c0.086-0.289,0.234-0.509,0.453-0.662
			c0.727-0.521,1.539-0.898,2.43-1.131c1.029-0.277,1.541-0.365,1.541-0.26c0,0.069,0.008,0.138,0.017,0.208
			c-0.027,0.487-0.072,1.446-0.138,2.872c-0.024,0.591-0.041,1.172-0.041,1.741C154.816,8.838,154.898,10.277,155.061,11.785z"/>
		<path fill="#FFFF00" d="M165.305,7.782c0.006,0.244-0.061,0.436-0.203,0.574c-0.432,0.43-1.252,0.888-2.475,1.375
			c-0.592,0.221-1.178,0.446-1.762,0.68h-0.012c1.664,0.789,2.916,1.543,3.756,2.262c-0.104,0.139-0.185,0.256-0.248,0.348
			c-0.191,0.244-0.414,0.365-0.668,0.365c-0.164,0-0.342-0.046-0.535-0.138c-0.242-0.164-0.693-0.436-1.35-0.818
			c-1.146-0.662-2.4-1.138-3.757-1.428l0.054,2.124c0,0.011,0,0.022,0,0.035c-0.008,0.011-0.027,0.018-0.066,0.018
			c-0.465-0.059-0.82-0.163-1.064-0.315c-0.182-0.116-0.287-0.318-0.313-0.608c-0.084-0.731-0.119-1.48-0.111-2.246
			c0.018-1.507,0.045-2.32,0.082-2.436c0.01-0.046,0.014-0.082,0.014-0.104L156.4,7.173c-0.267-0.29-0.438-0.777-0.519-1.462
			c-0.108-1.01-0.151-2.025-0.123-3.047c0.009-0.184,0.086-0.283,0.232-0.295c0.909-0.058,1.782-0.034,2.622,0.069
			c0.716,0.083,1.492,0.255,2.32,0.523c0.799,0.244,1.441,0.504,1.924,0.783c0.273,0.151,0.541,0.394,0.808,0.73
			c0.479,0.592,0.864,1.19,1.146,1.794C165.123,6.918,165.285,7.423,165.305,7.782z M162.438,8.087
			c-0.028-0.029-0.092-0.073-0.192-0.131c-0.974-0.359-1.937-0.54-2.896-0.54c-0.453,0-0.81,0.029-1.063,0.087
			c-0.109,0.616-0.168,1.236-0.181,1.863c1.425,0.023,2.783-0.255,4.086-0.836c0.189-0.093,0.283-0.208,0.283-0.347
			C162.475,8.148,162.465,8.115,162.438,8.087z"/>
		<path fill="#FFFF00" d="M181.65,11.298c-0.084,0.5-0.424,0.911-1.027,1.236c-0.953,0.498-2.262,0.749-3.918,0.749
			s-2.889-0.239-3.701-0.714c-0.244-0.138-0.326-0.412-0.244-0.817c0.02-0.116,0.045-0.278,0.082-0.489
			c1.412,0.292,2.695,0.437,3.852,0.437c1.234,0,2.205-0.174,2.906-0.521c0.203-0.095,0.301-0.222,0.301-0.385
			c0-0.395-0.979-0.59-2.936-0.59c-0.801,0-1.543,0.021-2.227,0.069c-0.563,0.033-1.072,0.017-1.527-0.053
			c-0.527-0.081-0.793-0.79-0.793-2.125c0-0.718,0.129-1.438,0.383-2.158c0.137-0.383,0.381-0.742,0.736-1.08
			c0.609-0.581,1.477-1.113,2.596-1.601c1.209-0.522,2.262-0.783,3.154-0.783c0.199,0,0.383,0.011,0.545,0.035
			c0.137,0.024,0.273,0.145,0.412,0.365c0.197,0.29,0.379,0.738,0.545,1.34c0.139,0.535,0.223,1.005,0.26,1.41
			c0.006,0.117,0.018,0.255,0.027,0.418c0,0.139-0.061,0.227-0.178,0.261c-1.121,0.29-2.295,0.686-3.523,1.185
			c-0.746,0.312-1.361,0.638-1.844,0.973c-0.1,0.07-0.15,0.134-0.15,0.192s0.064,0.087,0.191,0.087
			c0.146-0.011,0.232-0.024,0.26-0.035c0.219-0.045,0.791-0.058,1.719-0.034c1.896,0.045,3.08,0.308,3.553,0.783
			c0.381,0.382,0.572,0.87,0.572,1.461C181.676,11.043,181.668,11.17,181.65,11.298z"/>
		<path fill="#FFFF00" d="M190.523,11.856c-0.107,0.231-0.459,0.476-1.049,0.73c-0.595,0.257-1.201,0.418-1.816,0.488
			c-0.33,0.046-0.656,0.069-0.984,0.069c-1.076,0-2.018-0.196-2.826-0.592c-0.875-0.417-1.416-0.997-1.627-1.741
			c-0.063-0.243-0.096-0.516-0.096-0.818c0-0.638,0.129-1.351,0.383-2.141c0.328-1.032,0.834-1.978,1.518-2.838
			c0.654-0.812,1.396-1.467,2.226-1.966c0.894-0.522,1.834-0.864,2.826-1.027c0.045,0,0.071,0.005,0.082,0.016
			c0.428,0.524,0.774,1.244,1.037,2.158c0.235,0.883,0.342,1.719,0.313,2.507c0,0.081-0.004,0.18-0.016,0.296
			c-0.051,0-0.104,0-0.148,0c-0.555,0-1.274,0.223-2.156,0.67c-0.885,0.446-1.557,0.92-2.021,1.418
			c-0.59,0.639-0.889,1.116-0.889,1.427c0,0.313,0.215,0.563,0.645,0.748c0.48,0.222,1.113,0.28,1.896,0.175
			c0.291-0.034,0.634-0.116,1.023-0.244c0.602-0.198,1.037-0.412,1.313-0.643c0.106-0.081,0.182-0.093,0.219-0.036
			c0.146,0.221,0.217,0.517,0.217,0.889C190.592,11.587,190.57,11.74,190.523,11.856z"/>
		<path fill="#FFFF00" d="M201.299,8.601c-0.318,1.345-0.965,2.477-1.939,3.394c-0.974,0.917-2.018,1.38-3.127,1.392
			c-1.118,0.011-2.176-0.444-3.168-1.367c-0.994-0.921-1.647-2.062-1.965-3.419c-0.094-0.546-0.084-1.062,0.025-1.55
			c0.182-0.871,0.646-1.763,1.393-2.68c0.748-0.917,1.496-1.515,2.24-1.792c0.463-0.174,0.941-0.262,1.432-0.262
			c0.502,0,0.982,0.088,1.449,0.262c0.746,0.278,1.494,0.875,2.238,1.792c0.748,0.917,1.211,1.81,1.395,2.68
			C201.377,7.539,201.389,8.055,201.299,8.601z M197.203,10.063c0-0.511-0.102-0.945-0.301-1.306
			c-0.203-0.359-0.437-0.539-0.713-0.539c-0.281,0-0.519,0.179-0.715,0.539c-0.195,0.36-0.293,0.795-0.293,1.306
			c0,0.51,0.098,0.947,0.293,1.306c0.196,0.359,0.434,0.54,0.715,0.54c0.276,0,0.51-0.181,0.713-0.54
			C197.102,11.009,197.203,10.573,197.203,10.063z"/>
		<path fill="#FFFF00" d="M211.143,7.782c0.01,0.244-0.059,0.436-0.203,0.574c-0.43,0.43-1.252,0.888-2.473,1.375
			c-0.592,0.221-1.176,0.446-1.76,0.68h-0.014c1.666,0.789,2.916,1.543,3.754,2.262c-0.103,0.139-0.182,0.256-0.248,0.348
			c-0.189,0.244-0.414,0.365-0.666,0.365c-0.164,0-0.342-0.046-0.535-0.138c-0.244-0.164-0.695-0.436-1.35-0.818
			c-1.146-0.662-2.396-1.138-3.756-1.428l0.055,2.124c0,0.011,0,0.022,0,0.035c-0.01,0.011-0.033,0.018-0.068,0.018
			c-0.465-0.059-0.818-0.163-1.066-0.315c-0.18-0.116-0.285-0.318-0.313-0.608c-0.082-0.731-0.117-1.48-0.109-2.246
			c0.017-1.507,0.045-2.32,0.082-2.436c0.01-0.046,0.012-0.082,0.012-0.104l-0.241-0.296c-0.269-0.29-0.441-0.777-0.521-1.462
			c-0.109-1.01-0.152-2.025-0.125-3.047c0.01-0.184,0.088-0.283,0.232-0.295c0.912-0.058,1.787-0.034,2.623,0.069
			c0.717,0.083,1.492,0.255,2.32,0.523c0.801,0.244,1.442,0.504,1.926,0.783c0.275,0.151,0.539,0.394,0.807,0.73
			c0.482,0.592,0.863,1.19,1.146,1.794C210.959,6.918,211.125,7.423,211.143,7.782z M208.275,8.087
			c-0.027-0.029-0.09-0.073-0.191-0.131c-0.975-0.359-1.939-0.54-2.895-0.54c-0.455,0-0.812,0.029-1.063,0.087
			c-0.11,0.616-0.172,1.236-0.181,1.863c1.421,0.023,2.779-0.255,4.084-0.836c0.193-0.093,0.287-0.208,0.287-0.347
			C208.318,8.148,208.303,8.115,208.275,8.087z"/>
		<path fill="#FFFF00" d="M219.484,6.669c-0.025,0.174-0.066,0.354-0.119,0.539l-1.75-0.105c-0.855-0.045-2.053,0.013-3.59,0.174
			c-0.037,0-0.148,0.018-0.326,0.052c-0.076,0.547-0.125,1.091-0.15,1.637c0.9-0.093,1.779-0.134,2.646-0.122
			c0.457,0,0.949,0.023,1.475,0.069c0.111,0,0.182,0.024,0.217,0.07c0.213,0.231,0.307,0.557,0.289,0.975
			c-0.01,0.151-0.055,0.226-0.135,0.226c-1.521-0.105-3.047-0.069-4.578,0.103c0,0.058-0.002,0.109-0.012,0.155
			c-0.029,0.584,0.082,0.957,0.326,1.119c0.067,0.044,0.178,0.068,0.346,0.068c0.443,0.012,1.004,0.012,1.676,0
			c0.83-0.034,1.703-0.012,2.625,0.07c0.416,0.035,0.666,0.11,0.748,0.226c0.156,0.221,0.229,0.476,0.217,0.765
			c-0.008,0.083-0.02,0.154-0.031,0.218c-0.014,0.064-0.071,0.096-0.172,0.096c-0.299-0.011-0.658-0.011-1.078,0l-3.944,0.122
			c-0.074,0-0.138-0.006-0.193-0.018c-0.297-0.046-0.635-0.166-1.008-0.356c-0.375-0.191-0.625-0.369-0.75-0.53
			c-0.131-0.164-0.207-0.372-0.231-0.626c-0.104-0.836-0.06-2.055,0.119-3.656c0.008-0.163,0.02-0.262,0.026-0.297
			c0.01-0.15-0.008-0.26-0.051-0.33c-0.121-0.07-0.252-0.151-0.4-0.243c-0.188-0.151-0.327-0.412-0.422-0.785
			c-0.155-0.637-0.194-1.6-0.121-2.888l0.027-0.435c0.108-0.035,0.202-0.063,0.284-0.088c0.804-0.23,1.875-0.319,3.224-0.26
			c0.817,0.047,1.688,0.163,2.617,0.348c0.924,0.185,1.524,0.371,1.807,0.557c0.336,0.22,0.509,0.853,0.509,1.897
			C219.598,5.902,219.561,6.32,219.484,6.669z"/>
	</g>
	<g>
		<path fill="#FFFF00" d="M80.929,18.299c0.064,0.215,0.097,0.581,0.097,1.102c0,0.742-0.048,1.393-0.141,1.947
			c-0.015,0.111-0.041,0.252-0.077,0.418c-0.998-0.147-2.001-0.199-3.015-0.151c-0.32,1.43-0.479,2.839-0.479,4.23
			c0,0.278,0,0.565,0,0.862c0,0.01,0,0.02,0,0.027c-0.008,0.029-0.072,0.021-0.194-0.021c-0.12-0.04-0.269-0.09-0.438-0.146
			c-0.23-0.092-0.369-0.17-0.419-0.229c-0.051-0.06-0.086-0.261-0.108-0.604c-0.028-0.491-0.042-0.965-0.042-1.42
			c0-0.834,0.055-1.713,0.163-2.631c-0.176,0.01-0.441,0.032-0.798,0.069c-0.518,0.065-1.142,0.144-1.879,0.235
			c-0.231,0.027-0.362-0.019-0.392-0.139c-0.08-0.408-0.12-0.803-0.12-1.184c0-0.688,0.13-1.369,0.393-2.047
			c0.029-0.083,0.077-0.208,0.143-0.375c0.537,0.037,1.092,0.033,1.66-0.016c0.749-0.063,1.353-0.119,1.813-0.166
			c0.495-0.064,0.956-0.098,1.387-0.098c0.705,0,1.419,0.083,2.14,0.251C80.659,18.225,80.76,18.253,80.929,18.299z"/>
		<path fill="#FFFF00" d="M89.371,22.754c-0.257,1.077-0.773,1.982-1.552,2.715c-0.779,0.733-1.612,1.104-2.501,1.113
			c-0.896,0.01-1.739-0.354-2.533-1.093c-0.794-0.737-1.318-1.649-1.573-2.735c-0.071-0.436-0.064-0.849,0.021-1.238
			c0.146-0.695,0.518-1.41,1.115-2.145c0.596-0.732,1.193-1.211,1.791-1.434c0.37-0.14,0.753-0.209,1.147-0.209
			c0.4,0,0.786,0.069,1.156,0.209c0.597,0.223,1.193,0.701,1.791,1.434c0.597,0.734,0.969,1.447,1.113,2.145
			C89.435,21.905,89.442,22.318,89.371,22.754z M86.094,23.923c0-0.407-0.083-0.756-0.24-1.043c-0.16-0.288-0.351-0.431-0.567-0.431
			c-0.228,0-0.419,0.143-0.574,0.431c-0.158,0.287-0.234,0.636-0.234,1.043c0,0.409,0.076,0.757,0.234,1.044
			c0.155,0.289,0.347,0.434,0.574,0.434c0.217,0,0.407-0.145,0.567-0.434C86.011,24.68,86.094,24.332,86.094,23.923z"/>
		<path fill="#FFFF00" d="M101.634,25.357c-0.087,0.186-0.368,0.381-0.842,0.584c-0.474,0.205-0.957,0.334-1.454,0.391
			c-0.262,0.037-0.522,0.055-0.784,0.055c-0.861,0-1.613-0.156-2.262-0.473c-0.699-0.334-1.132-0.798-1.299-1.391
			c-0.05-0.197-0.076-0.414-0.076-0.655c0-0.511,0.103-1.081,0.306-1.713c0.261-0.825,0.667-1.581,1.213-2.27
			c0.524-0.649,1.117-1.174,1.78-1.571c0.714-0.418,1.468-0.691,2.261-0.822c0.035,0,0.055,0.004,0.064,0.014
			c0.342,0.418,0.618,0.994,0.829,1.727c0.19,0.705,0.274,1.373,0.251,2.004c0,0.065-0.003,0.146-0.011,0.238
			c-0.041,0-0.083,0-0.118,0c-0.445,0-1.022,0.178-1.725,0.535c-0.707,0.357-1.246,0.736-1.619,1.135
			c-0.473,0.512-0.711,0.892-0.711,1.142s0.172,0.45,0.515,0.599c0.386,0.178,0.893,0.223,1.518,0.141
			c0.234-0.027,0.507-0.092,0.82-0.195c0.479-0.158,0.83-0.329,1.049-0.516c0.086-0.063,0.146-0.074,0.176-0.027
			c0.116,0.177,0.172,0.413,0.172,0.711C101.687,25.145,101.671,25.266,101.634,25.357z"/>
		<path fill="#FFFF00" d="M109.08,17.951c-0.049,0.214-0.123,0.543-0.218,0.988c-0.343,1.727-0.513,3.425-0.513,5.096
			c0,0.417,0.013,0.854,0.032,1.309c0,0.083,0.022,0.361,0.066,0.834c-0.21,0.131-0.437,0.196-0.678,0.196
			c-0.209,0-0.337-0.069-0.384-0.209c-0.041-0.14-0.085-0.521-0.129-1.142c-0.08-1.104-0.093-2.215-0.032-3.326
			c-0.35,0.119-0.878,0.223-1.585,0.305c-0.108,0.02-0.17,0.08-0.186,0.182c-0.028,0.455-0.044,0.887-0.044,1.295
			c0,0.845,0.073,1.728,0.22,2.646c-0.459,0.14-0.854,0.241-1.19,0.308c-0.247,0.047-0.453,0.068-0.61,0.068
			c-0.314,0-0.554-0.089-0.722-0.266c-0.263-0.27-0.463-0.937-0.6-2.004c-0.102-0.815-0.152-1.551-0.143-2.2l0.021-1.404
			c0.016-0.642,0.082-1.354,0.197-2.146c0.007-0.055,0.162-0.147,0.47-0.277c0.602-0.251,1.3-0.376,2.087-0.376
			c0.299,0,0.562,0.026,0.797,0.084c0.049,0.009,0.082,0.019,0.093,0.028c0.011,0.009,0.02,0.035,0.025,0.082
			c0.029,0.178-0.063,0.84-0.283,1.99l-0.142,0.766c0.443-0.192,0.91-0.301,1.398-0.319c0.203,0,0.313-0.051,0.326-0.153
			l0.317-2.214c0.029-0.192,0.062-0.375,0.098-0.542c0.038-0.009,0.069-0.019,0.1-0.027c0.487-0.056,0.865,0.033,1.134,0.265
			C109.063,17.832,109.088,17.889,109.08,17.951z"/>
		<path fill="#FFFF00" d="M117.229,25.636c-0.16,0.104-0.27,0.165-0.328,0.188c-0.057,0.023-0.164,0.072-0.317,0.146
			c-0.545,0.242-1.151,0.362-1.822,0.362c-0.561,0-0.932-0.098-1.114-0.293c-0.07-0.074-0.129-0.157-0.172-0.251
			c-0.082-0.185-0.189-0.437-0.32-0.751c-0.23-0.585-0.478-1.238-0.73-1.963c-0.009-0.037-0.021-0.074-0.043-0.111
			c-0.015-0.009-0.084-0.014-0.207-0.014l-1.06,0.042c-0.146,0.009-0.254,0.103-0.318,0.278c-0.443,1.262-0.708,2.264-0.797,3.006
			c-0.293,0.01-0.554-0.063-0.785-0.224c-0.176-0.118-0.248-0.271-0.219-0.459c0.027-0.13,0.056-0.254,0.077-0.377
			c0.153-0.704,0.425-1.562,0.817-2.573c0.256-0.649,0.539-1.31,0.853-1.978c0.045-0.082,0.05-0.167,0.022-0.251
			c-0.061-0.223-0.175-0.459-0.352-0.71c-0.159-0.222-0.238-0.349-0.238-0.375c0-0.019,0.007-0.037,0.021-0.056
			c1.07-0.659,2.197-1.17,3.385-1.531c0.051-0.02,0.092-0.02,0.121,0c0.027,0.009,0.131,0.135,0.305,0.376
			c0.482,0.659,1.043,1.715,1.688,3.166c0.646,1.452,1.115,2.741,1.414,3.862C117.189,25.453,117.229,25.617,117.229,25.636z
			 M111.986,22.002l-0.266-0.514c-0.008-0.021-0.023-0.053-0.042-0.098c-0.053-0.074-0.104-0.054-0.155,0.064
			c-0.203,0.475-0.315,0.744-0.337,0.809c0.001,0,0.001,0.006,0.001,0.018c0.018,0,0.031,0,0.046,0c0.071,0,0.193-0.014,0.36-0.042
			c0.064-0.009,0.164-0.027,0.294-0.056C111.996,22.155,112.029,22.096,111.986,22.002z"/>
		<path fill="#FFFF00" d="M122.131,24.939c0.023,0.177,0.014,0.344-0.021,0.502c-0.016,0.063-0.039,0.104-0.063,0.117
			c-0.028,0.014-0.092,0.03-0.187,0.049c-0.68,0.176-1.504,0.444-2.479,0.809l-0.229,0.083c-0.129,0.046-0.272,0.028-0.428-0.056
			c-0.209-0.104-0.516-0.26-0.916-0.475c-0.059-0.027-0.094-0.063-0.108-0.111c-0.029-0.082-0.054-0.186-0.068-0.307
			c-0.2-1.476-0.301-3.121-0.301-4.939c0-0.529,0.012-0.957,0.041-1.281c0.028-0.362,0.062-0.742,0.098-1.143
			c0.81-0.416,1.632-0.594,2.472-0.527c0.246,0.02,0.422,0.041,0.522,0.068c0.185,0.047,0.34,0.135,0.479,0.264
			c-0.334,1.543-0.584,3.203-0.75,4.984c-0.066,0.668-0.101,1.18-0.101,1.531c0,0.111,0.004,0.178,0.015,0.194
			c0.014,0.019,0.063,0.037,0.147,0.056c0.045,0.02,0.195,0.023,0.461,0.016c0.871-0.037,1.338-0.021,1.396,0.055
			C122.117,24.855,122.123,24.895,122.131,24.939z"/>
		<path fill="#FFFF00" d="M127.35,24.939c0.023,0.177,0.017,0.344-0.021,0.502c-0.015,0.063-0.033,0.104-0.063,0.117
			c-0.029,0.014-0.093,0.03-0.187,0.049c-0.677,0.176-1.502,0.444-2.479,0.809l-0.229,0.083c-0.129,0.046-0.272,0.028-0.425-0.056
			c-0.213-0.104-0.52-0.26-0.92-0.475c-0.057-0.027-0.094-0.063-0.108-0.111c-0.026-0.082-0.049-0.186-0.063-0.307
			c-0.203-1.476-0.306-3.121-0.306-4.939c0-0.529,0.015-0.957,0.043-1.281c0.027-0.362,0.063-0.742,0.097-1.143
			c0.811-0.416,1.631-0.594,2.471-0.527c0.248,0.02,0.422,0.041,0.521,0.068c0.186,0.047,0.346,0.135,0.483,0.264
			c-0.336,1.543-0.586,3.203-0.754,4.984c-0.066,0.668-0.099,1.18-0.099,1.531c0,0.111,0.004,0.178,0.015,0.194
			c0.012,0.019,0.061,0.037,0.147,0.056c0.043,0.02,0.197,0.023,0.459,0.016c0.873-0.037,1.34-0.021,1.396,0.055
			C127.336,24.855,127.342,24.895,127.35,24.939z"/>
		<path fill="#FFFF00" d="M133.98,21.209c-0.023,0.139-0.056,0.283-0.099,0.432l-1.399-0.084c-0.685-0.035-1.642,0.01-2.869,0.142
			c-0.031,0-0.117,0.014-0.266,0.041c-0.056,0.437-0.099,0.872-0.119,1.309c0.721-0.075,1.428-0.106,2.121-0.098
			c0.362,0,0.756,0.02,1.178,0.056c0.09,0,0.146,0.02,0.176,0.057c0.168,0.186,0.244,0.444,0.23,0.778
			c-0.009,0.121-0.045,0.183-0.111,0.183c-1.217-0.084-2.437-0.058-3.658,0.082c0,0.045-0.006,0.088-0.014,0.123
			c-0.021,0.469,0.067,0.767,0.266,0.895c0.051,0.037,0.141,0.057,0.271,0.057c0.354,0.008,0.807,0.008,1.346,0
			c0.66-0.029,1.357-0.01,2.096,0.055c0.334,0.027,0.535,0.089,0.6,0.182c0.123,0.177,0.183,0.38,0.176,0.611
			c-0.006,0.066-0.018,0.123-0.026,0.175c-0.012,0.051-0.058,0.077-0.14,0.077c-0.237-0.01-0.526-0.01-0.862,0l-3.154,0.098
			c-0.057,0-0.106-0.005-0.153-0.016c-0.24-0.036-0.51-0.131-0.808-0.284c-0.297-0.152-0.498-0.294-0.6-0.425
			c-0.104-0.129-0.166-0.299-0.187-0.502c-0.082-0.668-0.049-1.643,0.098-2.922c0.009-0.131,0.015-0.211,0.021-0.237
			c0.008-0.12-0.008-0.209-0.045-0.265c-0.094-0.057-0.199-0.121-0.316-0.193c-0.151-0.122-0.264-0.331-0.338-0.628
			c-0.123-0.511-0.156-1.279-0.1-2.312l0.023-0.348c0.086-0.027,0.162-0.051,0.229-0.07c0.641-0.186,1.5-0.255,2.578-0.208
			c0.656,0.037,1.352,0.13,2.09,0.278c0.74,0.148,1.221,0.297,1.449,0.445c0.27,0.176,0.402,0.682,0.402,1.518
			C134.066,20.596,134.037,20.932,133.98,21.209z"/>
		<path fill="#FFFF00" d="M141.461,18.355c-0.313,1.884-0.469,3.717-0.469,5.498c0,0.391,0.004,0.789,0.012,1.196
			c0.004,0.065,0.02,0.242,0.043,0.529c-0.83,0.491-1.701,0.752-2.609,0.778c-0.502,0.011-0.871-0.176-1.104-0.557
			c-0.512-1.002-0.984-2.027-1.422-3.076c-0.158,0.947-0.25,1.875-0.271,2.784c-0.008,0.185-0.004,0.371,0.012,0.558
			c0.015,0.24,0.021,0.353,0.021,0.334c0,0.027-0.063,0.027-0.186,0c-0.131-0.02-0.324-0.073-0.58-0.168
			c-0.197-0.103-0.297-0.319-0.305-0.653c-0.037-1.354,0.053-2.738,0.271-4.147l0.196-1.31c0-0.027-0.02-0.099-0.055-0.209
			c-0.08-0.261-0.149-0.558-0.207-0.892c0.109-0.082,0.283-0.203,0.523-0.36c0.334-0.214,0.785-0.404,1.35-0.572
			c0.563-0.166,1.068-0.25,1.514-0.25c0.146,0,0.275,0.011,0.392,0.028c0.052,0.01,0.086,0.025,0.101,0.05
			c0.014,0.022,0.033,0.094,0.055,0.215c0.012,0.065,0.01,0.521-0.012,1.364c-0.017,0.824,0.047,1.619,0.186,2.38
			c0.168,0.938,0.428,1.671,0.775,2.199c0.029,0.057,0.053,0.089,0.067,0.099c0.041-0.019,0.076-0.398,0.097-1.142
			c0.014-0.642,0.028-1.276,0.043-1.908c0.028-0.474,0.061-1.179,0.09-2.115c0-0.14,0-0.28,0-0.432
			c0.326-0.232,0.756-0.329,1.287-0.293c0.072,0.01,0.133,0.021,0.186,0.028C141.461,18.323,141.461,18.336,141.461,18.355z"/>
		<path fill="#FFFF00" d="M149.979,23.282c0.045,0.149,0.056,0.345,0.031,0.586c-0.014,0.241-0.053,0.44-0.117,0.599
			c-0.151,0.354-0.438,0.691-0.852,1.016c-0.35,0.271-0.707,0.47-1.07,0.6c-0.629,0.225-1.242,0.335-1.848,0.335
			c-1.084,0-2.117-0.344-3.102-1.028c-0.486-0.334-0.863-0.773-1.123-1.32c-0.14-0.287-0.207-0.594-0.207-0.918
			c0-0.906,0.438-1.806,1.317-2.694c1.152-1.179,2.517-1.974,4.084-2.392c0.507-0.129,0.9-0.189,1.193-0.182
			c0.063,0.01,0.129,0.047,0.194,0.11c0.271,0.271,0.513,0.774,0.722,1.518c0.213,0.742,0.309,1.407,0.297,1.991
			c-0.017,0.372-0.045,0.571-0.088,0.6c0,0.01-0.004,0.014-0.013,0.014c-1.856-0.057-3.321,0.269-4.391,0.97
			c-0.75,0.491-1.125,0.901-1.125,1.233c0,0.176,0.121,0.322,0.361,0.442c0.377,0.194,0.877,0.291,1.496,0.291
			c0.35,0,0.629-0.032,0.844-0.097c0.143-0.047,0.213-0.112,0.205-0.195c-0.053-0.371-0.174-0.603-0.373-0.695
			c-0.035-0.019-0.236-0.078-0.6-0.183c-0.189-0.045-0.283-0.104-0.283-0.181c0-0.057,0.063-0.104,0.195-0.139
			c0.096-0.02,0.225-0.047,0.393-0.084c0.693-0.129,1.449-0.219,2.271-0.266c0.522-0.035,1.018-0.041,1.477-0.014
			C149.934,23.209,149.973,23.236,149.979,23.282z"/>
		<path fill="#FFFF00" d="M156.814,21.209c-0.021,0.139-0.054,0.283-0.099,0.432l-1.397-0.084c-0.685-0.035-1.644,0.01-2.873,0.142
			c-0.027,0-0.117,0.014-0.264,0.041c-0.056,0.437-0.097,0.872-0.117,1.309c0.721-0.075,1.426-0.106,2.119-0.098
			c0.362,0,0.756,0.02,1.178,0.056c0.09,0,0.146,0.02,0.176,0.057c0.168,0.186,0.244,0.444,0.23,0.778
			c-0.011,0.121-0.045,0.183-0.109,0.183c-1.215-0.084-2.436-0.058-3.658,0.082c0,0.045-0.004,0.088-0.012,0.123
			c-0.021,0.469,0.063,0.767,0.264,0.895c0.051,0.037,0.139,0.057,0.27,0.057c0.359,0.008,0.808,0.008,1.345,0
			c0.661-0.029,1.36-0.01,2.098,0.055c0.334,0.027,0.537,0.089,0.599,0.182c0.129,0.177,0.184,0.38,0.178,0.611
			c-0.008,0.066-0.016,0.123-0.027,0.175c-0.01,0.051-0.057,0.077-0.135,0.077c-0.24-0.01-0.531-0.01-0.863,0l-3.156,0.098
			c-0.061,0-0.11-0.005-0.151-0.016c-0.24-0.036-0.509-0.131-0.81-0.284c-0.299-0.152-0.5-0.294-0.6-0.425
			c-0.105-0.129-0.164-0.299-0.188-0.502c-0.082-0.668-0.05-1.643,0.1-2.922c0.004-0.131,0.012-0.211,0.021-0.237
			c0.006-0.12-0.011-0.209-0.043-0.265c-0.099-0.057-0.203-0.121-0.32-0.193c-0.152-0.122-0.265-0.331-0.338-0.628
			c-0.123-0.511-0.156-1.279-0.097-2.312l0.021-0.348c0.09-0.027,0.166-0.051,0.229-0.07c0.64-0.186,1.498-0.255,2.578-0.208
			c0.654,0.037,1.351,0.13,2.088,0.278c0.742,0.148,1.224,0.297,1.451,0.445c0.271,0.176,0.403,0.682,0.403,1.518
			C156.904,20.596,156.873,20.932,156.814,21.209z"/>
		<path fill="#FFFF00" d="M169.516,21.209c-0.029,0.139-0.061,0.283-0.098,0.432l-1.408-0.084c-0.686-0.035-1.645,0.01-2.871,0.142
			c-0.031,0-0.121,0.018-0.266,0.055c-0.057,0.429-0.096,0.858-0.119,1.295c0.727-0.075,1.434-0.106,2.119-0.098
			c0.299,0,0.543,0.005,0.73,0.014c0.379,0.021,0.586,0.052,0.623,0.099c0.168,0.186,0.246,0.444,0.229,0.778
			c-0.008,0.121-0.045,0.183-0.108,0.183c-1.216-0.084-2.438-0.058-3.66,0.082c0,0.065-0.004,0.168-0.021,0.308
			c-0.037,0.455-0.049,0.845-0.035,1.169l0.022,0.668c0,0.047-0.016,0.084-0.049,0.111c-0.032,0.027-0.073,0.031-0.125,0.015
			c-0.401-0.093-0.672-0.228-0.809-0.403c-0.088-0.102-0.148-0.298-0.174-0.586c-0.031-0.25-0.033-0.719-0.014-1.404
			c0.016-0.697,0.053-1.28,0.11-1.754c0.007-0.131,0.013-0.211,0.021-0.237c0.006-0.12-0.011-0.203-0.044-0.25
			c-0.098-0.065-0.202-0.136-0.319-0.208c-0.149-0.122-0.265-0.326-0.338-0.613c-0.123-0.521-0.156-1.294-0.097-2.325l0.021-0.348
			c0.088-0.027,0.164-0.052,0.229-0.07c0.642-0.186,1.498-0.255,2.578-0.208c0.656,0.037,1.351,0.131,2.095,0.278
			c0.737,0.147,1.219,0.297,1.444,0.444c0.269,0.177,0.404,0.679,0.404,1.504C169.594,20.584,169.566,20.922,169.516,21.209z"/>
		<path fill="#FFFF00" d="M177.783,22.1c0.008,0.195-0.047,0.351-0.164,0.459c-0.342,0.344-1,0.711-1.977,1.103
			c-0.476,0.176-0.943,0.354-1.41,0.543h-0.01c1.334,0.631,2.334,1.233,3.004,1.81c-0.082,0.11-0.146,0.204-0.197,0.276
			c-0.154,0.196-0.332,0.293-0.533,0.293c-0.133,0-0.275-0.037-0.428-0.108c-0.195-0.133-0.558-0.351-1.08-0.656
			c-0.92-0.529-1.92-0.909-3.002-1.142l0.041,1.698c0,0.009,0,0.018,0,0.027c-0.01,0.009-0.025,0.015-0.055,0.015
			c-0.371-0.047-0.654-0.131-0.853-0.251c-0.147-0.093-0.228-0.256-0.25-0.486c-0.065-0.585-0.099-1.185-0.091-1.798
			c0.017-1.205,0.037-1.854,0.066-1.946c0.008-0.039,0.01-0.065,0.01-0.084l-0.194-0.236c-0.211-0.232-0.349-0.623-0.412-1.17
			c-0.088-0.809-0.123-1.619-0.103-2.438c0.008-0.146,0.07-0.227,0.187-0.234c0.729-0.047,1.428-0.028,2.099,0.055
			c0.573,0.064,1.194,0.203,1.854,0.418c0.644,0.195,1.155,0.404,1.541,0.626c0.217,0.121,0.432,0.315,0.646,0.585
			c0.385,0.475,0.689,0.951,0.914,1.434C177.639,21.408,177.768,21.813,177.783,22.1z M175.488,22.344
			c-0.021-0.023-0.072-0.059-0.152-0.104c-0.779-0.287-1.549-0.432-2.314-0.432c-0.364,0-0.649,0.022-0.85,0.068
			c-0.092,0.492-0.139,0.989-0.145,1.49c1.137,0.019,2.225-0.205,3.268-0.668c0.15-0.074,0.227-0.168,0.227-0.278
			C175.521,22.393,175.512,22.367,175.488,22.344z"/>
		<path fill="#FFFF00" d="M181.779,18.133c0,0.057-0.01,0.152-0.021,0.293c-0.299,1.994-0.518,4.01-0.656,6.041
			c-0.028,0.455-0.037,0.904-0.02,1.35l-0.1,0.043c-0.998,0.371-1.597,0.533-1.791,0.488c-0.183-0.039-0.33-0.233-0.447-0.586
			c-0.314-0.975-0.469-2.302-0.469-3.981c0-1.142,0.067-2.277,0.207-3.41c0.026-0.147,0.047-0.228,0.053-0.236l0.109-0.057
			c0.518-0.24,1.164-0.361,1.946-0.361c0.332,0,0.613,0.033,0.839,0.099c0.108,0.026,0.186,0.061,0.231,0.098
			C181.73,17.957,181.77,18.029,181.779,18.133z"/>
		<path fill="#FFFF00" d="M189.141,21.209c-0.021,0.139-0.055,0.283-0.098,0.432l-1.398-0.084c-0.684-0.035-1.643,0.01-2.875,0.142
			c-0.026,0-0.112,0.014-0.26,0.041c-0.059,0.437-0.1,0.872-0.121,1.309c0.721-0.075,1.428-0.106,2.119-0.098
			c0.365,0,0.758,0.02,1.18,0.056c0.09,0,0.146,0.02,0.174,0.057c0.171,0.186,0.246,0.444,0.232,0.778
			c-0.01,0.121-0.047,0.183-0.113,0.183c-1.215-0.084-2.434-0.058-3.655,0.082c0,0.045-0.002,0.088-0.015,0.123
			c-0.018,0.469,0.068,0.767,0.267,0.895c0.049,0.037,0.143,0.057,0.271,0.057c0.355,0.008,0.807,0.008,1.344,0
			c0.662-0.029,1.359-0.01,2.097,0.055c0.338,0.027,0.537,0.089,0.603,0.182c0.123,0.177,0.182,0.38,0.176,0.611
			c-0.008,0.066-0.019,0.123-0.029,0.175c-0.01,0.051-0.055,0.077-0.135,0.077c-0.238-0.01-0.529-0.01-0.865,0l-3.156,0.098
			c-0.057,0-0.109-0.005-0.15-0.016c-0.242-0.036-0.512-0.131-0.809-0.284c-0.297-0.152-0.498-0.294-0.6-0.425
			c-0.104-0.129-0.166-0.299-0.188-0.502c-0.077-0.668-0.047-1.643,0.101-2.922c0.008-0.131,0.014-0.211,0.021-0.237
			c0.008-0.12-0.008-0.209-0.045-0.265c-0.094-0.057-0.199-0.121-0.315-0.193c-0.154-0.122-0.265-0.331-0.338-0.628
			c-0.123-0.511-0.154-1.279-0.101-2.312l0.021-0.348c0.09-0.027,0.164-0.051,0.23-0.07c0.641-0.186,1.502-0.255,2.576-0.208
			c0.656,0.037,1.354,0.13,2.092,0.278c0.74,0.148,1.221,0.297,1.449,0.445c0.27,0.176,0.404,0.682,0.404,1.518
			C189.229,20.596,189.197,20.932,189.141,21.209z"/>
		<path fill="#FFFF00" d="M196.621,18.355c-0.313,1.884-0.469,3.717-0.469,5.498c0,0.391,0.002,0.789,0.008,1.196
			c0.008,0.065,0.023,0.242,0.047,0.529c-0.832,0.491-1.701,0.752-2.609,0.778c-0.506,0.011-0.871-0.176-1.104-0.557
			c-0.511-1.002-0.981-2.027-1.42-3.076c-0.16,0.947-0.253,1.875-0.271,2.784c-0.01,0.185-0.004,0.371,0.011,0.558
			c0.016,0.24,0.022,0.353,0.022,0.334c0,0.027-0.063,0.027-0.187,0c-0.131-0.02-0.325-0.073-0.58-0.168
			c-0.196-0.103-0.301-0.319-0.305-0.653c-0.037-1.354,0.055-2.738,0.271-4.147l0.197-1.31c0-0.027-0.021-0.099-0.058-0.209
			c-0.079-0.261-0.147-0.558-0.207-0.892c0.109-0.082,0.283-0.203,0.525-0.36c0.334-0.214,0.784-0.404,1.348-0.572
			c0.566-0.166,1.068-0.25,1.515-0.25c0.145,0,0.278,0.011,0.393,0.028c0.051,0.01,0.086,0.025,0.098,0.05
			c0.014,0.022,0.033,0.094,0.055,0.215c0.015,0.065,0.013,0.521-0.012,1.364c-0.014,0.824,0.049,1.619,0.187,2.38
			c0.168,0.938,0.426,1.671,0.776,2.199c0.029,0.057,0.054,0.089,0.064,0.099c0.045-0.019,0.076-0.398,0.1-1.142
			c0.015-0.642,0.029-1.276,0.043-1.908c0.029-0.474,0.058-1.179,0.088-2.115c0-0.14,0-0.28,0-0.432
			c0.328-0.232,0.759-0.329,1.289-0.293c0.072,0.01,0.133,0.021,0.187,0.028C196.621,18.323,196.621,18.336,196.621,18.355z"/>
		<path fill="#FFFF00" d="M205.369,23.506c0,0.334-0.154,0.659-0.459,0.975c-0.334,0.345-0.863,0.688-1.586,1.03
			c-0.719,0.343-1.41,0.589-2.072,0.737c-0.541,0.111-1.078,0.168-1.615,0.168c-0.461,0-0.754-0.047-0.885-0.141
			c-0.482-0.342-0.762-0.621-0.842-0.834c-0.029-0.094-0.074-0.32-0.135-0.684c-0.055-0.438-0.105-1.048-0.14-1.837
			c0-0.194-0.006-0.427-0.012-0.696c-0.035-0.056-0.09-0.144-0.164-0.265c-0.203-0.344-0.305-0.971-0.305-1.879
			c0-0.271,0.012-0.565,0.032-0.892c0-0.231,0.002-0.461,0.011-0.684c0.028-0.306,0.102-0.463,0.217-0.473
			c0.612-0.084,1.271-0.078,1.979,0.014c2.028,0.25,3.539,0.91,4.52,1.977c0.264,0.289,0.566,0.832,0.908,1.631
			C205.188,22.49,205.369,23.107,205.369,23.506z M203.271,23.604c-0.14-0.354-0.72-0.649-1.748-0.893
			c-0.83-0.193-1.494-0.286-1.998-0.277c-0.277,0.01-0.426,0.016-0.449,0.016c-0.043-0.01-0.078-0.01-0.107,0
			c-0.045,0.035-0.059,0.369-0.045,1.001c0.014,0.528,0.033,0.903,0.057,1.128c0.021,0.223,0.058,0.412,0.109,0.57
			c0.324,0.074,0.623,0.11,0.885,0.11c0.523,0,1.082-0.092,1.676-0.278c0.593-0.186,1.062-0.412,1.402-0.682
			c0.176-0.13,0.262-0.292,0.262-0.488C203.314,23.738,203.301,23.668,203.271,23.604z"/>
		<path fill="#FFFF00" d="M213.066,24.912c-0.064,0.4-0.338,0.729-0.816,0.988c-0.768,0.397-1.811,0.599-3.139,0.599
			c-1.322,0-2.31-0.19-2.957-0.571c-0.197-0.111-0.262-0.33-0.197-0.654c0.016-0.092,0.037-0.223,0.066-0.39
			c1.125,0.232,2.153,0.349,3.078,0.349c0.987,0,1.766-0.139,2.325-0.416c0.16-0.075,0.24-0.178,0.24-0.308
			c0-0.315-0.778-0.474-2.349-0.474c-0.641,0-1.231,0.018-1.778,0.057c-0.451,0.026-0.858,0.014-1.224-0.043
			c-0.424-0.064-0.633-0.631-0.633-1.697c0-0.576,0.101-1.151,0.305-1.727c0.109-0.307,0.306-0.595,0.591-0.863
			c0.485-0.465,1.178-0.892,2.075-1.281c0.97-0.418,1.808-0.627,2.523-0.627c0.156,0,0.303,0.011,0.436,0.028
			c0.105,0.021,0.22,0.116,0.326,0.292c0.162,0.232,0.31,0.59,0.438,1.072c0.108,0.428,0.179,0.803,0.209,1.127
			c0.006,0.094,0.013,0.204,0.021,0.336c0,0.109-0.045,0.18-0.142,0.208c-0.896,0.231-1.836,0.548-2.817,0.946
			c-0.599,0.25-1.09,0.511-1.476,0.779c-0.078,0.057-0.119,0.106-0.119,0.152s0.05,0.07,0.152,0.07
			c0.116-0.01,0.187-0.021,0.209-0.028c0.174-0.037,0.633-0.046,1.373-0.028c1.516,0.037,2.463,0.248,2.84,0.627
			c0.308,0.307,0.461,0.696,0.461,1.17C213.09,24.707,213.082,24.811,213.066,24.912z"/>
		<path fill="#FFFF00" d="M219.422,15.434c-0.246,0.975-0.52,2.06-0.82,3.256c-0.262,1.123-0.473,2.158-0.633,3.105
			c-0.051,0.342-0.098,0.688-0.141,1.029c-0.014,0.027-0.234,0.042-0.656,0.042c-0.555,0-1.064-0.089-1.541-0.267
			c-0.311-0.109-0.578-0.398-0.795-0.861c-0.191-0.398-0.338-0.813-0.447-1.239c-0.258-1.03-0.445-2.005-0.568-2.923
			c-0.045-0.381-0.092-0.785-0.145-1.211c-0.014-0.104-0.023-0.25-0.031-0.445c0.322-0.168,0.531-0.271,0.635-0.307
			c0.08-0.037,0.195-0.084,0.351-0.139c0.851-0.309,1.681-0.461,2.488-0.461c0.715,0,1.442,0.115,2.184,0.35
			C219.369,15.382,219.408,15.404,219.422,15.434z M218.494,24.66c0.035,0.122,0.055,0.247,0.055,0.377
			c0,0.261-0.072,0.492-0.219,0.695c-0.094,0.131-0.148,0.201-0.162,0.209c-0.039,0.047-0.096,0.089-0.176,0.125
			c-0.51,0.252-1.006,0.377-1.486,0.377c-0.225,0-0.459-0.027-0.699-0.084c-0.291-0.058-0.547-0.164-0.762-0.321
			c-0.338-0.233-0.506-0.532-0.506-0.896c0-0.412,0.143-0.72,0.428-0.925c0.547-0.382,0.973-0.563,1.277-0.545
			c0.096,0,0.201-0.014,0.316-0.043C217.623,23.594,218.27,23.938,218.494,24.66z"/>
	</g>
	<g>
		<path fill="#FFFFFF" d="M13.796,11.847c-0.147,0.246-0.621,0.504-1.421,0.775s-1.617,0.443-2.454,0.517
			c-0.442,0.049-0.886,0.074-1.328,0.074c-1.452,0-2.726-0.209-3.82-0.627c-1.181-0.443-1.913-1.058-2.196-1.845
			c-0.086-0.258-0.129-0.547-0.129-0.867c0-0.677,0.172-1.433,0.517-2.27c0.443-1.097,1.125-2.099,2.048-3.01
			c0.886-0.861,1.888-1.556,3.008-2.085C9.226,1.955,10.5,1.592,11.84,1.42c0.062,0,0.099,0.006,0.111,0.019
			c0.578,0.554,1.045,1.316,1.402,2.288c0.319,0.936,0.461,1.821,0.425,2.658c0,0.086-0.007,0.191-0.019,0.313
			c-0.074,0-0.142,0-0.203,0c-0.751,0-1.723,0.237-2.916,0.71C9.448,7.882,8.538,8.383,7.91,8.912
			c-0.8,0.677-1.199,1.181-1.199,1.514c0,0.332,0.289,0.597,0.867,0.793c0.652,0.234,1.507,0.295,2.565,0.185
			c0.394-0.037,0.854-0.123,1.384-0.259c0.813-0.209,1.402-0.437,1.771-0.683c0.147-0.086,0.246-0.098,0.296-0.037
			c0.196,0.233,0.295,0.547,0.295,0.941C13.889,11.563,13.858,11.724,13.796,11.847z"/>
		<path fill="#FFFFFF" d="M26.382,2.029c-0.087,0.283-0.21,0.72-0.369,1.311c-0.579,2.288-0.867,4.54-0.867,6.754
			c0,0.554,0.018,1.132,0.055,1.735c0,0.111,0.037,0.479,0.111,1.107c-0.357,0.172-0.738,0.259-1.145,0.259
			c-0.356,0-0.572-0.092-0.646-0.277s-0.148-0.689-0.222-1.513c-0.136-1.464-0.154-2.936-0.056-4.411
			c-0.59,0.16-1.482,0.295-2.676,0.406c-0.185,0.025-0.289,0.105-0.313,0.24c-0.05,0.603-0.074,1.175-0.074,1.716
			c0,1.12,0.123,2.288,0.369,3.506c-0.774,0.185-1.445,0.32-2.011,0.406c-0.419,0.062-0.764,0.092-1.034,0.092
			c-0.528,0-0.935-0.117-1.218-0.351c-0.442-0.357-0.781-1.243-1.015-2.658C15.1,9.27,15.02,8.297,15.033,7.436l0.037-1.864
			c0.024-0.849,0.135-1.796,0.332-2.842c0.012-0.074,0.277-0.197,0.794-0.369c1.021-0.333,2.195-0.499,3.524-0.499
			c0.504,0,0.953,0.037,1.347,0.111c0.086,0.012,0.139,0.025,0.157,0.037c0.018,0.012,0.034,0.049,0.046,0.11
			c0.049,0.234-0.11,1.114-0.479,2.639l-0.24,1.015c0.751-0.259,1.538-0.4,2.362-0.425c0.345,0,0.529-0.067,0.554-0.203l0.535-2.935
			c0.049-0.258,0.104-0.498,0.166-0.72c0.062-0.012,0.117-0.024,0.166-0.037c0.824-0.074,1.464,0.043,1.919,0.351
			C26.351,1.869,26.394,1.943,26.382,2.029z"/>
		<path fill="#FFFFFF" d="M40.149,12.215c-0.271,0.136-0.455,0.219-0.554,0.25c-0.099,0.031-0.276,0.095-0.535,0.194
			c-0.923,0.32-1.95,0.479-3.081,0.479c-0.948,0-1.575-0.129-1.883-0.387c-0.123-0.099-0.222-0.209-0.295-0.333
			c-0.136-0.246-0.314-0.578-0.535-0.997c-0.395-0.775-0.807-1.642-1.236-2.602c-0.013-0.049-0.037-0.098-0.074-0.147
			c-0.024-0.012-0.142-0.019-0.351-0.019l-1.79,0.056c-0.246,0.012-0.425,0.135-0.535,0.369c-0.751,1.673-1.199,3.002-1.347,3.986
			c-0.492,0.012-0.936-0.086-1.329-0.295c-0.295-0.16-0.418-0.363-0.369-0.609c0.049-0.172,0.093-0.338,0.129-0.498
			c0.259-0.935,0.72-2.073,1.385-3.414c0.43-0.861,0.91-1.735,1.439-2.621c0.073-0.111,0.086-0.221,0.036-0.332
			C29.125,5,28.929,4.687,28.634,4.354c-0.271-0.295-0.406-0.461-0.406-0.498c0-0.024,0.012-0.049,0.037-0.074
			c1.809-0.874,3.715-1.55,5.721-2.03c0.086-0.025,0.153-0.025,0.203,0c0.049,0.012,0.221,0.178,0.517,0.498
			c0.812,0.874,1.762,2.273,2.851,4.198c1.089,1.926,1.886,3.632,2.39,5.121C40.082,11.976,40.149,12.191,40.149,12.215z
			 M31.292,7.399l-0.448-0.683c-0.013-0.024-0.037-0.067-0.075-0.129c-0.087-0.098-0.174-0.069-0.261,0.087
			c-0.342,0.629-0.531,0.987-0.568,1.073c0.004,0,0.005,0.007,0.005,0.021c0.024,0,0.05,0,0.074,0c0.123,0,0.326-0.019,0.609-0.055
			c0.11-0.012,0.276-0.037,0.498-0.074C31.31,7.602,31.365,7.522,31.292,7.399z"/>
		<path fill="#FFFFFF" d="M53.325,8.396c-0.431,1.427-1.305,2.627-2.621,3.599c-1.316,0.972-2.725,1.464-4.226,1.476
			c-1.513,0.012-2.94-0.47-4.281-1.448c-1.341-0.978-2.227-2.188-2.657-3.627c-0.123-0.578-0.11-1.125,0.037-1.642
			c0.246-0.923,0.873-1.87,1.882-2.842c1.009-0.972,2.018-1.605,3.026-1.9c0.628-0.185,1.273-0.277,1.938-0.277
			c0.677,0,1.329,0.092,1.956,0.277c1.009,0.295,2.018,0.929,3.027,1.9c1.008,0.972,1.636,1.919,1.882,2.842
			C53.435,7.27,53.448,7.817,53.325,8.396z M47.789,9.946c0-0.542-0.136-1.002-0.406-1.384c-0.271-0.381-0.591-0.572-0.96-0.572
			c-0.381,0-0.704,0.191-0.969,0.572c-0.265,0.382-0.396,0.843-0.396,1.384c0,0.541,0.132,1.003,0.396,1.384
			c0.265,0.382,0.588,0.572,0.969,0.572c0.369,0,0.689-0.19,0.96-0.572C47.653,10.949,47.789,10.487,47.789,9.946z"/>
		<path fill="#FFFFFF" d="M66.519,11.256c-0.11,0.529-0.571,0.966-1.384,1.311c-1.292,0.529-3.057,0.793-5.296,0.793
			c-2.239,0-3.906-0.252-5.001-0.757c-0.332-0.147-0.443-0.437-0.332-0.867c0.024-0.123,0.062-0.295,0.11-0.517
			c1.907,0.308,3.642,0.461,5.204,0.461c1.673,0,2.983-0.184,3.931-0.553c0.271-0.099,0.406-0.234,0.406-0.406
			c0-0.418-1.323-0.627-3.968-0.627c-1.083,0-2.085,0.025-3.008,0.074c-0.764,0.037-1.452,0.019-2.067-0.055
			c-0.714-0.086-1.07-0.836-1.07-2.251c0-0.763,0.173-1.525,0.517-2.288c0.185-0.406,0.517-0.787,0.997-1.144
			c0.824-0.615,1.993-1.181,3.506-1.698C60.7,2.177,62.122,1.9,63.327,1.9c0.271,0,0.517,0.012,0.738,0.037
			c0.185,0.024,0.369,0.154,0.554,0.387c0.271,0.308,0.517,0.781,0.738,1.421c0.185,0.566,0.302,1.064,0.351,1.495
			c0.012,0.123,0.024,0.271,0.037,0.443c0,0.147-0.08,0.24-0.24,0.276c-1.513,0.308-3.101,0.726-4.761,1.255
			c-1.009,0.333-1.84,0.677-2.491,1.034C58.117,8.322,58.05,8.39,58.05,8.451s0.086,0.092,0.258,0.092
			c0.197-0.012,0.314-0.025,0.351-0.037c0.296-0.049,1.07-0.062,2.325-0.037c2.56,0.049,4.158,0.326,4.799,0.831
			c0.517,0.406,0.774,0.923,0.774,1.55C66.556,10.985,66.544,11.121,66.519,11.256z"/>
		<path fill="#FFFFFF" d="M22.775,26.789c-0.837,0.38-1.839,0.57-3.008,0.57c-1.083,0-1.95-0.135-2.603-0.404
			c-0.147-0.063-0.295-0.129-0.442-0.203c-0.013-0.012-0.019-0.029-0.019-0.055c0-2.393-0.197-4.281-0.591-5.668
			c-0.024-0.098-0.062-0.146-0.11-0.146c-0.173,0-0.431,0.541-0.775,1.623c-0.345,1.083-0.671,2.399-0.978,3.949
			c-0.013,0.086-0.05,0.191-0.111,0.314c-0.147,0.086-0.522,0.189-1.125,0.313c-0.948,0.195-1.655,0.246-2.122,0.146
			c-0.173-0.037-0.309-0.153-0.406-0.351c-0.037-0.086-0.332-0.989-0.886-2.713c-0.173-0.491-0.395-1.119-0.665-1.882
			c-0.036-0.1-0.067-0.166-0.092-0.203c-0.013,0.012-0.154,0.357-0.425,1.033c-0.492,1.305-0.787,2.646-0.886,4.022
			c-0.012,0.023-0.049,0.037-0.11,0.037c-0.578,0.013-1.033-0.104-1.365-0.353c-0.111-0.086-0.16-0.221-0.148-0.405
			c0.074-1.709,0.271-3.356,0.591-4.945c0.147-0.614,0.369-1.536,0.664-2.768c0.013-0.05-0.062-0.308-0.221-0.775L6.776,17.41
			c0.442-0.383,1.187-0.715,2.232-0.997c1.046-0.282,1.95-0.394,2.713-0.332c0.185,0.013,0.344,0.037,0.479,0.074
			c0.185,0.036,0.603,1.155,1.255,3.358c0.086,0.368,0.252,0.922,0.498,1.66l1.163-3.248c0.123-0.32,0.142-0.652,0.056-0.996
			c0.061-0.024,0.122-0.049,0.185-0.074c0.517-0.232,1.257-0.434,2.224-0.6c0.965-0.166,1.854-0.249,2.666-0.249
			c0.332,0,0.603,0.013,0.813,0.036c0,0.025,0.019,0.107,0.055,0.25c0.037,0.141,0.147,0.801,0.332,1.98
			c0.32,1.965,0.671,3.961,1.053,5.985C22.646,25.1,22.738,25.941,22.775,26.789z"/>
		<path fill="#FFFFFF" d="M37.188,22.396c-0.431,1.427-1.305,2.627-2.621,3.599c-1.316,0.973-2.725,1.464-4.226,1.478
			c-1.513,0.012-2.94-0.472-4.281-1.449c-1.341-0.979-2.227-2.188-2.657-3.627c-0.123-0.578-0.11-1.125,0.037-1.642
			c0.246-0.924,0.873-1.871,1.882-2.843c1.009-0.973,2.018-1.605,3.026-1.9c0.628-0.185,1.273-0.275,1.938-0.275
			c0.677,0,1.329,0.092,1.956,0.275c1.009,0.295,2.018,0.93,3.027,1.9c1.008,0.972,1.636,1.919,1.882,2.843
			C37.298,21.27,37.311,21.816,37.188,22.396z M31.652,23.945c0-0.541-0.136-1.002-0.406-1.385c-0.271-0.381-0.591-0.57-0.96-0.57
			c-0.381,0-0.704,0.189-0.969,0.57c-0.265,0.383-0.396,0.844-0.396,1.385s0.132,1.004,0.396,1.385
			c0.264,0.381,0.588,0.572,0.969,0.572c0.369,0,0.689-0.191,0.96-0.572S31.652,24.486,31.652,23.945z"/>
		<path fill="#FFFFFF" d="M51.49,23.393c0,0.442-0.259,0.873-0.775,1.291c-0.566,0.455-1.458,0.911-2.676,1.365
			c-1.218,0.456-2.387,0.782-3.507,0.979c-0.91,0.148-1.82,0.223-2.73,0.223c-0.775,0-1.273-0.063-1.495-0.186
			c-0.812-0.455-1.286-0.823-1.421-1.106c-0.049-0.123-0.123-0.424-0.222-0.903c-0.099-0.578-0.179-1.391-0.239-2.437
			c0-0.259-0.007-0.566-0.019-0.923c-0.063-0.073-0.154-0.19-0.277-0.352c-0.345-0.455-0.517-1.285-0.517-2.49
			c0-0.356,0.019-0.752,0.056-1.182c0-0.308,0.006-0.609,0.019-0.904c0.049-0.406,0.172-0.615,0.369-0.627
			c1.033-0.11,2.146-0.104,3.34,0.019c3.433,0.332,5.979,1.206,7.64,2.621c0.443,0.381,0.953,1.101,1.532,2.157
			C51.181,22.045,51.49,22.863,51.49,23.393z M47.946,23.521c-0.233-0.469-1.218-0.861-2.952-1.183
			c-1.402-0.258-2.528-0.381-3.377-0.369c-0.468,0.013-0.72,0.021-0.757,0.021c-0.074-0.014-0.136-0.014-0.185,0
			c-0.074,0.049-0.099,0.492-0.074,1.328c0.025,0.701,0.056,1.199,0.093,1.494c0.037,0.295,0.099,0.549,0.185,0.758
			c0.554,0.098,1.052,0.146,1.495,0.146c0.886,0,1.829-0.122,2.832-0.368s1.793-0.548,2.371-0.904
			c0.296-0.172,0.443-0.387,0.443-0.646C48.02,23.699,47.996,23.607,47.946,23.521z"/>
		<path fill="#FFFFFF" d="M62.58,20.348c-0.037,0.185-0.092,0.375-0.166,0.572l-2.362-0.111c-1.156-0.049-2.774,0.012-4.854,0.186
			c-0.049,0-0.196,0.02-0.442,0.056c-0.099,0.578-0.166,1.156-0.203,1.734c1.218-0.099,2.411-0.142,3.58-0.129
			c0.615,0,1.279,0.024,1.993,0.073c0.147,0,0.246,0.023,0.295,0.073c0.283,0.246,0.412,0.591,0.388,1.033
			c-0.013,0.16-0.074,0.239-0.185,0.239c-2.055-0.109-4.115-0.073-6.182,0.109c0,0.062-0.007,0.116-0.019,0.164
			c-0.037,0.62,0.11,1.016,0.442,1.186c0.086,0.049,0.24,0.072,0.462,0.072c0.603,0.014,1.358,0.014,2.27,0
			c1.119-0.035,2.3-0.012,3.543,0.074c0.565,0.036,0.904,0.116,1.015,0.239c0.209,0.233,0.308,0.505,0.296,0.813
			c-0.013,0.086-0.028,0.162-0.047,0.229c-0.018,0.068-0.095,0.103-0.23,0.103c-0.405-0.013-0.892-0.013-1.458,0l-5.333,0.129
			c-0.099,0-0.185-0.006-0.258-0.019c-0.406-0.05-0.861-0.176-1.366-0.379c-0.504-0.203-0.843-0.392-1.015-0.563
			c-0.173-0.172-0.276-0.395-0.313-0.664c-0.136-0.887-0.08-2.178,0.166-3.875c0.012-0.172,0.024-0.276,0.037-0.313
			c0.012-0.16-0.013-0.276-0.074-0.351c-0.16-0.074-0.339-0.16-0.535-0.26c-0.259-0.16-0.449-0.437-0.572-0.83
			c-0.209-0.676-0.265-1.696-0.166-3.063l0.037-0.462c0.147-0.036,0.276-0.065,0.388-0.092c1.082-0.246,2.534-0.339,4.354-0.277
			c1.107,0.05,2.285,0.173,3.534,0.369s2.063,0.396,2.445,0.592c0.455,0.232,0.683,0.903,0.683,2.011
			C62.727,19.535,62.678,19.979,62.58,20.348z"/>
	</g>
</g>
</svg>
