<?xml version="1.0" encoding="utf-8"?>
<!-- Generator: Adobe Illustrator 13.0.0, SVG Export Plug-In . SVG Version: 6.00 Build 14948)  -->
<!DOCTYPE svg PUBLIC "-//W3C//DTD SVG 1.1//EN" "http://www.w3.org/Graphics/SVG/1.1/DTD/svg11.dtd">
<svg version="1.1" id="Livello_1" xmlns="http://www.w3.org/2000/svg" xmlns:xlink="http://www.w3.org/1999/xlink" x="0px" y="0px"
	 width="224px" height="28px" viewBox="0 0 224 28" enable-background="new 0 0 224 28" xml:space="preserve">
<g>
	<path fill="#FFFFFF" d="M49.601,21.18c-0.203,1.135-1.167,2.057-2.89,2.769c-2.718,1.114-6.408,1.674-11.072,1.674
		c-4.684,0-8.172-0.527-10.463-1.582c-0.528-0.243-0.791-0.699-0.791-1.368c0-0.162,0.02-0.322,0.061-0.484
		c0.061-0.244,0.142-0.588,0.243-1.035c4.015,0.629,7.655,0.941,10.92,0.941c3.487,0,6.225-0.385,8.212-1.154
		c0.567-0.225,0.852-0.519,0.852-0.881c0-0.648-1.257-1.057-3.771-1.22c-0.69-0.063-2.21-0.091-4.563-0.091
		c-2.251,0-4.34,0.051-6.266,0.15c-1.602,0.08-3.042,0.053-4.319-0.092c-1.501-0.184-2.251-1.754-2.251-4.715
		c0-1.582,0.365-3.184,1.095-4.806c0.385-0.831,1.075-1.622,2.068-2.373c1.723-1.277,4.167-2.464,7.331-3.559
		c3.427-1.156,6.408-1.734,8.943-1.734c0.547,0,1.064,0.03,1.551,0.091c0.365,0.041,0.75,0.304,1.156,0.791
		c0.547,0.628,1.054,1.623,1.521,2.98c0.385,1.176,0.628,2.221,0.73,3.133c0.041,0.243,0.071,0.547,0.091,0.912
		c0.02,0.304-0.142,0.498-0.486,0.578c-3.164,0.649-6.489,1.531-9.977,2.646c-2.129,0.689-3.863,1.399-5.201,2.129
		c-0.304,0.163-0.457,0.306-0.457,0.427c0,0.145,0.193,0.202,0.578,0.183c0.405-0.021,0.633-0.033,0.685-0.046
		c0.05-0.01,0.836-0.028,2.357-0.062c1.521-0.03,2.373-0.034,2.555-0.015c5.354,0.102,8.689,0.679,10.007,1.732
		c1.095,0.853,1.643,1.928,1.643,3.225C49.692,20.611,49.662,20.895,49.601,21.18z"/>
	<path fill="#FFFFFF" d="M69.189,20.053c-0.061,0.365-0.375,1.004-0.943,1.916c-0.973,1.563-1.957,2.547-2.951,2.951
		c-0.406,0.162-0.821,0.243-1.247,0.243c-0.973,0-1.947-0.375-2.92-1.126c-0.872-0.669-1.551-1.46-2.038-2.372
		c-0.264-0.485-0.538-1.125-0.821-1.916c-0.223-0.588-0.355-0.872-0.395-0.853c-0.873,0.894-1.988,2.008-3.346,3.347
		c-0.264,0.243-0.365,0.536-0.304,0.882c0.102,0.589,0.203,1.105,0.304,1.553c0.081,0.404,0.071,0.639-0.03,0.698
		c-0.264,0.122-0.588,0.183-0.974,0.183c-0.75,0-1.349-0.162-1.794-0.485c-0.203-0.161-0.325-0.386-0.365-0.671
		c-0.507-3.346-0.761-6.336-0.761-8.973c0-2.818,0.284-5.719,0.852-8.7c0.081-0.02,0.213-0.061,0.396-0.122
		c0.284-0.081,0.598-0.122,0.943-0.122c0.852,0,1.511,0.163,1.978,0.487c0.081,0.061,0.111,0.183,0.091,0.365
		c-0.223,1.704-0.396,3.519-0.517,5.445c0.041,0.041,0.102,0.071,0.183,0.091l1.156-0.974c2.778-2.392,6.043-4.451,9.794-6.174
		c0.385-0.183,0.852-0.354,1.399-0.517c0.243-0.061,0.436,0.01,0.578,0.213c0.527,0.791,0.791,1.977,0.791,3.559
		c0,0.467-0.03,0.923-0.091,1.369c-0.081,0.69-0.239,1.364-0.472,2.023s-0.451,1.029-0.654,1.11
		c-1.805,0.893-2.839,1.41-3.104,1.551c-1.805,0.894-2.717,1.43-2.737,1.612c0.162,0.852,0.446,1.805,0.852,2.856
		c0.506,1.277,0.993,2.119,1.46,2.522c0.162,0.144,0.334,0.185,0.517,0.121c0.324-0.102,0.725-0.41,1.202-0.928
		c0.476-0.518,0.856-1.06,1.141-1.627c0.081-0.203,0.182-0.406,0.304-0.609c0.669-0.061,1.267,0.021,1.794,0.244
		C68.986,19.455,69.23,19.729,69.189,20.053z"/>
	<path fill="#FFFFFF" d="M92.458,22.852c0,0.063-0.106,0.151-0.319,0.273c-0.213,0.122-0.553,0.314-1.019,0.578
		c-1.764,0.934-3.204,1.449-4.319,1.551c-0.994,0.122-1.673,0.071-2.038-0.15c-0.812-0.426-1.43-1.521-1.855-3.285l-0.091,0.063
		c-1.906,1.698-3.315,2.741-4.228,3.129c-0.75,0.327-1.247,0.479-1.491,0.46c-1.075-0.102-2.408-0.763-4-1.981
		c-1.592-1.219-2.55-2.277-2.875-3.174c-0.122-0.365-0.244-0.822-0.365-1.373c-0.142-0.69-0.213-1.627-0.213-2.81
		c0-2.665,0.274-5.025,0.821-7.08c0.142-0.508,0.284-0.956,0.426-1.342c0.102-0.264,0.765-0.483,1.993-0.656
		c1.227-0.173,2.509-0.229,3.848-0.168c1.419,0.041,2.544,0.112,3.376,0.213c0.771,0.102,1.156,0.315,1.156,0.64
		c0,0.122-0.021,0.264-0.061,0.427c-0.243,0.67-0.608,1.667-1.095,2.987c-0.953,2.601-1.511,5.205-1.673,7.802
		c-0.081,1.179-0.021,2.012,0.183,2.499c0.122,0.305,0.345,0.354,0.669,0.151c1.257-0.75,2.291-1.664,3.103-2.736l-0.031-0.334
		c-0.142-1.399-0.213-2.893-0.213-4.472c0-1.886,0.091-3.082,0.274-3.589c0.183-0.507,0.517-0.892,1.004-1.156
		c1.622-0.912,3.426-1.571,5.414-1.977c2.291-0.486,3.437-0.639,3.437-0.456c0,0.122,0.01,0.243,0.03,0.365
		c-0.061,0.852-0.162,2.525-0.304,5.019c-0.061,1.034-0.091,2.048-0.091,3.042C91.911,17.701,92.093,20.216,92.458,22.852z"/>
	<path fill="#FFFFFF" d="M108.062,22.061c0.061,0.388,0.041,0.75-0.061,1.098c-0.041,0.143-0.102,0.229-0.183,0.259
		c-0.082,0.028-0.254,0.063-0.517,0.104c-1.886,0.388-4.188,0.976-6.905,1.766l-0.639,0.186c-0.365,0.102-0.76,0.061-1.187-0.121
		c-0.588-0.227-1.44-0.568-2.555-1.035c-0.163-0.063-0.264-0.144-0.304-0.242c-0.082-0.184-0.142-0.406-0.183-0.67
		c-0.568-3.225-0.852-6.823-0.852-10.798c0-1.156,0.041-2.088,0.122-2.798c0.081-0.791,0.172-1.622,0.274-2.494
		c2.25-0.913,4.542-1.297,6.874-1.156c0.689,0.041,1.176,0.091,1.46,0.152c0.507,0.102,0.953,0.294,1.338,0.578
		c-0.933,3.366-1.632,6.996-2.099,10.889c-0.183,1.459-0.274,2.574-0.274,3.347c0,0.241,0.015,0.386,0.046,0.426
		c0.03,0.041,0.167,0.082,0.411,0.122c0.122,0.041,0.547,0.053,1.277,0.03c2.434-0.081,3.731-0.04,3.894,0.12
		C108.021,21.878,108.042,21.959,108.062,22.061z"/>
	<path fill="#FFFFFF" d="M122.602,22.061c0.063,0.388,0.041,0.75-0.062,1.098c-0.041,0.143-0.103,0.229-0.183,0.259
		c-0.082,0.028-0.254,0.063-0.52,0.104c-1.886,0.388-4.188,0.976-6.904,1.766l-0.639,0.186c-0.365,0.102-0.76,0.061-1.188-0.121
		c-0.588-0.227-1.439-0.568-2.554-1.035c-0.163-0.063-0.264-0.144-0.304-0.242c-0.082-0.184-0.142-0.406-0.183-0.67
		c-0.568-3.225-0.852-6.823-0.852-10.798c0-1.156,0.041-2.088,0.122-2.798c0.081-0.791,0.172-1.622,0.274-2.494
		c2.25-0.913,4.542-1.297,6.875-1.156c0.688,0.041,1.177,0.091,1.459,0.152c0.509,0.102,0.953,0.294,1.341,0.578
		c-0.935,3.366-1.634,6.996-2.101,10.889c-0.184,1.459-0.272,2.574-0.272,3.347c0,0.241,0.016,0.386,0.046,0.426
		c0.029,0.041,0.167,0.082,0.41,0.122c0.122,0.041,0.548,0.053,1.275,0.03c2.436-0.081,3.73-0.04,3.896,0.12
		C122.561,21.878,122.581,21.959,122.602,22.061z"/>
	<path fill="#FFFFFF" d="M144.318,17.285c-0.709,2.354-2.148,4.328-4.318,5.931s-4.492,2.413-6.966,2.435
		c-2.494,0.021-4.847-0.773-7.058-2.389c-2.209-1.613-3.67-3.604-4.379-5.977c-0.203-0.953-0.186-1.855,0.061-2.707
		c0.404-1.521,1.439-3.083,3.103-4.685c1.664-1.602,3.326-2.646,4.988-3.133c1.034-0.304,2.101-0.457,3.194-0.457
		c1.115,0,2.188,0.152,3.224,0.457c1.663,0.486,3.326,1.531,4.989,3.133c1.662,1.602,2.695,3.164,3.103,4.685
		C144.502,15.43,144.521,16.332,144.318,17.285z M135.193,19.84c0-0.893-0.224-1.652-0.67-2.281
		c-0.445-0.627-0.975-0.939-1.58-0.939c-0.629,0-1.161,0.313-1.599,0.939c-0.438,0.629-0.653,1.393-0.653,2.281
		c0,0.893,0.219,1.653,0.653,2.281c0.438,0.629,0.97,0.943,1.599,0.943c0.605,0,1.135-0.314,1.58-0.943
		C134.971,21.493,135.193,20.732,135.193,19.84z"/>
	<path fill="#FFFFFF" d="M166.249,15.855c0.021,0.426-0.132,0.761-0.456,1.004c-0.953,0.75-2.788,1.551-5.505,2.401
		c-1.319,0.386-2.627,0.779-3.925,1.187h-0.03c3.711,1.38,6.499,2.697,8.365,3.955c-0.224,0.242-0.406,0.445-0.548,0.605
		c-0.426,0.428-0.924,0.641-1.49,0.641c-0.365,0-0.762-0.08-1.188-0.242c-0.549-0.284-1.553-0.762-3.013-1.43
		c-2.558-1.156-5.344-1.988-8.362-2.494l0.119,3.711c0,0.02,0,0.039,0,0.061c-0.021,0.021-0.068,0.03-0.15,0.03
		c-1.033-0.103-1.824-0.284-2.371-0.548c-0.406-0.202-0.639-0.557-0.7-1.063c-0.183-1.278-0.265-2.586-0.243-3.924
		c0.04-2.636,0.102-4.056,0.184-4.259c0.021-0.081,0.029-0.143,0.029-0.184l-0.548-0.519c-0.588-0.507-0.974-1.358-1.155-2.555
		c-0.242-1.764-0.335-3.539-0.271-5.323c0.021-0.324,0.191-0.497,0.518-0.517c2.027-0.101,3.977-0.061,5.842,0.122
		c1.603,0.142,3.324,0.446,5.172,0.913c1.783,0.426,3.213,0.882,4.289,1.369c0.605,0.264,1.205,0.69,1.795,1.278
		c1.071,1.034,1.926,2.079,2.555,3.133C165.844,14.345,166.209,15.227,166.249,15.855z M159.861,16.389
		c-0.063-0.052-0.202-0.127-0.426-0.229c-2.17-0.628-4.318-0.942-6.449-0.942c-1.014,0-1.805,0.052-2.371,0.152
		c-0.243,1.073-0.377,2.157-0.396,3.254c3.163,0.041,6.194-0.444,9.096-1.46c0.428-0.162,0.641-0.365,0.641-0.607
		C159.953,16.494,159.923,16.438,159.861,16.389z"/>
	<path fill="#FFFFFF" d="M184.926,8.221c-0.021,1.217-0.457,2.535-1.309,3.954c-0.346,0.568-0.902,1.268-1.674,2.099
		c-0.323,0.346-0.648,0.68-0.974,1.003c-0.021,0.041-0.081,0.498-0.184,1.369c-0.244,2.17-0.365,4.016-0.365,5.535
		c0,0.404,0.021,0.721,0.063,0.941c0.041,0.467,0.051,0.75,0.029,0.854c-0.041,0.082-0.313,0.213-0.82,0.396
		c-1.137,0.386-1.836,0.618-2.102,0.698c-0.828,0.244-1.563,0.375-2.188,0.396c-1.236,0.063-2.008-0.223-2.313-0.852
		c-0.831-2.027-1.286-4.106-1.366-6.235c-0.021-0.281-0.053-0.72-0.094-1.311c-0.041-0.344-0.121-0.575-0.242-0.697
		c-0.265-0.202-0.658-0.537-1.188-1.003c-1.016-0.872-1.969-1.815-2.858-2.829c-0.426-0.487-1.35-1.704-2.769-3.65l-0.061-0.09
		c2.555-1.602,5.252-2.403,8.092-2.403c0.386,0,0.767,0.021,1.142,0.061s0.604,0.081,0.687,0.122
		c0.08,0.041,0.143,0.172,0.183,0.396c0.282,1.582,0.729,3.254,1.339,5.019c0.345,0.994,0.658,1.653,0.941,1.977
		c0.162,0.203,0.295,0.274,0.396,0.213c1.379-0.771,2.453-2.221,3.227-4.35c0.564-1.561,0.842-2.829,0.818-3.802
		c0.813-0.02,1.571,0.021,2.281,0.122C184.51,6.274,184.945,6.963,184.926,8.221z"/>
</g>
<path fill="#E5E5E5" d="M66.667,18.982c-0.122,0.203-0.223,0.406-0.304,0.609c-0.183,0.365-0.42,0.715-0.682,1.059
	c0.256-0.158,0.546-0.408,0.875-0.766c0.266-0.289,0.495-0.588,0.701-0.893C67.063,18.983,66.875,18.964,66.667,18.982z
	 M36.973,24.289c-4.684,0-8.172-0.527-10.463-1.582c-0.528-0.244-0.791-0.699-0.791-1.369c0-0.014,0.005-0.027,0.005-0.041
	c-0.348-0.05-0.682-0.09-1.035-0.145c-0.101,0.447-0.182,0.791-0.243,1.035c-0.041,0.162-0.061,0.322-0.061,0.484
	c0,0.669,0.263,1.125,0.791,1.368c2.291,1.055,5.779,1.582,10.463,1.582c4.664,0,8.354-0.56,11.072-1.674
	c1.312-0.542,2.181-1.206,2.612-1.993c-0.367,0.236-0.789,0.457-1.278,0.66C45.327,23.729,41.637,24.289,36.973,24.289z
	 M62.524,15.313c0.023,0.123,0.068,0.264,0.096,0.39c0.367-0.195,0.798-0.415,1.307-0.668c0.264-0.142,1.298-0.658,3.104-1.551
	c0.187-0.075,0.387-0.405,0.599-0.97c-1.351,0.669-2.144,1.066-2.369,1.188C63.457,14.594,62.544,15.131,62.524,15.313z
	 M33.779,14.156c0.015-0.001,0.026-0.001,0.041-0.002c1.066-0.477,2.29-0.945,3.706-1.403c3.488-1.115,6.813-1.997,9.977-2.646
	c0.344-0.08,0.506-0.274,0.486-0.578c-0.012-0.208-0.027-0.39-0.045-0.559c-2.897,0.628-5.92,1.438-9.084,2.449
	c-2.129,0.689-3.863,1.399-5.201,2.129c-0.304,0.163-0.457,0.306-0.457,0.427C33.202,14.118,33.395,14.175,33.779,14.156z
	 M25.754,18.807c1.277,0.145,2.717,0.172,4.319,0.092c1.926-0.1,4.015-0.15,6.266-0.15c2.353,0,3.873,0.027,4.563,0.091
	c2.161,0.14,3.387,0.463,3.69,0.962c0.191-0.063,0.383-0.125,0.562-0.195c0.567-0.225,0.852-0.518,0.852-0.881
	c0-0.648-1.257-1.057-3.771-1.219c-0.69-0.064-2.21-0.092-4.563-0.092c-2.251,0-4.34,0.051-6.266,0.15
	c-1.602,0.08-3.042,0.053-4.319-0.092c-1.501-0.184-2.251-1.754-2.251-4.714c0-1.582,0.365-3.184,1.095-4.806
	c0.141-0.304,0.336-0.601,0.559-0.894c-0.894,0.708-1.532,1.449-1.892,2.227c-0.73,1.622-1.095,3.224-1.095,4.806
	C23.503,17.053,24.253,18.623,25.754,18.807z M83.725,17.535l-0.031-0.334c-0.142-1.398-0.213-2.892-0.213-4.472
	c0-1.875,0.09-3.065,0.271-3.578c-0.107,0.057-0.22,0.106-0.326,0.166c-0.487,0.264-0.821,0.649-1.004,1.156
	c-0.183,0.507-0.274,1.703-0.274,3.589c0,1.58,0.071,3.073,0.213,4.472l0.031,0.334c-0.092,0.121-0.196,0.232-0.294,0.35
	C82.71,18.709,83.258,18.151,83.725,17.535z M181.338,6.032c0.023,0.973-0.254,2.241-0.818,3.802
	c-0.389,1.074-0.857,1.974-1.4,2.702c1.145-0.823,2.055-2.167,2.734-4.036c0.334-0.924,0.555-1.733,0.684-2.451
	C182.15,6.028,181.752,6.022,181.338,6.032z M157.697,19.113h-0.029c0.473,0.176,0.93,0.352,1.373,0.525
	c0.416-0.125,0.828-0.256,1.248-0.378c2.717-0.851,4.551-1.651,5.504-2.401c0.258-0.193,0.402-0.447,0.443-0.756
	c-1.045,0.58-2.582,1.188-4.613,1.824C160.303,18.313,158.996,18.707,157.697,19.113z M134.523,17.559
	c0.447,0.629,0.67,1.389,0.67,2.281c0,0.672-0.125,1.268-0.379,1.79c0.385-0.135,0.734-0.408,1.043-0.843
	c0.447-0.627,0.67-1.389,0.67-2.281s-0.223-1.652-0.67-2.281c-0.445-0.627-0.975-0.939-1.58-0.939c-0.629,0-1.16,0.313-1.598,0.939
	c-0.109,0.156-0.203,0.32-0.285,0.494c0.176-0.06,0.355-0.1,0.549-0.1C133.549,16.619,134.078,16.932,134.523,17.559z
	 M159.436,16.16c0.02,0.008,0.027,0.014,0.045,0.021c0.391-0.115,0.783-0.217,1.168-0.352c0.428-0.162,0.641-0.365,0.641-0.607
	c-0.002-0.063-0.031-0.119-0.094-0.168c-0.063-0.051-0.201-0.127-0.426-0.229c-2.17-0.627-4.318-0.942-6.449-0.942
	c-1.014,0-1.805,0.052-2.371,0.152c-0.092,0.403-0.152,0.809-0.213,1.215c0.373-0.021,0.785-0.034,1.25-0.034
	C155.117,15.218,157.266,15.532,159.436,16.16z M54.428,24.201c-0.55-0.053-1.009-0.203-1.364-0.461
	c-0.203-0.162-0.325-0.387-0.365-0.672c-0.507-3.346-0.761-6.336-0.761-8.972c0-2.469,0.231-5.004,0.667-7.599
	c-0.269,0.013-0.523,0.045-0.752,0.11c-0.183,0.061-0.315,0.102-0.396,0.122c-0.568,2.981-0.852,5.882-0.852,8.7
	c0,0.604,0.017,1.23,0.043,1.87c0.246,0.515,0.379,1.076,0.379,1.69c-0.001,0.287-0.031,0.57-0.092,0.855
	c-0.02,0.11-0.053,0.217-0.087,0.323c0.125,1.345,0.292,2.749,0.518,4.233c0.04,0.285,0.162,0.51,0.365,0.671
	c0.445,0.323,1.044,0.485,1.794,0.485c0.386,0,0.71-0.061,0.974-0.183c0.101-0.06,0.111-0.294,0.03-0.698
	C54.495,24.53,54.461,24.363,54.428,24.201z M134.369,24.316c-2.494,0.021-4.848-0.773-7.059-2.389
	c-2.209-1.613-3.67-3.604-4.379-5.977c-0.203-0.953-0.186-1.855,0.061-2.707c0.318-1.202,1.039-2.429,2.145-3.682
	c-0.125,0.114-0.25,0.209-0.375,0.33c-1.664,1.602-2.699,3.164-3.104,4.685c-0.246,0.852-0.264,1.754-0.061,2.707
	c0.332,1.107,0.832,2.127,1.49,3.068c0.447,0.025,0.717,0.069,0.785,0.135c0.021,0.057,0.043,0.137,0.063,0.238
	c0.041,0.245,0.033,0.477,0.008,0.704c0.588,0.655,1.262,1.268,2.033,1.831c2.211,1.615,4.564,2.41,7.059,2.389
	c2.473-0.021,4.795-0.832,6.965-2.435c0.828-0.612,1.549-1.278,2.164-1.999c-0.264,0.229-0.539,0.451-0.83,0.666
	C139.164,23.484,136.842,24.295,134.369,24.316z M116.268,23.953l-0.639,0.186c-0.365,0.102-0.76,0.061-1.188-0.121
	c-0.588-0.227-1.439-0.568-2.555-1.035c-0.162-0.063-0.264-0.143-0.304-0.242c-0.082-0.184-0.142-0.406-0.183-0.67
	c-0.568-3.225-0.853-6.822-0.853-10.798c0-1.156,0.041-2.088,0.122-2.798c0.053-0.51,0.11-1.042,0.171-1.585
	c-0.411,0.131-0.822,0.259-1.23,0.425c-0.103,0.872-0.192,1.703-0.274,2.494c-0.08,0.71-0.121,1.642-0.121,2.798
	c0,3.975,0.283,7.574,0.852,10.798c0.041,0.264,0.102,0.486,0.184,0.67c0.039,0.099,0.141,0.179,0.304,0.242
	c1.114,0.467,1.966,0.809,2.554,1.035c0.428,0.182,0.822,0.223,1.188,0.121l0.639-0.186c2.717-0.79,5.02-1.378,6.904-1.766
	c0.266-0.041,0.438-0.076,0.52-0.104c0.08-0.03,0.143-0.116,0.184-0.259c0.08-0.271,0.096-0.555,0.074-0.848
	C120.836,22.695,118.73,23.237,116.268,23.953z M178.926,23.736c-0.828,0.244-1.563,0.375-2.188,0.396
	c-1.236,0.063-2.008-0.223-2.313-0.852c-0.832-2.027-1.287-4.107-1.367-6.236c-0.02-0.281-0.053-0.719-0.094-1.311
	c-0.041-0.344-0.121-0.574-0.242-0.697c-0.264-0.201-0.658-0.537-1.188-1.002c-1.016-0.872-1.969-1.815-2.857-2.829
	c-0.4-0.458-1.244-1.566-2.52-3.309c-0.555,0.268-1.104,0.563-1.645,0.902l0.061,0.09c1.42,1.946,2.344,3.163,2.77,3.65
	c0.889,1.014,1.842,1.957,2.857,2.829c0.529,0.466,0.924,0.801,1.188,1.003c0.121,0.122,0.201,0.354,0.242,0.697
	c0.041,0.591,0.074,1.029,0.094,1.311c0.08,2.129,0.535,4.208,1.367,6.235c0.305,0.629,1.076,0.915,2.313,0.852
	c0.625-0.021,1.359-0.151,2.188-0.396c0.266-0.08,0.965-0.313,2.102-0.698c0.508-0.183,0.779-0.313,0.82-0.396
	c0.02-0.096,0.012-0.352-0.021-0.758C179.678,23.494,179.145,23.67,178.926,23.736z M163.994,24.314
	c-0.365,0-0.762-0.08-1.188-0.242c-0.549-0.283-1.553-0.762-3.012-1.43c-2.559-1.156-5.344-1.988-8.363-2.494l0.051,1.609
	c2.486,0.512,4.818,1.242,6.979,2.219c1.459,0.668,2.463,1.146,3.012,1.43c0.426,0.162,0.822,0.242,1.188,0.242
	c0.566,0,1.064-0.213,1.49-0.641c0.143-0.16,0.324-0.363,0.549-0.605c-0.072-0.049-0.156-0.098-0.23-0.146
	C164.316,24.291,164.158,24.314,163.994,24.314z M149.029,23.402c-0.406-0.201-0.639-0.557-0.699-1.063
	c-0.184-1.279-0.266-2.586-0.244-3.924c0.041-2.637,0.102-4.056,0.184-4.259c0.021-0.081,0.029-0.143,0.029-0.184l-0.547-0.519
	c-0.588-0.507-0.975-1.358-1.156-2.555c-0.207-1.499-0.297-3.006-0.283-4.519c-0.27,0.008-0.531-0.001-0.805,0.012
	c-0.326,0.02-0.496,0.193-0.518,0.517c-0.063,1.784,0.029,3.559,0.271,5.323c0.01,0.061,0.025,0.11,0.035,0.168
	c0.117,0.282,0.221,0.563,0.297,0.843c0.053,0.19,0.092,0.383,0.125,0.579c0.188,0.398,0.418,0.724,0.699,0.965l0.547,0.519
	c0,0.041-0.008,0.103-0.029,0.184c-0.082,0.203-0.143,1.623-0.184,4.259c-0.021,1.338,0.061,2.646,0.244,3.924
	c0.061,0.507,0.293,0.861,0.699,1.063c0.547,0.264,1.338,0.445,2.371,0.548c0.082,0,0.129-0.009,0.15-0.03v-0.061l-0.045-1.43
	C149.719,23.668,149.332,23.549,149.029,23.402z M65.381,23.83c-0.973,0-1.947-0.375-2.92-1.127
	c-0.872-0.668-1.551-1.459-2.038-2.371c-0.264-0.486-0.538-1.125-0.821-1.916c-0.223-0.588-0.355-0.873-0.395-0.854
	c-0.391,0.4-0.838,0.852-1.326,1.341c0.045,0.005,0.173,0.281,0.387,0.846c0.283,0.791,0.557,1.431,0.821,1.916
	c0.487,0.912,1.166,1.703,2.038,2.372c0.973,0.751,1.947,1.126,2.92,1.126c0.426,0,0.841-0.081,1.247-0.243
	c0.722-0.293,1.438-0.902,2.149-1.807c-0.271,0.198-0.543,0.362-0.815,0.473C66.223,23.748,65.808,23.83,65.381,23.83z
	 M55.779,21.004c0.446-0.443,0.861-0.858,1.239-1.24c-0.366,0.363-0.747,0.741-1.157,1.146
	C55.829,20.939,55.807,20.973,55.779,21.004z M101.09,24.139c-0.365,0.102-0.76,0.061-1.187-0.121
	c-0.588-0.227-1.44-0.568-2.555-1.035c-0.163-0.063-0.264-0.143-0.304-0.242c-0.082-0.184-0.142-0.406-0.183-0.67
	c-0.568-3.225-0.852-6.822-0.852-10.798c0-1.156,0.041-2.088,0.122-2.798c0.052-0.51,0.11-1.042,0.171-1.585
	c-0.411,0.131-0.822,0.259-1.23,0.425c-0.102,0.872-0.193,1.703-0.274,2.494c-0.081,0.71-0.122,1.642-0.122,2.798
	c0,3.975,0.284,7.574,0.852,10.798c0.041,0.264,0.101,0.486,0.183,0.67c0.04,0.099,0.141,0.179,0.304,0.242
	c1.115,0.467,1.967,0.809,2.555,1.035c0.427,0.182,0.822,0.223,1.187,0.121l0.639-0.186c2.717-0.79,5.02-1.378,6.904-1.766
	c0.264-0.041,0.436-0.076,0.518-0.104c0.081-0.03,0.143-0.116,0.184-0.259c0.079-0.271,0.094-0.555,0.074-0.848
	c-1.779,0.386-3.884,0.927-6.346,1.643L101.09,24.139z M88.134,23.92c-0.994,0.123-1.673,0.072-2.038-0.15
	c-0.812-0.426-1.43-1.52-1.855-3.285l-0.091,0.063c-1.906,1.699-3.315,2.742-4.228,3.129c-0.75,0.328-1.247,0.48-1.491,0.461
	c-1.075-0.102-2.408-0.764-4-1.982c-1.592-1.219-2.55-2.277-2.875-3.174c-0.122-0.365-0.244-0.822-0.365-1.373
	c-0.142-0.689-0.213-1.627-0.213-2.809c0-2.666,0.274-5.025,0.821-7.081c0.049-0.175,0.098-0.333,0.147-0.494
	c-0.621,0.14-0.983,0.301-1.054,0.486c-0.142,0.386-0.284,0.834-0.426,1.342c-0.547,2.055-0.821,4.415-0.821,7.08
	c0,0.659,0.024,1.233,0.068,1.739c0.026,0.01,0.056,0.012,0.081,0.021c0.525,0.229,0.769,0.502,0.728,0.826
	c-0.04,0.238-0.198,0.605-0.454,1.076c0.051,0.186,0.103,0.365,0.154,0.52c0.325,0.896,1.283,1.955,2.875,3.174
	c1.592,1.219,2.925,1.88,4,1.981c0.244,0.02,0.741-0.133,1.491-0.46c0.913-0.388,2.322-1.431,4.228-3.129l0.091-0.063
	c0.425,1.765,1.043,2.859,1.855,3.285c0.365,0.222,1.044,0.272,2.038,0.15c1.115-0.102,2.555-0.617,4.319-1.551
	c0.466-0.264,0.806-0.456,1.019-0.578c0.213-0.122,0.319-0.21,0.319-0.273c-0.021-0.154-0.036-0.303-0.056-0.457
	C90.663,23.311,89.238,23.82,88.134,23.92z"/>
<g>
	<g>
		<path fill="#FFF2E7" d="M22.564,5.719c-0.287-0.709-0.709-1.358-1.26-1.892c-0.578-0.555-1.268-0.979-1.993-1.311
			c-1.383-0.636-2.891-0.978-4.409-1.041c-1.512-0.063-3.04,0.149-4.476,0.623C8.987,2.574,7.627,3.312,6.474,4.297
			c-1.17,1-2.127,2.333-2.192,3.919c-0.039,0.933,0.172,1.871,0.375,2.776c0.209,0.922,0.457,1.836,0.721,2.743
			c0.535,1.844,1.112,3.675,1.707,5.503c0.033,0.103,0.065,0.201,0.101,0.306c-0.043,0.017-0.086,0.032-0.129,0.052
			c-0.561,0.245-1.147,0.707-1.315,1.32c-0.082,0.295-0.056,0.637,0.121,0.893c0.17,0.246,0.451,0.393,0.74,0.438
			c0.356,0.06,0.715-0.021,1.057-0.119c0.362-0.104,0.721-0.226,1.074-0.354c0.625-0.228,1.237-0.493,1.83-0.797
			c-0.297,0.645-0.498,1.328-0.59,2.03c-0.067,0.522-0.08,1.052-0.029,1.575c0.025,0.248,0.062,0.498,0.113,0.742
			c0.047,0.224,0.09,0.457,0.334,0.537c0.129,0.041,0.272,0.049,0.404,0.065c0.106,0.017,0.211,0.027,0.317,0.038
			c0.043,0.008,0.088,0.014,0.131,0.02c0.086,0.008,0.172,0.018,0.258,0.021c0.219,0.021,0.44,0.038,0.662,0.053
			c0.338,0.02,0.674,0.024,1.012,0.021c0.121,0,0.24,0,0.36-0.004c0.15-0.007,0.297-0.013,0.447-0.021
			c0.15-0.009,0.299-0.02,0.447-0.031c0.135-0.01,0.281-0.012,0.41-0.062c0.224-0.084,0.283-0.297,0.31-0.515
			c0.08-0.6,0.119-1.2,0.125-1.803c0.01-0.832-0.049-1.662-0.172-2.481c0.053,0.05,0.108,0.099,0.168,0.146
			c0.303,0.24,0.642,0.447,0.988,0.625c0.696,0.356,1.481,0.565,2.266,0.422c0.354-0.063,0.748-0.207,1.012-0.465
			c0.258-0.252,0.295-0.617,0.209-0.953c-0.16-0.641-0.651-1.205-1.196-1.566c0.61-1.463,1.432-2.827,2.207-4.208
			c0.86-1.536,1.682-3.132,2.073-4.861C23.167,8.796,23.152,7.169,22.564,5.719"/>
	</g>
	<g>
		<path fill="#1D2033" d="M14.056,18.764c-0.058-0.24-0.143-0.475-0.251-0.695c-0.086-0.176-0.193-0.426-0.404-0.477
			c-0.21-0.051-0.41,0.135-0.539,0.275c-0.181,0.199-0.313,0.439-0.436,0.677c-0.079,0.151-0.161,0.31-0.23,0.468
			c-0.036,0.082-0.069,0.166-0.098,0.252c-0.026,0.076-0.063,0.164-0.037,0.246c0.062,0.197,0.265,0.229,0.445,0.205
			c0.101-0.013,0.2-0.04,0.296-0.07c0.08-0.024,0.164-0.071,0.246-0.086c0.04-0.006,0.085-0.004,0.124,0.008
			c0.077,0.022,0.134,0.082,0.19,0.138c0.134,0.124,0.31,0.178,0.483,0.103c0.13-0.062,0.221-0.189,0.258-0.322
			C14.167,19.249,14.109,18.988,14.056,18.764"/>
	</g>
	<g>
		<path fill="#1D2033" d="M11.534,23.354c-0.002-0.041-0.027-0.078-0.066-0.095c-0.053-0.021-0.115,0.005-0.135,0.06
			c-0.123,0.309-0.19,0.625-0.233,0.949c-0.041,0.323-0.047,0.648-0.041,0.978c0.006,0.239,0.022,0.481,0.051,0.728
			c0.043,0.006,0.088,0.012,0.131,0.016c0.086,0.01,0.172,0.02,0.258,0.025c-0.01-0.259-0.014-0.515-0.012-0.771
			c0.002-0.313,0.021-0.625,0.031-0.938C11.528,23.99,11.542,23.678,11.534,23.354 M13.447,22.063
			c-0.008-0.047-0.049-0.082-0.096-0.084c-0.057,0-0.104,0.043-0.106,0.104c-0.027,0.793-0.024,1.577-0.043,2.359l-0.025,1.181
			c-0.002,0.151-0.004,0.312-0.004,0.463c0.121,0,0.24,0,0.36-0.004c0.023-0.146,0.042-0.287,0.058-0.435
			c0.041-0.396,0.065-0.799,0.068-1.198C13.663,23.648,13.609,22.85,13.447,22.063"/>
	</g>
	<g>
		<path fill="#1D2033" d="M8.213,16.477c0,0-4.263-6.877-0.366-8.315s5.832,7.375,4.106,8.733
			C10.227,18.254,8.972,17.469,8.213,16.477"/>
	</g>
	<g>
		<path fill="#FFF2E7" d="M10.822,13.544c-0.214-0.18-0.435-0.35-0.662-0.51c-0.282-0.199-0.316-0.604-0.068-0.844
			c0.039-0.037,0.079-0.074,0.119-0.11c0.15-0.135-0.071-0.355-0.221-0.221c-0.122,0.108-0.237,0.224-0.346,0.345
			c-0.169,0.187-0.442,0.229-0.666,0.11c-0.266-0.142-0.538-0.271-0.817-0.387c-0.186-0.076-0.267,0.226-0.083,0.302
			c0.207,0.086,0.411,0.181,0.611,0.282c0.271,0.138,0.374,0.47,0.236,0.741c-0.106,0.212-0.197,0.432-0.271,0.658
			c-0.063,0.191,0.238,0.273,0.301,0.083c0.056-0.169,0.121-0.333,0.196-0.492c0.147-0.313,0.538-0.422,0.821-0.222
			c0.216,0.152,0.426,0.313,0.628,0.484C10.753,13.894,10.976,13.674,10.822,13.544"/>
	</g>
	<g>
		<path fill="#1D2033" d="M14.264,16.268c0,0-0.523-6.354,1.569-7.768c2.092-1.412,4.315-1.046,4.655,0.681
			c0.34,1.726-1.988,7.244-3.557,7.95C15.593,17.732,14.447,17.157,14.264,16.268"/>
	</g>
	<g>
		<path fill="#FFF2E7" d="M18.008,11.494c-0.237,0.127-0.462,0.274-0.674,0.439c-0.187,0.146-0.457,0.104-0.59-0.092
			c-0.114-0.169-0.233-0.336-0.359-0.497c-0.056-0.072-0.178-0.059-0.236,0c-0.071,0.069-0.055,0.165,0,0.236
			c0.155,0.199,0.301,0.407,0.439,0.62c0.096,0.147,0.087,0.344-0.026,0.479c-0.229,0.274-0.429,0.574-0.591,0.894
			c-0.097,0.191,0.191,0.36,0.289,0.169c0.079-0.154,0.166-0.304,0.261-0.446c0.179-0.269,0.581-0.247,0.723,0.042
			c0.103,0.211,0.199,0.425,0.287,0.642c0.034,0.084,0.111,0.142,0.206,0.116c0.08-0.021,0.15-0.121,0.117-0.205
			c-0.151-0.373-0.324-0.736-0.515-1.088c-0.097-0.178-0.053-0.396,0.103-0.524c0.228-0.188,0.474-0.354,0.737-0.495
			C18.366,11.682,18.198,11.393,18.008,11.494"/>
	</g>
	<g>
		<path fill="#1D2033" d="M7.781,6.777c-1.018,0.27-1.84,1.131-2.057,2.162c-0.027,0.129,0.17,0.184,0.198,0.055
			c0.203-0.964,0.96-1.767,1.914-2.02C7.963,6.941,7.909,6.743,7.781,6.777"/>
	</g>
	<g>
		<path fill="#1D2033" d="M9.244,6.652c-0.223-0.04-0.453-0.025-0.667,0.051c-0.05,0.018-0.089,0.07-0.071,0.126
			C8.521,6.879,8.577,6.92,8.631,6.9C8.68,6.883,8.73,6.868,8.781,6.857c0.054-0.012,0.077-0.015,0.126-0.019
			c0.048-0.004,0.096-0.005,0.144-0.003C9.077,6.836,9.103,6.838,9.129,6.84c0,0,0.018,0.002,0.021,0.003
			C9.163,6.845,9.177,6.847,9.19,6.85c0.053,0.009,0.113-0.015,0.126-0.072C9.327,6.729,9.3,6.662,9.244,6.652"/>
	</g>
	<g>
		<path fill="#1D2033" d="M18.266,21.104c-0.426,0.285-1.003,0.272-1.417-0.026C16.743,21,16.64,21.18,16.746,21.254
			c0.469,0.341,1.144,0.354,1.624,0.026C18.478,21.206,18.375,21.027,18.266,21.104"/>
	</g>
	<g>
		<path fill="#1D2033" d="M16.384,20.913c-0.009-0.017-0.021-0.026-0.037-0.036c-0.023-0.018-0.046-0.035-0.07-0.053
			c-0.012-0.008-0.024-0.012-0.038-0.012c-0.014-0.004-0.027-0.004-0.041,0c-0.013,0.004-0.025,0.01-0.035,0.02
			c-0.011,0.008-0.02,0.018-0.026,0.029c-0.003,0.008-0.007,0.016-0.01,0.021c-0.005,0.02-0.005,0.036,0,0.057
			c0.003,0.008,0.007,0.017,0.01,0.022c0.009,0.017,0.021,0.027,0.037,0.036c0.023,0.02,0.046,0.035,0.07,0.054
			c0.012,0.009,0.024,0.013,0.038,0.013c0.014,0.004,0.027,0.004,0.041,0c0.013-0.004,0.024-0.01,0.035-0.021
			c0.011-0.007,0.02-0.018,0.026-0.027c0.003-0.009,0.007-0.018,0.01-0.022c0.005-0.019,0.005-0.036,0-0.056
			C16.391,20.93,16.387,20.922,16.384,20.913"/>
	</g>
	<g>
		<path fill="#1D2033" d="M21.401,8.776c-0.209-0.657-0.56-1.286-1.116-1.71c-0.539-0.409-1.271-0.585-1.921-0.359
			c-0.124,0.043-0.071,0.241,0.055,0.198c0.602-0.21,1.274-0.043,1.769,0.343c0.506,0.396,0.824,0.98,1.017,1.583
			C21.243,8.956,21.441,8.902,21.401,8.776"/>
	</g>
	<g>
		<path fill="#1D2033" d="M21.675,6.785c-0.166-0.122-0.332-0.244-0.497-0.366c-0.043-0.032-0.116-0.009-0.14,0.036
			c-0.028,0.054-0.009,0.106,0.037,0.141c0.166,0.122,0.332,0.244,0.497,0.366c0.043,0.032,0.116,0.009,0.14-0.037
			C21.74,6.872,21.721,6.819,21.675,6.785"/>
	</g>
</g>
<g>
	<g>
		<path fill="#E8F900" d="M199.164,10.069c-0.127,0.157-8.27,10.164-11.859,14.517l-0.003,0.001
			c-0.993,1.206-1.64,1.979-1.669,1.988c-0.136,0.047,6.27-12.133,6.27-12.133s0,0.001-0.004,0.001c0,0.001-0.002,0.002-0.004,0.004
			l-8.561,4.46c0.121-0.15,7.846-9.793,11.705-14.566c1.244-1.541,2.086-2.574,2.141-2.618l-6.313,11.728l1.807-0.736
			c0.001-0.001,0.001-0.001,0.002-0.001L199.164,10.069z"/>
	</g>
	<path fill="#E8FF7F" d="M199.164,10.069c-0.127,0.157-8.27,10.164-11.859,14.517l-0.003,0.001l-0.954,0.797l10.215-13.36
		l-5.543,1.699c0.039-0.025,0.688-0.42,1.652-1.008c0.001-0.001,0.001-0.001,0.002-0.001L199.164,10.069z"/>
	<path fill="#E8FF7F" d="M186.178,16.533l5.721-2.09c0,0.001-0.002,0.002-0.004,0.004l-8.562,4.461c0,0,7.815-9.757,11.706-14.567
		l0.336,0.15L186.178,16.533z"/>
	<path fill="#E8F900" d="M185.633,26.887c-0.09,0-0.178-0.039-0.238-0.109c-0.156-0.187-0.156-0.187,0.912-2.271
		c0.521-1.011,1.244-2.413,2.16-4.169c1.051-2.016,2.112-4.042,2.699-5.158l-7.689,4.008c-0.131,0.066-0.291,0.035-0.384-0.078
		c-0.094-0.112-0.095-0.275-0.003-0.394c4.104-5.121,13.668-17.051,13.896-17.233c0.115-0.092,0.279-0.091,0.394,0.003
		c0.113,0.095,0.146,0.256,0.075,0.386l-5.905,10.966l7.499-3.057c0.133-0.054,0.282-0.011,0.367,0.103
		c0.084,0.114,0.08,0.27-0.009,0.381c-0.033,0.041-3.388,4.163-6.716,8.237c-6.789,8.313-6.832,8.327-6.959,8.37
		C185.699,26.882,185.666,26.887,185.633,26.887z M191.902,14.132c0.08,0,0.16,0.032,0.221,0.091
		c0.096,0.097,0.118,0.244,0.055,0.364c-1.625,3.089-3.803,7.252-5.111,9.8c2.705-3.283,8.086-9.883,11.094-13.573l-7.178,2.924
		c-0.121,0.05-0.26,0.018-0.348-0.08c-0.088-0.097-0.105-0.239-0.043-0.354l4.789-8.893c-2.699,3.338-7.527,9.354-10.883,13.541
		l7.262-3.784C191.805,14.144,191.854,14.132,191.902,14.132z"/>
</g>
<g>
	<g>
		<path fill="#E8F900" d="M211.782,10.069c-0.128,0.157-8.271,10.164-11.86,14.517l-0.002,0.001
			c-0.994,1.206-1.641,1.979-1.669,1.988c-0.136,0.047,6.271-12.133,6.271-12.133s-0.002,0.001-0.004,0.001
			c-0.002,0.001-0.002,0.002-0.006,0.004l-8.56,4.46c0.121-0.15,7.846-9.793,11.705-14.566c1.243-1.541,2.086-2.574,2.141-2.618
			l-6.313,11.728l1.809-0.736c0.001-0.001,0.001-0.001,0.002-0.001L211.782,10.069z"/>
	</g>
	<path fill="#E8FF7F" d="M211.782,10.069c-0.128,0.157-8.271,10.164-11.86,14.517l-0.002,0.001l-0.954,0.797l10.216-13.36
		l-5.545,1.699c0.04-0.025,0.688-0.42,1.653-1.008c0.001-0.001,0.001-0.001,0.002-0.001L211.782,10.069z"/>
	<path fill="#E8FF7F" d="M198.796,16.533l5.722-2.09c-0.002,0.001-0.002,0.002-0.006,0.004l-8.561,4.461
		c0,0,7.816-9.757,11.706-14.567l0.336,0.15L198.796,16.533z"/>
	<path fill="#E8F900" d="M198.251,26.887c-0.09,0-0.178-0.039-0.237-0.109c-0.158-0.187-0.158-0.187,0.911-2.271
		c0.519-1.011,1.244-2.413,2.16-4.169c1.05-2.016,2.112-4.042,2.699-5.158l-7.69,4.008c-0.13,0.066-0.289,0.035-0.383-0.078
		c-0.094-0.112-0.095-0.275-0.003-0.394c4.103-5.121,13.668-17.051,13.896-17.233c0.117-0.092,0.28-0.091,0.396,0.003
		c0.111,0.095,0.146,0.256,0.075,0.386l-5.905,10.966l7.499-3.057c0.132-0.054,0.282-0.011,0.367,0.103
		c0.084,0.114,0.078,0.27-0.011,0.381c-0.031,0.041-3.389,4.163-6.717,8.237c-6.789,8.313-6.832,8.327-6.959,8.37
		C198.316,26.882,198.284,26.887,198.251,26.887z M204.521,14.132c0.08,0,0.16,0.032,0.221,0.091
		c0.096,0.097,0.117,0.244,0.055,0.364c-1.625,3.089-3.803,7.252-5.111,9.8c2.705-3.283,8.086-9.883,11.092-13.573l-7.176,2.924
		c-0.121,0.05-0.26,0.018-0.348-0.08c-0.088-0.097-0.105-0.239-0.043-0.354L208,4.411c-2.7,3.338-7.527,9.354-10.883,13.541
		l7.262-3.784C204.423,14.144,204.473,14.132,204.521,14.132z"/>
</g>
</svg>
