<?xml version="1.0" encoding="utf-8"?>
<!-- Generator: Adobe Illustrator 13.0.0, SVG Export Plug-In . SVG Version: 6.00 Build 14948)  -->
<!DOCTYPE svg PUBLIC "-//W3C//DTD SVG 1.1//EN" "http://www.w3.org/Graphics/SVG/1.1/DTD/svg11.dtd">
<svg version="1.1" id="Livello_1" xmlns="http://www.w3.org/2000/svg" xmlns:xlink="http://www.w3.org/1999/xlink" x="0px" y="0px"
	 width="224px" height="28px" viewBox="0 0 224 28" enable-background="new 0 0 224 28" xml:space="preserve">
<g>
	<g>
		<path fill="#1D2033" d="M52.826,23.136c-0.206,1.152-1.185,2.089-2.934,2.813c-2.76,1.131-6.506,1.698-11.242,1.698
			c-4.755,0-8.297-0.536-10.624-1.607c-0.536-0.245-0.804-0.709-0.804-1.389c0-0.164,0.021-0.325,0.062-0.49
			c0.062-0.249,0.145-0.598,0.248-1.054c4.078,0.639,7.773,0.955,11.087,0.955c3.541,0,6.321-0.389,8.338-1.17
			c0.576-0.229,0.865-0.527,0.865-0.895c0-0.658-1.275-1.073-3.829-1.238c-0.7-0.064-2.243-0.093-4.633-0.093
			c-2.285,0-4.406,0.053-6.361,0.151c-1.626,0.081-3.087,0.054-4.385-0.094c-1.524-0.187-2.286-1.781-2.286-4.786
			c0-1.607,0.37-3.233,1.112-4.88c0.391-0.844,1.091-1.647,2.099-2.41c1.75-1.297,4.231-2.502,7.444-3.615
			c3.48-1.173,6.506-1.76,9.08-1.76c0.556,0,1.081,0.03,1.576,0.092c0.37,0.042,0.761,0.309,1.173,0.803
			c0.556,0.637,1.07,1.648,1.545,3.026c0.391,1.194,0.637,2.255,0.742,3.181c0.041,0.245,0.071,0.556,0.092,0.926
			c0.02,0.308-0.146,0.505-0.494,0.586c-3.213,0.659-6.589,1.554-10.129,2.686c-2.162,0.699-3.923,1.421-5.281,2.161
			c-0.31,0.167-0.464,0.312-0.464,0.434c0,0.147,0.196,0.206,0.587,0.188c0.412-0.022,0.643-0.034,0.696-0.049
			c0.051-0.011,0.848-0.028,2.392-0.063c1.545-0.03,2.41-0.034,2.595-0.015c5.436,0.104,8.822,0.688,10.161,1.76
			c1.112,0.864,1.668,1.956,1.668,3.272C52.919,22.561,52.888,22.847,52.826,23.136z"/>
		<path fill="#1D2033" d="M72.713,21.992c-0.062,0.37-0.38,1.02-0.957,1.945c-0.988,1.587-1.987,2.587-2.996,2.997
			c-0.412,0.164-0.834,0.246-1.266,0.246c-0.988,0-1.977-0.381-2.965-1.143c-0.885-0.681-1.574-1.483-2.068-2.408
			c-0.267-0.494-0.547-1.143-0.833-1.946c-0.227-0.597-0.361-0.886-0.401-0.865c-0.887,0.907-2.019,2.04-3.397,3.397
			c-0.267,0.247-0.37,0.545-0.308,0.896c0.104,0.598,0.206,1.122,0.308,1.575c0.083,0.411,0.072,0.648-0.03,0.71
			c-0.269,0.123-0.597,0.187-0.989,0.187c-0.762,0-1.371-0.165-1.822-0.493c-0.207-0.164-0.33-0.394-0.37-0.682
			c-0.516-3.398-0.773-6.434-0.773-9.111c0-2.86,0.289-5.807,0.865-8.832c0.083-0.021,0.215-0.063,0.402-0.125
			c0.289-0.082,0.607-0.123,0.957-0.123c0.865,0,1.535,0.165,2.009,0.494c0.083,0.063,0.112,0.187,0.093,0.372
			c-0.227,1.73-0.402,3.574-0.525,5.528c0.042,0.043,0.103,0.071,0.186,0.092l1.175-0.988c2.82-2.429,6.135-4.519,9.944-6.269
			c0.391-0.186,0.865-0.36,1.419-0.525c0.247-0.062,0.444,0.011,0.587,0.215c0.535,0.803,0.803,2.006,0.803,3.613
			c0,0.474-0.031,0.938-0.092,1.39c-0.083,0.701-0.243,1.384-0.479,2.055c-0.236,0.669-0.458,1.044-0.664,1.126
			c-1.832,0.907-2.882,1.433-3.152,1.575c-1.832,0.908-2.758,1.452-2.779,1.638c0.165,0.864,0.453,1.831,0.865,2.9
			c0.513,1.297,1.008,2.15,1.482,2.559c0.166,0.147,0.339,0.188,0.525,0.123c0.329-0.104,0.736-0.416,1.221-0.942
			c0.483-0.525,0.869-1.075,1.159-1.653c0.082-0.205,0.184-0.41,0.308-0.618c0.68-0.063,1.287,0.022,1.821,0.248
			C72.509,21.385,72.756,21.662,72.713,21.992z"/>
		<path fill="#1D2033" d="M96.34,24.834c0,0.065-0.107,0.154-0.324,0.278c-0.216,0.125-0.561,0.319-1.034,0.586
			c-1.792,0.948-3.253,1.473-4.385,1.574c-1.008,0.125-1.699,0.073-2.069-0.153c-0.825-0.431-1.452-1.542-1.883-3.334l-0.093,0.065
			c-1.935,1.726-3.366,2.784-4.294,3.177c-0.761,0.332-1.266,0.488-1.512,0.467c-1.092-0.103-2.446-0.773-4.062-2.01
			c-1.617-1.237-2.589-2.313-2.919-3.223c-0.124-0.37-0.248-0.836-0.37-1.396c-0.145-0.7-0.215-1.653-0.215-2.853
			c0-2.707,0.278-5.104,0.833-7.189c0.145-0.516,0.289-0.969,0.433-1.362c0.104-0.267,0.776-0.489,2.023-0.666
			c1.246-0.175,2.548-0.231,3.907-0.17c1.44,0.042,2.583,0.114,3.427,0.216c0.783,0.104,1.175,0.321,1.175,0.65
			c0,0.122-0.022,0.268-0.063,0.433c-0.246,0.68-0.617,1.693-1.112,3.033c-0.967,2.64-1.534,5.285-1.698,7.921
			c-0.083,1.197-0.021,2.042,0.187,2.537c0.124,0.311,0.349,0.359,0.678,0.152c1.277-0.761,2.327-1.689,3.151-2.776l-0.032-0.339
			c-0.145-1.422-0.215-2.939-0.215-4.54c0-1.916,0.093-3.13,0.278-3.645c0.187-0.515,0.526-0.904,1.02-1.174
			c1.647-0.925,3.479-1.594,5.497-2.006c2.326-0.494,3.489-0.648,3.489-0.463c0,0.124,0.011,0.247,0.031,0.371
			c-0.062,0.865-0.165,2.563-0.309,5.095c-0.062,1.052-0.092,2.081-0.092,3.089C95.785,19.604,95.97,22.157,96.34,24.834z"/>
		<path fill="#1D2033" d="M112.183,24.031c0.063,0.394,0.042,0.76-0.062,1.115c-0.042,0.145-0.104,0.232-0.186,0.263
			c-0.083,0.026-0.258,0.063-0.525,0.105c-1.915,0.395-4.252,0.991-7.01,1.792l-0.649,0.191c-0.37,0.103-0.771,0.062-1.206-0.123
			c-0.597-0.232-1.462-0.578-2.594-1.052c-0.166-0.065-0.269-0.148-0.309-0.245c-0.083-0.188-0.145-0.412-0.186-0.681
			c-0.577-3.274-0.865-6.928-0.865-10.964c0-1.174,0.042-2.121,0.125-2.84c0.082-0.804,0.175-1.648,0.278-2.533
			c2.286-0.927,4.612-1.317,6.98-1.173c0.699,0.041,1.194,0.093,1.483,0.154c0.514,0.104,0.967,0.298,1.358,0.587
			c-0.948,3.416-1.658,7.101-2.132,11.055c-0.186,1.48-0.278,2.613-0.278,3.397c0,0.245,0.016,0.393,0.046,0.434
			c0.031,0.039,0.169,0.082,0.417,0.124c0.124,0.04,0.556,0.054,1.296,0.03c2.47-0.083,3.789-0.04,3.953,0.121
			C112.142,23.847,112.163,23.928,112.183,24.031z"/>
		<path fill="#1D2033" d="M126.946,24.031c0.064,0.394,0.041,0.76-0.064,1.115c-0.04,0.145-0.104,0.232-0.186,0.263
			c-0.082,0.026-0.258,0.063-0.527,0.105c-1.915,0.395-4.254,0.991-7.011,1.792l-0.648,0.191c-0.37,0.103-0.771,0.062-1.208-0.123
			c-0.596-0.232-1.46-0.578-2.592-1.052c-0.165-0.065-0.269-0.148-0.309-0.245c-0.083-0.188-0.145-0.412-0.187-0.681
			c-0.576-3.274-0.864-6.928-0.864-10.964c0-1.174,0.042-2.121,0.124-2.84c0.082-0.804,0.174-1.648,0.277-2.533
			c2.285-0.927,4.612-1.317,6.981-1.173c0.698,0.041,1.195,0.093,1.482,0.154c0.518,0.104,0.968,0.298,1.361,0.587
			c-0.949,3.416-1.659,7.101-2.132,11.055c-0.188,1.48-0.277,2.613-0.277,3.397c0,0.245,0.015,0.393,0.047,0.434
			c0.029,0.039,0.169,0.082,0.416,0.124c0.123,0.04,0.556,0.054,1.295,0.03c2.472-0.083,3.787-0.04,3.954,0.121
			C126.904,23.847,126.926,23.928,126.946,24.031z"/>
		<path fill="#1D2033" d="M148.995,19.183c-0.72,2.389-2.182,4.394-4.384,6.021c-2.204,1.628-4.562,2.45-7.074,2.473
			c-2.531,0.021-4.919-0.786-7.163-2.427c-2.243-1.638-3.727-3.658-4.448-6.067c-0.206-0.968-0.189-1.885,0.063-2.749
			c0.409-1.546,1.46-3.13,3.149-4.758c1.69-1.626,3.376-2.686,5.063-3.181c1.052-0.308,2.135-0.463,3.245-0.463
			c1.134,0,2.221,0.154,3.274,0.463c1.688,0.494,3.376,1.555,5.064,3.181c1.688,1.627,2.736,3.212,3.15,4.758
			C149.182,17.298,149.201,18.214,148.995,19.183z M139.73,21.776c0-0.907-0.229-1.679-0.681-2.315
			c-0.451-0.637-0.988-0.954-1.604-0.954c-0.638,0-1.18,0.319-1.625,0.954c-0.442,0.637-0.661,1.413-0.661,2.315
			c0,0.906,0.222,1.678,0.661,2.315c0.446,0.639,0.987,0.957,1.625,0.957c0.615,0,1.152-0.318,1.604-0.957
			C139.504,23.454,139.73,22.683,139.73,21.776z"/>
		<path fill="#1D2033" d="M171.263,17.73c0.021,0.433-0.134,0.772-0.463,1.02c-0.967,0.761-2.832,1.572-5.589,2.437
			c-1.342,0.394-2.668,0.792-3.985,1.206h-0.03c3.768,1.4,6.598,2.739,8.492,4.016c-0.228,0.246-0.411,0.451-0.556,0.615
			c-0.433,0.435-0.938,0.65-1.515,0.65c-0.368,0-0.771-0.081-1.204-0.245c-0.558-0.289-1.579-0.773-3.06-1.452
			c-2.6-1.173-5.427-2.019-8.49-2.532l0.121,3.768c0,0.021,0,0.041,0,0.062c-0.021,0.022-0.068,0.03-0.152,0.03
			c-1.048-0.104-1.852-0.288-2.407-0.555c-0.412-0.205-0.648-0.565-0.71-1.08c-0.186-1.298-0.271-2.626-0.247-3.983
			c0.04-2.677,0.104-4.118,0.188-4.323c0.022-0.083,0.028-0.146,0.028-0.188l-0.556-0.527c-0.597-0.515-0.989-1.378-1.173-2.594
			c-0.245-1.792-0.34-3.593-0.275-5.405c0.021-0.33,0.193-0.504,0.525-0.524c2.059-0.103,4.038-0.063,5.932,0.123
			c1.628,0.146,3.375,0.454,5.252,0.927c1.811,0.433,3.263,0.896,4.355,1.391c0.613,0.268,1.223,0.7,1.823,1.297
			c1.087,1.05,1.955,2.11,2.594,3.181C170.85,16.198,171.223,17.091,171.263,17.73z M164.778,18.271
			c-0.065-0.052-0.206-0.129-0.434-0.232c-2.204-0.637-4.384-0.958-6.548-0.958c-1.03,0-1.833,0.054-2.408,0.156
			c-0.247,1.09-0.384,2.189-0.402,3.303c3.211,0.042,6.289-0.452,9.233-1.483c0.438-0.164,0.653-0.369,0.653-0.617
			C164.871,18.379,164.838,18.322,164.778,18.271z"/>
		<path fill="#1D2033" d="M190.226,9.979c-0.021,1.235-0.465,2.575-1.329,4.015c-0.353,0.578-0.916,1.29-1.699,2.131
			c-0.328,0.352-0.659,0.691-0.99,1.02c-0.021,0.04-0.08,0.505-0.187,1.391c-0.247,2.202-0.37,4.076-0.37,5.62
			c0,0.407,0.022,0.73,0.064,0.954c0.04,0.474,0.053,0.762,0.028,0.867c-0.04,0.084-0.317,0.217-0.833,0.402
			c-1.153,0.393-1.864,0.627-2.132,0.71c-0.841,0.246-1.587,0.379-2.224,0.4c-1.254,0.065-2.038-0.226-2.347-0.864
			c-0.843-2.059-1.307-4.171-1.389-6.332c-0.021-0.285-0.053-0.73-0.095-1.33c-0.042-0.35-0.123-0.585-0.246-0.709
			c-0.268-0.205-0.667-0.545-1.206-1.017c-1.031-0.886-1.998-1.844-2.901-2.873c-0.432-0.495-1.37-1.73-2.813-3.707l-0.061-0.091
			c2.595-1.626,5.333-2.439,8.218-2.439c0.389,0,0.777,0.021,1.157,0.062c0.381,0.042,0.614,0.083,0.697,0.124
			c0.082,0.042,0.146,0.174,0.188,0.402c0.284,1.606,0.74,3.303,1.359,5.096c0.351,1.01,0.666,1.678,0.954,2.007
			c0.165,0.205,0.301,0.279,0.403,0.216c1.4-0.781,2.491-2.255,3.276-4.416c0.574-1.585,0.854-2.873,0.832-3.86
			c0.824-0.021,1.594,0.021,2.315,0.124C189.803,8.001,190.245,8.702,190.226,9.979z"/>
	</g>
	<g>
		<path fill="#FFFFFF" d="M54.526,21.867c-0.206,1.152-1.185,2.088-2.935,2.813c-2.76,1.131-6.505,1.699-11.24,1.699
			c-4.757,0-8.298-0.536-10.624-1.606c-0.536-0.247-0.803-0.71-0.803-1.389c0-0.165,0.021-0.326,0.062-0.492
			c0.062-0.247,0.144-0.598,0.246-1.052c4.078,0.638,7.773,0.955,11.087,0.955c3.541,0,6.321-0.39,8.338-1.171
			c0.576-0.229,0.865-0.528,0.865-0.895c0-0.658-1.276-1.073-3.829-1.238c-0.7-0.064-2.243-0.093-4.632-0.093
			c-2.286,0-4.408,0.051-6.361,0.15c-1.627,0.083-3.089,0.056-4.386-0.092c-1.524-0.188-2.286-1.781-2.286-4.788
			c0-1.607,0.371-3.233,1.113-4.88c0.391-0.844,1.092-1.646,2.099-2.41c1.75-1.296,4.23-2.501,7.444-3.613
			c3.479-1.173,6.506-1.76,9.081-1.76c0.556,0,1.08,0.03,1.574,0.092c0.37,0.042,0.762,0.31,1.173,0.803
			c0.555,0.64,1.07,1.65,1.544,3.028c0.391,1.193,0.637,2.256,0.742,3.181c0.041,0.246,0.072,0.556,0.091,0.925
			c0.021,0.31-0.144,0.507-0.494,0.587c-3.213,0.659-6.587,1.555-10.129,2.686c-2.162,0.7-3.923,1.419-5.281,2.162
			c-0.308,0.165-0.464,0.312-0.464,0.434c0,0.148,0.196,0.205,0.587,0.188c0.411-0.021,0.643-0.034,0.695-0.048
			c0.05-0.011,0.848-0.028,2.393-0.063c1.545-0.03,2.41-0.034,2.595-0.015c5.436,0.104,8.822,0.688,10.161,1.759
			c1.112,0.865,1.668,1.955,1.668,3.273C54.619,21.289,54.588,21.577,54.526,21.867z"/>
		<path fill="#FFFFFF" d="M74.415,20.723c-0.062,0.371-0.381,1.02-0.957,1.945c-0.988,1.588-1.987,2.586-2.997,2.996
			c-0.412,0.165-0.833,0.247-1.266,0.247c-0.988,0-1.977-0.381-2.965-1.143c-0.884-0.68-1.574-1.483-2.069-2.409
			c-0.268-0.492-0.546-1.141-0.833-1.946c-0.227-0.595-0.361-0.884-0.401-0.866c-0.886,0.908-2.018,2.04-3.397,3.4
			c-0.267,0.247-0.37,0.543-0.308,0.896c0.104,0.597,0.207,1.122,0.308,1.575c0.083,0.408,0.072,0.648-0.03,0.709
			c-0.268,0.125-0.597,0.187-0.989,0.187c-0.762,0-1.371-0.166-1.822-0.493c-0.206-0.163-0.33-0.393-0.37-0.681
			c-0.516-3.397-0.773-6.435-0.773-9.11c0-2.862,0.289-5.807,0.865-8.833c0.083-0.021,0.215-0.062,0.402-0.124
			c0.288-0.083,0.606-0.124,0.957-0.124c0.866,0,1.535,0.165,2.008,0.494c0.083,0.063,0.112,0.187,0.093,0.371
			c-0.227,1.73-0.403,3.573-0.524,5.529c0.042,0.042,0.104,0.072,0.185,0.092l1.175-0.989c2.82-2.429,6.135-4.52,9.944-6.269
			c0.391-0.187,0.865-0.359,1.419-0.524c0.248-0.062,0.444,0.009,0.587,0.216c0.535,0.803,0.803,2.007,0.803,3.613
			c0,0.475-0.031,0.937-0.093,1.39c-0.082,0.701-0.242,1.385-0.479,2.054c-0.236,0.67-0.458,1.045-0.664,1.127
			c-1.832,0.908-2.882,1.432-3.152,1.575c-1.833,0.906-2.759,1.45-2.778,1.637c0.164,0.866,0.453,1.832,0.864,2.899
			c0.514,1.298,1.009,2.152,1.482,2.561c0.166,0.147,0.339,0.188,0.525,0.122c0.329-0.104,0.736-0.416,1.221-0.94
			c0.483-0.527,0.868-1.078,1.158-1.653c0.082-0.206,0.184-0.413,0.308-0.618c0.68-0.063,1.287,0.021,1.822,0.246
			C74.209,20.115,74.456,20.395,74.415,20.723z"/>
		<path fill="#FFFFFF" d="M98.04,23.564c0,0.065-0.107,0.153-0.324,0.278c-0.216,0.123-0.562,0.32-1.034,0.586
			c-1.791,0.948-3.253,1.473-4.385,1.575c-1.008,0.123-1.698,0.072-2.069-0.153c-0.825-0.432-1.452-1.543-1.883-3.335l-0.093,0.065
			c-1.934,1.724-3.365,2.783-4.292,3.177c-0.761,0.333-1.266,0.488-1.514,0.468c-1.092-0.104-2.446-0.774-4.062-2.012
			c-1.617-1.237-2.589-2.312-2.919-3.223c-0.124-0.37-0.247-0.836-0.37-1.394c-0.145-0.703-0.216-1.653-0.216-2.854
			c0-2.706,0.278-5.102,0.833-7.189c0.144-0.516,0.289-0.971,0.433-1.362c0.104-0.268,0.776-0.491,2.022-0.667
			c1.246-0.176,2.548-0.233,3.908-0.171c1.44,0.041,2.583,0.113,3.427,0.216c0.783,0.103,1.175,0.32,1.175,0.65
			c0,0.124-0.022,0.267-0.063,0.433c-0.246,0.68-0.618,1.693-1.113,3.033c-0.967,2.641-1.533,5.285-1.698,7.922
			c-0.083,1.195-0.021,2.041,0.186,2.537c0.124,0.309,0.349,0.359,0.68,0.152c1.276-0.761,2.326-1.689,3.15-2.776l-0.031-0.34
			c-0.145-1.421-0.216-2.938-0.216-4.54c0-1.915,0.092-3.129,0.278-3.644c0.186-0.515,0.525-0.905,1.019-1.173
			c1.647-0.926,3.479-1.594,5.497-2.008c2.326-0.493,3.489-0.648,3.489-0.463c0,0.125,0.011,0.247,0.031,0.371
			c-0.062,0.865-0.165,2.563-0.31,5.096c-0.062,1.05-0.092,2.079-0.092,3.089C97.485,18.336,97.67,20.889,98.04,23.564z"/>
		<path fill="#FFFFFF" d="M113.884,22.762c0.062,0.395,0.042,0.762-0.062,1.115c-0.043,0.146-0.104,0.234-0.188,0.264
			c-0.083,0.027-0.258,0.063-0.524,0.105c-1.915,0.395-4.252,0.991-7.011,1.792l-0.648,0.19c-0.37,0.104-0.772,0.063-1.206-0.122
			c-0.597-0.231-1.462-0.578-2.594-1.053c-0.165-0.063-0.268-0.146-0.31-0.244c-0.083-0.188-0.144-0.414-0.186-0.681
			c-0.578-3.274-0.865-6.928-0.865-10.964c0-1.174,0.042-2.12,0.125-2.841c0.082-0.803,0.174-1.646,0.278-2.532
			c2.285-0.928,4.612-1.317,6.979-1.174c0.699,0.042,1.194,0.092,1.483,0.155c0.514,0.103,0.967,0.298,1.358,0.587
			c-0.947,3.417-1.657,7.102-2.131,11.055c-0.187,1.482-0.279,2.614-0.279,3.397c0,0.246,0.016,0.394,0.047,0.434
			c0.031,0.041,0.17,0.083,0.417,0.124c0.124,0.042,0.556,0.055,1.296,0.031c2.471-0.083,3.789-0.042,3.953,0.12
			C113.843,22.576,113.863,22.659,113.884,22.762z"/>
		<path fill="#FFFFFF" d="M128.646,22.762c0.065,0.395,0.043,0.762-0.062,1.115c-0.042,0.146-0.105,0.234-0.186,0.264
			c-0.085,0.027-0.258,0.063-0.53,0.105c-1.913,0.395-4.251,0.991-7.009,1.792l-0.649,0.19c-0.369,0.104-0.771,0.063-1.207-0.122
			c-0.596-0.231-1.46-0.578-2.592-1.053c-0.165-0.063-0.269-0.146-0.309-0.244c-0.083-0.188-0.145-0.414-0.186-0.681
			c-0.576-3.274-0.865-6.928-0.865-10.964c0-1.174,0.041-2.12,0.124-2.841c0.083-0.803,0.174-1.646,0.278-2.532
			c2.284-0.928,4.61-1.317,6.981-1.174c0.697,0.042,1.193,0.092,1.481,0.155c0.516,0.103,0.968,0.298,1.36,0.587
			c-0.948,3.417-1.658,7.102-2.132,11.055c-0.187,1.482-0.276,2.614-0.276,3.397c0,0.246,0.015,0.394,0.046,0.434
			c0.029,0.041,0.171,0.083,0.416,0.124c0.123,0.042,0.556,0.055,1.295,0.031c2.474-0.083,3.787-0.042,3.956,0.12
			C128.605,22.576,128.625,22.659,128.646,22.762z"/>
		<path fill="#FFFFFF" d="M150.694,17.914c-0.719,2.389-2.18,4.395-4.384,6.021c-2.203,1.627-4.562,2.449-7.071,2.471
			c-2.533,0.022-4.922-0.784-7.167-2.427c-2.242-1.637-3.725-3.657-4.445-6.067c-0.206-0.967-0.19-1.883,0.062-2.749
			c0.409-1.543,1.461-3.129,3.15-4.757c1.69-1.625,3.377-2.686,5.065-3.181c1.05-0.308,2.132-0.464,3.243-0.464
			c1.132,0,2.221,0.155,3.272,0.464c1.691,0.494,3.377,1.555,5.066,3.181c1.688,1.627,2.737,3.213,3.149,4.757
			C150.883,16.029,150.902,16.945,150.694,17.914z M141.431,20.506c0-0.906-0.228-1.678-0.68-2.315
			c-0.452-0.636-0.99-0.953-1.604-0.953c-0.64,0-1.178,0.319-1.624,0.953c-0.444,0.638-0.662,1.415-0.662,2.315
			c0,0.907,0.222,1.68,0.662,2.316c0.446,0.638,0.984,0.958,1.624,0.958c0.614,0,1.152-0.32,1.604-0.958
			C141.205,22.186,141.431,21.413,141.431,20.506z"/>
		<path fill="#FFFFFF" d="M172.963,16.46c0.021,0.433-0.135,0.773-0.464,1.021c-0.967,0.761-2.83,1.573-5.588,2.437
			c-1.341,0.393-2.668,0.792-3.986,1.206h-0.03c3.768,1.4,6.599,2.738,8.494,4.017c-0.228,0.244-0.412,0.451-0.557,0.613
			c-0.433,0.436-0.938,0.651-1.513,0.651c-0.37,0-0.773-0.081-1.206-0.245c-0.559-0.288-1.578-0.773-3.061-1.452
			c-2.599-1.174-5.425-2.018-8.488-2.531l0.119,3.767c0,0.021,0,0.039,0,0.063c-0.021,0.021-0.068,0.029-0.15,0.029
			c-1.051-0.104-1.854-0.287-2.407-0.556c-0.413-0.206-0.648-0.564-0.712-1.08c-0.186-1.299-0.269-2.626-0.245-3.983
			c0.039-2.677,0.104-4.117,0.186-4.322c0.021-0.084,0.029-0.146,0.029-0.188l-0.556-0.528c-0.597-0.514-0.988-1.378-1.173-2.594
			c-0.246-1.791-0.341-3.592-0.276-5.404c0.022-0.329,0.194-0.505,0.526-0.525c2.058-0.103,4.037-0.062,5.933,0.125
			c1.627,0.144,3.373,0.452,5.25,0.927c1.812,0.432,3.263,0.895,4.356,1.39c0.614,0.268,1.225,0.701,1.822,1.298
			c1.087,1.05,1.956,2.111,2.595,3.181C172.552,14.928,172.922,15.822,172.963,16.46z M166.477,17.003
			c-0.063-0.054-0.204-0.129-0.432-0.233c-2.203-0.637-4.385-0.956-6.548-0.956c-1.031,0-1.832,0.054-2.408,0.154
			c-0.248,1.09-0.383,2.189-0.403,3.304c3.211,0.042,6.29-0.451,9.235-1.482c0.435-0.165,0.651-0.371,0.651-0.618
			C166.57,17.108,166.54,17.054,166.477,17.003z"/>
		<path fill="#FFFFFF" d="M191.926,8.71c-0.022,1.235-0.463,2.574-1.329,4.014c-0.351,0.578-0.915,1.288-1.698,2.131
			c-0.328,0.352-0.658,0.692-0.99,1.02c-0.021,0.041-0.081,0.504-0.186,1.391c-0.248,2.203-0.373,4.076-0.373,5.619
			c0,0.408,0.022,0.731,0.066,0.956c0.041,0.474,0.053,0.761,0.029,0.866c-0.042,0.084-0.318,0.218-0.834,0.402
			c-1.154,0.391-1.864,0.627-2.133,0.709c-0.84,0.248-1.586,0.381-2.221,0.403c-1.256,0.064-2.039-0.228-2.35-0.866
			c-0.843-2.058-1.306-4.169-1.387-6.331c-0.021-0.285-0.054-0.73-0.096-1.33c-0.041-0.35-0.123-0.584-0.245-0.709
			c-0.269-0.205-0.668-0.545-1.206-1.018c-1.031-0.886-1.998-1.843-2.902-2.873c-0.431-0.494-1.369-1.729-2.811-3.706l-0.063-0.092
			c2.595-1.626,5.334-2.44,8.217-2.44c0.391,0,0.779,0.021,1.159,0.063c0.382,0.041,0.615,0.083,0.698,0.124
			c0.08,0.042,0.145,0.174,0.187,0.402c0.284,1.606,0.739,3.304,1.358,5.096c0.35,1.009,0.666,1.677,0.956,2.007
			c0.163,0.206,0.3,0.278,0.402,0.216c1.4-0.783,2.491-2.255,3.277-4.417c0.571-1.585,0.854-2.873,0.831-3.861
			c0.824-0.021,1.594,0.022,2.314,0.124C191.505,6.732,191.946,7.433,191.926,8.71z"/>
	</g>
	<path fill="#E5E5E5" d="M71.854,19.636c-0.124,0.206-0.226,0.412-0.308,0.618c-0.186,0.371-0.427,0.727-0.692,1.076
		c0.26-0.162,0.555-0.414,0.888-0.779c0.27-0.293,0.502-0.596,0.711-0.905C72.257,19.636,72.066,19.618,71.854,19.636z
		 M41.706,25.024c-4.756,0-8.298-0.535-10.624-1.606c-0.536-0.248-0.803-0.71-0.803-1.392c0-0.013,0.005-0.026,0.005-0.041
		c-0.354-0.051-0.692-0.091-1.052-0.147c-0.103,0.454-0.185,0.803-0.247,1.052c-0.042,0.165-0.062,0.326-0.062,0.492
		c0,0.679,0.267,1.141,0.803,1.389c2.326,1.07,5.867,1.606,10.624,1.606c4.735,0,8.482-0.569,11.241-1.698
		c1.332-0.551,2.215-1.225,2.653-2.024c-0.373,0.238-0.801,0.464-1.298,0.669C50.187,24.455,46.44,25.024,41.706,25.024z
		 M67.647,15.91c0.023,0.125,0.069,0.269,0.098,0.396c0.372-0.199,0.811-0.422,1.326-0.679c0.268-0.145,1.319-0.666,3.152-1.574
		c0.19-0.076,0.393-0.41,0.609-0.985c-1.372,0.679-2.177,1.082-2.406,1.207C68.595,15.18,67.668,15.727,67.647,15.91z
		 M38.462,14.736c0.015-0.001,0.027-0.001,0.041-0.002c1.083-0.485,2.326-0.959,3.763-1.424c3.542-1.132,6.917-2.027,10.129-2.686
		c0.35-0.082,0.514-0.279,0.494-0.587c-0.012-0.211-0.026-0.395-0.045-0.567c-2.941,0.638-6.011,1.461-9.224,2.487
		c-2.161,0.7-3.921,1.419-5.28,2.162c-0.308,0.165-0.464,0.311-0.464,0.433C37.876,14.697,38.072,14.755,38.462,14.736z
		 M30.314,19.459c1.298,0.147,2.76,0.175,4.386,0.092c1.955-0.102,4.076-0.15,6.361-0.15c2.388,0,3.932,0.026,4.632,0.093
		c2.194,0.143,3.439,0.47,3.747,0.977c0.195-0.064,0.389-0.128,0.571-0.197c0.577-0.229,0.865-0.526,0.865-0.895
		c0-0.659-1.276-1.073-3.829-1.238c-0.701-0.064-2.244-0.093-4.632-0.093c-2.287,0-4.408,0.051-6.362,0.151
		c-1.626,0.08-3.089,0.053-4.385-0.094c-1.524-0.187-2.286-1.781-2.286-4.787c0-1.606,0.371-3.232,1.113-4.879
		c0.143-0.309,0.341-0.611,0.568-0.907c-0.907,0.718-1.556,1.47-1.921,2.261c-0.742,1.646-1.113,3.273-1.113,4.88
		C28.028,17.678,28.79,19.271,30.314,19.459z M89.173,18.168l-0.032-0.341c-0.145-1.418-0.215-2.937-0.215-4.539
		c0-1.905,0.09-3.112,0.275-3.633c-0.108,0.058-0.223,0.107-0.332,0.169c-0.494,0.268-0.833,0.659-1.019,1.173
		c-0.186,0.516-0.278,1.729-0.278,3.644c0,1.604,0.071,3.119,0.216,4.54l0.031,0.34c-0.093,0.122-0.199,0.235-0.299,0.354
		C88.142,19.357,88.699,18.791,89.173,18.168z M188.282,6.487c0.024,0.988-0.258,2.276-0.829,3.861
		c-0.396,1.09-0.87,2.003-1.422,2.744c1.163-0.836,2.086-2.2,2.775-4.098c0.338-0.938,0.564-1.76,0.695-2.489
		C189.106,6.483,188.703,6.477,188.282,6.487z M164.279,19.769h-0.029c0.479,0.18,0.943,0.357,1.394,0.534
		c0.423-0.127,0.841-0.261,1.269-0.385c2.758-0.864,4.618-1.676,5.587-2.438c0.262-0.196,0.409-0.453,0.451-0.767
		c-1.06,0.588-2.622,1.204-4.685,1.851C166.927,18.955,165.6,19.355,164.279,19.769z M140.751,18.19
		c0.454,0.638,0.68,1.411,0.68,2.315c0,0.683-0.126,1.287-0.384,1.818c0.39-0.137,0.744-0.412,1.059-0.855
		c0.453-0.637,0.681-1.41,0.681-2.316s-0.228-1.678-0.681-2.315c-0.452-0.637-0.991-0.954-1.605-0.954
		c-0.639,0-1.178,0.319-1.621,0.954c-0.111,0.157-0.207,0.325-0.289,0.501c0.178-0.061,0.359-0.101,0.557-0.101
		C139.762,17.237,140.299,17.555,140.751,18.19z M166.045,16.77c0.021,0.009,0.028,0.015,0.046,0.021
		c0.397-0.115,0.796-0.221,1.185-0.358c0.437-0.163,0.652-0.369,0.652-0.615c-0.002-0.064-0.031-0.121-0.097-0.171
		c-0.064-0.053-0.203-0.129-0.431-0.232c-2.205-0.638-4.385-0.958-6.551-0.958c-1.029,0-1.832,0.054-2.405,0.154
		c-0.095,0.408-0.155,0.822-0.218,1.233c0.379-0.021,0.796-0.034,1.269-0.034C161.66,15.813,163.842,16.133,166.045,16.77z
		 M59.429,24.935c-0.559-0.055-1.025-0.206-1.385-0.468c-0.208-0.165-0.33-0.394-0.371-0.683c-0.515-3.396-0.772-6.433-0.772-9.108
		c0-2.507,0.234-5.081,0.676-7.716c-0.273,0.014-0.531,0.046-0.763,0.111c-0.187,0.062-0.321,0.104-0.402,0.124
		c-0.576,3.027-0.865,5.972-0.865,8.834c0,0.611,0.018,1.248,0.043,1.896c0.251,0.525,0.385,1.094,0.385,1.718
		c-0.001,0.29-0.031,0.577-0.093,0.866c-0.021,0.113-0.055,0.221-0.089,0.328c0.127,1.365,0.297,2.792,0.526,4.3
		c0.042,0.288,0.164,0.518,0.37,0.679c0.452,0.328,1.06,0.494,1.822,0.494c0.392,0,0.721-0.063,0.989-0.188
		c0.102-0.062,0.112-0.299,0.03-0.709C59.497,25.269,59.46,25.1,59.429,24.935z M140.595,25.052
		c-2.531,0.021-4.921-0.786-7.166-2.427c-2.243-1.638-3.727-3.659-4.447-6.068c-0.207-0.967-0.189-1.884,0.062-2.749
		c0.323-1.22,1.055-2.467,2.177-3.738c-0.127,0.114-0.254,0.212-0.379,0.334c-1.691,1.627-2.74,3.213-3.152,4.757
		c-0.25,0.866-0.268,1.782-0.062,2.749c0.336,1.123,0.844,2.161,1.512,3.115c0.454,0.024,0.729,0.068,0.796,0.136
		c0.022,0.06,0.045,0.14,0.065,0.243c0.043,0.247,0.033,0.484,0.009,0.713c0.597,0.665,1.28,1.287,2.063,1.858
		c2.245,1.642,4.634,2.449,7.168,2.428c2.511-0.021,4.869-0.845,7.07-2.472c0.841-0.622,1.571-1.298,2.199-2.03
		c-0.271,0.231-0.548,0.457-0.844,0.676C145.462,24.206,143.105,25.03,140.595,25.052z M122.216,24.683l-0.648,0.189
		c-0.372,0.104-0.771,0.063-1.207-0.123c-0.598-0.231-1.462-0.576-2.595-1.051c-0.164-0.064-0.269-0.146-0.308-0.246
		c-0.084-0.188-0.146-0.411-0.187-0.681c-0.578-3.273-0.867-6.926-0.867-10.962c0-1.173,0.043-2.119,0.125-2.841
		c0.054-0.518,0.111-1.058,0.174-1.609c-0.418,0.133-0.835,0.263-1.249,0.431c-0.105,0.886-0.194,1.729-0.278,2.532
		c-0.082,0.721-0.123,1.667-0.123,2.841c0,4.036,0.288,7.69,0.865,10.964c0.042,0.267,0.104,0.493,0.187,0.681
		c0.04,0.1,0.144,0.182,0.31,0.244c1.131,0.475,1.996,0.821,2.592,1.052c0.436,0.187,0.837,0.227,1.207,0.122l0.649-0.189
		c2.759-0.801,5.097-1.397,7.011-1.791c0.27-0.042,0.444-0.077,0.527-0.107c0.08-0.031,0.146-0.117,0.188-0.264
		c0.08-0.274,0.098-0.563,0.074-0.859C126.854,23.406,124.716,23.955,122.216,24.683z M185.834,24.463
		c-0.84,0.248-1.587,0.381-2.221,0.401c-1.256,0.064-2.039-0.226-2.349-0.864c-0.845-2.06-1.306-4.171-1.388-6.332
		c-0.021-0.283-0.055-0.73-0.096-1.333c-0.042-0.349-0.122-0.58-0.244-0.706c-0.271-0.204-0.668-0.545-1.207-1.018
		c-1.032-0.884-2-1.844-2.901-2.873c-0.405-0.465-1.262-1.59-2.557-3.359c-0.566,0.272-1.122,0.572-1.672,0.916l0.064,0.091
		c1.44,1.977,2.379,3.211,2.812,3.706c0.903,1.03,1.871,1.987,2.9,2.873c0.537,0.472,0.938,0.813,1.208,1.018
		c0.12,0.123,0.202,0.36,0.244,0.708c0.041,0.601,0.075,1.044,0.097,1.33c0.08,2.163,0.541,4.273,1.385,6.332
		c0.313,0.639,1.095,0.929,2.351,0.866c0.635-0.022,1.38-0.153,2.221-0.405c0.27-0.078,0.979-0.317,2.134-0.707
		c0.518-0.188,0.791-0.318,0.834-0.402c0.02-0.099,0.012-0.357-0.022-0.77C186.597,24.217,186.055,24.395,185.834,24.463z
		 M170.673,25.049c-0.37,0-0.773-0.08-1.206-0.243c-0.559-0.288-1.576-0.773-3.058-1.452c-2.6-1.174-5.428-2.019-8.493-2.532
		l0.054,1.632c2.522,0.521,4.891,1.263,7.085,2.256c1.483,0.677,2.502,1.162,3.059,1.45c0.433,0.165,0.836,0.246,1.207,0.246
		c0.573,0,1.079-0.216,1.512-0.651c0.146-0.162,0.329-0.368,0.558-0.614c-0.072-0.05-0.157-0.101-0.232-0.148
		C171,25.026,170.84,25.049,170.673,25.049z M155.479,24.124c-0.412-0.204-0.648-0.567-0.71-1.079
		c-0.188-1.299-0.271-2.628-0.247-3.985c0.042-2.677,0.104-4.118,0.186-4.323c0.021-0.082,0.029-0.146,0.029-0.188l-0.556-0.527
		c-0.595-0.516-0.989-1.378-1.172-2.594c-0.212-1.522-0.303-3.051-0.288-4.588c-0.274,0.009-0.538-0.001-0.817,0.012
		c-0.331,0.021-0.503,0.196-0.526,0.525c-0.064,1.811,0.03,3.613,0.276,5.404c0.01,0.062,0.024,0.111,0.034,0.171
		c0.119,0.287,0.226,0.572,0.302,0.856c0.056,0.194,0.095,0.389,0.127,0.587c0.191,0.405,0.425,0.735,0.71,0.98l0.554,0.528
		c0,0.042-0.007,0.104-0.027,0.188c-0.082,0.205-0.146,1.646-0.188,4.323c-0.021,1.358,0.063,2.686,0.247,3.983
		c0.063,0.516,0.297,0.874,0.71,1.08c0.554,0.269,1.357,0.451,2.407,0.556c0.082,0,0.131-0.01,0.151-0.029v-0.063l-0.046-1.45
		C156.18,24.393,155.786,24.273,155.479,24.124z M70.548,24.558c-0.988,0-1.977-0.38-2.964-1.144
		c-0.886-0.677-1.574-1.482-2.069-2.406c-0.267-0.495-0.547-1.144-0.833-1.947c-0.227-0.597-0.361-0.885-0.401-0.865
		c-0.397,0.405-0.851,0.863-1.346,1.358c0.045,0.007,0.176,0.285,0.393,0.859c0.286,0.804,0.565,1.454,0.833,1.946
		c0.495,0.926,1.184,1.729,2.069,2.409c0.988,0.762,1.977,1.143,2.965,1.143c0.432,0,0.854-0.082,1.266-0.247
		c0.733-0.298,1.46-0.917,2.182-1.833c-0.275,0.2-0.552,0.366-0.827,0.479C71.404,24.476,70.982,24.558,70.548,24.558z M60.8,21.689
		c0.453-0.45,0.875-0.871,1.258-1.26c-0.371,0.368-0.758,0.751-1.174,1.164C60.851,21.623,60.828,21.656,60.8,21.689z
		 M106.805,24.872c-0.37,0.104-0.772,0.063-1.205-0.123c-0.597-0.231-1.462-0.576-2.595-1.051c-0.165-0.064-0.268-0.146-0.309-0.246
		c-0.083-0.188-0.145-0.411-0.186-0.681c-0.578-3.273-0.865-6.926-0.865-10.962c0-1.173,0.042-2.119,0.124-2.841
		c0.052-0.518,0.112-1.058,0.173-1.609c-0.417,0.133-0.834,0.263-1.249,0.431c-0.103,0.886-0.195,1.729-0.277,2.532
		c-0.083,0.721-0.125,1.667-0.125,2.841c0,4.036,0.288,7.69,0.865,10.964c0.042,0.267,0.102,0.493,0.186,0.681
		c0.042,0.1,0.145,0.182,0.31,0.244c1.132,0.475,1.997,0.821,2.594,1.052c0.433,0.187,0.835,0.227,1.206,0.122l0.648-0.189
		c2.758-0.801,5.097-1.397,7.01-1.791c0.268-0.042,0.442-0.077,0.525-0.107c0.083-0.031,0.146-0.117,0.188-0.264
		c0.08-0.274,0.096-0.563,0.076-0.859c-1.807,0.391-3.944,0.939-6.444,1.667L106.805,24.872z M93.65,24.649
		c-1.008,0.125-1.698,0.072-2.069-0.152c-0.824-0.433-1.452-1.542-1.884-3.336l-0.093,0.065c-1.935,1.725-3.365,2.783-4.292,3.176
		c-0.761,0.333-1.266,0.489-1.514,0.47c-1.092-0.104-2.445-0.777-4.061-2.012c-1.617-1.239-2.591-2.314-2.919-3.223
		c-0.124-0.371-0.247-0.837-0.371-1.396c-0.145-0.7-0.215-1.651-0.215-2.854c0-2.707,0.278-5.102,0.834-7.189
		c0.049-0.178,0.099-0.338,0.15-0.501c-0.63,0.143-0.999,0.306-1.07,0.494c-0.145,0.392-0.289,0.847-0.433,1.362
		c-0.556,2.086-0.833,4.483-0.833,7.189c0,0.667,0.024,1.253,0.069,1.766c0.027,0.012,0.057,0.014,0.083,0.022
		c0.533,0.232,0.781,0.509,0.739,0.838c-0.041,0.242-0.201,0.615-0.46,1.095c0.052,0.187,0.105,0.37,0.156,0.526
		c0.329,0.911,1.303,1.985,2.919,3.224c1.616,1.238,2.97,1.909,4.062,2.011c0.248,0.021,0.752-0.134,1.514-0.467
		c0.927-0.395,2.358-1.453,4.292-3.178l0.093-0.063c0.431,1.791,1.059,2.901,1.883,3.334c0.371,0.227,1.061,0.277,2.069,0.152
		c1.132-0.105,2.594-0.627,4.386-1.575c0.472-0.268,0.817-0.463,1.034-0.586c0.217-0.123,0.324-0.213,0.324-0.277
		c-0.021-0.155-0.037-0.309-0.057-0.465C96.218,24.031,94.771,24.548,93.65,24.649z"/>
</g>
<g>
	<g>
		<path fill="#E8F900" d="M205.915,11.37c-0.117,0.146-7.63,9.377-10.94,13.394l-0.004,0.002c-0.916,1.112-1.513,1.825-1.539,1.834
			c-0.125,0.043,5.783-11.193,5.783-11.193s0,0.001-0.003,0.001c0,0-0.002,0.001-0.004,0.004l-7.897,4.114
			c0.111-0.14,7.238-9.035,10.799-13.439c1.147-1.421,1.925-2.375,1.976-2.415l-5.824,10.82l1.667-0.679
			c0.002-0.001,0.002-0.001,0.002-0.001L205.915,11.37z"/>
	</g>
	<path fill="#E8FF7F" d="M205.915,11.37c-0.117,0.146-7.63,9.377-10.94,13.394l-0.004,0.002L194.09,25.5l9.426-12.326l-5.115,1.568
		c0.037-0.023,0.637-0.388,1.524-0.931c0.001-0.001,0.001-0.001,0.002-0.001L205.915,11.37z"/>
	<path fill="#E8FF7F" d="M193.934,17.334l5.278-1.928c0,0-0.002,0.001-0.004,0.004l-7.899,4.115c0,0,7.211-9.002,10.801-13.44
		l0.311,0.139L193.934,17.334z"/>
	<path fill="#E8F900" d="M193.432,26.887c-0.084,0-0.164-0.035-0.221-0.101c-0.145-0.173-0.145-0.173,0.842-2.095
		c0.48-0.934,1.147-2.228,1.992-3.848c0.971-1.859,1.949-3.729,2.491-4.759l-7.095,3.697c-0.121,0.062-0.27,0.032-0.354-0.072
		c-0.086-0.103-0.087-0.253-0.002-0.362c3.785-4.726,12.608-15.731,12.819-15.899c0.106-0.084,0.259-0.083,0.363,0.003
		c0.104,0.088,0.135,0.236,0.069,0.356l-5.448,10.117l6.92-2.82c0.121-0.05,0.26-0.01,0.338,0.095
		c0.078,0.105,0.074,0.249-0.008,0.352c-0.031,0.038-3.125,3.84-6.195,7.6c-6.264,7.67-6.305,7.684-6.422,7.723
		C193.492,26.882,193.461,26.887,193.432,26.887z M199.215,15.119c0.074,0,0.148,0.029,0.204,0.084
		c0.088,0.089,0.108,0.225,0.05,0.336c-1.498,2.85-3.508,6.689-4.716,9.041c2.496-3.029,7.461-9.118,10.235-12.522l-6.622,2.698
		c-0.111,0.046-0.239,0.018-0.32-0.074c-0.081-0.09-0.099-0.221-0.04-0.326l4.419-8.205c-2.491,3.08-6.944,8.63-10.041,12.494
		l6.7-3.492C199.125,15.13,199.17,15.119,199.215,15.119z"/>
</g>
<g>
	<g>
		<path fill="#E8F900" d="M217.557,11.37c-0.117,0.146-7.632,9.377-10.941,13.394l-0.002,0.002c-0.918,1.112-1.514,1.825-1.54,1.834
			c-0.125,0.043,5.784-11.193,5.784-11.193s-0.002,0.001-0.004,0.001c0,0,0,0.001-0.004,0.004l-7.897,4.114
			c0.112-0.14,7.239-9.035,10.8-13.439c1.146-1.421,1.924-2.375,1.975-2.415l-5.824,10.82l1.67-0.679
			c0.001-0.001,0.001-0.001,0.002-0.001L217.557,11.37z"/>
	</g>
	<path fill="#E8FF7F" d="M217.557,11.37c-0.117,0.146-7.632,9.377-10.941,13.394l-0.002,0.002l-0.881,0.734l9.426-12.326
		l-5.116,1.568c0.037-0.023,0.636-0.388,1.524-0.931c0.002-0.001,0.002-0.001,0.002-0.001L217.557,11.37z"/>
	<path fill="#E8FF7F" d="M205.575,17.334l5.278-1.928c-0.002,0-0.002,0.001-0.006,0.004l-7.897,4.115c0,0,7.212-9.002,10.801-13.44
		l0.31,0.139L205.575,17.334z"/>
	<path fill="#E8F900" d="M205.072,26.887c-0.083,0-0.164-0.035-0.219-0.101c-0.146-0.173-0.146-0.173,0.84-2.095
		c0.479-0.934,1.147-2.228,1.994-3.848c0.968-1.859,1.947-3.729,2.489-4.759l-7.096,3.697c-0.12,0.062-0.267,0.032-0.354-0.072
		c-0.086-0.103-0.086-0.253-0.002-0.362c3.785-4.726,12.609-15.731,12.82-15.899c0.107-0.084,0.258-0.083,0.365,0.003
		c0.104,0.088,0.135,0.236,0.068,0.356l-5.447,10.117l6.919-2.82c0.121-0.05,0.26-0.01,0.339,0.095
		c0.077,0.105,0.072,0.249-0.01,0.352c-0.029,0.038-3.129,3.84-6.197,7.6c-6.264,7.67-6.305,7.684-6.421,7.723
		C205.133,26.882,205.104,26.887,205.072,26.887z M210.857,15.119c0.074,0,0.147,0.029,0.203,0.084
		c0.088,0.089,0.107,0.225,0.051,0.336c-1.5,2.85-3.508,6.689-4.717,9.041c2.496-3.029,7.461-9.118,10.233-12.522l-6.62,2.698
		c-0.111,0.046-0.238,0.018-0.32-0.074c-0.08-0.09-0.098-0.221-0.039-0.326l4.418-8.205c-2.49,3.08-6.944,8.63-10.041,12.494
		l6.701-3.492C210.768,15.13,210.813,15.119,210.857,15.119z"/>
</g>
<g>
	<path fill="#FFF2E7" d="M21.204,7.117C19.099,4.274,12.733,0.833,5.4,4.852C-1.931,8.87,1.355,19.98,1.355,19.98
		c0.603,2.699,4.759,2.26,6.003,2.73c0.946,0.355,0.729,3.165,1.065,4.48c0.338,1.315,1.207,0.877,2.153,0.773
		c1.044-0.115,0.311-1.712,0.251-2.753c-0.059-1.041,0.719-0.812,0.796-0.103c0.113,1.037,0.226,2.16,0.527,2.535
		c0.339,0.424,1.251,0.207,2.182,0.008c0.931-0.198-0.046-2.666,0.298-3.023c0.15-0.152,0.54-0.211,0.612,0.141
		c0.185,0.892-0.155,2.806,0.857,2.748c0.392-0.022,1.491-0.004,1.637-0.22c0.382-0.562-0.116-2.026-0.142-2.487
		c-0.036-0.638-0.043-2.562,1.366-2.699c1.41-0.139,4.405-1.937,4.562-2.875C23.681,18.3,23.31,9.958,21.204,7.117z M7.668,19.625
		c-1.778,0.104-3.492-1.189-3.349-3.759c0.112-2.021,2.02-3.204,3.267-3.508c1,0.431,1.49,1.583,1.829,3.352
		c0.231,1.209,0.106,2.584-0.479,3.483C8.547,19.441,8.116,19.6,7.668,19.625z M13.479,20.893c-0.238,0.449-1.783,0.313-2.112,0.006
		c0.218-0.616,0.69-1.439,0.888-1.346c0.412,0.198,0.967,0.729,1.245,1.231C13.493,20.818,13.495,20.861,13.479,20.893z
		 M14.479,13.924c0.07-1.066,0.874-1.717,1.547-2.043c0.839,0.063,2.195,0.938,3.119,1.807c1.07,1.005,1.171,5.321-2.392,5.416
		c-0.442,0.014-0.826-0.041-1.159-0.145C14.052,17.715,14.414,14.9,14.479,13.924z"/>
	<path fill="#FFFFFF" d="M15.594,18.959c-1.542-1.244-1.18-4.059-1.115-5.035c0.049-0.748,0.46-1.287,0.933-1.657
		c-0.077-0.017-0.155-0.037-0.226-0.042c-0.673,0.334-1.476,1.003-1.543,2.101c-0.063,1.005-0.42,3.902,1.124,5.188
		c0.333,0.105,0.716,0.161,1.159,0.149c0.922-0.022,1.594-0.343,2.072-0.813c-0.354,0.147-0.764,0.242-1.245,0.256
		C16.31,19.116,15.926,19.063,15.594,18.959z"/>
	<path fill="#FFFFFF" d="M4.319,15.866c0.083-1.499,1.154-2.534,2.211-3.095c-1.24,0.388-2.941,1.571-3.044,3.538
		c-0.139,2.644,1.577,3.979,3.355,3.875c0.448-0.026,0.879-0.188,1.267-0.442c0.042-0.067,0.065-0.153,0.103-0.226
		c-0.178,0.053-0.357,0.099-0.543,0.108C5.89,19.729,4.176,18.436,4.319,15.866z"/>
	<path fill="#FFFFFF" d="M21.204,7.117c-1.594-2.153-5.635-4.643-10.687-3.981c4.648-0.294,8.333,2.101,9.84,4.192
		c2.11,2.93,2.496,11.518,2.339,12.484c-0.046,0.289-0.352,0.657-0.79,1.037c0.854-0.556,1.543-1.177,1.616-1.611
		C23.681,18.3,23.31,9.958,21.204,7.117z"/>
	<path fill="#EFD9CA" d="M9.415,15.71c0.206,1.075,0.109,2.265-0.323,3.151c0.115-0.055,0.234-0.098,0.344-0.168
		c0.586-0.899,0.711-2.274,0.479-3.483c-0.338-1.769-0.828-2.921-1.829-3.352c-0.759,0.185-1.757,0.7-2.452,1.526
		c0.626-0.534,1.361-0.882,1.952-1.026C8.587,12.789,9.077,13.941,9.415,15.71z M19.144,13.688c0.731,0.687,1.008,2.916-0.024,4.292
		c1.592-1.25,1.354-4.013,0.524-4.792c-0.924-0.868-2.28-1.744-3.119-1.807c-0.376,0.182-0.79,0.471-1.096,0.872
		c0.196-0.151,0.401-0.277,0.596-0.372C16.864,11.944,18.22,12.819,19.144,13.688z M8.924,26.691
		c-0.337-1.314-0.119-4.123-1.065-4.479C6.614,21.74,2.458,22.18,1.855,19.48c0,0-2.545-8.616,1.855-13.417
		C-1.375,10.737,1.355,19.98,1.355,19.98c0.603,2.699,4.759,2.26,6.003,2.73c0.946,0.355,0.729,3.165,1.065,4.48
		c0.338,1.315,1.207,0.877,2.153,0.773c0.334-0.037,0.475-0.234,0.525-0.509c-0.01,0.001-0.015,0.008-0.025,0.009
		C10.13,27.568,9.262,28.009,8.924,26.691z M19.461,21.611c-0.482,0.049-0.789,0.312-0.995,0.652
		c0.143-0.076,0.304-0.134,0.495-0.152c1.194-0.115,3.52-1.422,4.3-2.391C22.243,20.588,20.458,21.516,19.461,21.611z
		 M12.651,27.146c-0.301-0.375-0.414-1.498-0.527-2.535c-0.073-0.67-0.764-0.897-0.79-0.043c0.14,0.093,0.262,0.285,0.29,0.543
		c0.113,1.037,0.226,2.16,0.527,2.535c0.339,0.424,1.251,0.207,2.182,0.009c0.222-0.048,0.33-0.229,0.379-0.476
		C13.825,27.371,12.976,27.552,12.651,27.146z M15.743,24.271c-0.072-0.353-0.462-0.295-0.612-0.142
		c-0.065,0.068-0.075,0.229-0.067,0.42c0.082,0.035,0.153,0.095,0.179,0.222c0.185,0.891-0.155,2.805,0.857,2.746
		c0.392-0.021,1.491-0.002,1.637-0.219c0.064-0.095,0.097-0.221,0.118-0.357c-0.399,0.063-0.989,0.062-1.255,0.076
		C15.587,27.076,15.928,25.162,15.743,24.271z"/>
	<g>
		<path fill="#1F1212" d="M7.866,20.134c-2.299,0.134-4.498-1.256-4.283-4.055c0.214-2.801,3.172-4.111,4.328-3.875
			c1.451,0.296,2.09,1.499,2.514,3.448C10.848,17.604,10.166,20,7.866,20.134"/>
		<path fill="#1F1212" d="M16.702,19.63c-2.299,0.129-3.249-2.174-3.051-4.161c0.198-1.986,0.697-3.254,2.104-3.713
			c1.122-0.366,4.21,0.601,4.741,3.358C21.027,17.871,19.001,19.501,16.702,19.63"/>
		<path fill="#1F1212" d="M13.403,20.896c-0.285,0.539-2.293,0.305-2.369-0.099c-0.076-0.401,0.724-2.026,0.998-1.896
			C12.679,19.215,13.687,20.355,13.403,20.896"/>
	</g>
</g>
<g>
	<path fill="#EFD9CA" d="M17.346,6.779c0,0.189-0.519,0.708-0.708,0.708s-0.342-0.519-0.342-0.708c0-0.188,0.153-0.342,0.342-0.342
		S17.346,6.59,17.346,6.779z"/>
	<path fill="#EFD9CA" d="M18.625,7.875c0,0.175-0.319,0.318-0.494,0.318c-0.175,0-0.317-0.143-0.317-0.318s0.142-0.317,0.317-0.317
		C18.306,7.558,18.625,7.7,18.625,7.875z"/>
	<path fill="#EFD9CA" d="M18.438,6.454c0.105,0.098,0.013,0.369-0.085,0.474c-0.098,0.105-0.263,0.111-0.368,0.013
		c-0.106-0.098-0.112-0.263-0.014-0.368C18.069,6.467,18.333,6.355,18.438,6.454z"/>
</g>
<g>
	<path fill="#EFD9CA" d="M3.362,11.693c0.176,0.07,0.468,0.743,0.399,0.918c-0.069,0.176-0.608,0.128-0.784,0.059
		c-0.175-0.069-0.262-0.268-0.193-0.444C2.853,12.05,3.187,11.624,3.362,11.693z"/>
	<path fill="#EFD9CA" d="M4.851,10.905c0.163,0.063,0.179,0.413,0.114,0.576c-0.064,0.163-0.249,0.243-0.412,0.179
		c-0.163-0.064-0.243-0.249-0.179-0.412S4.688,10.841,4.851,10.905z"/>
	<path fill="#EFD9CA" d="M3.459,10.559c0.13-0.063,0.348,0.123,0.41,0.253s0.007,0.285-0.123,0.347
		c-0.13,0.063-0.285,0.008-0.348-0.122C3.337,10.907,3.33,10.62,3.459,10.559z"/>
</g>
<g>
	<path fill="#EFD9CA" d="M17.297,20.82c0.161,0.068,0.168,0.418,0.099,0.578c-0.068,0.162-0.255,0.236-0.417,0.168
		c-0.161-0.066-0.236-0.254-0.167-0.416C16.88,20.989,17.136,20.751,17.297,20.82z"/>
	<path fill="#EFD9CA" d="M15.915,20.438c0.131-0.059,0.344,0.133,0.403,0.265c0.058,0.131-0.001,0.284-0.132,0.344
		s-0.285,0-0.345-0.132C15.784,20.783,15.784,20.495,15.915,20.438z"/>
</g>
</svg>
