<?xml version="1.0" encoding="utf-8"?>
<!-- Generator: Adobe Illustrator 13.0.0, SVG Export Plug-In . SVG Version: 6.00 Build 14948)  -->
<!DOCTYPE svg PUBLIC "-//W3C//DTD SVG 1.1//EN" "http://www.w3.org/Graphics/SVG/1.1/DTD/svg11.dtd">
<svg version="1.1" id="Livello_1" xmlns="http://www.w3.org/2000/svg" xmlns:xlink="http://www.w3.org/1999/xlink" x="0px" y="0px"
	 width="224px" height="28px" viewBox="0 0 224 28" enable-background="new 0 0 224 28" xml:space="preserve">
<g>
	<path fill="#FFFFFF" d="M46.601,21.179c-0.203,1.136-1.167,2.058-2.89,2.768c-2.718,1.115-6.408,1.673-11.072,1.673
		c-4.684,0-8.172-0.527-10.463-1.582c-0.528-0.243-0.791-0.699-0.791-1.368c0-0.162,0.02-0.324,0.061-0.487
		c0.061-0.243,0.142-0.588,0.243-1.034c4.015,0.629,7.655,0.943,10.92,0.943c3.487,0,6.225-0.385,8.212-1.156
		c0.567-0.223,0.852-0.517,0.852-0.882c0-0.648-1.257-1.054-3.771-1.217c-0.69-0.061-2.21-0.091-4.563-0.091
		c-2.251,0-4.34,0.051-6.266,0.152c-1.602,0.081-3.042,0.051-4.319-0.092c-1.501-0.183-2.251-1.754-2.251-4.714
		c0-1.582,0.365-3.184,1.095-4.806c0.385-0.831,1.075-1.622,2.068-2.373c1.723-1.277,4.167-2.464,7.331-3.559
		c3.427-1.156,6.408-1.734,8.943-1.734c0.547,0,1.064,0.03,1.551,0.091c0.365,0.041,0.75,0.304,1.156,0.791
		c0.547,0.628,1.054,1.623,1.521,2.98c0.385,1.176,0.628,2.221,0.73,3.133c0.041,0.243,0.071,0.547,0.091,0.912
		c0.02,0.304-0.142,0.498-0.486,0.578c-3.164,0.649-6.489,1.531-9.977,2.646c-2.129,0.689-3.863,1.399-5.201,2.129
		c-0.304,0.163-0.457,0.305-0.457,0.426c0,0.143,0.193,0.203,0.578,0.183c0.405-0.02,0.633-0.035,0.685-0.046
		c0.05-0.01,0.836-0.03,2.357-0.061c1.521-0.03,2.373-0.035,2.555-0.015c5.354,0.102,8.689,0.679,10.007,1.733
		c1.095,0.852,1.643,1.927,1.643,3.224C46.692,20.611,46.662,20.895,46.601,21.179z"/>
	<path fill="#FFFFFF" d="M66.189,20.053c-0.061,0.365-0.375,1.004-0.943,1.916c-0.973,1.563-1.957,2.546-2.951,2.951
		c-0.406,0.162-0.821,0.243-1.247,0.243c-0.973,0-1.947-0.375-2.92-1.126c-0.872-0.669-1.551-1.46-2.038-2.372
		c-0.264-0.486-0.538-1.125-0.821-1.916c-0.223-0.588-0.355-0.872-0.395-0.852c-0.873,0.893-1.988,2.007-3.346,3.346
		c-0.264,0.243-0.365,0.537-0.304,0.882c0.102,0.589,0.203,1.105,0.304,1.552c0.081,0.405,0.071,0.639-0.03,0.699
		c-0.264,0.122-0.588,0.183-0.974,0.183c-0.75,0-1.349-0.163-1.794-0.487c-0.203-0.162-0.325-0.385-0.365-0.669
		c-0.507-3.346-0.761-6.337-0.761-8.973c0-2.818,0.284-5.719,0.852-8.7c0.081-0.02,0.213-0.061,0.396-0.122
		c0.284-0.081,0.598-0.122,0.943-0.122c0.852,0,1.511,0.163,1.978,0.487c0.081,0.061,0.111,0.183,0.091,0.365
		c-0.223,1.704-0.395,3.519-0.517,5.445c0.041,0.041,0.102,0.071,0.183,0.091l1.156-0.974c2.778-2.392,6.043-4.451,9.794-6.174
		c0.385-0.183,0.852-0.354,1.399-0.517c0.243-0.061,0.436,0.01,0.578,0.213c0.527,0.791,0.791,1.977,0.791,3.559
		c0,0.467-0.03,0.923-0.091,1.369c-0.081,0.69-0.239,1.364-0.472,2.023c-0.233,0.659-0.451,1.029-0.654,1.11
		c-1.805,0.893-2.839,1.41-3.103,1.551c-1.805,0.893-2.717,1.43-2.737,1.612c0.162,0.852,0.446,1.805,0.852,2.859
		c0.506,1.277,0.993,2.119,1.46,2.524c0.162,0.142,0.334,0.183,0.517,0.121c0.324-0.101,0.725-0.41,1.202-0.928
		c0.476-0.517,0.856-1.059,1.141-1.627c0.081-0.202,0.182-0.405,0.304-0.608c0.669-0.061,1.267,0.021,1.794,0.243
		C65.986,19.455,66.23,19.729,66.189,20.053z"/>
	<path fill="#FFFFFF" d="M89.458,22.852c0,0.061-0.106,0.151-0.319,0.273s-0.553,0.314-1.019,0.578
		c-1.764,0.933-3.204,1.449-4.319,1.551c-0.994,0.122-1.673,0.071-2.038-0.151c-0.812-0.426-1.43-1.521-1.855-3.285l-0.091,0.061
		c-1.906,1.698-3.315,2.741-4.228,3.129c-0.75,0.327-1.247,0.48-1.491,0.46c-1.075-0.102-2.408-0.763-4-1.983
		c-1.592-1.22-2.55-2.278-2.875-3.174c-0.122-0.366-0.244-0.823-0.365-1.373c-0.142-0.691-0.213-1.627-0.213-2.808
		c0-2.665,0.274-5.025,0.821-7.08c0.142-0.508,0.284-0.956,0.426-1.342c0.102-0.264,0.765-0.483,1.993-0.656
		c1.227-0.173,2.509-0.229,3.848-0.168c1.419,0.041,2.544,0.112,3.376,0.213c0.771,0.102,1.156,0.315,1.156,0.64
		c0,0.122-0.021,0.264-0.061,0.427c-0.243,0.67-0.608,1.667-1.095,2.987c-0.953,2.601-1.511,5.202-1.673,7.802
		c-0.081,1.179-0.021,2.012,0.183,2.499c0.122,0.305,0.345,0.355,0.669,0.153c1.257-0.75,2.291-1.663,3.103-2.738l-0.031-0.334
		c-0.142-1.399-0.213-2.89-0.213-4.472c0-1.886,0.091-3.082,0.274-3.589s0.517-0.892,1.004-1.156
		c1.622-0.912,3.426-1.571,5.414-1.977c2.291-0.486,3.437-0.639,3.437-0.456c0,0.122,0.01,0.243,0.03,0.365
		c-0.061,0.852-0.162,2.525-0.304,5.019c-0.061,1.034-0.091,2.048-0.091,3.042C88.911,17.701,89.093,20.216,89.458,22.852z"/>
	<path fill="#FFFFFF" d="M105.062,22.061c0.061,0.386,0.041,0.75-0.061,1.095c-0.041,0.143-0.102,0.229-0.183,0.259
		c-0.082,0.03-0.254,0.066-0.517,0.106c-1.886,0.386-4.188,0.974-6.905,1.764l-0.639,0.183c-0.365,0.102-0.76,0.062-1.187-0.121
		c-0.588-0.224-1.44-0.567-2.555-1.034c-0.163-0.062-0.264-0.142-0.304-0.243c-0.082-0.183-0.142-0.406-0.183-0.67
		c-0.568-3.224-0.852-6.823-0.852-10.798c0-1.156,0.041-2.088,0.122-2.798c0.081-0.791,0.172-1.622,0.274-2.494
		c2.25-0.913,4.542-1.297,6.874-1.156c0.689,0.041,1.176,0.091,1.46,0.152c0.507,0.102,0.953,0.294,1.338,0.578
		c-0.933,3.366-1.632,6.996-2.099,10.889c-0.183,1.46-0.274,2.575-0.274,3.346c0,0.243,0.015,0.386,0.046,0.426
		c0.03,0.041,0.167,0.082,0.411,0.122c0.122,0.041,0.547,0.051,1.277,0.03c2.434-0.081,3.731-0.04,3.894,0.122
		C105.021,21.878,105.042,21.959,105.062,22.061z"/>
	<path fill="#FFFFFF" d="M119.602,22.061c0.061,0.386,0.04,0.75-0.062,1.095c-0.041,0.143-0.102,0.229-0.183,0.259
		s-0.253,0.066-0.517,0.106c-1.886,0.386-4.188,0.974-6.904,1.764l-0.639,0.183c-0.365,0.102-0.76,0.062-1.187-0.121
		c-0.588-0.224-1.44-0.567-2.555-1.034c-0.163-0.062-0.264-0.142-0.304-0.243c-0.082-0.183-0.142-0.406-0.183-0.67
		c-0.568-3.224-0.852-6.823-0.852-10.798c0-1.156,0.041-2.088,0.122-2.798c0.081-0.791,0.172-1.622,0.274-2.494
		c2.25-0.913,4.542-1.297,6.874-1.156c0.689,0.041,1.176,0.091,1.46,0.152c0.507,0.102,0.953,0.294,1.339,0.578
		c-0.934,3.366-1.633,6.996-2.1,10.889c-0.182,1.46-0.273,2.575-0.273,3.346c0,0.243,0.016,0.386,0.046,0.426
		c0.03,0.041,0.167,0.082,0.41,0.122c0.122,0.041,0.548,0.051,1.277,0.03c2.434-0.081,3.731-0.04,3.894,0.122
		C119.561,21.878,119.581,21.959,119.602,22.061z"/>
	<path fill="#FFFFFF" d="M141.319,17.285c-0.71,2.353-2.149,4.329-4.319,5.931c-2.17,1.603-4.492,2.413-6.966,2.434
		c-2.494,0.021-4.847-0.775-7.057-2.388s-3.67-3.604-4.38-5.977c-0.203-0.953-0.183-1.855,0.061-2.707
		c0.405-1.521,1.439-3.083,3.103-4.685c1.663-1.602,3.326-2.646,4.988-3.133c1.034-0.304,2.1-0.457,3.194-0.457
		c1.115,0,2.189,0.152,3.224,0.457c1.663,0.486,3.326,1.531,4.989,3.133c1.662,1.602,2.696,3.164,3.103,4.685
		C141.502,15.43,141.521,16.332,141.319,17.285z M132.194,19.84c0-0.892-0.224-1.652-0.67-2.281
		c-0.446-0.628-0.973-0.942-1.581-0.942c-0.629,0-1.161,0.314-1.597,0.942c-0.437,0.629-0.654,1.39-0.654,2.281
		c0,0.893,0.218,1.653,0.654,2.281c0.436,0.629,0.968,0.943,1.597,0.943c0.608,0,1.135-0.314,1.581-0.943
		C131.971,21.493,132.194,20.732,132.194,19.84z"/>
	<path fill="#FFFFFF" d="M163.249,15.855c0.021,0.426-0.132,0.761-0.456,1.004c-0.953,0.75-2.788,1.551-5.505,2.402
		c-1.319,0.386-2.627,0.781-3.924,1.187h-0.031c3.711,1.379,6.499,2.697,8.365,3.954c-0.224,0.243-0.406,0.446-0.548,0.608
		c-0.426,0.426-0.923,0.639-1.49,0.639c-0.365,0-0.761-0.081-1.187-0.243c-0.547-0.284-1.551-0.761-3.011-1.43
		c-2.556-1.155-5.344-1.987-8.365-2.494l0.122,3.711c0,0.02,0,0.04,0,0.061c-0.021,0.021-0.071,0.03-0.152,0.03
		c-1.034-0.102-1.825-0.284-2.372-0.547c-0.406-0.203-0.639-0.558-0.7-1.064c-0.183-1.278-0.264-2.586-0.243-3.924
		c0.04-2.636,0.102-4.056,0.183-4.259c0.02-0.081,0.03-0.142,0.03-0.183l-0.548-0.517c-0.588-0.507-0.973-1.358-1.155-2.555
		c-0.243-1.764-0.335-3.539-0.273-5.323c0.02-0.324,0.192-0.497,0.517-0.517c2.027-0.101,3.975-0.061,5.84,0.122
		c1.602,0.142,3.326,0.446,5.171,0.913c1.784,0.426,3.214,0.882,4.289,1.369c0.608,0.264,1.206,0.69,1.795,1.278
		c1.074,1.034,1.926,2.079,2.555,3.133C162.844,14.345,163.209,15.227,163.249,15.855z M156.861,16.388
		c-0.061-0.051-0.202-0.127-0.426-0.229c-2.17-0.628-4.318-0.942-6.448-0.942c-1.014,0-1.805,0.051-2.372,0.152
		c-0.243,1.074-0.376,2.159-0.396,3.254c3.163,0.041,6.194-0.445,9.095-1.46c0.426-0.162,0.639-0.365,0.639-0.608
		C156.953,16.494,156.923,16.438,156.861,16.388z"/>
	<path fill="#FFFFFF" d="M181.926,8.221c-0.021,1.217-0.457,2.535-1.309,3.954c-0.345,0.568-0.902,1.268-1.673,2.099
		c-0.324,0.346-0.649,0.68-0.973,1.004c-0.021,0.041-0.082,0.497-0.183,1.369c-0.244,2.17-0.365,4.015-0.365,5.535
		c0,0.406,0.02,0.721,0.061,0.943c0.041,0.467,0.051,0.75,0.03,0.852c-0.041,0.081-0.314,0.213-0.821,0.396
		c-1.136,0.386-1.835,0.618-2.099,0.699c-0.831,0.244-1.562,0.375-2.189,0.396c-1.237,0.062-2.008-0.223-2.313-0.852
		c-0.831-2.027-1.287-4.106-1.368-6.235c-0.021-0.283-0.051-0.72-0.092-1.308c-0.041-0.345-0.121-0.578-0.243-0.7
		c-0.264-0.202-0.659-0.537-1.187-1.003c-1.014-0.872-1.967-1.815-2.858-2.829c-0.426-0.487-1.35-1.704-2.769-3.65l-0.061-0.091
		c2.555-1.602,5.252-2.403,8.091-2.403c0.385,0,0.766,0.021,1.141,0.061s0.604,0.081,0.685,0.122
		c0.081,0.041,0.142,0.172,0.183,0.396c0.283,1.582,0.729,3.254,1.338,5.019c0.345,0.994,0.659,1.653,0.943,1.977
		c0.162,0.203,0.294,0.274,0.396,0.213c1.379-0.771,2.453-2.221,3.224-4.35c0.567-1.561,0.842-2.829,0.821-3.802
		c0.812-0.02,1.571,0.021,2.281,0.122C181.51,6.274,181.945,6.963,181.926,8.221z"/>
</g>
<g>
	<g>
		<path fill="#FFF2E7" d="M22.564,5.719c-0.287-0.709-0.709-1.358-1.26-1.892c-0.578-0.555-1.268-0.979-1.993-1.311
			c-1.383-0.636-2.891-0.978-4.409-1.041c-1.512-0.063-3.04,0.149-4.476,0.623C8.987,2.574,7.627,3.312,6.474,4.297
			c-1.17,1-2.127,2.333-2.192,3.919c-0.039,0.933,0.172,1.871,0.375,2.776c0.209,0.922,0.457,1.836,0.721,2.743
			c0.535,1.844,1.112,3.675,1.707,5.503c0.033,0.103,0.065,0.202,0.101,0.306c-0.043,0.016-0.086,0.032-0.129,0.051
			c-0.561,0.246-1.147,0.707-1.315,1.321c-0.082,0.295-0.056,0.636,0.121,0.892c0.17,0.246,0.451,0.391,0.74,0.438
			c0.356,0.059,0.715-0.019,1.057-0.119c0.362-0.104,0.721-0.224,1.074-0.353c0.625-0.228,1.237-0.494,1.83-0.797
			c-0.297,0.642-0.498,1.327-0.59,2.03c-0.067,0.522-0.08,1.051-0.029,1.575c0.025,0.248,0.062,0.498,0.113,0.742
			c0.047,0.224,0.09,0.457,0.334,0.537c0.129,0.041,0.272,0.049,0.404,0.067c0.106,0.015,0.211,0.028,0.317,0.039
			c0.043,0.006,0.088,0.012,0.131,0.017c0.086,0.008,0.172,0.018,0.258,0.024c0.219,0.022,0.44,0.038,0.662,0.051
			c0.338,0.019,0.674,0.026,1.012,0.022c0.121,0,0.24,0,0.36-0.004c0.15-0.004,0.297-0.011,0.447-0.019s0.299-0.019,0.447-0.03
			c0.135-0.011,0.281-0.013,0.41-0.062c0.224-0.084,0.283-0.297,0.31-0.515c0.08-0.599,0.119-1.2,0.125-1.803
			c0.01-0.832-0.049-1.662-0.172-2.481c0.053,0.05,0.108,0.099,0.168,0.146c0.303,0.24,0.642,0.447,0.988,0.625
			c0.696,0.356,1.481,0.565,2.266,0.422c0.354-0.065,0.748-0.207,1.012-0.465c0.258-0.252,0.295-0.618,0.209-0.954
			c-0.16-0.64-0.651-1.205-1.196-1.568c0.61-1.463,1.432-2.827,2.207-4.208c0.86-1.536,1.682-3.132,2.073-4.861
			C23.167,8.796,23.152,7.169,22.564,5.719"/>
	</g>
	<g>
		<path fill="#1D2033" d="M14.056,18.763c-0.058-0.24-0.143-0.474-0.251-0.695c-0.086-0.176-0.193-0.425-0.404-0.476
			c-0.21-0.051-0.41,0.134-0.539,0.275c-0.181,0.2-0.313,0.439-0.436,0.677c-0.079,0.151-0.161,0.309-0.23,0.468
			c-0.036,0.082-0.069,0.166-0.098,0.251c-0.026,0.077-0.063,0.165-0.037,0.247c0.062,0.197,0.265,0.229,0.445,0.205
			c0.101-0.013,0.2-0.04,0.296-0.071c0.08-0.026,0.164-0.072,0.246-0.086c0.04-0.006,0.085-0.003,0.124,0.009
			c0.077,0.022,0.134,0.081,0.19,0.135c0.134,0.124,0.31,0.178,0.483,0.1c0.13-0.059,0.221-0.188,0.258-0.322
			C14.167,19.249,14.109,18.988,14.056,18.763"/>
	</g>
	<g>
		<path fill="#1D2033" d="M11.534,23.354c-0.002-0.041-0.027-0.078-0.066-0.095c-0.053-0.021-0.115,0.004-0.135,0.06
			c-0.123,0.306-0.19,0.625-0.233,0.948c-0.041,0.324-0.047,0.649-0.041,0.976c0.006,0.241,0.022,0.483,0.051,0.726
			c0.043,0.006,0.088,0.012,0.131,0.016c0.086,0.009,0.172,0.019,0.258,0.025c-0.01-0.257-0.014-0.513-0.012-0.769
			c0.002-0.313,0.021-0.625,0.031-0.938S11.542,23.678,11.534,23.354 M13.447,22.063c-0.008-0.047-0.049-0.082-0.096-0.084
			c-0.057,0-0.104,0.043-0.106,0.101c-0.027,0.793-0.024,1.577-0.043,2.362l-0.025,1.178c-0.002,0.153-0.004,0.31-0.004,0.463
			c0.121,0,0.24,0,0.36-0.004c0.023-0.144,0.042-0.287,0.058-0.433c0.041-0.397,0.065-0.799,0.068-1.198
			C13.663,23.649,13.609,22.849,13.447,22.063"/>
	</g>
	<g>
		<path fill="#1D2033" d="M8.213,16.476c0,0-4.263-6.879-0.366-8.317s5.832,7.375,4.106,8.735S8.972,17.469,8.213,16.476"/>
	</g>
	<g>
		<path fill="#FFF2E7" d="M10.822,13.544c-0.214-0.18-0.435-0.35-0.662-0.51c-0.282-0.199-0.316-0.604-0.068-0.844
			c0.039-0.037,0.079-0.074,0.119-0.11c0.15-0.135-0.071-0.355-0.221-0.221c-0.122,0.108-0.237,0.224-0.346,0.345
			c-0.169,0.187-0.442,0.229-0.666,0.11c-0.266-0.142-0.538-0.271-0.817-0.387c-0.186-0.076-0.267,0.226-0.083,0.302
			c0.207,0.086,0.411,0.181,0.611,0.282c0.271,0.138,0.374,0.47,0.236,0.741c-0.106,0.212-0.197,0.432-0.271,0.658
			c-0.063,0.191,0.238,0.273,0.301,0.083c0.056-0.169,0.121-0.333,0.196-0.492c0.147-0.313,0.538-0.422,0.821-0.222
			c0.216,0.152,0.426,0.313,0.628,0.484C10.753,13.894,10.976,13.674,10.822,13.544"/>
	</g>
	<g>
		<path fill="#1D2033" d="M14.264,16.268c0,0-0.523-6.355,1.569-7.768c2.092-1.412,4.315-1.046,4.655,0.681
			c0.34,1.726-1.988,7.244-3.557,7.95C15.593,17.733,14.447,17.157,14.264,16.268"/>
	</g>
	<g>
		<path fill="#FFF2E7" d="M18.008,11.494c-0.237,0.127-0.462,0.274-0.674,0.439c-0.187,0.146-0.457,0.104-0.59-0.092
			c-0.114-0.169-0.233-0.336-0.359-0.497c-0.056-0.072-0.178-0.059-0.236,0c-0.071,0.069-0.055,0.165,0,0.236
			c0.155,0.199,0.301,0.407,0.439,0.62c0.096,0.147,0.087,0.344-0.026,0.479c-0.229,0.274-0.429,0.574-0.591,0.894
			c-0.097,0.191,0.191,0.36,0.289,0.169c0.079-0.154,0.166-0.304,0.261-0.446c0.179-0.269,0.581-0.247,0.723,0.042
			c0.103,0.211,0.199,0.425,0.287,0.642c0.034,0.084,0.111,0.142,0.206,0.116c0.08-0.021,0.15-0.121,0.117-0.205
			c-0.151-0.373-0.324-0.736-0.515-1.088c-0.097-0.178-0.053-0.396,0.103-0.524c0.228-0.188,0.474-0.354,0.737-0.495
			C18.366,11.682,18.198,11.393,18.008,11.494"/>
	</g>
	<g>
		<path fill="#1D2033" d="M7.781,6.777c-1.018,0.27-1.84,1.131-2.057,2.162c-0.027,0.129,0.17,0.184,0.198,0.055
			c0.203-0.964,0.96-1.767,1.914-2.02C7.963,6.941,7.909,6.743,7.781,6.777"/>
	</g>
	<g>
		<path fill="#1D2033" d="M9.244,6.652c-0.223-0.04-0.453-0.025-0.667,0.051c-0.05,0.018-0.089,0.07-0.071,0.126
			C8.521,6.879,8.577,6.92,8.631,6.9C8.68,6.883,8.73,6.868,8.781,6.857c0.054-0.012,0.077-0.015,0.126-0.019
			c0.048-0.004,0.096-0.005,0.144-0.003c0.026,0.001,0.052,0.003,0.078,0.005c0,0,0.018,0.002,0.021,0.003
			c0.013,0.002,0.027,0.004,0.04,0.007c0.053,0.009,0.113-0.015,0.126-0.072C9.327,6.729,9.3,6.662,9.244,6.652"/>
	</g>
	<g>
		<path fill="#1D2033" d="M18.266,21.103c-0.426,0.286-1.003,0.273-1.417-0.028c-0.106-0.077-0.209,0.101-0.103,0.177
			c0.469,0.341,1.144,0.352,1.624,0.028C18.478,21.206,18.375,21.028,18.266,21.103"/>
	</g>
	<g>
		<path fill="#1D2033" d="M16.384,20.913c-0.009-0.016-0.021-0.027-0.037-0.036c-0.023-0.018-0.046-0.035-0.07-0.053
			c-0.012-0.007-0.024-0.012-0.038-0.012c-0.014-0.003-0.027-0.003-0.041,0.001c-0.013,0.004-0.025,0.01-0.035,0.019
			c-0.011,0.008-0.02,0.018-0.026,0.029c-0.003,0.008-0.007,0.016-0.01,0.024c-0.005,0.018-0.005,0.036,0,0.055
			c0.003,0.008,0.007,0.016,0.01,0.024c0.009,0.015,0.021,0.027,0.037,0.036c0.023,0.018,0.046,0.035,0.07,0.053
			c0.012,0.007,0.024,0.012,0.038,0.012c0.014,0.003,0.027,0.003,0.041-0.001c0.013-0.004,0.024-0.01,0.035-0.02
			c0.011-0.007,0.02-0.017,0.026-0.028c0.003-0.008,0.007-0.017,0.01-0.024c0.005-0.018,0.005-0.036,0-0.055
			C16.391,20.93,16.387,20.922,16.384,20.913"/>
	</g>
	<g>
		<path fill="#1D2033" d="M21.401,8.776c-0.209-0.657-0.56-1.286-1.116-1.71c-0.539-0.409-1.271-0.585-1.921-0.359
			c-0.124,0.043-0.071,0.241,0.055,0.198c0.602-0.21,1.274-0.043,1.769,0.343c0.506,0.396,0.824,0.98,1.017,1.583
			C21.243,8.956,21.441,8.902,21.401,8.776"/>
	</g>
	<g>
		<path fill="#1D2033" d="M21.675,6.785c-0.166-0.122-0.332-0.244-0.497-0.366c-0.043-0.032-0.116-0.009-0.14,0.036
			c-0.028,0.054-0.009,0.106,0.037,0.141c0.166,0.122,0.332,0.244,0.497,0.366c0.043,0.032,0.116,0.009,0.14-0.037
			C21.74,6.872,21.721,6.819,21.675,6.785"/>
	</g>
</g>
<g>
	<g>
		<g>
			<path fill="#E8F900" d="M195.679,10.03l-5.473,7.586h3.017l-2.772,3.056l-3.813,4.202c0,0-0.001,0-0.001,0.001l-1.146,1.265
				l-0.282,0.31l0.231-0.432l3.56-6.636h-3.576l3.836-6.463l-3.664,0.128l4.267-11.319c0.049,0.005,0.366,0.008,0.851,0.01
				c0.383,0.002,0.872,0.002,1.416,0.002c2.464,0,6.051-0.013,6.051-0.013l-5.817,8.303H195.679z"/>
		</g>
	</g>
	<g>
		<path fill="#E8FF7F" d="M187.041,18.607h3.618c0,0-2.552,3.976-4.021,6.267c0,0-0.001,0-0.001,0.001
			c-0.593,0.924-1.01,1.573-1.013,1.574c0,0-0.048-0.109-0.134-0.31c-0.014-0.037-0.032-0.078-0.051-0.122l3.56-6.636h-3.576
			l3.836-6.463l-3.664,0.128l4.267-11.319c0.049,0.005,0.366,0.008,0.851,0.01c-1.047,2.983-3.671,10.255-3.671,10.255l4.096-0.217
			L187.041,18.607z"/>
	</g>
	<g>
		<path fill="#E8FF7F" d="M195.679,10.03l-5.473,7.586h3.017l-2.772,3.056c0.719-1.322,1.324-2.431,1.324-2.431l-2.966-0.108
			l5.193-7.239h-3.061l5.712-8.426c0,0-4.44-0.727-4.525-0.727c2.464,0,6.051-0.013,6.051-0.013l-5.817,8.303H195.679z"/>
	</g>
	<g>
		<path fill="#E8F900" d="M185.207,26.76c-0.063,0-0.124-0.019-0.178-0.058c-0.128-0.09-0.168-0.261-0.095-0.398l3.549-6.611h-3.061
			c-0.111,0-0.214-0.062-0.269-0.158c-0.055-0.095-0.055-0.215,0.003-0.31l3.546-5.978l-3.098,0.109
			c-0.103,0.002-0.201-0.045-0.262-0.128c-0.06-0.085-0.074-0.193-0.038-0.29l4.267-11.32c0.05-0.131,0.181-0.213,0.32-0.198
			c0.269,0.02,5.099,0.009,8.285-0.002c0,0,0,0,0.001,0c0.115,0,0.221,0.064,0.274,0.166c0.053,0.102,0.045,0.226-0.021,0.32
			l-5.478,7.817h2.725c0.116,0,0.222,0.065,0.274,0.168c0.054,0.104,0.043,0.227-0.024,0.322l-5.119,7.094h2.412
			c0.123,0,0.233,0.073,0.283,0.186c0.049,0.111,0.028,0.242-0.054,0.332l-8.016,8.835C185.375,26.724,185.292,26.76,185.207,26.76z
			 M185.966,19.073H189c0.108,0,0.209,0.058,0.265,0.151c0.056,0.093,0.059,0.208,0.007,0.303l-2.603,4.852l5.856-6.454h-2.319
			c-0.116,0-0.222-0.064-0.275-0.168c-0.052-0.105-0.043-0.229,0.025-0.322l5.119-7.095h-2.714c-0.115,0-0.221-0.064-0.274-0.166
			c-0.053-0.103-0.045-0.227,0.021-0.32l5.476-7.815c-1.88,0.006-6.391,0.019-7.51,0.003l-4.025,10.681l3.199-0.113
			c0.112-0.005,0.219,0.053,0.276,0.151s0.058,0.219,0,0.315L185.966,19.073z"/>
	</g>
</g>
<g>
	<g>
		<g>
			<path fill="#E8F900" d="M207.925,10.03l-5.473,7.586h3.017l-2.772,3.056l-3.813,4.202c0,0-0.001,0-0.001,0.001l-1.146,1.265
				l-0.282,0.31l0.231-0.432l3.56-6.636h-3.576l3.836-6.463l-3.664,0.128l4.267-11.319c0.049,0.005,0.366,0.008,0.851,0.01
				c0.383,0.002,0.872,0.002,1.416,0.002c2.464,0,6.051-0.013,6.051-0.013l-5.817,8.303H207.925z"/>
		</g>
	</g>
	<g>
		<path fill="#E8FF7F" d="M199.287,18.607h3.618c0,0-2.552,3.976-4.021,6.267c0,0-0.001,0-0.001,0.001
			c-0.593,0.924-1.01,1.573-1.013,1.574c0,0-0.048-0.109-0.134-0.31c-0.014-0.037-0.032-0.078-0.051-0.122l3.56-6.636h-3.576
			l3.836-6.463l-3.664,0.128l4.267-11.319c0.049,0.005,0.366,0.008,0.851,0.01c-1.047,2.983-3.671,10.255-3.671,10.255l4.096-0.217
			L199.287,18.607z"/>
	</g>
	<g>
		<path fill="#E8FF7F" d="M207.925,10.03l-5.473,7.586h3.017l-2.772,3.056c0.719-1.322,1.324-2.431,1.324-2.431l-2.966-0.108
			l5.193-7.239h-3.061l5.712-8.426c0,0-4.44-0.727-4.525-0.727c2.464,0,6.051-0.013,6.051-0.013l-5.817,8.303H207.925z"/>
	</g>
	<g>
		<path fill="#E8F900" d="M197.453,26.76c-0.063,0-0.124-0.019-0.178-0.058c-0.128-0.09-0.168-0.261-0.095-0.398l3.549-6.611h-3.061
			c-0.111,0-0.214-0.062-0.269-0.158c-0.055-0.095-0.055-0.215,0.003-0.31l3.546-5.978l-3.098,0.109
			c-0.103,0.002-0.201-0.045-0.262-0.128c-0.06-0.085-0.074-0.193-0.038-0.29l4.267-11.32c0.05-0.131,0.181-0.213,0.32-0.198
			c0.269,0.02,5.099,0.009,8.285-0.002c0,0,0,0,0.001,0c0.115,0,0.221,0.064,0.274,0.166c0.053,0.102,0.045,0.226-0.021,0.32
			l-5.478,7.817h2.725c0.116,0,0.222,0.065,0.274,0.168c0.054,0.104,0.043,0.227-0.024,0.322l-5.119,7.094h2.412
			c0.123,0,0.233,0.073,0.283,0.186c0.049,0.111,0.028,0.242-0.054,0.332l-8.016,8.835C197.621,26.724,197.538,26.76,197.453,26.76z
			 M198.212,19.073h3.034c0.108,0,0.209,0.058,0.265,0.151c0.056,0.093,0.059,0.208,0.007,0.303l-2.603,4.852l5.856-6.454h-2.319
			c-0.116,0-0.222-0.064-0.275-0.168c-0.052-0.105-0.043-0.229,0.025-0.322l5.119-7.095h-2.714c-0.115,0-0.221-0.064-0.274-0.166
			c-0.053-0.103-0.045-0.227,0.021-0.32l5.476-7.815c-1.88,0.006-6.391,0.019-7.51,0.003l-4.025,10.681l3.199-0.113
			c0.112-0.005,0.219,0.053,0.276,0.151s0.058,0.219,0,0.315L198.212,19.073z"/>
	</g>
</g>
</svg>
