<?xml version="1.0" encoding="utf-8"?>
<!-- Generator: Adobe Illustrator 13.0.0, SVG Export Plug-In . SVG Version: 6.00 Build 14948)  -->
<!DOCTYPE svg PUBLIC "-//W3C//DTD SVG 1.1//EN" "http://www.w3.org/Graphics/SVG/1.1/DTD/svg11.dtd">
<svg version="1.1" id="Livello_1" xmlns="http://www.w3.org/2000/svg" xmlns:xlink="http://www.w3.org/1999/xlink" x="0px" y="0px"
	 width="1200px" height="1200px" viewBox="0 0 1200 1200" enable-background="new 0 0 1200 1200" xml:space="preserve">
<title>Skullory Splash Template</title>
<desc>Template vuoto con sfondo gradiente per creare il logo</desc>
<radialGradient id="SVGID_1_" cx="-1.7544" cy="1199.5459" r="0.6999" gradientTransform="matrix(1200 0 0 -1200 2705.5 1439935.5)" gradientUnits="userSpaceOnUse">
	<stop  offset="0" style="stop-color:#2B335C"/>
	<stop  offset="1" style="stop-color:#141724"/>
</radialGradient>
<rect fill="url(#SVGID_1_)" width="1200" height="1200"/>
<g>
	<g>
		<g>
			<path fill="#E8F900" d="M899.223,442.562c-4.503,5.566-291.007,357.632-417.308,510.796l-0.068,0.043
				c-34.981,42.445-57.731,69.65-58.727,69.959c-4.785,1.646,220.629-426.934,220.629-426.934s-0.067,0.064-0.141,0.064
				c-0.064,0-0.064,0.074-0.202,0.141L342.242,753.555c4.251-5.289,276.046-344.592,411.842-512.521
				c43.732-54.21,73.384-90.53,75.313-92.112L607.253,561.597l63.579-25.918c0.039-0.036,0.039-0.036,0.057-0.036L899.223,442.562z"
				/>
		</g>
	</g>
	<g>
		<path fill="#E8FF7F" d="M899.223,442.562c-4.503,5.566-291.007,357.632-417.308,510.796l-0.068,0.043l-33.575,28.037
			l359.445-470.084L612.608,571.15c1.417-0.912,24.152-14.785,58.187-35.473c0.037-0.036,0.037-0.036,0.073-0.036L899.223,442.562z"
			/>
	</g>
	<g>
		<path fill="#E8FF7F" d="M442.301,670.039l201.313-73.545c-0.066,0-0.066,0.07-0.204,0.139l-301.2,156.961
			c0,0,275.01-343.326,411.875-512.56l11.819,5.307L442.301,670.039z"/>
	</g>
	<g>
		<path fill="#E8F900" d="M643.748,585.539c2.819,0,5.638,1.133,7.761,3.201c3.369,3.434,4.13,8.582,1.927,12.816
			C596.26,710.232,519.638,856.714,473.597,946.359c95.175-115.521,284.5-347.732,390.265-477.543L611.386,571.691
			c-4.267,1.752-9.146,0.613-12.243-2.814c-3.091-3.436-3.708-8.424-1.511-12.448L766.14,243.52
			c-95.007,117.447-264.848,329.14-382.918,476.435l255.512-133.142C640.286,585.979,642.038,585.539,643.748,585.539z"/>
	</g>
</g>
<g>
	<path fill="#1D2033" d="M497.306,1028.225c0.093,0.035,0.093,0.285,0.007,0.752c-0.084,0.471-0.223,1.229-0.404,2.275
		c-0.272,1.254-0.697,2.719-1.281,4.4c-0.627,1.875-1.188,3.191-1.686,3.941c-1.053,1.568-1.961,2.521-2.729,2.852
		c-0.767,0.327-1.914,0.324-3.436-0.01c-1.323-0.286-2.571-0.711-3.743-1.273l-0.01,0.229c0.152,4.92-0.032,8.281-0.555,10.084
		c-0.464,1.537-0.856,2.477-1.172,2.814c-1.456,1.479-4.074,2.666-7.854,3.551c-3.785,0.885-6.532,1.008-8.238,0.363
		c-0.682-0.234-1.506-0.597-2.473-1.072c-1.201-0.627-2.696-1.67-4.484-3.139c-3.96-3.252-7.133-6.537-9.52-9.855
		c-0.563-0.817-1.055-1.582-1.474-2.287c-0.246-0.479,0.245-1.73,1.469-3.762c1.225-2.031,2.698-4.016,4.416-5.959
		c1.829-2.088,3.34-3.684,4.526-4.785c1.081-1.029,1.859-1.346,2.338-0.955c0.189,0.158,0.377,0.367,0.557,0.638
		c0.705,1.181,1.749,2.95,3.119,5.315c2.729,4.555,5.931,8.562,9.604,12.012c1.645,1.552,2.938,2.479,3.89,2.773
		c0.249,0.09,0.484,0.043,0.71-0.134c0.225-0.177,0.354-0.407,0.394-0.692c0.404-2.822,0.314-5.474-0.274-7.955l-0.528-0.373
		c-2.27-1.502-4.568-3.211-6.896-5.123c-2.805-2.303-4.496-3.928-5.067-4.881c-0.499-0.846-0.655-1.791-0.473-2.842
		c0.642-3.545,1.871-7.05,3.68-10.513c1.421-2.703,2.533-4.548,3.337-5.524c0.116-0.145,0.198-0.195,0.246-0.158
		c0.17,0.137,0.354,0.272,0.566,0.406c-0.074-0.061,2.296,2.123,7.104,6.551c1.469,1.365,2.949,2.664,4.446,3.893
		C488.984,1022.711,492.95,1025.524,497.306,1028.225z"/>
	<path fill="#1D2033" d="M500.218,978.336c5.141,6.334,10.606,11.879,16.401,16.641c1.265,1.035,2.563,2.104,3.896,3.197
		c0.218,0.178,0.837,0.611,1.874,1.297c-1.242,4.771-3.374,9.07-6.396,12.896c-1.675,2.139-3.529,3.188-5.576,3.145
		c-5.011-0.559-9.978-1.34-14.899-2.348c2.574,3.19,5.311,6.057,8.213,8.6c0.575,0.514,1.172,0.979,1.783,1.402
		c0.867,0.596,1.268,0.858,1.198,0.803c0.096,0.121-0.105,0.395-0.61,0.814c-0.566,0.494-1.033,0.891-1.398,1.189
		c-0.938,0.707-1.696,1.084-2.274,1.125c-0.573,0.049-1.25-0.227-2.034-0.834c-4.558-3.496-8.764-7.588-12.622-12.273l-3.579-4.316
		c-0.096-0.076-0.383-0.195-0.855-0.344c-1.132-0.328-2.352-0.83-3.666-1.513c0.127-0.692,0.329-1.741,0.606-3.153
		c0.463-1.974,1.387-4.361,2.765-7.16c1.384-2.799,2.825-5.117,4.333-6.955c0.509-0.619,0.993-1.139,1.458-1.559
		c0.18-0.168,0.357-0.266,0.528-0.281c0.068,0.018,0.342,0.141,0.828,0.377c0.271,0.106,1.766,1.33,4.472,3.674
		c2.613,2.265,5.398,4.148,8.354,5.65c3.629,1.811,6.924,2.684,9.888,2.619c0.286-0.007,0.461-0.021,0.524-0.055
		c0.02-0.021,0.017-0.045-0.005-0.063c-2.055-1.877-5.216-4.762-9.489-8.652c-1.457-1.385-3.662-3.389-6.621-6.012
		c-0.456-0.371-0.934-0.764-1.432-1.172c0.093-0.408,0.215-0.822,0.365-1.256c0.727-1.805,1.771-3.439,3.139-4.912
		c0.26-0.27,0.501-0.486,0.725-0.666C500.134,978.266,500.171,978.295,500.218,978.336z"/>
	<path fill="#1D2033" d="M559.894,938.396c0.456,0.176,0.934,0.467,1.435,0.883c1.047,0.855,1.773,1.75,2.172,2.678
		c0.637,1.557,0.763,3.643,0.384,6.242c-0.313,2.18-0.879,4.209-1.702,6.086c-1.42,3.188-3.168,6.049-5.239,8.578
		c-3.7,4.506-8.351,7.896-13.933,10.184c-2.741,1.1-5.46,1.469-8.147,1.092c-1.42-0.209-2.658-0.744-3.708-1.604
		c-1.574-1.295-2.732-3.24-3.47-5.843c-0.604-2.134-0.896-4.429-0.875-6.888c0.122-7.926,2.185-15.717,6.188-23.367
		c1.291-2.447,2.452-4.271,3.477-5.471c0.256-0.266,0.6-0.44,1.034-0.531c1.78-0.371,4.251-0.006,7.421,1.1
		c3.165,1.102,5.675,2.473,7.521,4.107c1.065,0.994,1.62,1.605,1.666,1.846c0.004,0.084-0.006,0.152-0.046,0.199
		c-6.514,7.594-10.444,14.541-11.795,20.861c-0.946,4.41-0.872,7.068,0.222,7.967c0.575,0.473,1.465,0.381,2.673-0.26
		c1.936-1.051,3.963-2.857,6.077-5.434c1.191-1.453,2.025-2.709,2.492-3.766c0.363-0.734,0.405-1.203,0.122-1.395
		c-1.373-0.811-2.541-0.912-3.515-0.313c-0.209,0.111-1.099,0.779-2.667,2.004c-0.812,0.65-1.336,0.879-1.575,0.686
		c-0.189-0.16-0.11-0.549,0.244-1.174c0.221-0.467,0.563-1.1,1.03-1.912c1.964-3.218,4.252-6.591,6.862-10.113
		c1.69-2.248,3.372-4.299,5.053-6.156C559.513,938.424,559.711,938.324,559.894,938.396z"/>
	<path fill="#1D2033" d="M556.976,907.736c0.189,0.154,0.484,0.459,0.88,0.896c5.468,6.568,11.294,12.869,17.479,18.902
		c1.379,1.338,2.818,2.574,4.312,3.721c-2.271,5.443-3.831,8.531-4.68,9.275c-0.789,0.668-1.933,0.768-3.422,0.301
		c-4.275-1.309-9.166-4.229-14.675-8.75c-3.721-3.055-7.183-6.377-10.384-9.967c-0.403-0.525-0.606-0.814-0.615-0.857l0.236-0.648
		c0.957-2.768,2.765-5.777,5.425-9.021c1.155-1.406,2.223-2.481,3.202-3.233c0.467-0.377,0.827-0.62,1.076-0.737
		C556.217,907.469,556.602,907.51,556.976,907.736z"/>
	<path fill="#1D2033" d="M600.592,885.389c2.623,3.955,3.809,8.529,3.55,13.729c-0.254,5.199-1.889,9.658-4.896,13.375
		c-3.009,3.758-7.072,6.303-12.192,7.627c-5.121,1.326-9.896,1.07-14.332-0.777c-1.667-0.889-3.009-2.028-4.021-3.418
		c-1.755-2.479-2.809-5.938-3.156-10.379c-0.351-4.438,0.135-8.213,1.449-11.324c0.824-1.879,1.913-3.641,3.264-5.287
		c1.371-1.67,2.896-3.09,4.583-4.264c2.794-1.896,6.4-3.109,10.819-3.633c4.425-0.521,8.011-0.148,10.767,1.117
		C598.004,882.852,599.396,883.932,600.592,885.389z M593.146,902.156c-1.309-1.072-2.698-1.666-4.178-1.781
		c-1.479-0.111-2.589,0.283-3.334,1.188c-0.764,0.929-0.941,2.11-0.541,3.534c0.397,1.43,1.25,2.678,2.559,3.748
		c1.328,1.095,2.732,1.697,4.211,1.811c1.479,0.116,2.599-0.291,3.36-1.221c0.744-0.904,0.918-2.07,0.517-3.502
		C595.343,904.508,594.477,903.25,593.146,902.156z"/>
	<path fill="#1D2033" d="M632.917,863.303c0.346,0.848,0.037,2.52-0.923,5.021c-0.957,2.508-2.185,4.866-3.676,7.07
		c-0.782,1.195-1.62,2.346-2.521,3.441c-2.938,3.576-6.027,6.291-9.264,8.143c-3.487,2.01-6.48,2.566-8.979,1.676
		c-0.799-0.298-1.603-0.775-2.414-1.441c-1.67-1.369-3.188-3.313-4.552-5.834c-1.772-3.332-2.843-7.043-3.2-11.131
		c-0.361-3.932-0.056-7.807,0.926-11.633c1.051-4.055,2.723-7.906,5.015-11.578c0.095-0.158,0.185-0.246,0.271-0.254
		c2.534-0.314,5.36,0.086,8.472,1.207c2.934,1.049,5.396,2.471,7.396,4.268c0.212,0.18,0.466,0.404,0.752,0.686
		c-0.152,0.189-0.291,0.355-0.409,0.5c-1.547,1.885-2.936,4.77-4.166,8.646c-1.229,3.881-1.836,7.125-1.817,9.734
		c0.063,3.325,0.515,5.33,1.348,6.016c0.812,0.664,2.029,0.49,3.663-0.524c1.905-1.149,3.778-3.12,5.635-5.911
		c0.708-1.061,1.433-2.38,2.178-3.964c1.1-2.411,1.729-4.323,1.899-5.745c0.06-0.51,0.222-0.779,0.481-0.809
		c1.005-0.008,1.984,0.377,2.938,1.162C632.449,862.44,632.765,862.858,632.917,863.303z"/>
	<path fill="#1D2033" d="M634.878,811.678c0.515,0.781,1.335,1.973,2.455,3.572c4.475,6.025,9.432,11.271,14.87,15.731
		c1.382,1.14,2.842,2.28,4.378,3.421c0.284,0.188,1.278,0.852,2.99,1.975c-0.346,1.195-0.917,2.283-1.719,3.264
		c-0.728,0.88-1.394,1.23-2.003,1.053c-0.605-0.184-1.994-1-4.153-2.455c-3.855-2.646-7.509-5.586-10.963-8.816
		c-0.787,1.787-2.268,4.269-4.433,7.438c-0.323,0.494-0.314,0.896,0.02,1.214c1.341,1.342,2.688,2.564,4.05,3.68
		c2.768,2.272,5.883,4.336,9.354,6.187c-1.095,2.259-2.112,4.179-3.056,5.759c-0.679,1.12-1.3,2.023-1.866,2.721
		c-1.057,1.285-2.164,2.053-3.327,2.299c-1.737,0.367-4.596-0.604-8.574-2.908c-3.02-1.719-5.582-3.482-7.687-5.295l-4.456-3.836
		c-2.063-1.77-4.17-3.942-6.332-6.516c-0.17-0.181,0.059-1.092,0.688-2.732c1.244-3.166,3.209-6.387,5.893-9.655
		c1.04-1.261,2.021-2.31,2.944-3.149c0.226-0.172,0.364-0.273,0.433-0.303c0.061-0.029,0.188,0.014,0.371,0.125
		c0.691,0.327,2.538,2.482,5.534,6.463l2.01,2.662c0.885-2.348,2.137-4.55,3.756-6.617c0.681-0.881,0.886-1.467,0.611-1.771
		l-6.177-7.282c-0.52-0.625-0.987-1.25-1.398-1.868c0.048-0.158,0.122-0.32,0.218-0.482c1.495-2.162,3.084-3.496,4.771-3.987
		C634.417,811.438,634.684,811.475,634.878,811.678z"/>
	<path fill="#1D2033" d="M648.901,795.762c0.189,0.154,0.48,0.457,0.88,0.902c5.465,6.563,11.294,12.865,17.479,18.896
		c1.381,1.337,2.82,2.576,4.313,3.723c-2.271,5.438-3.83,8.527-4.681,9.271c-0.789,0.668-1.932,0.773-3.424,0.309
		c-4.271-1.313-9.166-4.229-14.674-8.75c-3.722-3.059-7.184-6.381-10.385-9.969c-0.403-0.529-0.604-0.814-0.612-0.857l0.235-0.646
		c0.954-2.771,2.763-5.775,5.423-9.021c1.154-1.408,2.225-2.486,3.202-3.24c0.467-0.377,0.826-0.617,1.079-0.731
		C648.143,795.494,648.526,795.533,648.901,795.762z"/>
	<path fill="#1D2033" d="M673.874,766.797c5.146,6.334,10.608,11.885,16.402,16.639c1.268,1.041,2.565,2.105,3.898,3.203
		c0.215,0.178,0.837,0.609,1.875,1.295c-1.243,4.771-3.378,9.07-6.396,12.896c-1.678,2.137-3.532,3.188-5.579,3.146
		c-5.01-0.559-9.978-1.344-14.896-2.352c2.57,3.189,5.31,6.059,8.211,8.598c0.578,0.518,1.169,0.984,1.783,1.406
		c0.865,0.594,1.269,0.861,1.195,0.803c0.099,0.125-0.104,0.395-0.608,0.818c-0.567,0.49-1.031,0.887-1.396,1.188
		c-0.938,0.709-1.696,1.082-2.274,1.127c-0.575,0.049-1.253-0.229-2.038-0.834c-4.555-3.5-8.761-7.592-12.62-12.275l-3.579-4.316
		c-0.097-0.078-0.383-0.191-0.854-0.344c-1.133-0.328-2.354-0.832-3.668-1.512c0.127-0.695,0.33-1.744,0.608-3.154
		c0.465-1.971,1.384-4.363,2.765-7.16c1.381-2.801,2.823-5.117,4.334-6.957c0.507-0.617,0.992-1.137,1.458-1.555
		c0.181-0.17,0.354-0.266,0.53-0.285c0.067,0.02,0.339,0.146,0.825,0.383c0.275,0.104,1.768,1.328,4.474,3.668
		c2.608,2.268,5.396,4.15,8.354,5.65c3.629,1.814,6.921,2.688,9.884,2.625c0.286-0.008,0.463-0.027,0.523-0.057
		c0.021-0.023,0.021-0.045-0.006-0.063c-2.051-1.879-5.213-4.764-9.487-8.653c-1.455-1.386-3.663-3.388-6.621-6.009
		c-0.452-0.375-0.931-0.764-1.433-1.176c0.097-0.406,0.218-0.822,0.368-1.256c0.725-1.803,1.77-3.438,3.141-4.908
		c0.257-0.27,0.5-0.488,0.725-0.666C673.792,766.729,673.828,766.76,673.874,766.797z"/>
	<path fill="#1D2033" d="M716.804,743.828c2.624,3.953,3.811,8.528,3.553,13.729c-0.255,5.201-1.891,9.658-4.897,13.375
		c-3.009,3.76-7.071,6.305-12.192,7.627c-5.12,1.326-9.896,1.066-14.334-0.775c-1.665-0.891-3.006-2.027-4.021-3.42
		c-1.754-2.48-2.806-5.938-3.157-10.379c-0.349-4.439,0.138-8.214,1.451-11.322c0.821-1.879,1.914-3.645,3.264-5.287
		c1.371-1.67,2.896-3.09,4.581-4.266c2.796-1.896,6.403-3.107,10.82-3.633c4.425-0.52,8.012-0.148,10.768,1.115
		C714.218,741.287,715.608,742.369,716.804,743.828z M709.361,760.594c-1.31-1.068-2.698-1.664-4.179-1.78
		c-1.479-0.11-2.589,0.28-3.334,1.188c-0.764,0.932-0.94,2.111-0.54,3.537c0.396,1.424,1.25,2.676,2.559,3.748
		c1.327,1.092,2.731,1.693,4.21,1.809s2.601-0.291,3.361-1.221c0.745-0.908,0.919-2.072,0.519-3.5
		C711.556,762.947,710.689,761.686,709.361,760.594z"/>
	<path fill="#1D2033" d="M761.288,692.197c0.528,0.229,0.981,0.504,1.363,0.814c1.053,0.865,1.568,2.371,1.563,4.52
		c-0.018,2.307-0.688,5.414-2.024,9.33c-1.336,3.911-2.903,7.447-4.697,10.604c-1.457,2.551-3.104,4.953-4.949,7.195
		c-1.563,1.908-2.704,3.006-3.426,3.295c-2.805,1.09-4.683,1.504-5.631,1.246c-0.428-0.111-1.313-0.537-2.66-1.285
		c-1.646-0.912-3.822-2.342-6.537-4.289c-0.625-0.553-1.396-1.166-2.315-1.844c-0.286,0.004-0.736-0.006-1.355-0.033
		c-1.824-0.063-4.235-1.326-7.242-3.795c-0.856-0.703-1.797-1.531-2.81-2.482c-0.723-0.631-1.44-1.262-2.163-1.893
		c-0.877-0.922-1.138-1.656-0.771-2.195c1.833-2.766,4.086-5.487,6.761-8.162c3.213-3.229,6.561-5.995,10.037-8.286
		c4.299-2.854,8.266-4.595,11.887-5.216c1.596-0.287,3.971-0.176,7.119,0.336C756.585,690.57,759.203,691.283,761.288,692.197z
		 M755.771,701.979c-1.613-0.364-4.578,1.271-8.889,4.923c-3.464,2.902-6.021,5.416-7.683,7.529
		c-0.933,1.188-1.453,1.818-1.554,1.895c-0.139,0.17-0.238,0.338-0.297,0.508c-0.063,0.17,0.533,0.764,1.771,1.781
		c2.054,1.684,3.804,2.98,5.25,3.891c0.747,0.455,1.469,0.785,2.172,1.004c1.337-1.141,2.461-2.27,3.384-3.389
		c1.78-2.172,3.383-4.738,4.801-7.707s2.284-5.521,2.6-7.656c0.16-1.069-0.084-1.869-0.727-2.396
		C756.36,702.164,756.087,702.037,755.771,701.979z"/>
	<path fill="#1D2033" d="M758.563,662.178c0.19,0.156,0.487,0.455,0.88,0.9c5.469,6.564,11.296,12.867,17.481,18.896
		c1.38,1.336,2.815,2.576,4.312,3.725c-2.271,5.438-3.833,8.533-4.68,9.271c-0.792,0.668-1.932,0.773-3.422,0.307
		c-4.274-1.311-9.165-4.229-14.674-8.75c-3.722-3.055-7.187-6.378-10.385-9.969c-0.403-0.527-0.606-0.814-0.615-0.855l0.235-0.646
		c0.955-2.771,2.765-5.777,5.427-9.021c1.155-1.406,2.222-2.484,3.201-3.238c0.464-0.377,0.823-0.617,1.075-0.731
		C757.804,661.912,758.189,661.949,758.563,662.178z"/>
	<path fill="#1D2033" d="M811.6,647.326c-0.229,1.008-0.406,1.662-0.529,1.959c-0.126,0.297-0.354,0.891-0.682,1.773
		c-1.104,3.051-2.859,6.039-5.268,8.971c-1.396,1.695-2.624,2.855-3.705,3.49c-0.581,0.32-1.014,0.506-1.294,0.555
		c-0.515,0.094-1.008,0.111-1.476,0.045c-0.909-0.15-2.15-0.391-3.721-0.717c-2.82-0.602-5.938-1.38-9.342-2.339
		c-0.133-0.03-0.303-0.069-0.503-0.116c-0.151,0.036-0.438,0.344-0.864,0.909l-3.616,4.694c-0.502,0.664-0.563,1.395-0.181,2.188
		c1.971,3.973,4.193,7.658,6.679,11.053c0.077,0.102,0.337,0.395,0.775,0.875c-1.013,1.283-2.216,2.215-3.604,2.789
		c-0.396,0.193-0.837,0.25-1.313,0.18c-0.479-0.074-0.817-0.254-1.024-0.541c-0.349-0.445-0.688-0.885-1.016-1.313
		c-1.886-2.664-3.841-6.287-5.872-10.867c-1.317-2.961-2.558-6.049-3.708-9.271c-0.146-0.4-0.401-0.672-0.77-0.811
		c-0.995-0.342-2.236-0.484-3.727-0.422c-1.354,0.045-2.078,0.023-2.175-0.052c-0.069-0.06-0.09-0.134-0.056-0.228
		c1.549-6.555,3.826-12.926,6.834-19.121c0.129-0.254,0.276-0.432,0.441-0.537c0.144-0.08,0.928-0.154,2.348-0.229
		c4.007-0.266,9.66,0.244,16.953,1.521c7.295,1.277,13.401,2.841,18.315,4.677c0.799,0.298,1.435,0.541,1.914,0.733
		C811.491,647.24,811.552,647.285,811.6,647.326z M780.354,660l-2.738-0.31c-0.09-0.036-0.26-0.052-0.502-0.05
		c-0.396,0-0.482,0.27-0.269,0.813c0.972,2.422,1.482,3.65,1.526,3.689c0.06,0.035,0.102,0.063,0.128,0.08
		c0.039-0.045,0.079-0.092,0.116-0.141c0.252-0.354,0.622-0.928,1.115-1.723c0.187-0.324,0.479-0.809,0.877-1.434
		C780.925,660.348,780.839,660.041,780.354,660z"/>
	<path fill="#1D2033" d="M823.696,602.465c1.331,1.295,1.014,4.722-0.964,10.285c-0.625,1.84-1.438,3.848-2.432,6.026l0.524-0.347
		c1.153-0.771,2.521-1.305,4.101-1.604c1.586-0.297,2.8-0.234,3.652,0.186c1.061,0.508,1.729,1.078,2.011,1.709
		c0.562,1.263,0.691,2.707,0.394,4.34c-0.485,2.637-1.635,5.66-3.448,9.082c-1.646,3.121-3.438,5.916-5.392,8.393
		c-1.271,1.553-2.146,2.471-2.624,2.756c-2.985,1.699-5.021,2.326-6.096,1.883c-1.248-0.666-2.646-1.611-4.192-2.842l-10.556-8.662
		c-0.046-0.043-0.093-0.08-0.145-0.119c-0.046-0.041-0.384,0.156-1.015,0.586c-0.353,0.228-0.725,0.451-1.128,0.677
		c-0.401,0.226-1.121,0.065-2.157-0.472c-2.58-1.281-5.09-2.848-7.527-4.692c-1.918-1.455-3.073-2.427-3.475-2.912
		c1.904-3.347,4.043-6.465,6.414-9.349c4.053-4.938,8.387-8.903,13-11.899c5.244-3.364,10.147-4.987,14.721-4.866
		C820.419,600.69,822.531,601.307,823.696,602.465z M815.919,617.037c-0.317-0.338-0.74-0.506-1.267-0.498
		c-0.719,0.049-2.019,0.826-3.896,2.338c-1.877,1.514-3.532,3.117-4.967,4.813c-0.85,0.98-1.511,1.84-1.988,2.564
		c-0.176,0.215-0.503,0.762-0.986,1.646c1.485,1.934,3.123,3.654,4.916,5.17c0.388,0.357,1.166-0.182,2.341-1.613
		c1.23-1.502,2.473-3.445,3.719-5.838c1.24-2.395,1.978-4.234,2.199-5.529C816.271,618.484,816.249,617.467,815.919,617.037z
		 M823.277,624.998c-0.715-0.586-1.763-0.447-3.146,0.41c-0.951,0.573-1.902,1.346-2.861,2.314c-0.701,0.705-1.34,1.416-1.929,2.131
		c-1.528,1.861-2.854,3.945-3.989,6.248c-0.076,0.143,0.629,0.814,2.106,2.027c0.55,0.451,1.313,1.002,2.3,1.648
		c0.563,0.383,1.53-0.262,2.9-1.932c1.097-1.336,2.171-2.967,3.216-4.9c1.051-1.938,1.719-3.563,2.005-4.891
		C824.217,626.584,824.015,625.561,823.277,624.998z"/>
	<path fill="#1D2033" d="M857.598,572.324c2.625,3.953,3.808,8.525,3.554,13.729c-0.255,5.199-1.892,9.658-4.897,13.375
		c-3.01,3.758-7.072,6.304-12.193,7.627c-5.12,1.326-9.896,1.066-14.334-0.777c-1.664-0.889-3.006-2.027-4.018-3.418
		c-1.757-2.482-2.813-5.938-3.16-10.383c-0.349-4.436,0.139-8.211,1.451-11.318c0.823-1.879,1.914-3.646,3.264-5.287
		c1.371-1.67,2.896-3.092,4.581-4.264c2.798-1.897,6.401-3.111,10.821-3.635c4.422-0.521,8.012-0.149,10.768,1.116
		C855.012,569.784,856.402,570.863,857.598,572.324z M850.152,589.09c-1.307-1.069-2.698-1.664-4.176-1.781
		c-1.479-0.109-2.592,0.279-3.332,1.188c-0.765,0.93-0.945,2.107-0.541,3.535c0.396,1.426,1.25,2.678,2.558,3.748
		c1.327,1.092,2.731,1.695,4.211,1.811c1.479,0.115,2.6-0.291,3.36-1.223c0.742-0.906,0.918-2.072,0.515-3.498
		C852.35,591.443,851.48,590.182,850.152,589.09z"/>
	<path fill="#1D2033" d="M882.927,555.989c0.651,0.374,1.182,0.849,1.586,1.421c0.158,0.252,0.201,0.467,0.134,0.646
		c0,0.047-0.146,0.347-0.439,0.896c-1.781,3.29-3.742,7.433-5.884,12.423l-0.504,1.195c-0.267,0.666-0.809,1.197-1.62,1.607
		c-1.06,0.607-2.604,1.477-4.646,2.597c-0.313,0.14-0.57,0.187-0.773,0.144c-0.362-0.144-0.767-0.334-1.208-0.576
		c-5.52-3.092-11.252-7.079-17.19-11.956c-1.719-1.41-3.055-2.604-4.003-3.587c-1.093-1.097-2.228-2.266-3.403-3.511
		c1.223-3.87,3.043-7.281,5.472-10.24c0.395-0.479,0.806-0.956,1.241-1.438c0.911-0.969,1.584-1.635,2.006-2.003
		c0.773-0.604,1.609-1.034,2.502-1.302c3.859,5.563,8.416,11.074,13.665,16.545c1.98,2.068,3.551,3.557,4.713,4.473
		c0.358,0.297,0.588,0.439,0.687,0.441c0.103,0,0.322-0.137,0.671-0.413c0.204-0.146,0.73-0.794,1.585-1.929
		c2.879-3.704,4.549-5.588,4.998-5.656C882.556,555.76,882.692,555.838,882.927,555.989z"/>
	<path fill="#1D2033" d="M874.102,521.437c0.19,0.156,0.487,0.457,0.879,0.9c5.467,6.567,11.298,12.866,17.481,18.901
		c1.381,1.336,2.816,2.573,4.313,3.721c-2.272,5.439-3.832,8.532-4.682,9.272c-0.789,0.668-1.93,0.771-3.421,0.304
		c-4.275-1.31-9.167-4.229-14.675-8.751c-3.72-3.055-7.187-6.375-10.386-9.967c-0.403-0.527-0.605-0.815-0.612-0.858l0.233-0.646
		c0.953-2.769,2.765-5.777,5.43-9.021c1.15-1.407,2.221-2.484,3.197-3.239c0.465-0.377,0.828-0.617,1.078-0.732
		C873.344,521.171,873.729,521.212,874.102,521.437z"/>
	<path fill="#1D2033" d="M920.585,512.888c0.347,0.844,0.039,2.519-0.922,5.023c-0.959,2.507-2.185,4.863-3.679,7.068
		c-0.784,1.194-1.622,2.343-2.522,3.439c-2.936,3.578-6.021,6.291-9.262,8.146c-3.487,2.009-6.479,2.563-8.979,1.672
		c-0.798-0.295-1.603-0.776-2.411-1.439c-1.671-1.373-3.188-3.313-4.552-5.833c-1.776-3.334-2.845-7.044-3.202-11.13
		c-0.362-3.933-0.055-7.813,0.928-11.635c1.051-4.051,2.721-7.907,5.013-11.577c0.094-0.16,0.186-0.247,0.271-0.256
		c2.534-0.315,5.359,0.085,8.476,1.206c2.932,1.05,5.395,2.473,7.391,4.271c0.218,0.179,0.47,0.403,0.758,0.687
		c-0.155,0.188-0.291,0.354-0.409,0.499c-1.547,1.884-2.935,4.768-4.164,8.646c-1.23,3.881-1.841,7.127-1.821,9.732
		c0.063,3.328,0.512,5.332,1.347,6.018c0.813,0.664,2.033,0.491,3.666-0.522c1.901-1.151,3.779-3.123,5.63-5.913
		c0.711-1.059,1.438-2.378,2.18-3.968c1.102-2.407,1.732-4.322,1.899-5.742c0.063-0.512,0.223-0.777,0.479-0.805
		c1.007-0.011,1.987,0.374,2.941,1.158C920.116,512.024,920.434,512.443,920.585,512.888z"/>
	<path fill="#1D2033" d="M941.738,469.829c2.627,3.954,3.813,8.525,3.554,13.725c-0.256,5.201-1.889,9.66-4.897,13.376
		c-3.007,3.76-7.071,6.303-12.192,7.628c-5.12,1.325-9.897,1.066-14.333-0.777c-1.663-0.889-3.005-2.026-4.019-3.416
		c-1.758-2.481-2.807-5.941-3.159-10.38c-0.349-4.438,0.136-8.214,1.453-11.322c0.82-1.881,1.91-3.646,3.263-5.29
		c1.368-1.67,2.896-3.091,4.58-4.265c2.794-1.896,6.4-3.106,10.823-3.632c4.424-0.52,8.009-0.147,10.764,1.115
		C939.154,467.288,940.546,468.369,941.738,469.829z M934.296,486.595c-1.308-1.074-2.699-1.667-4.174-1.781
		c-1.479-0.11-2.592,0.28-3.334,1.188c-0.767,0.931-0.941,2.111-0.546,3.536c0.397,1.427,1.253,2.676,2.562,3.75
		c1.328,1.092,2.731,1.697,4.212,1.809c1.479,0.116,2.599-0.291,3.36-1.222c0.744-0.905,0.914-2.071,0.519-3.5
		C936.49,488.947,935.626,487.687,934.296,486.595z"/>
</g>
<g>
	<path fill="#FFFFFF" d="M484.096,1142.877l-2.489,7.544h-3.203l8.146-23.983h3.736l8.184,23.983h-3.309l-2.563-7.544H484.096z
		 M491.959,1140.457l-2.348-6.902c-0.534-1.564-0.892-2.987-1.246-4.377h-0.071c-0.356,1.423-0.747,2.882-1.21,4.341l-2.348,6.938
		H491.959z"/>
	<path fill="#FFFFFF" d="M524.122,1147.93c0,3.95-0.783,6.37-2.455,7.864c-1.672,1.565-4.092,2.063-6.263,2.063
		c-2.064,0-4.342-0.498-5.729-1.423l0.783-2.386c1.139,0.711,2.918,1.354,5.053,1.354c3.203,0,5.552-1.672,5.552-6.016v-1.921h-0.07
		c-0.96,1.603-2.813,2.882-5.48,2.882c-4.27,0-7.33-3.629-7.33-8.396c0-5.836,3.81-9.146,7.759-9.146
		c2.987,0,4.626,1.566,5.372,2.989h0.07l0.144-2.598h2.738c-0.069,1.246-0.143,2.634-0.143,4.73V1147.93L524.122,1147.93z
		 M521.026,1139.995c0-0.534-0.036-0.996-0.18-1.424c-0.567-1.814-2.1-3.311-4.377-3.311c-2.987,0-5.124,2.526-5.124,6.514
		c0,3.38,1.708,6.189,5.088,6.189c1.922,0,3.665-1.21,4.343-3.203c0.178-0.532,0.249-1.139,0.249-1.672L521.026,1139.995
		L521.026,1139.995z"/>
	<path fill="#FFFFFF" d="M541.412,1146.293c0,1.495,0.071,2.954,0.285,4.128h-2.849l-0.249-2.171h-0.104
		c-0.961,1.353-2.813,2.563-5.269,2.563c-3.485,0-5.266-2.455-5.266-4.946c0-4.163,3.701-6.44,10.354-6.405v-0.355
		c0-1.424-0.392-3.983-3.913-3.983c-1.603,0-3.273,0.498-4.483,1.281l-0.712-2.064c1.423-0.925,3.487-1.53,5.658-1.53
		c5.267,0,6.547,3.597,6.547,7.047L541.412,1146.293L541.412,1146.293z M538.388,1141.632c-3.416-0.071-7.294,0.534-7.294,3.879
		c0,2.028,1.354,2.988,2.953,2.988c2.242,0,3.665-1.423,4.164-2.882c0.106-0.32,0.178-0.676,0.178-0.996L538.388,1141.632
		L538.388,1141.632z"/>
	<path fill="#FFFFFF" d="M546.462,1137.86c0-1.779-0.036-3.238-0.143-4.662h2.738l0.144,2.773h0.105
		c0.96-1.637,2.563-3.167,5.409-3.167c2.351,0,4.127,1.425,4.875,3.452h0.071c0.534-0.961,1.209-1.708,1.921-2.24
		c1.032-0.782,2.17-1.212,3.807-1.212c2.277,0,5.658,1.495,5.658,7.475v10.142h-3.061v-9.75c0-3.31-1.21-5.302-3.736-5.302
		c-1.779,0-3.167,1.315-3.701,2.847c-0.142,0.428-0.249,0.996-0.249,1.565v10.64h-3.06v-10.318c0-2.739-1.21-4.731-3.594-4.731
		c-1.957,0-3.383,1.563-3.881,3.131c-0.178,0.463-0.249,0.997-0.249,1.53v10.391h-3.06v-12.562L546.462,1137.86L546.462,1137.86z"/>
	<path fill="#FFFFFF" d="M577.878,1142.379c0.071,4.234,2.775,5.979,5.907,5.979c2.242,0,3.594-0.394,4.768-0.892l0.534,2.241
		c-1.103,0.498-2.989,1.104-5.729,1.104c-5.304,0-8.471-3.522-8.471-8.719c0-5.193,3.062-9.288,8.078-9.288
		c5.622,0,7.117,4.946,7.117,8.113c0,0.642-0.071,1.14-0.107,1.459h-12.098V1142.379z M587.059,1140.138
		c0.036-1.993-0.816-5.089-4.341-5.089c-3.167,0-4.555,2.918-4.804,5.089H587.059z"/>
	<path fill="#FFFFFF" d="M601.501,1125.156h3.097v10.815h0.07c1.104-1.921,3.096-3.167,5.872-3.167c4.27,0,7.294,3.561,7.259,8.789
		c0,6.156-3.879,9.218-7.722,9.218c-2.491,0-4.483-0.962-5.767-3.237h-0.104l-0.144,2.847h-2.703
		c0.069-1.174,0.142-2.918,0.142-4.448V1125.156L601.501,1125.156z M604.598,1143.518c0,0.394,0.07,0.783,0.144,1.141
		c0.604,2.171,2.42,3.665,4.697,3.665c3.271,0,5.229-2.669,5.229-6.618c0-3.452-1.779-6.405-5.124-6.405
		c-2.135,0-4.127,1.459-4.768,3.843c-0.071,0.356-0.18,0.783-0.18,1.281L604.598,1143.518L604.598,1143.518z"/>
	<path fill="#FFFFFF" d="M622.635,1133.198l3.771,10.177c0.392,1.139,0.816,2.491,1.104,3.522h0.071
		c0.32-1.031,0.676-2.35,1.103-3.595l3.416-10.104h3.312l-4.697,12.274c-2.241,5.907-3.771,8.934-5.906,10.782
		c-1.528,1.354-3.061,1.886-3.844,2.028l-0.782-2.636c0.782-0.248,1.814-0.745,2.739-1.528c0.854-0.677,1.922-1.888,2.634-3.486
		c0.145-0.319,0.249-0.567,0.249-0.748c0-0.178-0.069-0.427-0.214-0.817l-6.369-15.869H622.635L622.635,1133.198z"/>
	<path fill="#FFFFFF" d="M645.901,1126.758c1.886-0.284,4.128-0.498,6.583-0.498c4.446,0,7.613,1.032,9.715,2.989
		c2.135,1.957,3.38,4.732,3.38,8.611c0,3.914-1.21,7.114-3.451,9.32c-2.242,2.242-5.942,3.452-10.604,3.452
		c-2.206,0-4.059-0.105-5.622-0.285L645.901,1126.758L645.901,1126.758z M648.997,1147.966c0.783,0.143,1.922,0.178,3.132,0.178
		c6.618,0,10.212-3.698,10.212-10.177c0.036-5.658-3.167-9.252-9.714-9.252c-1.602,0-2.812,0.145-3.63,0.32V1147.966z"/>
	<path fill="#FFFFFF" d="M681.589,1146.293c0,1.495,0.071,2.954,0.284,4.128h-2.847l-0.249-2.171h-0.106
		c-0.961,1.353-2.812,2.563-5.267,2.563c-3.487,0-5.269-2.455-5.269-4.946c0-4.163,3.701-6.44,10.355-6.405v-0.355
		c0-1.424-0.394-3.983-3.915-3.983c-1.603,0-3.273,0.498-4.483,1.281l-0.711-2.064c1.423-0.925,3.487-1.53,5.657-1.53
		c5.267,0,6.548,3.597,6.548,7.047L681.589,1146.293L681.589,1146.293z M678.564,1141.632c-3.416-0.071-7.295,0.534-7.295,3.879
		c0,2.028,1.352,2.988,2.951,2.988c2.242,0,3.665-1.423,4.163-2.882c0.107-0.32,0.181-0.676,0.181-0.996V1141.632L678.564,1141.632z
		"/>
	<path fill="#FFFFFF" d="M701.513,1125.156v20.814c0,1.53,0.035,3.274,0.145,4.448h-2.813l-0.143-2.989h-0.071
		c-0.96,1.922-3.06,3.381-5.871,3.381c-4.163,0-7.364-3.521-7.364-8.754c-0.035-5.729,3.521-9.252,7.723-9.252
		c2.633,0,4.412,1.246,5.192,2.636h0.071v-10.284H701.513L701.513,1125.156z M698.381,1140.208c0-0.391-0.035-0.925-0.142-1.316
		c-0.463-1.99-2.171-3.629-4.521-3.629c-3.237,0-5.159,2.849-5.159,6.653c0,3.487,1.708,6.37,5.09,6.37
		c2.1,0,4.021-1.39,4.591-3.736c0.104-0.427,0.142-0.854,0.142-1.353V1140.208z"/>
	<path fill="#FFFFFF" d="M708.447,1142.379c0.069,4.234,2.773,5.979,5.906,5.979c2.241,0,3.595-0.394,4.77-0.892l0.533,2.241
		c-1.104,0.498-2.989,1.104-5.729,1.104c-5.302,0-8.469-3.522-8.469-8.719c0-5.193,3.06-9.288,8.077-9.288
		c5.622,0,7.116,4.946,7.116,8.113c0,0.642-0.07,1.14-0.106,1.459h-12.098V1142.379z M717.628,1140.138
		c0.036-1.993-0.818-5.089-4.341-5.089c-3.167,0-4.555,2.918-4.804,5.089H717.628z"/>
</g>
<path opacity="0.45" fill="#1F1212" enable-background="new    " d="M699.746,527.438c-0.479-0.646-0.982-1.294-1.5-1.942
	c-0.127-0.158-0.253-0.315-0.381-0.476c-0.53-0.652-1.074-1.308-1.644-1.964c-0.008-0.008-0.016-0.016-0.021-0.023
	c-0.575-0.661-1.176-1.324-1.79-1.987c-0.114-0.123-0.229-0.246-0.344-0.368c-1.308-1.395-2.703-2.789-4.183-4.176
	c-0.041-0.038-0.081-0.077-0.123-0.115c-29.172-27.274-90.728-51.552-160.379-13.371c-74.538,40.855-47.272,149.693-43.93,161.944
	c0.004,0.018,0.008,0.03,0.013,0.047c0.046,0.167,0.087,0.318,0.124,0.447c0.005,0.021,0.009,0.033,0.016,0.053
	c0.031,0.114,0.062,0.22,0.084,0.301c0.01,0.034,0.015,0.052,0.021,0.079c0.038,0.13,0.063,0.219,0.063,0.219
	c6.494,29.098,51.299,24.358,64.716,29.444c10.201,3.842,7.854,34.119,11.485,48.299c3.643,14.191,13.007,9.453,23.207,8.349
	c0.434-0.048,0.827-0.127,1.205-0.222c0.042-0.01,0.081-0.021,0.121-0.033c9.261-2.454,2-18.678,1.385-29.421
	c-0.405-7.131,2.83-8.727,5.46-6.983c0,0.009-0.001,0.016-0.001,0.024c1.295,0.86,2.446,2.521,2.938,4.745
	c0.015,0.068,0.03,0.138,0.043,0.206c0.06,0.295,0.11,0.598,0.145,0.911c1.217,11.17,2.433,23.277,5.68,27.33
	c3.658,4.56,13.49,2.221,23.518,0.084c10.033-2.147-0.5-28.75,3.211-32.604c1.025-1.049,3.092-1.679,4.663-1.03
	c0.003,0.057,0.003,0.11,0.005,0.167c0.758,0.325,1.429,0.85,1.779,1.851c0.055,0.168,0.109,0.339,0.148,0.528
	c1.994,9.602-1.674,30.234,9.242,29.613c4.223-0.242,16.069-0.031,17.649-2.357c4.121-6.043-1.248-21.854-1.533-26.824
	c-0.338-5.951-0.43-22.33,9.456-27.553c-0.021,0.033-0.044,0.064-0.064,0.099c1.537-0.832,3.272-1.441,5.338-1.644
	c0.445-0.043,0.909-0.104,1.383-0.179c0.133-0.021,0.271-0.048,0.405-0.07c0.351-0.06,0.706-0.124,1.07-0.199
	c0.158-0.031,0.32-0.067,0.48-0.104c0.359-0.079,0.723-0.164,1.092-0.256c0.16-0.04,0.32-0.08,0.482-0.123
	c0.396-0.104,0.801-0.216,1.209-0.334c0.14-0.04,0.276-0.078,0.417-0.12c0.507-0.15,1.02-0.313,1.54-0.483
	c0.046-0.015,0.09-0.026,0.135-0.042c0.59-0.195,1.188-0.402,1.794-0.624c0.064-0.022,0.133-0.05,0.199-0.073
	c0.511-0.188,1.025-0.383,1.546-0.585c0.201-0.078,0.403-0.161,0.604-0.241c0.386-0.154,0.771-0.312,1.16-0.474
	c0.257-0.105,0.514-0.216,0.771-0.325c0.328-0.141,0.655-0.282,0.985-0.429c0.308-0.135,0.611-0.27,0.919-0.407
	c0.254-0.115,0.509-0.232,0.764-0.352c0.378-0.175,0.756-0.349,1.136-0.529c0.024-0.012,0.048-0.022,0.072-0.034
	c11.376-5.422,23.284-13.487,28.435-20.044c0.039-0.05,0.075-0.099,0.113-0.146c0.229-0.297,0.449-0.591,0.647-0.881
	c0.066-0.095,0.124-0.188,0.188-0.281c0.164-0.248,0.326-0.494,0.468-0.736c0.08-0.136,0.146-0.269,0.218-0.401
	c0.108-0.2,0.221-0.402,0.313-0.599c0.084-0.182,0.146-0.356,0.217-0.533c0.058-0.146,0.126-0.295,0.172-0.438
	c0.105-0.319,0.187-0.632,0.236-0.936C726.443,647.986,722.443,558.072,699.746,527.438z"/>
<g>
	<g>
		<path fill="#FFF2E7" d="M715.575,510.426c-22.691-30.645-91.318-67.753-170.363-24.423
			c-79.033,43.32-43.608,163.089-43.608,163.089c6.494,29.099,51.299,24.359,64.716,29.445c10.2,3.842,7.854,34.119,11.484,48.299
			c3.644,14.191,13.007,9.453,23.208,8.348c11.26-1.241,3.354-18.452,2.71-29.676c-0.637-11.223,7.748-8.748,8.585-1.096
			c1.218,11.17,2.434,23.276,5.681,27.33c3.658,4.559,13.491,2.221,23.519,0.084c10.032-2.148-0.5-28.75,3.21-32.604
			c1.616-1.651,5.816-2.272,6.597,1.517c1.994,9.602-1.675,30.233,9.242,29.612c4.223-0.241,16.069-0.03,17.649-2.356
			c4.121-6.043-1.248-21.855-1.532-26.824c-0.39-6.863-0.463-27.602,14.729-29.098c15.195-1.484,47.487-20.865,49.173-30.98
			C742.271,630.975,738.271,541.061,715.575,510.426z M569.656,645.26c-19.17,1.115-37.641-12.832-36.099-40.52
			c1.21-21.781,21.771-34.54,35.22-37.824c10.784,4.653,16.064,17.075,19.713,36.141c2.495,13.033,1.146,27.855-5.169,37.552
			C579.131,643.281,574.488,644.977,569.656,645.26z M632.3,658.914c-2.563,4.854-19.224,3.369-22.766,0.063
			c2.348-6.643,7.438-15.518,9.569-14.495c4.438,2.137,10.422,7.864,13.422,13.274C632.446,658.135,632.468,658.588,632.3,658.914z
			 M643.074,583.802c0.753-11.496,9.416-18.507,16.675-22.022c9.043,0.674,23.66,10.116,33.619,19.476
			c11.538,10.843,12.628,57.363-25.781,58.385c-4.769,0.138-8.906-0.442-12.49-1.559
			C638.479,624.668,642.379,594.329,643.074,583.802z"/>
		<path fill="#FFFFFF" d="M655.097,638.08c-16.618-13.412-12.718-43.751-12.021-54.278c0.525-8.063,4.964-13.875,10.059-17.865
			c-0.826-0.179-1.674-0.39-2.432-0.452c-7.253,3.601-15.907,10.821-16.639,22.645c-0.68,10.833-4.526,42.067,12.116,55.911
			c3.584,1.146,7.723,1.748,12.49,1.621c9.943-0.252,17.188-3.687,22.334-8.779c-3.821,1.601-8.231,2.621-13.417,2.758
			C662.818,639.775,658.681,639.195,655.097,638.08z"/>
		<path fill="#FFFFFF" d="M533.559,604.74c0.9-16.159,12.443-27.318,23.834-33.361c-13.369,4.179-31.708,16.928-32.818,38.13
			c-1.495,28.496,16.997,42.887,36.167,41.771c4.832-0.283,9.475-2.021,13.659-4.771c0.458-0.725,0.705-1.651,1.109-2.432
			c-1.916,0.567-3.853,1.063-5.854,1.18C550.486,646.375,532.017,632.428,533.559,604.74z"/>
		<path fill="#FFFFFF" d="M715.575,510.426c-17.187-23.212-60.747-50.047-115.2-42.92c50.11-3.168,89.835,22.646,106.073,45.194
			c22.75,31.582,26.901,124.159,25.218,134.581c-0.5,3.114-3.789,7.096-8.511,11.18c9.217-5.979,16.633-12.674,17.417-17.369
			C742.271,630.975,738.271,541.061,715.575,510.426z"/>
		<path fill="#EFD9CA" d="M588.49,603.057c2.221,11.591,1.174,24.412-3.484,33.972c1.242-0.59,2.526-1.054,3.705-1.812
			c6.316-9.694,7.664-24.518,5.169-37.551c-3.646-19.065-8.927-31.487-19.712-36.14c-8.18,2-18.944,7.548-26.429,16.453
			c6.748-5.758,14.669-9.506,21.038-11.063C579.563,571.569,584.843,583.991,588.49,603.057z M693.368,581.254
			c7.88,7.411,10.864,31.437-0.258,46.269c17.165-13.466,14.596-43.246,5.646-51.658c-9.958-9.358-24.575-18.803-33.618-19.476
			c-4.059,1.958-8.512,5.074-11.816,9.391c2.115-1.621,4.32-2.979,6.427-4C668.792,562.452,683.409,571.896,693.368,581.254z
			 M583.194,721.445c-3.633-14.181-1.284-44.457-11.484-48.3c-13.418-5.084-58.222-0.348-64.717-29.444
			c0,0-27.436-92.871,20.001-144.623c-54.826,50.373-25.393,150.014-25.393,150.014c6.495,29.099,51.3,24.359,64.717,29.445
			c10.2,3.842,7.854,34.119,11.484,48.299c3.644,14.191,13.007,9.453,23.208,8.349c3.605-0.4,5.116-2.537,5.663-5.484
			c-0.109,0.01-0.163,0.084-0.272,0.096C596.201,730.9,586.837,735.637,583.194,721.445z M696.79,666.684
			c-5.195,0.517-8.507,3.349-10.729,7.031c1.537-0.832,3.273-1.44,5.337-1.643c12.87-1.252,37.94-15.338,46.357-25.771
			C726.776,655.641,707.532,665.631,696.79,666.684z M623.378,726.352c-3.248-4.053-3.974-11.677-5.188-22.845
			c-0.79-7.231-9.008-4.958-9.008-4.958c1.505,1,2.821,3.074,3.126,5.863c1.218,11.17,2.434,23.276,5.681,27.33
			c3.657,4.559,13.49,2.221,23.519,0.084c2.39-0.517,3.553-2.463,4.084-5.117C636.026,728.762,626.878,730.709,623.378,726.352z
			 M656.701,701.5c-0.778-3.791-5.701-4.793-7.316-3.141c-0.705,0.737,0,0,0,0c0.88,0.379,1.647,1.021,1.928,2.379
			c1.994,9.602-1.675,30.233,9.242,29.612c4.223-0.241,16.069-0.03,17.649-2.356c0.694-1.021,1.047-2.379,1.272-3.863
			c-4.301,0.693-10.658,0.662-13.532,0.832C655.027,725.584,658.696,711.1,656.701,701.5z"/>
		<g>
			<path fill="#1F1212" d="M571.794,650.744c-24.781,1.442-48.483-13.537-46.173-43.709c2.311-30.192,34.198-44.32,46.651-41.783
				c15.644,3.2,22.533,16.159,27.103,37.183C603.934,623.479,596.58,649.303,571.794,650.744"/>
			<path fill="#1F1212" d="M667.045,645.313c-24.781,1.389-35.023-23.435-32.888-44.857c2.132-21.412,7.512-35.076,22.682-40.024
				c12.09-3.938,45.383,6.475,51.109,36.203C713.67,626.354,691.831,643.924,667.045,645.313"/>
			<path fill="#1F1212" d="M631.479,658.955c-3.068,5.813-24.724,3.285-25.538-1.053c-0.816-4.326,7.806-21.845,10.759-20.435
				C623.672,640.838,634.542,653.146,631.479,658.955"/>
		</g>
	</g>
	<g>
		<path fill="#EFD9CA" d="M673.987,506.784c0,2.042-5.596,7.622-7.632,7.622c-2.037,0-3.69-5.58-3.69-7.622s1.653-3.695,3.69-3.695
			C668.392,503.089,673.987,504.742,673.987,506.784z"/>
		<path fill="#EFD9CA" d="M687.771,518.596c0,1.896-3.437,3.433-5.325,3.433c-1.89,0-3.422-1.537-3.422-3.433
			c0-1.895,1.531-3.421,3.422-3.421C684.336,515.175,687.771,516.701,687.771,518.596z"/>
		<path fill="#EFD9CA" d="M685.752,503.268c1.137,1.054,0.143,3.979-0.916,5.116c-1.058,1.137-2.832,1.2-3.964,0.147
			c-1.142-1.063-1.205-2.843-0.152-3.979C681.777,503.415,684.62,502.215,685.752,503.268z"/>
	</g>
	<g>
		<path fill="#EFD9CA" d="M523.236,559.757c1.899,0.748,5.048,8,4.301,9.896c-0.742,1.895-6.553,1.39-8.454,0.632
			c-1.89-0.737-2.827-2.885-2.079-4.779C517.752,563.61,521.347,559.01,523.236,559.757z"/>
		<path fill="#EFD9CA" d="M539.286,551.262c1.758,0.685,1.926,4.453,1.231,6.211c-0.689,1.759-2.685,2.622-4.442,1.928
			c-1.758-0.695-2.622-2.675-1.927-4.443C534.838,553.209,537.527,550.567,539.286,551.262z"/>
		<path fill="#EFD9CA" d="M524.284,547.524c1.399-0.675,3.753,1.326,4.421,2.727c0.663,1.4,0.074,3.063-1.321,3.737
			c-1.399,0.674-3.073,0.084-3.748-1.306C522.968,551.272,522.889,548.188,524.284,547.524z"/>
	</g>
	<g>
		<path fill="#EFD9CA" d="M673.456,658.146c1.736,0.747,1.811,4.506,1.068,6.243c-0.731,1.736-2.753,2.548-4.495,1.812
			c-1.737-0.728-2.548-2.748-1.807-4.484C668.961,659.967,671.719,657.398,673.456,658.146z"/>
		<path fill="#EFD9CA" d="M658.56,654.021c1.411-0.634,3.712,1.432,4.349,2.842c0.621,1.41-0.011,3.073-1.421,3.705
			c-1.416,0.643-3.074,0-3.716-1.422C657.144,657.746,657.144,654.641,658.56,654.021z"/>
	</g>
</g>
<g>
	<g>
		<path fill="#1D2033" d="M377.061,644.852c3.651,4.212,4.191,10.64,1.64,19.285c-4.069,13.606-13.179,29.188-27.35,46.729
			c-14.231,17.617-26.815,29.136-37.741,34.549c-2.518,1.246-5.033,0.85-7.547-1.182c-0.608-0.49-1.147-1.054-1.632-1.696
			c-0.736-0.975-1.784-2.325-3.157-4.064c14.563-13.19,26.795-25.935,36.715-38.214c10.595-13.116,17.471-24.581,20.615-34.388
			c0.88-2.82,0.635-4.783-0.724-5.881c-2.438-1.972-7.794,1.514-16.049,10.475c-2.331,2.404-7.058,8.034-14.207,16.883
			c-6.839,8.467-12.993,16.48-18.475,24.021c-4.565,6.27-9.04,11.604-13.471,15.965c-5.251,5.088-13.436,3.14-24.57-5.855
			c-5.954-4.81-10.865-11.046-14.75-18.721c-1.957-3.973-2.835-8.974-2.643-14.988c0.433-10.364,3.393-23.163,8.887-38.39
			c6.067-16.398,12.951-29.37,20.653-38.903c1.662-2.058,3.345-3.912,5.057-5.559c1.261-1.248,3.422-1.894,6.488-1.941
			c4.02-0.152,9.307,0.965,15.827,3.332c5.595,2.125,10.263,4.39,14.006,6.775c1.034,0.582,2.27,1.395,3.705,2.426
			c1.203,0.854,1.438,2.05,0.697,3.586c-7.175,13.872-13.961,29.058-20.363,45.566c-3.879,10.098-6.478,18.777-7.797,26.027
			c-0.31,1.643-0.236,2.649,0.215,3.015c0.548,0.442,1.352-0.107,2.449-1.612c1.149-1.592,1.799-2.486,1.903-2.722
			c0.115-0.22,2.436-3.229,6.928-9.05c4.511-5.813,7.084-9.029,7.712-9.654c16.648-19.828,28.954-30.619,36.924-32.374
			c6.531-1.529,12.239-0.323,17.115,3.614C375.205,642.785,376.175,643.758,377.061,644.852z"/>
		<path fill="#1D2033" d="M432.339,567.756c1.189,1.337,2.638,4.456,4.341,9.37c2.924,8.408,3.638,15.094,2.136,20.065
			c-0.624,2.017-1.581,3.826-2.874,5.426c-2.956,3.66-7.332,6.185-13.112,7.563c-5.166,1.245-10.201,1.396-15.112,0.461
			c-2.626-0.487-5.867-1.397-9.697-2.735c-2.891-0.948-4.362-1.317-4.41-1.104c0.709,5.997,1.515,13.576,2.419,22.75
			c0.118,1.732,0.909,3.004,2.396,3.826c2.522,1.402,4.772,2.592,6.761,3.572c1.769,0.926,2.618,1.674,2.54,2.235
			c-0.348,1.361-1.1,2.768-2.271,4.218c-2.28,2.821-4.712,4.581-7.278,5.276c-1.22,0.274-2.44,0.046-3.632-0.67
			c-14.127-8.26-26.145-16.389-36.063-24.401c-10.598-8.562-20.646-18.443-30.128-29.637c0.168-0.368,0.416-0.986,0.739-1.862
			c0.562-1.313,1.363-2.618,2.409-3.913c2.588-3.204,5.2-5.194,7.838-5.963c0.481-0.114,1.028,0.14,1.654,0.769
			c5.729,6.016,12.031,12.182,18.908,18.487c0.279-0.026,0.574-0.168,0.897-0.409l-0.15-7.307
			c-0.555-17.722,1.622-36.257,6.536-55.602c0.481-2.002,1.257-4.273,2.305-6.829c0.51-1.098,1.363-1.61,2.559-1.526
			c4.573,0.421,9.833,3.029,15.786,7.839c1.756,1.419,3.385,2.921,4.873,4.498c2.349,2.403,4.406,5.046,6.175,7.923
			c1.773,2.881,2.501,4.825,2.188,5.831c-2.124,9.503-3.323,14.964-3.595,16.391c-2.123,9.504-2.878,14.565-2.252,15.195
			c3.695,1.974,8.143,3.803,13.328,5.472c6.342,1.979,10.984,2.702,13.92,2.166c1.036-0.168,1.71-0.689,2.022-1.573
			c0.604-1.526,0.665-3.975,0.165-7.338s-1.38-6.44-2.653-9.239c-0.521-0.92-0.974-1.914-1.366-2.994
			c1.801-2.701,3.932-4.697,6.366-6.004C429.472,566.704,431.246,566.614,432.339,567.756z"/>
		<path fill="#1D2033" d="M513.569,488.738c0.238,0.192,0.249,0.86,0.06,2.032c-0.189,1.173-0.5,3.037-0.928,5.589
			c-1.844,9.471-4.28,16.454-7.286,20.954c-2.557,4.11-4.818,6.514-6.76,7.207c-4.068,1.763-10.064,0.76-17.992-3l-0.039,0.535
			c0.601,12.328,0.24,20.795-1.078,25.409c-1.046,3.814-1.981,6.147-2.798,7.004c-3.647,3.736-10.187,6.74-19.604,9.026
			c-9.42,2.284-16.312,2.671-20.672,1.171c-1.742-0.65-3.833-1.58-6.274-2.801c-3.027-1.563-6.768-4.146-11.213-7.739
			c-10.026-8.1-18.072-16.301-24.145-24.597c-1.476-2.08-2.721-3.974-3.748-5.679c-0.679-1.188,0.51-4.347,3.588-9.492
			c3.078-5.14,6.766-10.13,11.063-14.982c4.465-5.215,8.15-9.228,11.06-12.05c2.726-2.588,4.699-3.391,5.919-2.405
			c0.455,0.368,0.927,0.883,1.417,1.526c1.784,2.951,4.428,7.349,7.912,13.197c6.889,11.481,14.983,21.5,24.258,29.997
			c4.191,3.886,7.501,6.188,9.957,6.903c1.518,0.467,2.377-0.226,2.596-2.059c1.001-7.007,0.705-13.67-0.855-19.98l-1.351-0.898
			c-5.701-3.719-11.532-7.991-17.468-12.786c-7.095-5.731-11.315-9.708-12.671-11.938c-1.349-2.229-1.776-4.652-1.297-7.292
			c1.503-8.864,4.504-17.654,9.018-26.361c5.129-10.097,8.042-14.87,8.728-14.315c0.455,0.368,0.944,0.701,1.463,0.997
			c3.021,2.816,9.002,8.278,17.952,16.389c3.708,3.377,7.429,6.569,11.167,9.59C492.535,475.15,502.545,482.102,513.569,488.738z"/>
		<path fill="#1D2033" d="M558.007,427.65c1.646,0.946,2.946,2.122,3.944,3.563c0.412,0.591,0.549,1.084,0.417,1.478
			c-0.146,0.395-0.537,1.145-1.183,2.257c-4.27,8.275-9.052,18.721-14.337,31.337l-1.238,2.975c-0.726,1.677-2.08,3.042-4.063,4.098
			c-2.641,1.516-6.516,3.688-11.656,6.464c-0.732,0.418-1.346,0.552-1.832,0.405c-0.94-0.248-1.964-0.698-3.079-1.347
			c-13.854-7.66-28.252-17.528-43.202-29.605c-4.347-3.512-7.726-6.5-10.152-8.959c-2.726-2.708-5.578-5.58-8.543-8.609
			c3.396-11.238,8.919-21.022,16.534-29.364c2.247-2.469,3.917-4.147,5.013-5.03c1.921-1.6,3.996-2.696,6.237-3.279
			c9.824,13.737,21.352,27.396,34.574,40.98c4.933,5.119,8.852,8.853,11.757,11.199c0.905,0.732,1.496,1.116,1.746,1.121
			c0.238,0.008,0.812-0.38,1.707-1.174c0.522-0.335,1.859-1.899,3.992-4.714c7.089-9.401,11.188-14.154,12.282-14.28
			C557.196,427.249,557.563,427.414,558.007,427.65z"/>
		<path fill="#1D2033" d="M602.186,372.962c1.648,0.944,2.943,2.125,3.939,3.57c0.414,0.588,0.552,1.081,0.42,1.474
			c-0.143,0.391-0.537,1.145-1.191,2.268c-4.27,8.276-9.055,18.724-14.332,31.333l-1.239,2.975c-0.729,1.68-2.081,3.042-4.068,4.105
			c-2.642,1.516-6.51,3.68-11.649,6.457c-0.734,0.418-1.347,0.552-1.832,0.406c-0.94-0.249-1.965-0.699-3.083-1.344
			c-13.851-7.663-28.249-17.532-43.199-29.609c-4.347-3.511-7.729-6.496-10.155-8.956c-2.727-2.707-5.579-5.579-8.543-8.609
			c3.396-11.238,8.919-21.022,16.54-29.371c2.244-2.465,3.919-4.15,5.01-5.027c1.927-1.605,3.996-2.696,6.245-3.289
			c9.818,13.745,21.346,27.404,34.571,40.985c4.927,5.126,8.854,8.848,11.76,11.196c0.906,0.732,1.497,1.116,1.743,1.124
			c0.239,0.009,0.812-0.38,1.707-1.174c0.522-0.335,1.859-1.899,3.986-4.707c7.093-9.405,11.182-14.146,12.285-14.284
			C601.373,372.564,601.738,372.73,602.186,372.962z"/>
		<path fill="#1D2033" d="M650.206,276.777c6.7,9.814,9.748,21.226,9.186,34.254c-0.566,13.036-4.574,24.229-12.012,33.603
			c-7.493,9.444-17.629,15.878-30.427,19.281c-12.775,3.408-24.703,2.858-35.781-1.683c-4.207-2.134-7.549-4.94-9.997-8.458
			c-4.496-6.141-7.221-14.778-8.199-25.9c-0.968-11.132,0.155-20.55,3.37-28.285c2.001-4.812,4.67-9.29,7.991-13.4
			c3.391-4.197,7.222-7.765,11.512-10.741c6.883-4.772,15.867-7.858,26.945-9.24s20.09-0.526,27.051,2.563
			C643.781,270.445,647.235,273.113,650.206,276.777z M632.092,318.856c-3.361-2.715-6.901-4.176-10.619-4.412
			c-3.709-0.233-6.492,0.816-8.33,3.092c-1.909,2.365-2.35,5.32-1.332,8.868c1.039,3.552,3.263,6.684,6.604,9.384
			c3.354,2.709,6.877,4.2,10.556,4.477c3.696,0.262,6.497-0.786,8.407-3.15c1.839-2.276,2.269-5.227,1.254-8.809
			C637.629,324.716,635.445,321.566,632.092,318.856z"/>
		<path fill="#1D2033" d="M711.466,189.941c1.661,1.219,2.461,2.808,2.391,4.766c-0.076,5.863-2.646,15.199-7.701,27.999
			c-2.554,6.143-5.052,12.249-7.455,18.37l-0.094,0.115c16.465-9.766,29.893-16.246,40.294-19.446
			c0.229,1.579,0.439,2.883,0.604,3.898c0.32,2.902-0.391,5.422-2.114,7.557c-1.105,1.369-2.609,2.619-4.515,3.726
			c-2.743,1.205-7.59,3.534-14.536,6.99c-12.12,6.113-23.719,14.06-34.788,23.871l14.316,10.833c0.075,0.06,0.148,0.12,0.228,0.184
			c0.022,0.141-0.093,0.343-0.343,0.653c-3.521,3.574-6.608,5.998-9.26,7.259c-1.994,0.911-4.037,0.708-6.127-0.604
			c-5.363-3.198-10.533-6.856-15.498-11.003c-9.791-8.163-14.947-12.709-15.457-13.634c-0.242-0.325-0.45-0.542-0.607-0.668
			l-3.62,0.483c-3.689,0.668-8.059-0.463-13.111-3.417c-7.372-4.451-14.332-9.494-20.848-15.158c-1.156-1.064-1.29-2.225-0.37-3.517
			c5.779-7.932,11.853-15.146,18.207-21.606c5.406-5.594,11.776-11.145,19.149-16.678c7.022-5.411,13.079-9.407,18.185-11.972
			c2.827-1.47,6.256-2.431,10.261-2.871c7.139-0.884,13.67-0.928,19.546-0.089C704.549,186.882,708.973,188.182,711.466,189.941z
			 M694.06,215.586c-0.386,0.089-1.093,0.376-2.15,0.908c-8.956,6.257-16.668,13.375-23.144,21.392
			c-3.083,3.815-5.287,6.948-6.627,9.386c3.294,4.178,6.961,7.973,11.029,11.376c9.77-11.772,17.15-24.648,22.145-38.645
			c0.697-2.106,0.577-3.522-0.332-4.258C694.736,215.565,694.43,215.51,694.06,215.586z"/>
		<path fill="#1D2033" d="M739.499,96.498c4.507,3.776,8.142,9.426,10.891,16.936c1.091,3.032,2.032,7.251,2.807,12.673
			c0.323,2.271,0.594,4.51,0.817,6.719c0.09,0.203,1.631,1.812,4.595,4.852c7.416,7.508,13.989,13.571,19.709,18.191
			c1.514,1.223,2.773,2.105,3.726,2.622c1.878,1.263,2.979,2.083,3.3,2.486c0.188,0.399-0.147,1.822-1.004,4.287
			c-2,5.443-3.254,8.782-3.753,10.025c-1.604,3.853-3.343,7.015-5.166,9.432c-3.517,4.841-6.935,6.875-10.229,6.114
			c-10.153-3.037-19.358-7.644-27.607-13.809c-1.119-0.781-2.864-1.994-5.211-3.629c-1.421-0.889-2.534-1.296-3.361-1.211
			c-1.562,0.384-4.019,0.846-7.378,1.424c-6.367,1.168-12.811,1.887-19.326,2.153c-3.129,0.118-10.51-0.1-22.145-0.677l-0.521-0.044
			c1.742-14.479,6.925-27.06,15.552-37.739c1.167-1.444,2.407-2.821,3.7-4.106c1.287-1.29,2.138-2.029,2.539-2.214
			c0.401-0.176,1.084-0.013,2.047,0.512c6.803,3.751,14.453,7.146,22.945,10.215c4.787,1.722,8.213,2.548,10.292,2.47
			c1.259,0.005,1.931-0.277,2.007-0.844c1.293-7.53-0.896-15.976-6.558-25.351c-4.153-6.87-8.081-11.762-11.81-14.632
			c2.391-3.119,4.849-5.842,7.391-8.209C730.906,92.146,734.826,92.606,739.499,96.498z"/>
	</g>
	<g>
		<path fill="#FFFFFF" d="M377.45,634.755c3.651,4.21,4.188,10.636,1.632,19.286c-4.068,13.604-13.171,29.185-27.341,46.727
			c-14.234,17.619-26.817,29.136-37.743,34.549c-2.518,1.247-5.033,0.851-7.547-1.182c-0.612-0.494-1.148-1.051-1.635-1.699
			c-0.732-0.972-1.781-2.319-3.156-4.061c14.563-13.191,26.795-25.935,36.715-38.215c10.596-13.116,17.471-24.58,20.614-34.393
			c0.877-2.816,0.638-4.779-0.725-5.88c-2.436-1.968-7.796,1.517-16.046,10.479c-2.335,2.4-7.058,8.034-14.207,16.884
			c-6.84,8.467-12.998,16.479-18.478,24.017c-4.563,6.273-9.038,11.608-13.468,15.971c-5.251,5.088-13.436,3.14-24.574-5.857
			c-5.95-4.807-10.864-11.049-14.745-18.721c-1.957-3.974-2.835-8.974-2.646-14.991c0.435-10.36,3.395-23.158,8.891-38.386
			c6.062-16.402,12.949-29.368,20.651-38.902c1.662-2.057,3.345-3.912,5.052-5.56c1.266-1.246,3.425-1.897,6.489-1.943
			c4.022-0.15,9.311,0.966,15.832,3.333c5.593,2.126,10.264,4.389,14.001,6.773c1.037,0.586,2.271,1.395,3.703,2.429
			c1.206,0.851,1.442,2.046,0.698,3.585c-7.171,13.875-13.955,29.057-20.363,45.564c-3.875,10.102-6.473,18.78-7.793,26.031
			c-0.312,1.639-0.238,2.646,0.217,3.014c0.548,0.442,1.347-0.11,2.448-1.612c1.149-1.59,1.798-2.484,1.902-2.72
			c0.115-0.22,2.436-3.23,6.93-9.054c4.509-5.811,7.084-9.027,7.706-9.653c16.654-19.828,28.954-30.62,36.924-32.375
			c6.531-1.529,12.239-0.323,17.119,3.617C375.585,632.685,376.565,633.66,377.45,634.755z"/>
		<path fill="#FFFFFF" d="M432.725,557.656c1.19,1.343,2.641,4.462,4.345,9.366c2.924,8.416,3.631,15.102,2.133,20.067
			c-0.627,2.021-1.582,3.827-2.877,5.432c-2.953,3.654-7.325,6.183-13.105,7.562c-5.167,1.246-10.204,1.398-15.114,0.458
			c-2.625-0.481-5.867-1.391-9.698-2.737c-2.891-0.939-4.358-1.313-4.41-1.103c0.713,6,1.514,13.577,2.421,22.756
			c0.119,1.729,0.913,2.999,2.398,3.823c2.521,1.401,4.772,2.593,6.76,3.574c1.766,0.921,2.619,1.672,2.539,2.229
			c-0.347,1.366-1.104,2.771-2.276,4.222c-2.28,2.822-4.712,4.58-7.276,5.273c-1.22,0.274-2.438,0.05-3.629-0.665
			c-14.127-8.26-26.147-16.395-36.063-24.403c-10.602-8.563-20.646-18.442-30.133-29.637c0.171-0.364,0.416-0.987,0.745-1.86
			c0.56-1.312,1.356-2.619,2.405-3.917c2.59-3.204,5.204-5.189,7.84-5.958c0.479-0.119,1.028,0.141,1.65,0.767
			c5.733,6.012,12.029,12.184,18.912,18.489c0.277-0.029,0.576-0.17,0.895-0.411l-0.149-7.309
			c-0.558-17.717,1.62-36.252,6.537-55.594c0.479-2.005,1.26-4.284,2.302-6.833c0.513-1.102,1.363-1.611,2.564-1.528
			c4.573,0.422,9.836,3.027,15.789,7.836c1.757,1.418,3.375,2.917,4.87,4.501c2.351,2.403,4.404,5.049,6.175,7.922
			c1.77,2.879,2.498,4.822,2.187,5.834c-2.124,9.505-3.324,14.957-3.594,16.392c-2.127,9.501-2.883,14.556-2.253,15.188
			c3.694,1.98,8.142,3.81,13.328,5.472c6.341,1.979,10.989,2.701,13.921,2.172c1.039-0.171,1.709-0.697,2.024-1.576
			c0.602-1.53,0.659-3.975,0.168-7.343c-0.504-3.366-1.395-6.439-2.656-9.234c-0.518-0.924-0.978-1.918-1.368-2.991
			c1.804-2.705,3.93-4.705,6.364-6.01C429.865,556.604,431.635,556.517,432.725,557.656z"/>
		<path fill="#FFFFFF" d="M513.952,478.642c0.243,0.196,0.252,0.857,0.064,2.033c-0.191,1.169-0.499,3.037-0.923,5.585
			c-1.854,9.476-4.29,16.458-7.292,20.961c-2.561,4.109-4.812,6.506-6.756,7.204c-4.069,1.762-10.063,0.759-17.99-3.005l-0.041,0.54
			c0.598,12.324,0.239,20.795-1.077,25.409c-1.049,3.814-1.989,6.147-2.8,7.005c-3.648,3.733-10.188,6.743-19.604,9.023
			c-9.42,2.289-16.313,2.678-20.676,1.174c-1.74-0.654-3.833-1.58-6.271-2.798c-3.028-1.57-6.767-4.146-11.216-7.741
			c-10.023-8.098-18.069-16.299-24.134-24.603c-1.479-2.075-2.734-3.971-3.748-5.678c-0.688-1.185,0.5-4.343,3.582-9.485
			c3.077-5.146,6.762-10.134,11.061-14.988c4.469-5.212,8.155-9.226,11.061-12.043c2.725-2.596,4.699-3.398,5.923-2.41
			c0.459,0.371,0.925,0.877,1.417,1.527c1.779,2.947,4.424,7.353,7.904,13.197c6.893,11.484,14.99,21.491,24.267,29.995
			c4.184,3.888,7.5,6.19,9.95,6.905c1.519,0.463,2.38-0.223,2.602-2.061c0.998-7.004,0.706-13.67-0.859-19.981l-1.354-0.896
			c-5.693-3.718-11.525-7.99-17.464-12.788c-7.094-5.731-11.315-9.702-12.667-11.936c-1.352-2.227-1.78-4.657-1.3-7.289
			c1.502-8.872,4.506-17.658,9.017-26.369c5.139-10.093,8.038-14.865,8.725-14.311c0.459,0.371,0.947,0.697,1.474,0.993
			c3.014,2.815,9.003,8.284,17.946,16.396c3.707,3.371,7.429,6.563,11.17,9.584C492.925,465.052,502.932,472.009,513.952,478.642z"
			/>
		<path fill="#FFFFFF" d="M558.392,417.551c1.649,0.949,2.951,2.124,3.946,3.569c0.414,0.586,0.555,1.077,0.419,1.473
			c-0.146,0.395-0.537,1.146-1.185,2.262c-4.267,8.271-9.049,18.716-14.336,31.336l-1.239,2.969c-0.729,1.68-2.077,3.045-4.06,4.101
			c-2.645,1.52-6.517,3.687-11.659,6.46c-0.729,0.421-1.343,0.556-1.832,0.412c-0.941-0.254-1.964-0.705-3.076-1.35
			c-13.857-7.662-28.255-17.524-43.206-29.603c-4.346-3.511-7.726-6.5-10.149-8.963c-2.729-2.711-5.579-5.579-8.55-8.608
			c3.402-11.239,8.922-21.026,16.541-29.364c2.247-2.469,3.913-4.15,5.01-5.034c1.921-1.592,3.996-2.689,6.236-3.271
			c9.828,13.732,21.35,27.392,34.578,40.977c4.929,5.124,8.852,8.852,11.754,11.196c0.91,0.734,1.5,1.12,1.743,1.125
			c0.246,0.008,0.815-0.376,1.706-1.173c0.53-0.337,1.865-1.897,3.997-4.713c7.088-9.4,11.183-14.157,12.282-14.28
			C557.582,417.148,557.951,417.317,558.392,417.551z"/>
		<path fill="#FFFFFF" d="M602.569,362.865c1.654,0.943,2.949,2.125,3.944,3.57c0.413,0.586,0.548,1.085,0.419,1.473
			c-0.146,0.394-0.536,1.146-1.192,2.272c-4.267,8.273-9.053,18.721-14.333,31.333l-1.243,2.972
			c-0.722,1.673-2.076,3.044-4.061,4.104c-2.643,1.516-6.512,3.679-11.658,6.457c-0.729,0.421-1.342,0.555-1.829,0.408
			c-0.941-0.254-1.963-0.705-3.076-1.35c-13.856-7.662-28.255-17.524-43.206-29.602c-4.346-3.511-7.725-6.5-10.148-8.963
			c-2.732-2.708-5.584-5.572-8.55-8.609c3.402-11.239,8.916-21.018,16.546-29.371c2.238-2.458,3.91-4.147,5.004-5.026
			c1.927-1.599,4-2.693,6.245-3.283c9.821,13.741,21.346,27.396,34.571,40.985c4.93,5.122,8.858,8.844,11.76,11.188
			c0.91,0.735,1.5,1.12,1.743,1.125c0.243,0.011,0.818-0.381,1.703-1.17c0.527-0.333,1.868-1.9,3.991-4.704
			c7.095-9.409,11.18-14.153,12.289-14.288C601.758,362.464,602.125,362.637,602.569,362.865z"/>
		<path fill="#FFFFFF" d="M650.592,266.676c6.697,9.818,9.752,21.23,9.187,34.262c-0.563,13.027-4.574,24.229-12.005,33.594
			c-7.5,9.452-17.636,15.886-30.433,19.289c-12.776,3.408-24.702,2.854-35.783-1.69c-4.202-2.131-7.545-4.937-9.999-8.454
			c-4.489-6.141-7.222-14.778-8.192-25.907c-0.971-11.122,0.155-20.544,3.371-28.279c2.002-4.813,4.667-9.286,7.99-13.4
			c3.388-4.192,7.219-7.768,11.51-10.738c6.884-4.782,15.866-7.858,26.943-9.247c11.079-1.382,20.093-0.522,27.048,2.567
			C644.174,260.345,647.625,263.016,650.592,266.676z M632.471,308.757c-3.354-2.709-6.891-4.174-10.608-4.41
			c-3.711-0.229-6.491,0.816-8.329,3.091c-1.913,2.369-2.348,5.317-1.333,8.868c1.037,3.556,3.262,6.685,6.597,9.378
			c3.361,2.715,6.886,4.205,10.563,4.483c3.698,0.258,6.493-0.782,8.407-3.151c1.839-2.275,2.265-5.223,1.252-8.808
			C638.018,314.619,635.832,311.472,632.471,308.757z"/>
		<path fill="#FFFFFF" d="M711.848,179.846c1.668,1.218,2.466,2.811,2.395,4.769c-0.075,5.862-2.642,15.195-7.697,27.995
			c-2.556,6.14-5.052,12.25-7.458,18.373l-0.092,0.112c16.463-9.763,29.891-16.25,40.295-19.446
			c0.226,1.575,0.436,2.879,0.604,3.897c0.318,2.903-0.396,5.427-2.112,7.552c-1.111,1.376-2.616,2.622-4.523,3.731
			c-2.735,1.205-7.588,3.531-14.533,6.994c-12.123,6.109-23.713,14.052-34.783,23.866l14.316,10.833
			c0.074,0.06,0.146,0.117,0.228,0.183c0.016,0.142-0.094,0.344-0.344,0.653c-3.523,3.577-6.61,6.002-9.261,7.252
			c-2,0.918-4.033,0.712-6.133-0.596c-5.362-3.198-10.526-6.864-15.492-11.011c-9.797-8.156-14.945-12.703-15.459-13.624
			c-0.243-0.332-0.447-0.546-0.604-0.672l-3.618,0.48c-3.696,0.676-8.065-0.462-13.119-3.417
			c-7.372-4.451-14.328-9.491-20.843-15.154c-1.156-1.064-1.29-2.226-0.373-3.521c5.78-7.928,11.854-15.142,18.209-21.603
			c5.408-5.595,11.776-11.145,19.147-16.674c7.021-5.418,13.078-9.408,18.181-11.975c2.834-1.471,6.262-2.438,10.263-2.867
			c7.138-0.886,13.671-0.928,19.547-0.09C704.938,176.778,709.363,178.084,711.848,179.846z M694.446,205.492
			c-0.389,0.076-1.089,0.372-2.154,0.905c-8.954,6.254-16.665,13.378-23.137,21.391c-3.083,3.816-5.287,6.949-6.634,9.387
			c3.297,4.174,6.971,7.968,11.035,11.375c9.768-11.769,17.15-24.649,22.146-38.646c0.688-2.105,0.572-3.525-0.338-4.26
			C695.122,205.466,694.82,205.413,694.446,205.492z"/>
		<path fill="#FFFFFF" d="M739.886,86.404c4.507,3.776,8.146,9.422,10.893,16.936c1.092,3.028,2.026,7.243,2.813,12.672
			c0.319,2.27,0.588,4.507,0.813,6.717c0.09,0.202,1.629,1.815,4.591,4.848c7.42,7.511,13.991,13.577,19.706,18.194
			c1.518,1.226,2.777,2.108,3.731,2.621c1.878,1.264,2.978,2.084,3.304,2.483c0.182,0.406-0.15,1.826-1.008,4.291
			c-2.007,5.443-3.254,8.781-3.763,10.022c-1.596,3.859-3.333,7.017-5.153,9.431c-3.519,4.844-6.941,6.876-10.236,6.118
			c-10.146-3.037-19.354-7.644-27.603-13.81c-1.118-0.781-2.868-1.989-5.213-3.625c-1.416-0.896-2.535-1.296-3.358-1.215
			c-1.565,0.381-4.02,0.846-7.381,1.422c-6.365,1.171-12.81,1.89-19.326,2.153c-3.125,0.121-10.506-0.097-22.14-0.678l-0.528-0.039
			c1.741-14.479,6.924-27.061,15.551-37.74c1.17-1.447,2.412-2.824,3.701-4.106c1.291-1.293,2.143-2.029,2.547-2.214
			c0.396-0.172,1.082-0.013,2.045,0.512c6.803,3.75,14.451,7.148,22.947,10.215c4.783,1.725,8.209,2.551,10.295,2.473
			c1.252,0.006,1.928-0.281,2.002-0.848c1.287-7.53-0.899-15.979-6.553-25.354c-4.16-6.862-8.084-11.758-11.816-14.631
			c2.391-3.112,4.852-5.838,7.387-8.205C731.297,82.049,735.213,82.506,739.886,86.404z"/>
	</g>
	<path fill="#E5E5E5" d="M421.041,563.894c0.391,1.074,0.848,2.072,1.362,2.992c0.817,1.795,1.414,3.751,1.913,5.781
		c0.181-1.445,0.128-3.294-0.227-5.62c-0.275-1.88-0.705-3.645-1.223-5.346C422.243,562.405,421.604,563.053,421.041,563.894z
		 M350.776,691.697c-14.232,17.617-26.812,29.136-37.742,34.548c-2.521,1.243-5.033,0.851-7.554-1.188
		c-0.05-0.039-0.084-0.102-0.137-0.144c-1.246,1.16-2.408,2.295-3.69,3.454c1.375,1.739,2.423,3.089,3.155,4.06
		c0.486,0.649,1.023,1.206,1.636,1.7c2.515,2.031,5.03,2.427,7.548,1.181c10.926-5.413,23.509-16.93,37.742-34.549
		c14.17-17.541,23.273-33.122,27.345-46.724c1.948-6.585,2.089-11.872,0.44-15.885c-0.231,2.097-0.681,4.354-1.402,6.813
		C374.05,658.575,364.946,674.156,350.776,691.697z M394.648,568.322c0.531,0.288,1.201,0.551,1.763,0.825
		c0.374-1.974,0.863-4.266,1.455-6.943c0.264-1.426,1.474-6.884,3.598-16.388c0.282-0.932-0.347-2.686-1.829-5.201
		c-1.59,7.112-2.504,11.304-2.727,12.518C394.776,562.631,394.027,567.696,394.648,568.322z M302.959,672.924
		c0.043-0.061,0.076-0.102,0.116-0.158c1.44-5.463,3.405-11.486,5.982-18.204c6.408-16.509,13.191-31.689,20.363-45.564
		c0.744-1.539,0.507-2.734-0.698-3.585c-0.818-0.588-1.544-1.081-2.24-1.529c-6.437,12.804-12.575,26.638-18.389,41.608
		c-3.875,10.102-6.476,18.776-7.793,26.031c-0.312,1.638-0.234,2.647,0.216,3.014C301.065,674.979,301.864,674.424,302.959,672.924z
		 M296.067,717.236c4.43-4.361,8.905-9.696,13.468-15.971c5.476-7.542,11.638-15.55,18.478-24.017
		c7.148-8.85,11.869-14.485,14.207-16.884c7.097-7.7,12.035-11.333,14.83-10.955c0.345-0.915,0.691-1.825,0.979-2.706
		c0.873-2.82,0.638-4.781-0.729-5.883c-2.438-1.972-7.795,1.516-16.042,10.479c-2.339,2.4-7.063,8.031-14.211,16.882
		c-6.841,8.469-12.998,16.479-18.474,24.021c-4.569,6.268-9.046,11.602-13.472,15.967c-5.25,5.088-13.438,3.137-24.57-5.854
		c-5.949-4.808-10.863-11.047-14.745-18.721c-0.717-1.453-1.243-3.092-1.665-4.82c-0.053,5.514,0.79,10.162,2.628,13.885
		c3.881,7.672,8.795,13.914,14.745,18.721C282.631,720.376,290.816,722.324,296.067,717.236z M467.426,495.335l-1.351-0.898
		c-5.69-3.71-11.525-7.986-17.467-12.786c-7.055-5.699-11.257-9.653-12.637-11.892c-0.112,0.574-0.27,1.151-0.368,1.73
		c-0.483,2.636-0.048,5.059,1.301,7.29c1.353,2.231,5.572,6.203,12.667,11.935c5.945,4.804,11.771,9.07,17.467,12.785l1.351,0.9
		c0.179,0.718,0.276,1.443,0.419,2.169C468.752,502.72,468.319,498.96,467.426,495.335z M720.747,93.247
		c3.735,2.87,7.659,7.766,11.819,14.627c2.854,4.729,4.817,9.22,5.903,13.476c0.386-6.81-1.901-14.31-6.873-22.542
		c-2.456-4.063-4.825-7.357-7.134-10.023C723.2,90.181,721.969,91.658,720.747,93.247z M698.117,221.91l-0.087,0.108
		c2.099-1.239,4.146-2.426,6.146-3.565c0.796-1.946,1.552-3.895,2.369-5.847c5.053-12.802,7.619-22.129,7.694-27.991
		c0.052-1.561-0.459-2.874-1.495-3.964c-0.994,5.688-3.383,13.313-7.163,22.892C703.027,209.675,700.536,215.788,698.117,221.91z
		 M621.861,304.347c3.725,0.229,7.26,1.704,10.608,4.41c2.529,2.043,4.396,4.321,5.591,6.864c0.657-1.854,0.696-3.993-0.005-6.482
		c-1-3.587-3.186-6.74-6.543-9.452c-3.356-2.712-6.893-4.181-10.616-4.41c-3.714-0.232-6.496,0.817-8.332,3.089
		c-1.91,2.365-2.348,5.316-1.322,8.862c0.254,0.883,0.587,1.738,0.993,2.571c0.31-0.84,0.701-1.632,1.293-2.364
		C615.369,305.157,618.15,304.118,621.861,304.347z M692.292,206.397c0.093-0.054,0.136-0.062,0.221-0.105
		c0.755-1.82,1.562-3.603,2.219-5.463c0.7-2.104,0.581-3.52-0.328-4.255c-0.242-0.183-0.542-0.246-0.917-0.155
		c-0.389,0.082-1.095,0.369-2.155,0.904c-8.957,6.257-16.666,13.375-23.146,21.396c-3.078,3.813-5.285,6.949-6.624,9.375
		c1.231,1.574,2.579,3.034,3.92,4.497c1.051-1.469,2.252-3.056,3.669-4.809C675.627,219.775,683.338,212.651,692.292,206.397z
		 M403.48,625.777c-1.87,1.909-3.832,3.18-5.875,3.731c-1.23,0.272-2.445,0.043-3.641-0.668
		c-14.122-8.258-26.14-16.389-36.055-24.397c-9.288-7.503-18.121-16.073-26.56-25.6c-0.768,1.05-1.417,2.104-1.868,3.16
		c-0.326,0.877-0.574,1.497-0.745,1.86c9.486,11.194,19.536,21.076,30.136,29.641c2.268,1.832,4.677,3.674,7.157,5.518
		c2.691,0.644,5.202,1.849,7.514,3.718c1.072,0.87,2.046,1.84,2.931,2.934c0.356,0.414,0.654,0.861,0.951,1.312
		c5.441,3.618,11.231,7.258,17.502,10.919c1.192,0.714,2.409,0.939,3.622,0.658c2.57-0.688,5.003-2.444,7.283-5.268
		c1.175-1.455,1.926-2.858,2.269-4.221c0.08-0.563-0.77-1.313-2.535-2.233C404.921,626.528,404.192,626.148,403.48,625.777z
		 M646.805,325.46c-7.498,9.441-17.632,15.882-30.429,19.284c-12.778,3.411-24.705,2.857-35.785-1.687
		c-4.203-2.131-7.546-4.937-10-8.454c-3.55-4.846-5.977-11.289-7.332-19.25c0.046,0.813,0.028,1.576,0.106,2.41
		c0.965,11.129,3.697,19.766,8.186,25.908c2.457,3.514,5.797,6.322,9.999,8.454c5.169,2.117,10.53,3.334,16.065,3.724
		c1.448-1.609,2.441-2.496,2.891-2.547c0.279,0.097,0.646,0.252,1.091,0.487c1.044,0.585,1.895,1.327,2.669,2.107
		c4.249-0.223,8.601-0.894,13.063-2.085c12.794-3.406,22.933-9.836,30.438-19.289c7.429-9.361,11.441-20.563,12-33.593
		c0.215-4.974-0.102-9.704-0.938-14.216c0.054,1.689,0.054,3.398-0.022,5.148C658.245,304.896,654.242,316.093,646.805,325.46z
		 M590.442,392.436l-1.243,2.965c-0.725,1.69-2.078,3.044-4.063,4.098c-2.645,1.526-6.505,3.696-11.655,6.47
		c-0.728,0.419-1.343,0.563-1.833,0.406c-0.943-0.251-1.959-0.695-3.079-1.347c-13.854-7.659-28.251-17.515-43.208-29.598
		c-4.342-3.508-7.724-6.497-10.146-8.961c-1.755-1.75-3.588-3.577-5.441-5.456c-0.759,1.945-1.525,3.871-2.141,5.914
		c2.969,3.04,5.82,5.898,8.55,8.609c2.425,2.463,5.806,5.442,10.155,8.956c14.951,12.078,29.348,21.95,43.2,29.609
		c1.115,0.641,2.137,1.085,3.083,1.343c0.489,0.149,1.098,0.013,1.827-0.416c5.146-2.767,9.021-4.932,11.654-6.453
		c1.988-1.057,3.341-2.418,4.062-4.104l1.247-2.969c5.288-12.62,10.073-23.068,14.337-31.33c0.656-1.127,1.048-1.878,1.189-2.274
		c0.126-0.392-0.002-0.889-0.416-1.483c-0.777-1.122-1.797-2.042-2.963-2.85C599.592,371.434,595.227,380.995,590.442,392.436z
		 M780.01,156.114c-1.599,3.855-3.34,7.018-5.162,9.428c-3.514,4.844-6.936,6.875-10.229,6.113
		c-10.155-3.033-19.357-7.645-27.606-13.808c-1.112-0.775-2.866-1.983-5.221-3.632c-1.422-0.889-2.521-1.283-3.349-1.206
		c-1.564,0.389-4.022,0.844-7.385,1.426c-6.366,1.175-12.813,1.891-19.323,2.15c-2.936,0.107-9.662-0.082-20.099-0.579
		c-0.684,2.906-1.237,5.868-1.61,8.932l0.528,0.039c11.631,0.575,19.017,0.795,22.141,0.675c6.519-0.264,12.963-0.982,19.322-2.149
		c3.357-0.575,5.82-1.045,7.387-1.426c0.819-0.077,1.943,0.325,3.354,1.212c2.348,1.644,4.094,2.845,5.215,3.626
		c8.252,6.168,17.453,10.779,27.604,13.812c3.296,0.758,6.712-1.273,10.237-6.118c1.815-2.416,3.562-5.568,5.148-9.433
		c0.512-1.238,1.756-4.579,3.766-10.02c0.859-2.475,1.194-3.881,1.005-4.294c-0.304-0.367-1.288-1.108-2.914-2.224
		C781.38,152.548,780.418,155.088,780.01,156.114z M736.811,214.029c-1.104,1.369-2.611,2.624-4.514,3.733
		c-2.739,1.208-7.583,3.526-14.53,6.983c-12.126,6.114-23.718,14.06-34.794,23.877l6.204,4.69
		c9.483-7.786,19.313-14.345,29.554-19.498c6.946-3.463,11.795-5.786,14.527-6.987c1.907-1.109,3.412-2.354,4.526-3.734
		c1.714-2.123,2.429-4.646,2.109-7.549c-0.163-1.025-0.38-2.323-0.603-3.901c-0.407,0.121-0.848,0.284-1.248,0.415
		C737.704,212.748,737.311,213.41,736.811,214.029z M687.913,267.545c-1.989,0.914-4.04,0.706-6.12-0.605
		c-5.368-3.189-10.539-6.855-15.504-11.002c-9.793-8.169-14.946-12.708-15.46-13.629c-0.24-0.33-0.447-0.545-0.604-0.672
		l-3.613,0.483c-3.69,0.668-8.068-0.459-13.124-3.42c-6.263-3.771-12.206-8.011-17.855-12.662c-0.79,1.039-1.608,1.992-2.401,3.065
		c-0.914,1.284-0.776,2.449,0.377,3.517c6.515,5.657,13.474,10.7,20.839,15.151c0.262,0.149,0.493,0.244,0.739,0.382
		c1.418,0.419,2.79,0.88,4.071,1.446c0.882,0.373,1.724,0.812,2.558,1.289c2.068,0.5,3.995,0.626,5.758,0.299l3.607-0.476
		c0.156,0.126,0.367,0.34,0.609,0.665c0.514,0.921,5.662,5.468,15.457,13.634c4.976,4.143,10.14,7.808,15.498,11.003
		c2.104,1.312,4.131,1.518,6.123,0.601c2.655-1.251,5.739-3.679,9.265-7.249c0.249-0.309,0.354-0.515,0.347-0.657l-0.23-0.187
		l-5.516-4.171C691.006,265.753,689.385,266.853,687.913,267.545z M435.362,583.458c-2.953,3.655-7.322,6.179-13.108,7.558
		c-5.159,1.25-10.205,1.398-15.112,0.46c-2.63-0.49-5.87-1.395-9.698-2.736c-2.891-0.948-4.361-1.317-4.407-1.107
		c0.31,2.686,0.651,5.741,1.004,9.06c0.161-0.153,1.586,0.204,4.361,1.118c3.838,1.339,7.075,2.252,9.701,2.732
		c4.915,0.938,9.949,0.788,15.115-0.457c5.78-1.378,10.149-3.902,13.108-7.564c1.292-1.601,2.25-3.41,2.871-5.424
		c1.093-3.61,0.976-8.15-0.26-13.573c-0.082,1.622-0.294,3.141-0.7,4.5C437.617,580.04,436.664,581.846,435.362,583.458z
		 M395.563,610.984c-0.314-3.021-0.611-5.845-0.903-8.43c0.253,2.479,0.517,5.062,0.798,7.834
		C395.469,610.596,395.527,610.784,395.563,610.984z M545.021,450.087c-0.721,1.687-2.076,3.043-4.062,4.097
		c-2.642,1.521-6.506,3.695-11.653,6.467c-0.729,0.422-1.342,0.562-1.835,0.409c-0.94-0.254-1.957-0.698-3.076-1.351
		c-13.854-7.659-28.244-17.522-43.202-29.604c-4.343-3.509-7.726-6.493-10.149-8.958c-1.761-1.743-3.585-3.581-5.442-5.456
		c-0.755,1.942-1.525,3.872-2.141,5.915c2.975,3.032,5.82,5.897,8.55,8.608c2.424,2.464,5.799,5.45,10.149,8.963
		c14.951,12.078,29.353,21.943,43.206,29.603c1.111,0.646,2.131,1.093,3.077,1.351c0.492,0.146,1.102,0.009,1.828-0.416
		c5.146-2.77,9.022-4.935,11.659-6.46c1.985-1.053,3.337-2.414,4.06-4.101l1.243-2.965c5.288-12.62,10.072-23.067,14.34-31.333
		c0.647-1.116,1.039-1.867,1.181-2.265c0.132-0.398-0.002-0.889-0.416-1.483c-0.781-1.118-1.802-2.035-2.963-2.85
		c-3.958,7.861-8.32,17.418-13.102,28.855L545.021,450.087z M504.835,498.155c-2.557,4.11-4.813,6.506-6.753,7.207
		c-4.071,1.759-10.063,0.759-18-3.008l-0.035,0.539c0.603,12.328,0.241,20.803-1.081,25.406c-1.043,3.817-1.981,6.154-2.791,7.01
		c-3.65,3.733-10.191,6.733-19.605,9.023c-9.429,2.284-16.318,2.672-20.672,1.171c-1.747-0.653-3.837-1.583-6.278-2.797
		c-3.021-1.565-6.762-4.144-11.212-7.739c-10.03-8.103-18.069-16.299-24.138-24.604c-0.507-0.718-0.954-1.376-1.408-2.051
		c-1.364,2.758-1.863,4.609-1.373,5.438c1.014,1.707,2.269,3.602,3.748,5.678c6.064,8.304,14.11,16.504,24.134,24.603
		c2.477,2.001,4.713,3.659,6.748,5.032c0.119-0.07,0.217-0.178,0.326-0.243c2.459-1.28,4.222-1.372,5.315-0.23
		c0.777,0.875,1.676,2.587,2.67,4.98c0.852,0.366,1.687,0.722,2.422,0.995c4.36,1.507,11.252,1.118,20.674-1.164
		c9.427-2.285,15.962-5.291,19.604-9.03c0.82-0.854,1.755-3.188,2.802-7.001c1.313-4.617,1.672-13.081,1.074-25.412l0.046-0.53
		c7.929,3.762,13.919,4.762,17.992,3.001c1.941-0.693,4.194-3.102,6.752-7.207c3.001-4.51,5.441-11.489,7.289-20.958
		c0.424-2.555,0.735-4.419,0.928-5.588c0.189-1.173,0.18-1.841-0.06-2.034c-0.646-0.384-1.252-0.782-1.891-1.176
		C510.232,486.789,507.813,493.698,504.835,498.155z"/>
</g>
<g enable-background="new    ">
	<path fill="#FFF2E7" d="M495.285,1021.805c0.092,0.035,0.092,0.285,0.007,0.752c-0.084,0.471-0.223,1.229-0.405,2.275
		c-0.271,1.254-0.696,2.719-1.281,4.4c-0.627,1.875-1.188,3.191-1.686,3.941c-1.052,1.568-1.961,2.521-2.729,2.852
		c-0.768,0.327-1.914,0.324-3.437-0.01c-1.323-0.286-2.571-0.711-3.743-1.273l-0.01,0.229c0.153,4.92-0.032,8.281-0.554,10.084
		c-0.464,1.537-0.857,2.477-1.172,2.814c-1.456,1.479-4.074,2.666-7.854,3.551c-3.785,0.885-6.532,1.008-8.238,0.363
		c-0.681-0.234-1.506-0.597-2.473-1.072c-1.201-0.627-2.696-1.67-4.484-3.139c-3.96-3.252-7.133-6.537-9.519-9.855
		c-0.564-0.817-1.055-1.582-1.474-2.287c-0.246-0.479,0.244-1.73,1.469-3.762c1.224-2.031,2.698-4.016,4.416-5.959
		c1.829-2.088,3.34-3.684,4.525-4.785c1.081-1.028,1.86-1.346,2.338-0.955c0.189,0.158,0.378,0.367,0.558,0.639
		c0.705,1.18,1.749,2.949,3.119,5.314c2.728,4.556,5.93,8.563,9.603,12.012c1.646,1.553,2.938,2.479,3.891,2.773
		c0.249,0.09,0.483,0.043,0.71-0.133c0.225-0.178,0.354-0.408,0.393-0.693c0.405-2.822,0.315-5.473-0.274-7.955l-0.527-0.373
		c-2.271-1.502-4.569-3.211-6.896-5.123c-2.805-2.303-4.496-3.928-5.066-4.881c-0.499-0.846-0.655-1.791-0.474-2.842
		c0.643-3.545,1.871-7.049,3.681-10.513c1.421-2.702,2.533-4.548,3.337-5.524c0.116-0.145,0.198-0.195,0.246-0.158
		c0.17,0.137,0.354,0.273,0.565,0.406c-0.074-0.061,2.296,2.123,7.104,6.551c1.469,1.365,2.949,2.664,4.446,3.894
		C486.964,1016.291,490.93,1019.104,495.285,1021.805z"/>
	<path fill="#FFF2E7" d="M498.197,971.916c5.14,6.334,10.605,11.879,16.4,16.641c1.266,1.035,2.563,2.104,3.896,3.197
		c0.217,0.178,0.837,0.611,1.874,1.297c-1.243,4.771-3.374,9.07-6.396,12.896c-1.675,2.139-3.528,3.188-5.575,3.145
		c-5.012-0.559-9.979-1.34-14.899-2.348c2.574,3.189,5.31,6.057,8.212,8.6c0.576,0.514,1.172,0.979,1.784,1.402
		c0.867,0.596,1.267,0.857,1.198,0.803c0.096,0.121-0.106,0.395-0.61,0.814c-0.567,0.494-1.034,0.891-1.399,1.189
		c-0.938,0.707-1.695,1.084-2.273,1.125c-0.574,0.049-1.25-0.227-2.035-0.834c-4.557-3.496-8.763-7.588-12.622-12.273l-3.579-4.316
		c-0.095-0.076-0.382-0.195-0.854-0.344c-1.132-0.328-2.353-0.83-3.666-1.513c0.127-0.692,0.329-1.741,0.605-3.153
		c0.463-1.974,1.388-4.361,2.766-7.16c1.384-2.799,2.824-5.117,4.333-6.955c0.509-0.619,0.992-1.139,1.458-1.559
		c0.18-0.168,0.356-0.266,0.527-0.281c0.069,0.018,0.343,0.141,0.828,0.377c0.272,0.106,1.767,1.33,4.472,3.674
		c2.613,2.265,5.399,4.148,8.354,5.65c3.628,1.811,6.923,2.684,9.887,2.619c0.286-0.007,0.461-0.021,0.525-0.055
		c0.019-0.021,0.016-0.045-0.005-0.063c-2.056-1.877-5.217-4.762-9.489-8.652c-1.458-1.385-3.663-3.389-6.622-6.012
		c-0.456-0.371-0.933-0.764-1.431-1.172c0.093-0.408,0.215-0.822,0.364-1.256c0.728-1.805,1.771-3.439,3.14-4.912
		c0.259-0.27,0.501-0.486,0.724-0.666C498.113,971.846,498.15,971.875,498.197,971.916z"/>
	<path fill="#FFF2E7" d="M557.873,931.977c0.456,0.176,0.933,0.467,1.434,0.883c1.047,0.855,1.774,1.75,2.172,2.678
		c0.638,1.557,0.764,3.643,0.385,6.242c-0.313,2.18-0.879,4.209-1.702,6.086c-1.42,3.188-3.168,6.049-5.24,8.578
		c-3.7,4.506-8.35,7.896-13.932,10.184c-2.741,1.1-5.46,1.469-8.148,1.092c-1.42-0.209-2.658-0.744-3.708-1.604
		c-1.574-1.295-2.731-3.24-3.469-5.843c-0.604-2.134-0.896-4.429-0.875-6.888c0.122-7.926,2.184-15.717,6.188-23.367
		c1.291-2.447,2.452-4.271,3.478-5.471c0.256-0.266,0.599-0.44,1.034-0.531c1.779-0.371,4.251-0.006,7.421,1.1
		c3.165,1.102,5.675,2.473,7.521,4.107c1.066,0.994,1.62,1.605,1.666,1.845c0.004,0.084-0.006,0.153-0.046,0.2
		c-6.513,7.594-10.444,14.541-11.795,20.861c-0.946,4.41-0.872,7.068,0.222,7.967c0.575,0.472,1.466,0.381,2.674-0.26
		c1.936-1.051,3.963-2.857,6.076-5.435c1.192-1.452,2.025-2.709,2.492-3.765c0.364-0.735,0.406-1.203,0.122-1.395
		c-1.373-0.811-2.541-0.912-3.514-0.313c-0.209,0.111-1.1,0.779-2.667,2.004c-0.813,0.65-1.336,0.879-1.575,0.686
		c-0.19-0.16-0.111-0.549,0.244-1.174c0.22-0.467,0.562-1.1,1.03-1.912c1.964-3.218,4.252-6.591,6.861-10.113
		c1.691-2.248,3.372-4.299,5.054-6.156C557.492,932.004,557.69,931.904,557.873,931.977z"/>
	<path fill="#FFF2E7" d="M554.955,901.316c0.189,0.154,0.484,0.459,0.879,0.896c5.468,6.568,11.294,12.869,17.48,18.902
		c1.379,1.338,2.817,2.573,4.311,3.721c-2.27,5.443-3.831,8.531-4.679,9.275c-0.789,0.668-1.934,0.768-3.422,0.301
		c-4.275-1.31-9.166-4.229-14.676-8.75c-3.721-3.055-7.183-6.377-10.384-9.967c-0.402-0.525-0.605-0.814-0.615-0.857l0.236-0.648
		c0.957-2.768,2.766-5.777,5.425-9.021c1.155-1.406,2.224-2.481,3.202-3.234c0.467-0.377,0.827-0.619,1.076-0.736
		C554.196,901.049,554.581,901.09,554.955,901.316z"/>
	<path fill="#FFF2E7" d="M598.571,878.969c2.623,3.955,3.808,8.529,3.55,13.729c-0.254,5.199-1.889,9.658-4.897,13.375
		c-3.009,3.758-7.071,6.303-12.191,7.627c-5.121,1.326-9.897,1.07-14.332-0.777c-1.667-0.889-3.009-2.029-4.021-3.418
		c-1.755-2.479-2.808-5.938-3.155-10.379c-0.352-4.438,0.135-8.213,1.448-11.324c0.824-1.879,1.913-3.641,3.265-5.287
		c1.371-1.67,2.896-3.09,4.583-4.264c2.794-1.896,6.399-3.109,10.818-3.633c4.425-0.521,8.011-0.148,10.768,1.117
		C595.983,876.432,597.375,877.512,598.571,878.969z M591.127,895.736c-1.309-1.072-2.699-1.666-4.178-1.781
		c-1.479-0.111-2.589,0.283-3.334,1.188c-0.764,0.93-0.942,2.111-0.541,3.535c0.396,1.43,1.25,2.677,2.558,3.748
		c1.328,1.094,2.733,1.697,4.211,1.811c1.479,0.115,2.6-0.291,3.361-1.221c0.744-0.904,0.918-2.07,0.516-3.502
		C593.322,898.088,592.456,896.83,591.127,895.736z"/>
	<path fill="#FFF2E7" d="M630.896,856.883c0.346,0.847,0.036,2.52-0.924,5.021c-0.957,2.508-2.184,4.866-3.676,7.07
		c-0.782,1.195-1.62,2.346-2.521,3.441c-2.938,3.576-6.027,6.291-9.265,8.143c-3.486,2.01-6.479,2.566-8.978,1.676
		c-0.799-0.299-1.604-0.775-2.414-1.441c-1.67-1.369-3.188-3.313-4.552-5.834c-1.773-3.332-2.844-7.043-3.2-11.131
		c-0.362-3.933-0.057-7.808,0.925-11.633c1.051-4.055,2.723-7.906,5.015-11.578c0.096-0.158,0.186-0.246,0.271-0.254
		c2.534-0.314,5.36,0.086,8.471,1.207c2.935,1.049,5.397,2.471,7.396,4.268c0.212,0.18,0.466,0.404,0.752,0.685
		c-0.153,0.19-0.291,0.356-0.409,0.5c-1.547,1.886-2.936,4.771-4.166,8.647c-1.23,3.881-1.836,7.125-1.818,9.734
		c0.063,3.325,0.516,5.33,1.349,6.016c0.811,0.664,2.028,0.49,3.663-0.524c1.904-1.149,3.777-3.12,5.635-5.911
		c0.708-1.061,1.432-2.38,2.177-3.964c1.101-2.411,1.73-4.323,1.9-5.745c0.059-0.51,0.221-0.779,0.48-0.809
		c1.005-0.008,1.985,0.377,2.939,1.162C630.429,856.021,630.744,856.438,630.896,856.883z"/>
	<path fill="#FFF2E7" d="M632.857,805.258c0.515,0.781,1.335,1.972,2.455,3.572c4.475,6.025,9.432,11.27,14.869,15.731
		c1.383,1.14,2.843,2.28,4.378,3.421c0.284,0.188,1.278,0.852,2.99,1.975c-0.345,1.195-0.917,2.283-1.718,3.264
		c-0.729,0.879-1.395,1.23-2.003,1.053c-0.606-0.184-1.994-1-4.154-2.455c-3.854-2.646-7.509-5.586-10.963-8.816
		c-0.787,1.787-2.267,4.269-4.432,7.438c-0.323,0.493-0.315,0.896,0.019,1.214c1.341,1.342,2.688,2.564,4.05,3.68
		c2.769,2.272,5.884,4.336,9.354,6.186c-1.095,2.26-2.113,4.18-3.057,5.76c-0.679,1.12-1.3,2.023-1.865,2.721
		c-1.058,1.285-2.164,2.053-3.327,2.299c-1.738,0.367-4.597-0.604-8.574-2.908c-3.021-1.719-5.583-3.482-7.687-5.295l-4.456-3.836
		c-2.063-1.77-4.171-3.942-6.332-6.516c-0.17-0.182,0.058-1.092,0.687-2.732c1.245-3.166,3.209-6.387,5.894-9.655
		c1.04-1.261,2.02-2.31,2.943-3.149c0.227-0.172,0.365-0.273,0.434-0.303c0.06-0.029,0.187,0.014,0.37,0.125
		c0.691,0.327,2.538,2.482,5.534,6.463l2.011,2.662c0.885-2.348,2.137-4.55,3.756-6.617c0.681-0.881,0.886-1.467,0.61-1.771
		l-6.177-7.282c-0.519-0.625-0.987-1.25-1.398-1.868c0.049-0.158,0.122-0.32,0.219-0.482c1.495-2.162,3.084-3.496,4.771-3.987
		C632.396,805.018,632.663,805.055,632.857,805.258z"/>
	<path fill="#FFF2E7" d="M646.881,789.342c0.19,0.154,0.481,0.457,0.88,0.902c5.465,6.563,11.294,12.865,17.479,18.896
		c1.381,1.336,2.819,2.576,4.313,3.723c-2.271,5.438-3.83,8.527-4.68,9.271c-0.789,0.668-1.932,0.773-3.424,0.309
		c-4.272-1.313-9.166-4.229-14.674-8.75c-3.723-3.059-7.185-6.381-10.386-9.969c-0.402-0.529-0.604-0.814-0.611-0.857l0.234-0.646
		c0.954-2.771,2.764-5.775,5.423-9.021c1.154-1.408,2.226-2.486,3.202-3.24c0.467-0.377,0.826-0.617,1.079-0.732
		C646.122,789.074,646.506,789.113,646.881,789.342z"/>
	<path fill="#FFF2E7" d="M671.854,760.377c5.146,6.334,10.608,11.885,16.402,16.639c1.269,1.041,2.566,2.105,3.899,3.203
		c0.215,0.177,0.837,0.609,1.875,1.295c-1.243,4.771-3.378,9.07-6.397,12.896c-1.677,2.137-3.532,3.188-5.579,3.146
		c-5.01-0.559-9.977-1.344-14.896-2.352c2.57,3.189,5.309,6.059,8.211,8.598c0.578,0.518,1.169,0.984,1.783,1.406
		c0.864,0.594,1.268,0.861,1.194,0.803c0.1,0.125-0.104,0.395-0.607,0.818c-0.568,0.49-1.032,0.887-1.396,1.188
		c-0.938,0.709-1.695,1.082-2.273,1.127c-0.575,0.049-1.253-0.229-2.038-0.834c-4.555-3.5-8.761-7.592-12.62-12.275l-3.58-4.316
		c-0.096-0.078-0.382-0.191-0.854-0.344c-1.133-0.328-2.354-0.832-3.668-1.512c0.127-0.695,0.33-1.744,0.608-3.154
		c0.465-1.971,1.384-4.363,2.765-7.16c1.381-2.801,2.823-5.117,4.334-6.957c0.508-0.617,0.992-1.137,1.458-1.555
		c0.182-0.17,0.355-0.266,0.53-0.285c0.068,0.02,0.339,0.146,0.826,0.383c0.275,0.104,1.767,1.328,4.473,3.668
		c2.609,2.268,5.396,4.15,8.354,5.65c3.629,1.814,6.921,2.688,9.884,2.625c0.286-0.008,0.462-0.027,0.523-0.057
		c0.021-0.023,0.02-0.045-0.007-0.063c-2.051-1.879-5.213-4.764-9.486-8.654c-1.455-1.385-3.663-3.387-6.621-6.008
		c-0.452-0.375-0.931-0.764-1.433-1.176c0.097-0.406,0.218-0.822,0.367-1.256c0.726-1.803,1.771-3.438,3.142-4.908
		c0.257-0.27,0.5-0.488,0.724-0.666C671.771,760.309,671.808,760.34,671.854,760.377z"/>
	<path fill="#FFF2E7" d="M714.783,737.408c2.624,3.953,3.81,8.528,3.552,13.729c-0.254,5.201-1.89,9.658-4.896,13.375
		c-3.01,3.759-7.071,6.305-12.192,7.627c-5.121,1.326-9.897,1.066-14.334-0.775c-1.665-0.891-3.006-2.027-4.021-3.42
		c-1.754-2.48-2.806-5.938-3.156-10.379c-0.35-4.439,0.138-8.215,1.451-11.322c0.82-1.879,1.913-3.645,3.264-5.287
		c1.371-1.67,2.896-3.09,4.581-4.266c2.796-1.896,6.402-3.107,10.819-3.633c4.426-0.52,8.013-0.148,10.769,1.115
		C712.197,734.867,713.588,735.949,714.783,737.408z M707.341,754.174c-1.309-1.068-2.698-1.664-4.178-1.781
		c-1.479-0.109-2.589,0.281-3.334,1.188c-0.764,0.932-0.941,2.111-0.54,3.537c0.396,1.424,1.249,2.676,2.558,3.748
		c1.327,1.092,2.732,1.693,4.21,1.809c1.479,0.115,2.602-0.291,3.361-1.221c0.745-0.908,0.919-2.072,0.52-3.5
		C709.535,756.527,708.669,755.266,707.341,754.174z"/>
	<path fill="#FFF2E7" d="M759.268,685.777c0.528,0.229,0.982,0.504,1.363,0.814c1.053,0.865,1.569,2.371,1.563,4.52
		c-0.019,2.307-0.689,5.414-2.025,9.33c-1.336,3.91-2.903,7.447-4.697,10.604c-1.457,2.551-3.104,4.953-4.948,7.195
		c-1.563,1.908-2.704,3.006-3.427,3.295c-2.804,1.09-4.682,1.504-5.631,1.246c-0.427-0.111-1.313-0.537-2.66-1.285
		c-1.645-0.912-3.821-2.342-6.536-4.289c-0.625-0.553-1.396-1.166-2.315-1.844c-0.287,0.004-0.737-0.006-1.356-0.033
		c-1.824-0.063-4.234-1.326-7.242-3.795c-0.856-0.703-1.797-1.531-2.81-2.482c-0.722-0.631-1.44-1.262-2.163-1.893
		c-0.877-0.922-1.137-1.656-0.771-2.195c1.833-2.766,4.086-5.488,6.761-8.162c3.213-3.229,6.56-5.996,10.037-8.287
		c4.299-2.854,8.265-4.594,11.887-5.215c1.595-0.287,3.97-0.176,7.119,0.336C754.564,684.15,757.183,684.863,759.268,685.777z
		 M753.75,695.559c-1.613-0.363-4.578,1.271-8.888,4.924c-3.464,2.902-6.022,5.416-7.684,7.529
		c-0.933,1.188-1.452,1.818-1.553,1.895c-0.139,0.17-0.239,0.338-0.297,0.508c-0.063,0.17,0.533,0.764,1.771,1.781
		c2.054,1.684,3.804,2.98,5.25,3.891c0.746,0.455,1.469,0.785,2.172,1.004c1.337-1.141,2.461-2.27,3.384-3.389
		c1.78-2.172,3.382-4.738,4.801-7.707c1.417-2.969,2.284-5.521,2.599-7.656c0.16-1.069-0.084-1.869-0.726-2.396
		C754.34,695.744,754.066,695.617,753.75,695.559z"/>
	<path fill="#FFF2E7" d="M756.541,655.758c0.191,0.156,0.488,0.455,0.88,0.9c5.469,6.564,11.296,12.867,17.482,18.896
		c1.38,1.336,2.814,2.576,4.311,3.725c-2.271,5.438-3.833,8.532-4.679,9.271c-0.792,0.668-1.932,0.773-3.422,0.307
		c-4.275-1.311-9.165-4.229-14.674-8.75c-3.723-3.055-7.187-6.379-10.386-9.969c-0.403-0.527-0.605-0.814-0.614-0.855l0.234-0.646
		c0.955-2.771,2.766-5.777,5.427-9.021c1.155-1.406,2.223-2.484,3.201-3.238c0.464-0.377,0.824-0.617,1.076-0.732
		C755.783,655.492,756.17,655.529,756.541,655.758z"/>
	<path fill="#FFF2E7" d="M809.579,640.906c-0.23,1.008-0.407,1.662-0.53,1.959c-0.126,0.297-0.353,0.891-0.681,1.773
		c-1.104,3.05-2.86,6.039-5.269,8.971c-1.395,1.695-2.624,2.855-3.705,3.49c-0.58,0.32-1.013,0.505-1.294,0.555
		c-0.514,0.094-1.008,0.111-1.475,0.045c-0.91-0.15-2.151-0.391-3.721-0.717c-2.821-0.602-5.938-1.381-9.343-2.34
		c-0.133-0.029-0.303-0.068-0.503-0.115c-0.15,0.036-0.438,0.344-0.863,0.908l-3.616,4.695c-0.502,0.664-0.563,1.395-0.182,2.188
		c1.972,3.973,4.193,7.658,6.68,11.053c0.077,0.102,0.337,0.395,0.774,0.875c-1.013,1.283-2.216,2.215-3.604,2.789
		c-0.397,0.193-0.837,0.25-1.314,0.18c-0.479-0.074-0.816-0.254-1.023-0.541c-0.35-0.445-0.688-0.885-1.017-1.313
		c-1.886-2.664-3.841-6.287-5.871-10.867c-1.317-2.961-2.559-6.049-3.709-9.271c-0.146-0.4-0.4-0.672-0.769-0.811
		c-0.996-0.342-2.237-0.484-3.728-0.422c-1.354,0.045-2.077,0.023-2.175-0.053c-0.068-0.059-0.09-0.133-0.055-0.227
		c1.548-6.555,3.826-12.926,6.833-19.121c0.129-0.254,0.277-0.432,0.442-0.537c0.143-0.08,0.928-0.154,2.347-0.229
		c4.007-0.266,9.661,0.244,16.954,1.521c7.295,1.277,13.401,2.841,18.315,4.677c0.799,0.298,1.435,0.541,1.913,0.733
		C809.471,640.82,809.531,640.865,809.579,640.906z M778.333,653.58l-2.739-0.31c-0.09-0.036-0.26-0.052-0.502-0.05
		c-0.396,0-0.481,0.27-0.268,0.813c0.971,2.422,1.481,3.65,1.525,3.689c0.061,0.035,0.103,0.063,0.129,0.08
		c0.038-0.045,0.078-0.092,0.115-0.141c0.252-0.354,0.622-0.928,1.116-1.723c0.187-0.324,0.479-0.809,0.876-1.434
		C778.904,653.928,778.818,653.621,778.333,653.58z"/>
	<path fill="#FFF2E7" d="M821.676,596.045c1.331,1.295,1.014,4.721-0.964,10.285c-0.625,1.84-1.438,3.848-2.431,6.026l0.523-0.347
		c1.153-0.771,2.521-1.305,4.102-1.604c1.586-0.297,2.8-0.234,3.651,0.186c1.062,0.508,1.729,1.078,2.012,1.709
		c0.561,1.262,0.69,2.707,0.394,4.34c-0.486,2.637-1.635,5.66-3.449,9.082c-1.645,3.121-3.438,5.916-5.391,8.393
		c-1.271,1.553-2.146,2.471-2.624,2.756c-2.986,1.699-5.021,2.326-6.096,1.883c-1.248-0.666-2.646-1.611-4.193-2.842l-10.555-8.662
		c-0.046-0.043-0.093-0.08-0.146-0.119c-0.045-0.041-0.384,0.156-1.014,0.586c-0.354,0.228-0.725,0.451-1.128,0.676
		c-0.402,0.227-1.121,0.066-2.157-0.471c-2.581-1.281-5.09-2.848-7.528-4.693c-1.918-1.454-3.072-2.426-3.474-2.911
		c1.904-3.347,4.043-6.466,6.414-9.349c4.052-4.938,8.386-8.903,13-11.899c5.244-3.364,10.146-4.987,14.72-4.866
		C818.398,594.271,820.511,594.887,821.676,596.045z M813.898,610.617c-0.317-0.338-0.74-0.506-1.268-0.498
		c-0.718,0.049-2.018,0.826-3.896,2.338c-1.878,1.514-3.532,3.117-4.968,4.813c-0.85,0.98-1.511,1.84-1.987,2.564
		c-0.177,0.215-0.503,0.762-0.986,1.646c1.485,1.934,3.122,3.654,4.915,5.17c0.388,0.357,1.166-0.182,2.341-1.613
		c1.231-1.502,2.474-3.445,3.72-5.838c1.239-2.395,1.978-4.234,2.198-5.529C814.25,612.064,814.229,611.047,813.898,610.617z
		 M821.257,618.578c-0.715-0.586-1.762-0.447-3.146,0.41c-0.951,0.572-1.903,1.346-2.862,2.314
		c-0.701,0.705-1.339,1.416-1.928,2.131c-1.529,1.861-2.854,3.945-3.989,6.248c-0.077,0.143,0.629,0.814,2.105,2.027
		c0.551,0.451,1.314,1.002,2.301,1.647c0.563,0.384,1.529-0.261,2.899-1.931c1.098-1.336,2.171-2.967,3.216-4.901
		c1.052-1.937,1.72-3.563,2.006-4.89C822.196,620.164,821.994,619.141,821.257,618.578z"/>
	<path fill="#FFF2E7" d="M855.577,565.904c2.625,3.953,3.807,8.525,3.553,13.729c-0.255,5.199-1.891,9.658-4.896,13.375
		c-3.011,3.758-7.072,6.303-12.193,7.627c-5.121,1.326-9.896,1.066-14.334-0.777c-1.665-0.889-3.006-2.027-4.019-3.419
		c-1.757-2.481-2.812-5.938-3.159-10.382c-0.35-4.436,0.138-8.211,1.45-11.318c0.823-1.88,1.914-3.646,3.265-5.287
		c1.371-1.67,2.896-3.092,4.581-4.265c2.797-1.896,6.4-3.11,10.82-3.634c4.423-0.521,8.013-0.149,10.769,1.116
		C852.991,563.364,854.382,564.443,855.577,565.904z M848.132,582.67c-1.306-1.07-2.698-1.664-4.175-1.781
		c-1.479-0.109-2.592,0.279-3.333,1.188c-0.764,0.93-0.945,2.107-0.541,3.535c0.397,1.426,1.25,2.678,2.558,3.748
		c1.327,1.092,2.732,1.695,4.211,1.811c1.479,0.115,2.601-0.291,3.36-1.223c0.743-0.906,0.919-2.072,0.515-3.498
		C850.329,585.023,849.46,583.762,848.132,582.67z"/>
	<path fill="#FFF2E7" d="M880.906,549.569c0.65,0.374,1.181,0.849,1.586,1.421c0.158,0.252,0.201,0.467,0.133,0.646
		c0.001,0.046-0.145,0.347-0.439,0.896c-1.78,3.29-3.741,7.433-5.884,12.423l-0.504,1.195c-0.266,0.666-0.808,1.197-1.62,1.607
		c-1.059,0.607-2.604,1.477-4.646,2.596c-0.313,0.141-0.571,0.188-0.774,0.145c-0.361-0.145-0.766-0.334-1.208-0.576
		c-5.519-3.092-11.252-7.079-17.189-11.956c-1.72-1.41-3.056-2.604-4.003-3.587c-1.094-1.097-2.229-2.266-3.403-3.511
		c1.222-3.87,3.043-7.281,5.471-10.24c0.396-0.479,0.806-0.956,1.241-1.438c0.912-0.969,1.584-1.635,2.006-2.004
		c0.774-0.604,1.61-1.033,2.502-1.301c3.86,5.563,8.416,11.074,13.665,16.545c1.981,2.068,3.551,3.557,4.713,4.473
		c0.359,0.297,0.588,0.439,0.688,0.441c0.102,0,0.321-0.137,0.671-0.413c0.204-0.146,0.729-0.794,1.585-1.929
		c2.879-3.704,4.548-5.588,4.998-5.656C880.535,549.34,880.672,549.418,880.906,549.569z"/>
	<path fill="#FFF2E7" d="M872.081,515.017c0.19,0.156,0.487,0.457,0.879,0.9c5.466,6.567,11.297,12.866,17.481,18.901
		c1.381,1.336,2.815,2.572,4.312,3.721c-2.271,5.439-3.832,8.532-4.681,9.272c-0.789,0.668-1.93,0.771-3.421,0.304
		c-4.276-1.31-9.167-4.229-14.675-8.751c-3.721-3.055-7.187-6.375-10.387-9.967c-0.402-0.527-0.604-0.815-0.611-0.858l0.232-0.646
		c0.954-2.769,2.766-5.777,5.43-9.021c1.151-1.407,2.222-2.485,3.197-3.239c0.465-0.377,0.829-0.618,1.079-0.732
		C871.323,514.751,871.709,514.792,872.081,515.017z"/>
	<path fill="#FFF2E7" d="M918.564,506.468c0.347,0.843,0.039,2.519-0.922,5.023c-0.959,2.507-2.185,4.863-3.68,7.068
		c-0.784,1.194-1.622,2.343-2.521,3.439c-2.937,3.578-6.021,6.291-9.263,8.146c-3.486,2.009-6.478,2.563-8.978,1.672
		c-0.798-0.295-1.604-0.776-2.411-1.439c-1.671-1.373-3.189-3.314-4.552-5.833c-1.776-3.334-2.846-7.044-3.202-11.13
		c-0.363-3.933-0.056-7.813,0.928-11.635c1.05-4.051,2.72-7.907,5.012-11.577c0.095-0.16,0.187-0.247,0.271-0.256
		c2.534-0.315,5.358,0.085,8.475,1.206c2.933,1.05,5.396,2.473,7.392,4.271c0.218,0.178,0.47,0.403,0.758,0.687
		c-0.156,0.188-0.291,0.354-0.41,0.499c-1.546,1.884-2.934,4.768-4.164,8.646c-1.23,3.881-1.84,7.127-1.821,9.732
		c0.063,3.328,0.513,5.332,1.348,6.018c0.812,0.664,2.032,0.491,3.666-0.523c1.9-1.15,3.778-3.122,5.63-5.912
		c0.711-1.059,1.438-2.379,2.179-3.968c1.103-2.407,1.733-4.322,1.9-5.743c0.063-0.511,0.222-0.776,0.479-0.804
		c1.007-0.011,1.988,0.374,2.942,1.158C918.096,505.604,918.413,506.023,918.564,506.468z"/>
	<path fill="#FFF2E7" d="M939.718,463.409c2.627,3.954,3.813,8.524,3.554,13.725c-0.256,5.201-1.889,9.66-4.897,13.376
		c-3.006,3.759-7.071,6.302-12.192,7.628c-5.119,1.325-9.896,1.066-14.333-0.777c-1.663-0.889-3.005-2.026-4.018-3.416
		c-1.758-2.481-2.808-5.941-3.16-10.381c-0.348-4.438,0.136-8.213,1.453-11.321c0.821-1.881,1.911-3.646,3.263-5.29
		c1.368-1.67,2.896-3.091,4.58-4.266c2.794-1.896,6.401-3.105,10.823-3.631c4.424-0.52,8.009-0.147,10.764,1.115
		C937.134,460.868,938.525,461.949,939.718,463.409z M932.275,480.175c-1.309-1.074-2.699-1.667-4.174-1.781
		c-1.479-0.11-2.593,0.28-3.334,1.188c-0.767,0.931-0.941,2.111-0.547,3.536c0.398,1.427,1.253,2.676,2.563,3.75
		c1.328,1.092,2.73,1.696,4.212,1.809c1.478,0.116,2.598-0.291,3.36-1.222c0.743-0.905,0.914-2.071,0.518-3.5
		C934.47,482.527,933.605,481.267,932.275,480.175z"/>
</g>
</svg>
