<?xml version="1.0" encoding="utf-8"?>
<!-- Generator: Adobe Illustrator 13.0.0, SVG Export Plug-In . SVG Version: 6.00 Build 14948)  -->
<!DOCTYPE svg PUBLIC "-//W3C//DTD SVG 1.1//EN" "http://www.w3.org/Graphics/SVG/1.1/DTD/svg11.dtd">
<svg version="1.1" id="Livello_1" xmlns="http://www.w3.org/2000/svg" xmlns:xlink="http://www.w3.org/1999/xlink" x="0px" y="0px"
	 width="1200px" height="1200px" viewBox="0 0 1200 1200" enable-background="new 0 0 1200 1200" xml:space="preserve">
<title>Skullory Splash Template</title>
<desc>Template vuoto con sfondo gradiente per creare il logo</desc>
<radialGradient id="SVGID_1_" cx="-0.251" cy="1199.248" r="0.6996" gradientTransform="matrix(1200 0 0 -1200 901.5 1439578.5)" gradientUnits="userSpaceOnUse">
	<stop  offset="0" style="stop-color:#2B335C"/>
	<stop  offset="1" style="stop-color:#141724"/>
</radialGradient>
<rect fill="url(#SVGID_1_)" width="1200" height="1200"/>
<g>
	<g>
		<g>
			<g>
				<path fill="#E8F900" d="M899.223,442.562c-4.503,5.566-291.007,357.63-417.308,510.794l-0.068,0.043
					c-34.983,42.447-57.733,69.652-58.727,69.959c-4.785,1.646,220.629-426.932,220.629-426.932s-0.067,0.064-0.141,0.064
					c-0.064,0-0.064,0.074-0.202,0.141L342.242,753.555c4.251-5.289,276.046-344.592,411.842-512.521
					c43.732-54.21,73.384-90.53,75.312-92.112L607.253,561.597l63.579-25.918c0.039-0.036,0.039-0.036,0.057-0.036L899.223,442.562z
					"/>
			</g>
		</g>
		<g>
			<path fill="#E8FF7F" d="M899.223,442.562c-4.503,5.566-291.007,357.63-417.308,510.794l-0.068,0.043l-33.575,28.037
				l359.445-470.083L612.608,571.15c1.417-0.912,24.154-14.785,58.187-35.471c0.037-0.036,0.037-0.036,0.073-0.036L899.223,442.562z
				"/>
		</g>
		<g>
			<path fill="#E8FF7F" d="M442.301,670.039l201.311-73.545c-0.066,0-0.066,0.07-0.204,0.139L342.209,753.594
				c0,0,275.01-343.326,411.875-512.56l11.819,5.307L442.301,670.039z"/>
		</g>
		<g>
			<path fill="#E8F900" d="M643.748,585.539c2.819,0,5.638,1.133,7.761,3.201c3.369,3.434,4.13,8.582,1.927,12.818
				c-57.176,108.674-133.798,255.156-179.839,344.801c95.175-115.521,284.5-347.732,390.263-477.543L611.386,571.691
				c-4.267,1.752-9.146,0.615-12.243-2.814c-3.091-3.436-3.708-8.424-1.511-12.448l168.508-312.909
				c-95.007,117.447-264.848,329.14-382.918,476.435l255.51-133.141C640.286,585.98,642.038,585.539,643.748,585.539z"/>
		</g>
	</g>
	<g opacity="0.53">
		<g>
			<path fill="#1D2033" d="M703.89,528.264c-3.301-8.144-8.147-15.597-14.47-21.729c-6.642-6.384-14.565-11.25-22.896-15.063
				c-15.88-7.3-33.199-11.229-50.636-11.954c-17.36-0.718-34.913,1.713-51.404,7.156c-16.528,5.475-32.144,13.951-45.383,25.256
				c-13.438,11.484-24.428,26.791-25.173,45.006c-0.451,10.713,1.97,21.495,4.302,31.887c2.401,10.588,5.253,21.086,8.28,31.498
				c6.149,21.182,12.776,42.211,19.606,63.205c0.385,1.184,0.746,2.313,1.161,3.514c-0.496,0.191-0.988,0.371-1.479,0.594
				c-6.446,2.816-13.176,8.117-15.103,15.168c-0.944,3.385-0.644,7.309,1.387,10.246c1.958,2.826,5.176,4.49,8.503,5.029
				c4.09,0.67,8.206-0.225,12.143-1.371c4.15-1.188,8.277-2.58,12.33-4.057c7.181-2.615,14.21-5.682,21.017-9.154
				c-3.409,7.379-5.717,15.252-6.776,23.314c-0.768,6.002-0.919,12.08-0.335,18.094c0.293,2.852,0.712,5.721,1.3,8.525
				c0.539,2.57,1.034,5.25,3.833,6.164c1.486,0.471,3.125,0.561,4.638,0.764c1.207,0.174,2.402,0.324,3.604,0.441
				c0,0.012,0,0.02,0.002,0.029c0.496,0.064,1.015,0.139,1.514,0.18c0.983,0.111,1.973,0.225,2.958,0.293c0-0.01,0-0.018,0-0.029
				c0.013,0,0.023,0.004,0.034,0.004c2.518,0.248,5.052,0.436,7.607,0.588c3.87,0.219,7.716,0.297,11.589,0.26
				c0,0.006,0,0.01,0,0.016c1.393,0,2.757,0,4.138-0.043c0.003-0.01,0.003-0.018,0.003-0.023c0.014,0,0.018,0,0.029,0
				c1.72-0.055,3.409-0.125,5.134-0.209c1.72-0.102,3.438-0.229,5.137-0.361c1.546-0.113,3.224-0.141,4.705-0.711
				c2.573-0.959,3.249-3.408,3.56-5.91c0.922-6.887,1.373-13.789,1.435-20.701c0.118-9.559-0.561-19.094-1.973-28.504
				c0.606,0.578,1.24,1.139,1.927,1.676c3.483,2.76,7.374,5.137,11.345,7.178c7.998,4.092,17.017,6.494,26.029,4.844
				c4.063-0.742,8.587-2.381,11.623-5.338c2.96-2.895,3.385-7.088,2.403-10.947c-1.843-7.357-7.48-13.844-13.743-18.014
				c7.008-16.799,16.453-32.467,25.351-48.326c9.878-17.645,19.317-35.971,23.81-55.82
				C710.813,563.602,710.64,544.915,703.89,528.264z"/>
		</g>
	</g>
	<g>
		<g>
			<path fill="#FFFFFF" d="M379.973,637.299c3.666,4.223,4.207,10.682,1.636,19.344c-4.079,13.662-13.226,29.295-27.455,46.904
				c-14.282,17.68-26.915,29.236-37.88,34.67c-2.526,1.252-5.049,0.854-7.578-1.186c-0.61-0.488-1.167-1.061-1.649-1.713
				c-0.736-0.973-1.786-2.328-3.164-4.082c14.621-13.232,26.903-26.02,36.865-38.35c10.637-13.152,17.533-24.66,20.674-34.514
				c0.891-2.828,0.649-4.805-0.729-5.914c-2.441-1.971-7.811,1.531-16.092,10.527c-2.34,2.418-7.087,8.07-14.265,16.947
				c-6.857,8.496-13.044,16.537-18.531,24.111c-4.583,6.299-9.086,11.65-13.52,16.037c-5.268,5.105-13.487,3.148-24.659-5.881
				c-5.977-4.828-10.907-11.088-14.804-18.785c-1.966-3.996-2.849-9.01-2.656-15.057c0.435-10.395,3.412-23.24,8.919-38.525
				c6.089-16.463,12.99-29.471,20.73-39.041c1.672-2.072,3.353-3.932,5.076-5.576c1.27-1.264,3.436-1.914,6.508-1.963
				c4.034-0.152,9.34,0.971,15.89,3.34c5.614,2.137,10.297,4.412,14.054,6.797c1.047,0.594,2.279,1.41,3.721,2.443
				c1.207,0.852,1.452,2.053,0.705,3.598c-7.205,13.928-14.008,29.164-20.447,45.736c-3.894,10.135-6.494,18.846-7.817,26.129
				c-0.315,1.637-0.243,2.656,0.212,3.016c0.538,0.443,1.352-0.1,2.447-1.621c1.169-1.59,1.807-2.492,1.921-2.721
				c0.122-0.225,2.436-3.252,6.955-9.086c4.525-5.832,7.107-9.07,7.734-9.689c16.709-19.906,29.067-30.732,37.061-32.496
				c6.555-1.533,12.286-0.328,17.189,3.621C378.107,635.221,379.079,636.195,379.973,637.299z"/>
		</g>
		<g>
			<path fill="#FFFFFF" d="M435.453,559.911c1.187,1.342,2.642,4.474,4.355,9.4c2.937,8.445,3.647,15.156,2.144,20.139
				c-0.628,2.031-1.585,3.846-2.889,5.459c-2.96,3.666-7.35,6.193-13.158,7.58c-5.182,1.26-10.236,1.412-15.167,0.461
				c-2.643-0.484-5.893-1.396-9.736-2.742c-2.897-0.949-4.381-1.314-4.424-1.105c0.708,6.023,1.519,13.625,2.428,22.84
				c0.114,1.738,0.915,3.012,2.409,3.836c2.529,1.406,4.787,2.605,6.783,3.58c1.776,0.93,2.626,1.676,2.542,2.242
				c-0.345,1.373-1.095,2.783-2.282,4.242c-2.285,2.834-4.718,4.596-7.303,5.279c-1.222,0.271-2.443,0.059-3.639-0.658
				c-14.183-8.285-26.244-16.443-36.197-24.486c-10.636-8.604-20.722-18.521-30.243-29.754c0.169-0.357,0.419-0.992,0.742-1.861
				c0.567-1.324,1.368-2.635,2.417-3.934c2.598-3.219,5.225-5.215,7.875-5.984c0.475-0.115,1.026,0.143,1.644,0.775
				c5.757,6.041,12.086,12.217,18.989,18.557c0.278-0.031,0.575-0.174,0.893-0.412l-0.154-7.338
				c-0.553-17.785,1.634-36.387,6.566-55.806c0.487-2.009,1.264-4.299,2.313-6.854c0.52-1.106,1.368-1.617,2.571-1.532
				c4.588,0.418,9.874,3.037,15.851,7.862c1.755,1.417,3.39,2.937,4.891,4.517c2.354,2.411,4.421,5.064,6.197,7.956
				c1.773,2.89,2.51,4.841,2.187,5.847c-2.126,9.543-3.332,15.02-3.595,16.456c-2.136,9.537-2.892,14.609-2.263,15.246
				c3.708,1.984,8.169,3.822,13.391,5.502c6.364,1.98,11.029,2.709,13.982,2.184c1.028-0.174,1.707-0.703,2.031-1.584
				c0.601-1.527,0.66-3.98,0.169-7.367c-0.506-3.379-1.392-6.457-2.659-9.262c-0.524-0.924-0.986-1.932-1.378-3.012
				c1.81-2.706,3.941-4.712,6.391-6.033C432.574,558.846,434.355,558.762,435.453,559.911z"/>
		</g>
		<g>
			<path fill="#FFFFFF" d="M516.979,480.602c0.236,0.181,0.245,0.857,0.059,2.038c-0.188,1.174-0.501,3.051-0.928,5.604
				c-1.853,9.511-4.299,16.519-7.311,21.039c-2.571,4.128-4.837,6.528-6.786,7.228c-4.087,1.771-10.107,0.762-18.056-3.006
				l-0.056,0.527c0.602,12.369,0.241,20.868-1.076,25.507c-1.055,3.828-1.988,6.166-2.818,7.024
				c-3.655,3.741-10.226,6.773-19.678,9.054c-9.463,2.288-16.381,2.682-20.76,1.183c-1.744-0.658-3.846-1.596-6.292-2.815
				c-3.035-1.568-6.791-4.156-11.243-7.761c-10.062-8.122-18.139-16.356-24.232-24.69c-1.484-2.083-2.741-3.986-3.761-5.701
				c-0.689-1.188,0.506-4.366,3.6-9.522c3.087-5.154,6.782-10.176,11.105-15.031c4.478-5.243,8.177-9.272,11.098-12.1
				c2.738-2.608,4.715-3.409,5.938-2.423c0.461,0.382,0.936,0.893,1.423,1.542c1.787,2.961,4.437,7.383,7.936,13.243
				c6.918,11.53,15.034,21.566,24.365,30.105c4.201,3.899,7.517,6.216,9.982,6.932c1.527,0.471,2.394-0.223,2.625-2.063
				c0.996-7.024,0.697-13.717-0.88-20.06l-1.352-0.9c-5.712-3.73-11.565-8.014-17.534-12.836
				c-7.119-5.75-11.357-9.751-12.707-11.979c-1.362-2.237-1.797-4.672-1.304-7.314c1.503-8.903,4.517-17.73,9.044-26.47
				c5.152-10.129,8.074-14.918,8.763-14.363c0.461,0.372,0.946,0.703,1.471,0.993c3.03,2.837,9.037,8.314,18.021,16.462
				c3.713,3.377,7.446,6.583,11.204,9.616C495.868,466.954,505.916,473.943,516.979,480.602z"/>
		</g>
		<g>
			<path fill="#FFFFFF" d="M561.586,419.276c1.638,0.959,2.957,2.134,3.94,3.578c0.413,0.587,0.561,1.085,0.421,1.477
				c-0.127,0.398-0.523,1.162-1.18,2.28c-4.28,8.294-9.093,18.774-14.392,31.439l-1.257,2.982c-0.733,1.68-2.091,3.047-4.082,4.106
				c-2.637,1.536-6.534,3.703-11.696,6.487c-0.732,0.428-1.342,0.564-1.839,0.41c-0.948-0.244-1.973-0.698-3.097-1.352
				c-13.902-7.688-28.351-17.597-43.361-29.713c-4.362-3.531-7.758-6.523-10.188-8.989c-2.743-2.719-5.598-5.608-8.58-8.64
				c3.415-11.287,8.959-21.108,16.598-29.484c2.253-2.473,3.931-4.164,5.028-5.046c1.932-1.599,4.016-2.704,6.26-3.288
				c9.86,13.793,21.43,27.495,34.708,41.132c4.956,5.14,8.888,8.881,11.803,11.236c0.909,0.738,1.505,1.115,1.739,1.128
				c0.251,0.008,0.821-0.379,1.723-1.184c0.519-0.329,1.856-1.899,4.007-4.722c7.118-9.44,11.228-14.212,12.331-14.334
				C560.77,418.877,561.135,419.048,561.586,419.276z"/>
		</g>
		<g>
			<path fill="#FFFFFF" d="M605.918,364.389c1.649,0.951,2.964,2.134,3.955,3.581c0.413,0.583,0.546,1.078,0.416,1.469
				c-0.135,0.407-0.524,1.161-1.175,2.283c-4.299,8.3-9.102,18.774-14.409,31.446l-1.244,2.968c-0.729,1.687-2.09,3.046-4.086,4.116
				c-2.635,1.525-6.531,3.703-11.694,6.489c-0.729,0.419-1.335,0.563-1.848,0.402c-0.94-0.247-1.966-0.705-3.079-1.358
				c-13.908-7.687-28.356-17.583-43.37-29.704c-4.365-3.528-7.761-6.528-10.191-8.992c-2.741-2.722-5.598-5.597-8.575-8.64
				c3.408-11.29,8.954-21.105,16.595-29.482c2.253-2.475,3.929-4.163,5.026-5.045c1.935-1.603,4.016-2.708,6.261-3.293
				c9.868,13.786,21.442,27.496,34.714,41.132c4.949,5.141,8.882,8.883,11.795,11.236c0.917,0.738,1.502,1.12,1.751,1.128
				c0.247,0.013,0.814-0.379,1.715-1.177c0.521-0.334,1.867-1.914,4.002-4.725c7.117-9.441,11.233-14.208,12.332-14.332
				C605.104,363.988,605.476,364.154,605.918,364.389z"/>
		</g>
		<g>
			<path fill="#FFFFFF" d="M654.122,267.845c6.722,9.853,9.792,21.304,9.221,34.389c-0.563,13.077-4.594,24.311-12.055,33.72
				c-7.524,9.477-17.702,15.923-30.534,19.356c-12.835,3.422-24.802,2.865-35.919-1.693c-4.212-2.14-7.563-4.968-10.038-8.482
				c-4.508-6.161-7.243-14.839-8.222-26.005c-0.978-11.165,0.157-20.628,3.385-28.391c2.006-4.827,4.68-9.326,8.016-13.444
				c3.405-4.217,7.247-7.804,11.556-10.777c6.908-4.799,15.922-7.888,27.047-9.284c11.114-1.392,20.164-0.529,27.15,2.58
				C647.681,261.492,651.143,264.167,654.122,267.845z M635.937,310.084c-3.364-2.722-6.921-4.202-10.658-4.429
				c-3.719-0.233-6.516,0.803-8.373,3.093c-1.914,2.38-2.347,5.343-1.312,8.901c1.044,3.571,3.253,6.713,6.614,9.428
				c3.369,2.724,6.905,4.213,10.607,4.493c3.701,0.269,6.511-0.785,8.433-3.16c1.857-2.292,2.271-5.244,1.257-8.842
				C641.497,315.965,639.31,312.803,635.937,310.084z"/>
		</g>
		<g>
			<path fill="#FFFFFF" d="M715.607,180.685c1.667,1.22,2.474,2.825,2.395,4.789c-0.064,5.885-2.646,15.252-7.72,28.109
				c-2.568,6.153-5.06,12.301-7.485,18.434l-0.095,0.114c16.529-9.803,30.002-16.309,40.439-19.52c0.234,1.582,0.44,2.89,0.62,3.918
				c0.313,2.9-0.402,5.436-2.136,7.578c-1.11,1.373-2.619,2.631-4.532,3.74c-2.741,1.197-7.607,3.536-14.581,7.005
				c-12.155,6.128-23.803,14.113-34.92,23.975l14.377,10.859c0.075,0.06,0.149,0.119,0.23,0.184
				c0.015,0.146-0.103,0.358-0.353,0.664c-3.535,3.594-6.631,6.018-9.3,7.28c-2.002,0.922-4.048,0.711-6.147-0.597
				c-5.389-3.211-10.575-6.889-15.556-11.044c-9.831-8.188-15.005-12.753-15.522-13.679c-0.246-0.326-0.444-0.546-0.599-0.678
				l-3.623,0.495c-3.709,0.676-8.101-0.464-13.176-3.43c-7.398-4.467-14.382-9.53-20.928-15.197c-1.154-1.072-1.287-2.25-0.376-3.54
				c5.802-7.949,11.898-15.185,18.273-21.667c5.426-5.615,11.83-11.201,19.215-16.744c7.05-5.433,13.13-9.429,18.251-12.011
				c2.854-1.495,6.277-2.447,10.304-2.881c7.175-0.901,13.725-0.938,19.616-0.088C708.669,177.619,713.108,178.921,715.607,180.685z
				 M698.141,206.434c-0.387,0.067-1.101,0.375-2.166,0.907c-8.993,6.274-16.726,13.425-23.231,21.472
				c-3.086,3.829-5.313,6.965-6.653,9.413c3.318,4.193,6.997,8.007,11.077,11.421c9.798-11.812,17.206-24.742,22.225-38.785
				c0.691-2.104,0.573-3.529-0.348-4.267C698.814,206.403,698.511,206.353,698.141,206.434z"/>
		</g>
		<g>
			<path fill="#FFFFFF" d="M743.736,86.897c4.528,3.799,8.179,9.457,10.937,17.003c1.095,3.033,2.038,7.27,2.823,12.711
				c0.318,2.284,0.591,4.525,0.822,6.741c0.095,0.2,1.635,1.829,4.616,4.864c7.439,7.542,14.042,13.623,19.778,18.254
				c1.53,1.238,2.78,2.124,3.753,2.647c1.877,1.271,2.979,2.098,3.3,2.489c0.185,0.402-0.156,1.833-0.998,4.302
				c-2.013,5.466-3.271,8.818-3.77,10.061c-1.611,3.877-3.343,7.04-5.183,9.474c-3.535,4.855-6.965,6.899-10.266,6.131
				c-10.197-3.048-19.435-7.662-27.714-13.853c-1.133-0.788-2.873-2.005-5.22-3.642c-1.423-0.891-2.555-1.303-3.379-1.217
				c-1.572,0.383-4.037,0.844-7.406,1.421c-6.387,1.174-12.854,1.891-19.397,2.165c-3.135,0.122-10.549-0.106-22.223-0.679
				l-0.535-0.048c1.745-14.529,6.947-27.153,15.609-37.873c1.175-1.453,2.415-2.828,3.709-4.12c1.298-1.291,2.146-2.038,2.553-2.214
				c0.395-0.171,1.078-0.019,2.046,0.521c6.842,3.751,14.512,7.174,23.031,10.25c4.803,1.728,8.254,2.554,10.337,2.478
				c1.257,0.002,1.935-0.287,2.018-0.854c1.293-7.563-0.907-16.03-6.593-25.437c-4.172-6.903-8.11-11.806-11.848-14.694
				c2.404-3.127,4.871-5.866,7.41-8.246C735.121,82.533,739.053,82.991,743.736,86.897z"/>
		</g>
	</g>
	<g>
		<g>
			<g>
				<path fill="#FFF2E7" d="M725.877,508.789c-3.3-8.143-8.146-15.591-14.471-21.725c-6.642-6.384-14.565-11.248-22.893-15.064
					c-15.884-7.298-33.201-11.225-50.638-11.953c-17.36-0.723-34.913,1.712-51.406,7.155c-16.529,5.474-32.144,13.95-45.383,25.258
					c-13.439,11.484-24.428,26.792-25.173,45.009c-0.45,10.709,1.975,21.486,4.305,31.885c2.401,10.586,5.25,21.088,8.28,31.494
					c6.147,21.189,12.776,42.217,19.603,63.211c0.385,1.184,0.751,2.311,1.162,3.516c-0.49,0.188-0.986,0.367-1.479,0.594
					c-6.446,2.814-13.172,8.115-15.103,15.16c-0.942,3.389-0.643,7.311,1.39,10.254c1.956,2.824,5.177,4.484,8.5,5.025
					c4.089,0.67,8.209-0.225,12.142-1.371c4.151-1.189,8.281-2.578,12.334-4.057c7.178-2.613,14.206-5.678,21.013-9.154
					c-3.409,7.383-5.715,15.252-6.772,23.314c-0.766,6.002-0.922,12.082-0.339,18.094c0.293,2.85,0.716,5.717,1.302,8.527
					c0.542,2.566,1.034,5.25,3.834,6.164c1.485,0.473,3.126,0.563,4.637,0.762c1.222,0.178,2.428,0.326,3.642,0.449
					c0.504,0.068,1.016,0.133,1.509,0.201c0.987,0.09,1.979,0.199,2.963,0.271c2.518,0.246,5.05,0.438,7.607,0.586
					c3.879,0.223,7.735,0.297,11.618,0.254c1.389,0,2.76,0,4.135-0.045c1.727-0.055,3.409-0.123,5.138-0.209
					c1.723-0.104,3.434-0.229,5.134-0.361c1.548-0.113,3.227-0.137,4.704-0.709c2.574-0.963,3.25-3.408,3.56-5.912
					c0.92-6.885,1.371-13.783,1.438-20.701c0.119-9.557-0.563-19.088-1.973-28.498c0.606,0.566,1.238,1.129,1.925,1.668
					c3.482,2.758,7.376,5.139,11.347,7.18c7.997,4.096,17.012,6.494,26.029,4.846c4.064-0.74,8.588-2.381,11.623-5.342
					c2.961-2.893,3.385-7.084,2.4-10.945c-1.84-7.357-7.478-13.84-13.743-18.016c7.011-16.797,16.453-32.467,25.354-48.324
					c9.876-17.643,19.315-35.973,23.808-55.823C732.797,544.127,732.626,525.438,725.877,508.789"/>
			</g>
		</g>
		<g>
			<g>
				<path fill="#1D2033" d="M628.164,658.604c-0.67-2.758-1.644-5.449-2.884-7.984c-0.99-2.016-2.221-4.887-4.646-5.469
					c-2.412-0.584-4.699,1.545-6.186,3.158c-2.078,2.291-3.597,5.051-5.01,7.775c-0.904,1.74-1.848,3.553-2.643,5.371
					c-0.409,0.939-0.79,1.904-1.124,2.891c-0.3,0.875-0.724,1.881-0.424,2.826c0.712,2.264,3.043,2.625,5.113,2.355
					c1.158-0.15,2.298-0.459,3.397-0.809c0.917-0.303,1.882-0.832,2.825-0.986c0.46-0.068,0.976-0.047,1.418,0.086
					c0.889,0.262,1.546,0.945,2.184,1.559c1.543,1.428,3.566,2.045,5.553,1.156c1.496-0.68,2.534-2.176,2.964-3.699
					C629.437,664.176,628.769,661.188,628.164,658.604"/>
			</g>
		</g>
		<g>
			<g>
				<path fill="#1D2033" d="M599.198,711.318c-0.023-0.471-0.313-0.895-0.764-1.086c-0.604-0.232-1.314,0.059-1.545,0.688
					c-1.412,3.52-2.184,7.174-2.672,10.898c-0.471,3.717-0.54,7.447-0.471,11.209c0.063,2.768,0.251,5.551,0.58,8.328
					c0.493,0.064,1.015,0.139,1.511,0.182c0.985,0.109,1.976,0.221,2.961,0.287c-0.114-2.945-0.161-5.887-0.143-8.826
					c0.028-3.6,0.24-7.18,0.36-10.779C599.126,718.629,599.288,715.041,599.198,711.318 M621.164,696.496
					c-0.087-0.539-0.562-0.947-1.097-0.963c-0.653,0-1.195,0.49-1.214,1.162c-0.316,9.111-0.281,18.115-0.498,27.121l-0.289,13.537
					c-0.019,1.758-0.046,3.555-0.046,5.316c1.394,0,2.763,0,4.138-0.049c0.264-1.648,0.48-3.299,0.663-4.965
					c0.467-4.564,0.745-9.178,0.784-13.773C623.647,714.707,623.03,705.533,621.164,696.496"/>
			</g>
		</g>
		<g>
			<g>
				<path fill="#1D2033" d="M561.054,632.342c0,0-48.954-79.004-4.205-95.527c44.76-16.519,66.986,84.701,47.157,100.326
					C584.189,652.752,569.774,643.734,561.054,632.342"/>
			</g>
		</g>
		<g>
			<g>
				<path fill="#FFF2E7" d="M591.016,598.656c-2.452-2.07-4.992-4.021-7.6-5.85c-3.235-2.295-3.633-6.945-0.782-9.703
					c0.451-0.426,0.908-0.842,1.368-1.256c1.723-1.547-0.816-4.082-2.536-2.535c-1.4,1.234-2.723,2.568-3.974,3.959
					c-1.94,2.139-5.075,2.637-7.646,1.264c-3.059-1.635-6.181-3.111-9.386-4.439c-2.136-0.877-3.066,2.58-0.954,3.455
					c2.381,0.984,4.721,2.086,7.017,3.254c3.109,1.566,4.294,5.381,2.708,8.498c-1.216,2.434-2.261,4.955-3.112,7.559
					c-0.723,2.201,2.739,3.139,3.459,0.957c0.642-1.943,1.392-3.828,2.248-5.652c1.691-3.604,6.179-4.846,9.436-2.545
					c2.479,1.748,4.886,3.586,7.209,5.561C590.226,602.682,592.79,600.152,591.016,598.656"/>
			</g>
		</g>
		<g>
			<g>
				<path fill="#1D2033" d="M630.553,629.936c0,0-6.007-72.976,18.016-89.207c24.028-16.219,49.562-12.01,53.458,7.83
					c3.909,19.82-22.825,83.185-40.841,91.294C645.81,646.762,632.652,640.156,630.553,629.936"/>
			</g>
		</g>
		<g>
			<g>
				<path fill="#FFF2E7" d="M673.549,575.117c-2.721,1.459-5.308,3.137-7.741,5.045c-2.147,1.67-5.252,1.191-6.774-1.064
					c-1.31-1.943-2.674-3.859-4.129-5.709c-0.637-0.834-2.042-0.674-2.706,0c-0.817,0.795-0.634,1.891,0,2.713
					c1.781,2.285,3.458,4.666,5.038,7.119c1.108,1.695,0.996,3.951-0.297,5.508c-2.632,3.139-4.928,6.586-6.785,10.248
					c-1.111,2.201,2.197,4.15,3.315,1.951c0.912-1.771,1.908-3.494,3-5.125c2.058-3.086,6.672-2.838,8.308,0.486
					c1.186,2.422,2.282,4.889,3.297,7.379c0.385,0.963,1.272,1.627,2.362,1.322c0.917-0.236,1.725-1.389,1.344-2.357
					c-1.736-4.283-3.721-8.453-5.919-12.49c-1.108-2.041-0.606-4.547,1.189-6.016c2.616-2.162,5.445-4.07,8.467-5.688
					C677.665,577.268,675.735,573.949,673.549,575.117"/>
			</g>
		</g>
		<g>
			<g>
				<path fill="#1D2033" d="M556.097,520.946c-11.694,3.093-21.135,12.987-23.625,24.828c-0.314,1.484,1.952,2.109,2.27,0.628
					c2.33-11.083,11.026-20.301,21.984-23.195C558.186,522.83,557.565,520.554,556.097,520.946"/>
			</g>
		</g>
		<g>
			<g>
				<path fill="#1D2033" d="M572.899,519.51c-2.56-0.473-5.209-0.292-7.66,0.583c-0.581,0.203-1.026,0.809-0.822,1.446
					c0.175,0.571,0.822,1.041,1.439,0.82c0.565-0.205,1.134-0.369,1.726-0.497c0.618-0.133,0.882-0.179,1.447-0.226
					c0.548-0.044,1.101-0.058,1.649-0.034c0.299,0.011,0.599,0.034,0.898,0.057c0,0,0.204,0.021,0.236,0.034
					c0.153,0.033,0.31,0.055,0.461,0.08c0.613,0.11,1.301-0.171,1.447-0.832C573.851,520.383,573.538,519.621,572.899,519.51"/>
			</g>
		</g>
		<g>
			<g>
				<path fill="#1D2033" d="M676.521,685.479c-4.901,3.277-11.522,3.125-16.275-0.326c-1.22-0.881-2.404,1.156-1.19,2.031
					c5.387,3.912,13.143,4.039,18.652,0.313C678.945,686.658,677.76,684.602,676.521,685.479"/>
			</g>
		</g>
		<g>
			<g>
				<path fill="#1D2033" d="M654.896,683.291c-0.099-0.189-0.241-0.301-0.419-0.416c-0.266-0.201-0.531-0.4-0.812-0.607
					c-0.135-0.09-0.276-0.131-0.432-0.131c-0.159-0.049-0.308-0.049-0.471,0c-0.15,0.041-0.288,0.111-0.399,0.221
					c-0.13,0.09-0.23,0.203-0.293,0.336c-0.047,0.09-0.084,0.18-0.126,0.27c-0.053,0.207-0.053,0.414,0,0.625
					c0.042,0.094,0.079,0.195,0.126,0.281c0.094,0.17,0.234,0.318,0.414,0.414c0.264,0.203,0.533,0.402,0.813,0.605
					c0.132,0.09,0.275,0.139,0.437,0.139c0.159,0.045,0.306,0.045,0.467,0c0.151-0.049,0.278-0.111,0.399-0.24
					c0.131-0.078,0.23-0.188,0.296-0.32c0.042-0.09,0.081-0.191,0.119-0.27c0.058-0.205,0.058-0.414,0-0.627
					C654.978,683.48,654.936,683.393,654.896,683.291"/>
			</g>
		</g>
		<g>
			<g>
				<path fill="#1D2033" d="M712.518,543.895c-2.402-7.542-6.434-14.762-12.816-19.628c-6.188-4.7-14.599-6.73-22.071-4.128
					c-1.412,0.491-0.811,2.76,0.637,2.264c6.915-2.397,14.631-0.491,20.319,3.949c5.808,4.554,9.459,11.259,11.682,18.181
					C710.705,545.969,712.976,545.349,712.518,543.895"/>
			</g>
		</g>
		<g>
			<g>
				<path fill="#1D2033" d="M715.663,521.037c-1.908-1.401-3.811-2.805-5.707-4.209c-0.494-0.369-1.335-0.101-1.611,0.419
					c-0.323,0.614-0.105,1.207,0.427,1.612c1.908,1.405,3.813,2.804,5.705,4.205c0.5,0.37,1.335,0.1,1.608-0.425
					C716.413,522.034,716.194,521.417,715.663,521.037"/>
			</g>
		</g>
	</g>
	<g>
		<g>
			<path fill="#1D2033" d="M631.905,459.925c1.992,0,3.983,0.041,5.971,0.122c17.437,0.728,34.758,4.652,50.638,11.953
				c8.325,3.817,16.248,8.681,22.893,15.064c6.324,6.134,11.171,13.582,14.471,21.725c6.749,16.649,6.92,35.339,3.056,52.667
				c-4.493,19.851-13.934,38.177-23.811,55.822c-8.898,15.857-18.339,31.523-25.351,48.324c6.267,4.174,11.904,10.66,13.744,18.014
				c0.98,3.859,0.559,8.057-2.402,10.947c-3.035,2.963-7.56,4.598-11.623,5.344c-1.961,0.355-3.914,0.521-5.862,0.521
				c-7.021,0-13.902-2.166-20.166-5.373c-3.973-2.041-7.861-4.42-11.348-7.18c-0.687-0.539-1.316-1.1-1.924-1.668
				c1.41,9.41,2.091,18.941,1.972,28.5c-0.065,6.916-0.517,13.814-1.436,20.701c-0.308,2.502-0.983,4.945-3.561,5.91
				c-1.481,0.572-3.157,0.596-4.705,0.711c-1.698,0.133-3.411,0.256-5.134,0.361c-1.729,0.084-3.414,0.152-5.136,0.209
				c-0.013,0-0.018,0-0.03,0c0,0.008,0,0.016-0.003,0.021c-1.378,0.049-2.746,0.049-4.138,0.049c0-0.01,0-0.021,0-0.027
				c-0.704,0.012-1.41,0.018-2.112,0.018c-3.159,0-6.309-0.084-9.472-0.27c-2.555-0.15-5.089-0.34-7.607-0.588
				c-0.011,0-0.023-0.002-0.034-0.002c0,0.008,0,0.014,0,0.023c-0.985-0.066-1.975-0.178-2.961-0.287
				c-0.495-0.047-1.018-0.117-1.51-0.182c-0.003-0.008-0.003-0.02-0.003-0.025c-1.204-0.123-2.396-0.271-3.605-0.447
				c-1.513-0.197-3.152-0.287-4.635-0.76c-2.802-0.916-3.292-3.6-3.836-6.166c-0.588-2.807-1.007-5.674-1.302-8.525
				c-0.583-6.012-0.427-12.092,0.337-18.094c1.061-8.063,3.367-15.93,6.775-23.314c-6.807,3.473-13.839,6.539-21.017,9.152
				c-4.049,1.479-8.18,2.871-12.33,4.059c-2.995,0.869-6.104,1.6-9.222,1.6c-0.973,0-1.944-0.068-2.917-0.23
				c-3.324-0.537-6.544-2.201-8.501-5.021c-2.034-2.943-2.329-6.869-1.389-10.256c1.933-7.043,8.657-12.35,15.103-15.164
				c0.49-0.223,0.99-0.4,1.479-0.594c-0.408-1.201-0.776-2.33-1.161-3.51c-6.828-20.998-13.457-42.025-19.604-63.211
				c-3.029-10.412-5.879-20.908-8.28-31.498c-2.33-10.398-4.755-21.174-4.305-31.883c0.745-18.215,11.734-33.522,25.172-45.01
				c13.24-11.308,28.854-19.783,45.384-25.259C601.074,462.383,616.507,459.925,631.905,459.925 M631.905,453.698
				c-16.172,0-32.116,2.554-47.386,7.588c-17.656,5.849-34.071,14.988-47.475,26.437c-17.168,14.676-26.625,31.787-27.349,49.489
				c-0.485,11.503,2.017,22.656,4.439,33.44c2.171,9.596,4.83,19.719,8.387,31.932c5.262,18.143,11.347,37.781,19.105,61.688
				c-7.567,4.225-13.07,10.549-14.952,17.404c-1.509,5.422-0.658,11.201,2.271,15.441c2.769,4,7.371,6.775,12.625,7.629
				c1.254,0.207,2.573,0.311,3.912,0.311c4.064,0,7.822-0.938,10.963-1.848c3.885-1.115,8.058-2.486,12.722-4.189
				c2.689-0.977,5.368-2.025,8.023-3.127c-0.919,3.502-1.616,7.051-2.086,10.635c-0.85,6.66-0.969,13.215-0.36,19.504
				c0.337,3.281,0.809,6.365,1.405,9.201l0.045,0.223c0.634,2.996,1.808,8.574,7.946,10.582c1.766,0.563,3.442,0.75,4.79,0.9
				c0.328,0.037,0.651,0.072,0.97,0.117c1.209,0.178,2.494,0.334,3.787,0.467c0.416,0.082,0.976,0.158,1.521,0.207l0.068,0.01
				c1.032,0.117,2.064,0.229,3.1,0.297c-0.064-0.006-0.096-0.033-0.161-0.037c2.516,0.246,5.083,0.445,7.857,0.605
				c3.195,0.184,6.502,0.279,9.831,0.279c0.729,0,1.455-0.006,2.186-0.016c0.56,0.01,1.13,0.016,1.698,0.016
				c0.85,0,1.717-0.01,2.583-0.041c1.781-0.08,3.499-0.148,5.257-0.234c1.828-0.111,3.578-0.238,5.312-0.377l0.619-0.037
				c1.644-0.105,3.692-0.236,5.843-1.066c4.259-1.596,6.802-5.289,7.501-10.959c0.91-6.814,1.413-14.037,1.481-21.406
				c0.063-5.16-0.098-10.385-0.49-15.631c0.884,0.496,1.789,0.979,2.715,1.459c7.864,4.02,15.604,6.057,23.014,6.057
				c2.36,0,4.709-0.209,6.979-0.623c4.305-0.785,10.372-2.643,14.854-7.008c4.28-4.178,5.767-10.352,4.088-16.943
				c-1.688-6.748-6.015-13.289-12.122-18.486c5.366-11.979,11.998-23.652,18.436-34.979c1.569-2.766,3.139-5.523,4.691-8.293
				c9.296-16.6,19.615-36.096,24.455-57.493c4.529-20.3,3.363-39.791-3.358-56.379c-3.735-9.217-9.084-17.242-15.904-23.854
				c-6.654-6.396-14.707-11.706-24.633-16.256c-16.355-7.521-34.184-11.73-52.97-12.512
				C636.074,453.742,633.978,453.698,631.905,453.698L631.905,453.698z"/>
		</g>
	</g>
	<g enable-background="new    ">
		<path fill="#FFF2E7" d="M495.285,1021.805c0.092,0.035,0.092,0.285,0.007,0.752c-0.084,0.469-0.223,1.229-0.405,2.275
			c-0.273,1.254-0.698,2.719-1.281,4.4c-0.628,1.875-1.188,3.193-1.686,3.943c-1.052,1.568-1.961,2.521-2.729,2.85
			c-0.766,0.328-1.914,0.326-3.435-0.008c-1.323-0.287-2.571-0.711-3.743-1.275l-0.01,0.23c0.153,4.92-0.032,8.281-0.554,10.084
			c-0.464,1.537-0.857,2.475-1.172,2.814c-1.456,1.479-4.074,2.666-7.854,3.551c-3.785,0.885-6.532,1.008-8.238,0.363
			c-0.681-0.234-1.506-0.596-2.473-1.072c-1.201-0.627-2.696-1.67-4.484-3.139c-3.96-3.252-7.133-6.537-9.519-9.855
			c-0.564-0.818-1.055-1.582-1.474-2.287c-0.246-0.48,0.245-1.732,1.469-3.762c1.224-2.031,2.698-4.016,4.416-5.959
			c1.829-2.088,3.34-3.684,4.527-4.785c1.081-1.029,1.86-1.346,2.337-0.955c0.19,0.158,0.377,0.367,0.557,0.637
			c0.705,1.18,1.749,2.951,3.119,5.316c2.728,4.555,5.93,8.561,9.603,12.012c1.644,1.551,2.937,2.477,3.889,2.773
			c0.249,0.09,0.485,0.043,0.71-0.133c0.225-0.176,0.355-0.408,0.393-0.693c0.405-2.822,0.315-5.473-0.275-7.955l-0.528-0.373
			c-2.269-1.502-4.569-3.211-6.896-5.123c-2.805-2.303-4.496-3.928-5.068-4.881c-0.499-0.846-0.655-1.791-0.472-2.842
			c0.641-3.545,1.871-7.049,3.679-10.512c1.421-2.703,2.534-4.547,3.337-5.525c0.117-0.143,0.198-0.195,0.246-0.158
			c0.17,0.137,0.355,0.273,0.567,0.406c-0.074-0.059,2.296,2.123,7.104,6.551c1.469,1.365,2.95,2.664,4.447,3.893
			C486.964,1016.291,490.93,1019.105,495.285,1021.805z"/>
		<path fill="#FFF2E7" d="M498.197,971.916c5.14,6.334,10.607,11.879,16.402,16.641c1.264,1.035,2.563,2.104,3.896,3.197
			c0.217,0.178,0.837,0.611,1.874,1.297c-1.243,4.771-3.374,9.07-6.396,12.896c-1.675,2.139-3.53,3.188-5.577,3.145
			c-5.01-0.559-9.977-1.34-14.899-2.348c2.574,3.191,5.31,6.057,8.212,8.6c0.576,0.512,1.172,0.979,1.784,1.402
			c0.867,0.596,1.267,0.859,1.198,0.803c0.096,0.121-0.106,0.393-0.61,0.814c-0.567,0.494-1.034,0.891-1.399,1.191
			c-0.939,0.707-1.697,1.084-2.275,1.125c-0.574,0.049-1.25-0.227-2.035-0.834c-4.557-3.496-8.763-7.588-12.622-12.275l-3.579-4.316
			c-0.095-0.076-0.382-0.195-0.856-0.344c-1.132-0.328-2.351-0.83-3.666-1.512c0.127-0.693,0.329-1.742,0.607-3.154
			c0.463-1.973,1.386-4.361,2.764-7.16c1.384-2.799,2.826-5.117,4.333-6.955c0.509-0.619,0.994-1.139,1.458-1.559
			c0.18-0.168,0.358-0.264,0.529-0.281c0.069,0.018,0.342,0.141,0.828,0.377c0.272,0.107,1.765,1.33,4.472,3.674
			c2.613,2.264,5.399,4.148,8.354,5.65c3.628,1.811,6.923,2.684,9.887,2.619c0.286-0.006,0.461-0.021,0.525-0.053
			c0.019-0.023,0.016-0.045-0.005-0.063c-2.054-1.877-5.216-4.762-9.489-8.652c-1.458-1.385-3.663-3.389-6.622-6.012
			c-0.456-0.371-0.933-0.764-1.431-1.172c0.093-0.408,0.215-0.822,0.366-1.256c0.726-1.803,1.771-3.439,3.138-4.912
			c0.259-0.268,0.501-0.486,0.724-0.666C498.113,971.846,498.15,971.875,498.197,971.916z"/>
		<path fill="#FFF2E7" d="M557.873,931.977c0.456,0.174,0.933,0.465,1.434,0.881c1.046,0.857,1.774,1.75,2.171,2.678
			c0.637,1.557,0.763,3.643,0.384,6.242c-0.312,2.18-0.879,4.209-1.702,6.086c-1.42,3.189-3.168,6.049-5.24,8.578
			c-3.7,4.506-8.35,7.898-13.932,10.184c-2.741,1.1-5.46,1.469-8.148,1.092c-1.42-0.209-2.658-0.744-3.708-1.605
			c-1.574-1.295-2.733-3.24-3.469-5.842c-0.604-2.133-0.896-4.428-0.875-6.887c0.122-7.926,2.184-15.717,6.189-23.367
			c1.291-2.449,2.452-4.273,3.476-5.471c0.256-0.266,0.599-0.441,1.034-0.531c1.781-0.371,4.251-0.006,7.421,1.098
			c3.165,1.102,5.675,2.473,7.522,4.109c1.066,0.994,1.62,1.605,1.666,1.844c0.004,0.084-0.006,0.154-0.046,0.201
			c-6.513,7.592-10.445,14.541-11.795,20.861c-0.946,4.41-0.872,7.068,0.222,7.967c0.575,0.471,1.464,0.381,2.672-0.26
			c1.936-1.051,3.963-2.857,6.078-5.434c1.192-1.453,2.025-2.709,2.492-3.764c0.364-0.736,0.406-1.203,0.122-1.395
			c-1.373-0.809-2.541-0.912-3.514-0.313c-0.209,0.111-1.098,0.779-2.667,2.004c-0.811,0.65-1.336,0.879-1.575,0.684
			c-0.191-0.16-0.111-0.549,0.244-1.174c0.22-0.465,0.562-1.098,1.03-1.912c1.964-3.217,4.252-6.59,6.863-10.113
			c1.691-2.248,3.372-4.299,5.052-6.156C557.492,932.004,557.69,931.904,557.873,931.977z"/>
		<path fill="#FFF2E7" d="M554.955,901.316c0.19,0.156,0.484,0.459,0.879,0.898c5.468,6.568,11.294,12.869,17.48,18.902
			c1.379,1.338,2.819,2.574,4.311,3.721c-2.27,5.443-3.831,8.531-4.679,9.275c-0.789,0.668-1.932,0.768-3.422,0.301
			c-4.275-1.309-9.166-4.229-14.674-8.75c-3.721-3.055-7.183-6.377-10.384-9.967c-0.403-0.525-0.607-0.814-0.615-0.857l0.236-0.65
			c0.957-2.766,2.765-5.777,5.425-9.02c1.155-1.406,2.222-2.482,3.202-3.234c0.467-0.377,0.827-0.621,1.076-0.738
			C554.196,901.049,554.581,901.09,554.955,901.316z"/>
		<path fill="#FFF2E7" d="M598.571,878.969c2.623,3.955,3.808,8.529,3.55,13.729c-0.254,5.199-1.889,9.658-4.897,13.375
			c-3.009,3.758-7.073,6.303-12.193,7.627c-5.121,1.326-9.897,1.07-14.332-0.777c-1.667-0.889-3.009-2.029-4.021-3.418
			c-1.755-2.48-2.808-5.939-3.157-10.379c-0.35-4.438,0.135-8.213,1.45-11.324c0.824-1.879,1.913-3.641,3.263-5.287
			c1.371-1.67,2.897-3.09,4.583-4.264c2.794-1.896,6.401-3.109,10.82-3.633c4.424-0.52,8.01-0.148,10.766,1.117
			C595.983,876.432,597.375,877.512,598.571,878.969z M591.127,895.736c-1.309-1.072-2.699-1.666-4.178-1.781
			c-1.479-0.111-2.589,0.283-3.334,1.188c-0.764,0.928-0.942,2.111-0.541,3.535c0.398,1.428,1.25,2.676,2.558,3.748
			c1.328,1.094,2.733,1.697,4.211,1.809c1.479,0.117,2.598-0.291,3.361-1.219c0.744-0.906,0.918-2.072,0.516-3.502
			C593.322,898.088,592.456,896.83,591.127,895.736z"/>
		<path fill="#FFF2E7" d="M630.897,856.883c0.345,0.846,0.037,2.518-0.923,5.021c-0.957,2.508-2.184,4.867-3.676,7.072
			c-0.782,1.195-1.62,2.344-2.521,3.441c-2.937,3.576-6.027,6.291-9.263,8.143c-3.488,2.008-6.481,2.566-8.978,1.674
			c-0.799-0.297-1.602-0.775-2.414-1.441c-1.67-1.369-3.188-3.313-4.552-5.834c-1.773-3.332-2.842-7.043-3.2-11.131
			c-0.362-3.932-0.055-7.807,0.925-11.633c1.051-4.053,2.723-7.906,5.015-11.578c0.094-0.158,0.184-0.246,0.271-0.254
			c2.534-0.314,5.36,0.086,8.471,1.207c2.933,1.049,5.397,2.471,7.396,4.268c0.212,0.18,0.466,0.404,0.752,0.684
			c-0.153,0.191-0.291,0.357-0.409,0.5c-1.547,1.885-2.936,4.77-4.166,8.648c-1.23,3.881-1.836,7.125-1.818,9.734
			c0.063,3.326,0.514,5.33,1.347,6.016c0.811,0.664,2.03,0.49,3.663-0.525c1.906-1.15,3.779-3.121,5.635-5.912
			c0.708-1.059,1.432-2.379,2.177-3.963c1.1-2.412,1.73-4.324,1.9-5.746c0.059-0.508,0.221-0.779,0.482-0.807
			c1.005-0.008,1.985,0.377,2.939,1.162C630.429,856.021,630.744,856.438,630.897,856.883z"/>
		<path fill="#FFF2E7" d="M632.857,805.258c0.515,0.781,1.335,1.971,2.456,3.572c4.474,6.025,9.431,11.27,14.87,15.732
			c1.381,1.139,2.841,2.281,4.378,3.42c0.284,0.189,1.278,0.852,2.99,1.975c-0.345,1.195-0.917,2.283-1.718,3.264
			c-0.727,0.879-1.394,1.23-2.003,1.051c-0.606-0.182-1.994-1-4.154-2.455c-3.856-2.646-7.509-5.586-10.963-8.816
			c-0.787,1.787-2.267,4.268-4.432,7.438c-0.323,0.494-0.315,0.895,0.019,1.213c1.341,1.342,2.688,2.566,4.05,3.68
			c2.767,2.273,5.882,4.336,9.354,6.186c-1.095,2.258-2.113,4.178-3.055,5.758c-0.679,1.121-1.3,2.025-1.867,2.721
			c-1.056,1.285-2.164,2.053-3.327,2.299c-1.738,0.367-4.596-0.604-8.574-2.908c-3.02-1.719-5.583-3.484-7.687-5.295l-4.456-3.836
			c-2.063-1.77-4.17-3.943-6.332-6.516c-0.17-0.18,0.058-1.092,0.687-2.732c1.245-3.166,3.209-6.387,5.892-9.656
			c1.04-1.26,2.02-2.309,2.945-3.15c0.225-0.172,0.365-0.273,0.432-0.303c0.06-0.029,0.187,0.014,0.371,0.125
			c0.692,0.328,2.539,2.484,5.535,6.463l2.009,2.662c0.885-2.346,2.137-4.549,3.756-6.617c0.681-0.881,0.886-1.467,0.612-1.771
			l-6.177-7.283c-0.519-0.625-0.987-1.25-1.399-1.869c0.048-0.158,0.123-0.32,0.218-0.482c1.495-2.162,3.084-3.496,4.771-3.988
			C632.396,805.018,632.663,805.055,632.857,805.258z"/>
		<path fill="#FFF2E7" d="M646.881,789.342c0.19,0.154,0.481,0.457,0.88,0.902c5.465,6.564,11.294,12.865,17.478,18.898
			c1.381,1.336,2.821,2.576,4.313,3.721c-2.272,5.439-3.83,8.529-4.68,9.271c-0.789,0.668-1.932,0.773-3.424,0.307
			c-4.272-1.311-9.166-4.229-14.674-8.75c-3.721-3.057-7.183-6.379-10.384-9.967c-0.404-0.531-0.605-0.816-0.613-0.859l0.236-0.646
			c0.954-2.773,2.762-5.777,5.423-9.021c1.154-1.408,2.224-2.486,3.202-3.24c0.466-0.377,0.826-0.617,1.079-0.732
			C646.122,789.074,646.506,789.113,646.881,789.342z"/>
		<path fill="#FFF2E7" d="M671.854,760.377c5.144,6.334,10.608,11.885,16.402,16.639c1.267,1.041,2.566,2.105,3.899,3.203
			c0.215,0.176,0.837,0.609,1.875,1.295c-1.243,4.77-3.378,9.07-6.397,12.896c-1.677,2.137-3.532,3.188-5.579,3.146
			c-5.01-0.559-9.977-1.344-14.896-2.352c2.571,3.191,5.309,6.059,8.211,8.598c0.578,0.516,1.169,0.984,1.783,1.406
			c0.866,0.594,1.268,0.861,1.196,0.803c0.098,0.125-0.104,0.393-0.609,0.818c-0.568,0.49-1.032,0.887-1.396,1.188
			c-0.939,0.709-1.697,1.082-2.275,1.127c-0.575,0.047-1.253-0.23-2.038-0.834c-4.554-3.5-8.76-7.592-12.62-12.277l-3.58-4.316
			c-0.096-0.078-0.382-0.193-0.854-0.344c-1.133-0.328-2.354-0.832-3.668-1.512c0.127-0.695,0.33-1.744,0.608-3.154
			c0.465-1.971,1.384-4.363,2.765-7.16c1.381-2.801,2.823-5.117,4.334-6.957c0.507-0.617,0.992-1.137,1.458-1.555
			c0.18-0.17,0.355-0.266,0.53-0.285c0.068,0.018,0.339,0.145,0.826,0.383c0.276,0.104,1.767,1.328,4.473,3.668
			c2.609,2.266,5.396,4.15,8.354,5.65c3.629,1.814,6.921,2.688,9.884,2.625c0.286-0.008,0.462-0.027,0.524-0.057
			c0.021-0.023,0.019-0.045-0.006-0.063c-2.051-1.879-5.213-4.764-9.488-8.654c-1.455-1.385-3.663-3.387-6.621-6.008
			c-0.452-0.375-0.93-0.764-1.432-1.176c0.096-0.406,0.217-0.822,0.368-1.256c0.724-1.803,1.769-3.438,3.14-4.908
			c0.257-0.27,0.5-0.488,0.724-0.666C671.772,760.309,671.808,760.34,671.854,760.377z"/>
		<path fill="#FFF2E7" d="M714.783,737.408c2.624,3.953,3.81,8.529,3.552,13.729c-0.254,5.201-1.89,9.658-4.898,13.375
			c-3.008,3.758-7.071,6.303-12.192,7.627c-5.121,1.326-9.897,1.066-14.334-0.777c-1.665-0.889-3.006-2.027-4.02-3.42
			c-1.754-2.48-2.806-5.938-3.158-10.379c-0.348-4.439,0.138-8.213,1.452-11.322c0.821-1.879,1.914-3.643,3.263-5.287
			c1.371-1.67,2.896-3.09,4.581-4.266c2.796-1.895,6.404-3.107,10.821-3.631c4.424-0.52,8.011-0.15,10.767,1.115
			C712.197,734.867,713.588,735.949,714.783,737.408z M707.341,754.174c-1.309-1.07-2.698-1.664-4.178-1.781
			c-1.479-0.111-2.589,0.281-3.334,1.188c-0.764,0.932-0.941,2.111-0.54,3.537c0.397,1.424,1.249,2.676,2.558,3.748
			c1.327,1.092,2.732,1.695,4.21,1.809c1.479,0.115,2.6-0.291,3.361-1.221c0.745-0.908,0.919-2.072,0.518-3.5
			C709.535,756.527,708.669,755.266,707.341,754.174z"/>
		<path fill="#FFF2E7" d="M759.267,685.777c0.529,0.23,0.983,0.504,1.364,0.816c1.052,0.865,1.569,2.371,1.562,4.518
			c-0.017,2.307-0.689,5.414-2.025,9.33c-1.336,3.912-2.903,7.449-4.697,10.605c-1.457,2.551-3.105,4.953-4.949,7.195
			c-1.564,1.908-2.705,3.006-3.426,3.295c-2.804,1.09-4.682,1.504-5.631,1.246c-0.427-0.111-1.314-0.537-2.66-1.285
			c-1.645-0.912-3.823-2.342-6.537-4.289c-0.626-0.553-1.396-1.166-2.316-1.844c-0.287,0.004-0.737-0.006-1.356-0.033
			c-1.825-0.063-4.236-1.326-7.243-3.795c-0.857-0.703-1.796-1.531-2.809-2.482c-0.722-0.631-1.441-1.262-2.163-1.893
			c-0.877-0.922-1.137-1.656-0.772-2.195c1.833-2.766,4.086-5.488,6.761-8.162c3.213-3.229,6.56-5.996,10.037-8.287
			c4.299-2.855,8.265-4.594,11.887-5.215c1.595-0.287,3.97-0.176,7.119,0.336C754.564,684.15,757.183,684.863,759.267,685.777z
			 M753.75,695.559c-1.613-0.365-4.578,1.271-8.888,4.922c-3.464,2.904-6.022,5.416-7.682,7.531
			c-0.933,1.188-1.453,1.818-1.553,1.893c-0.139,0.17-0.239,0.338-0.297,0.508c-0.062,0.17,0.533,0.764,1.77,1.781
			c2.053,1.684,3.803,2.982,5.249,3.891c0.748,0.455,1.469,0.785,2.172,1.004c1.337-1.141,2.461-2.27,3.384-3.389
			c1.781-2.172,3.382-4.738,4.801-7.707c1.417-2.969,2.284-5.521,2.599-7.656c0.16-1.07-0.084-1.869-0.726-2.396
			C754.34,695.744,754.066,695.617,753.75,695.559z"/>
		<path fill="#FFF2E7" d="M756.541,655.758c0.191,0.156,0.488,0.455,0.88,0.9c5.469,6.566,11.296,12.867,17.482,18.898
			c1.38,1.336,2.816,2.576,4.311,3.723c-2.271,5.439-3.833,8.533-4.679,9.271c-0.792,0.668-1.932,0.773-3.422,0.305
			c-4.275-1.309-9.165-4.227-14.673-8.75c-3.722-3.053-7.186-6.377-10.385-9.967c-0.404-0.529-0.607-0.816-0.616-0.857l0.236-0.646
			c0.955-2.771,2.765-5.779,5.427-9.023c1.155-1.406,2.221-2.484,3.201-3.238c0.464-0.377,0.824-0.617,1.076-0.732
			C755.783,655.492,756.17,655.529,756.541,655.758z"/>
		<path fill="#FFF2E7" d="M809.579,640.906c-0.23,1.008-0.407,1.662-0.53,1.959c-0.126,0.297-0.353,0.891-0.681,1.775
			c-1.103,3.049-2.86,6.039-5.267,8.969c-1.395,1.697-2.624,2.857-3.705,3.492c-0.581,0.32-1.013,0.504-1.294,0.553
			c-0.514,0.094-1.008,0.113-1.475,0.045c-0.91-0.15-2.151-0.389-3.721-0.717c-2.821-0.6-5.938-1.379-9.341-2.338
			c-0.133-0.031-0.303-0.07-0.503-0.117c-0.152,0.037-0.438,0.344-0.865,0.91l-3.616,4.695c-0.502,0.664-0.563,1.393-0.18,2.188
			c1.97,3.973,4.193,7.66,6.678,11.053c0.077,0.102,0.337,0.395,0.776,0.875c-1.013,1.283-2.216,2.215-3.605,2.789
			c-0.397,0.195-0.837,0.25-1.314,0.18c-0.479-0.074-0.818-0.254-1.025-0.541c-0.348-0.445-0.687-0.885-1.015-1.314
			c-1.886-2.664-3.841-6.287-5.872-10.867c-1.318-2.961-2.558-6.049-3.708-9.271c-0.146-0.402-0.402-0.672-0.769-0.811
			c-0.996-0.342-2.237-0.484-3.727-0.422c-1.354,0.045-2.078,0.025-2.174-0.051c-0.07-0.059-0.09-0.133-0.055-0.227
			c1.548-6.555,3.826-12.926,6.833-19.121c0.129-0.254,0.277-0.432,0.442-0.537c0.143-0.08,0.928-0.156,2.347-0.229
			c4.007-0.264,9.661,0.244,16.954,1.521c7.295,1.277,13.402,2.84,18.316,4.676c0.799,0.297,1.434,0.541,1.914,0.734
			C809.471,640.82,809.531,640.865,809.579,640.906z M778.333,653.58l-2.739-0.309c-0.09-0.037-0.26-0.051-0.502-0.049
			c-0.397,0-0.483,0.268-0.268,0.813c0.971,2.422,1.483,3.652,1.527,3.691c0.059,0.035,0.101,0.061,0.127,0.08
			c0.04-0.045,0.08-0.092,0.117-0.141c0.252-0.354,0.622-0.928,1.116-1.723c0.185-0.324,0.479-0.807,0.876-1.432
			C778.904,653.928,778.818,653.621,778.333,653.58z"/>
		<path fill="#FFF2E7" d="M821.676,596.045c1.331,1.295,1.013,4.721-0.964,10.285c-0.625,1.84-1.438,3.848-2.431,6.027l0.525-0.346
			c1.153-0.771,2.52-1.305,4.1-1.605c1.586-0.297,2.8-0.234,3.653,0.186c1.06,0.508,1.728,1.078,2.01,1.709
			c0.561,1.262,0.692,2.707,0.394,4.34c-0.487,2.635-1.635,5.66-3.449,9.082c-1.645,3.121-3.439,5.916-5.391,8.391
			c-1.272,1.553-2.146,2.471-2.624,2.756c-2.986,1.699-5.02,2.326-6.096,1.883c-1.248-0.666-2.646-1.611-4.193-2.842l-10.555-8.662
			c-0.046-0.043-0.093-0.08-0.144-0.119c-0.045-0.041-0.384,0.156-1.014,0.586c-0.352,0.227-0.725,0.451-1.128,0.676
			c-0.402,0.225-1.121,0.066-2.157-0.471c-2.581-1.281-5.09-2.848-7.528-4.693c-1.919-1.455-3.074-2.426-3.474-2.912
			c1.904-3.346,4.043-6.465,6.414-9.348c4.052-4.938,8.386-8.904,13-11.9c5.244-3.365,10.147-4.988,14.72-4.867
			C818.398,594.271,820.511,594.887,821.676,596.045z M813.899,610.617c-0.318-0.338-0.741-0.506-1.267-0.498
			c-0.718,0.049-2.018,0.826-3.896,2.338c-1.877,1.514-3.532,3.117-4.967,4.813c-0.849,0.982-1.51,1.84-1.988,2.566
			c-0.175,0.215-0.503,0.762-0.986,1.645c1.485,1.934,3.122,3.656,4.915,5.17c0.388,0.359,1.166-0.18,2.341-1.613
			c1.231-1.502,2.473-3.445,3.718-5.838c1.241-2.393,1.978-4.234,2.2-5.529C814.25,612.064,814.229,611.047,813.899,610.617z
			 M821.257,618.578c-0.715-0.586-1.762-0.447-3.147,0.41c-0.951,0.574-1.903,1.346-2.862,2.316
			c-0.701,0.705-1.339,1.416-1.928,2.131c-1.529,1.861-2.854,3.945-3.989,6.248c-0.077,0.141,0.629,0.814,2.107,2.027
			c0.549,0.451,1.314,1.002,2.299,1.648c0.564,0.383,1.531-0.26,2.901-1.93c1.096-1.336,2.171-2.967,3.215-4.902
			c1.051-1.936,1.719-3.563,2.005-4.889C822.196,620.164,821.994,619.141,821.257,618.578z"/>
		<path fill="#FFF2E7" d="M855.577,565.904c2.625,3.953,3.807,8.527,3.553,13.729c-0.255,5.199-1.891,9.658-4.898,13.375
			c-3.009,3.758-7.072,6.303-12.193,7.627c-5.121,1.326-9.896,1.066-14.334-0.779c-1.665-0.887-3.006-2.027-4.018-3.418
			c-1.756-2.482-2.811-5.938-3.16-10.381c-0.348-4.436,0.138-8.211,1.452-11.32c0.823-1.879,1.914-3.645,3.263-5.287
			c1.371-1.67,2.897-3.092,4.581-4.264c2.797-1.897,6.401-3.111,10.822-3.633c4.421-0.521,8.011-0.151,10.767,1.116
			C852.991,563.364,854.382,564.443,855.577,565.904z M848.132,582.67c-1.306-1.07-2.698-1.664-4.175-1.781
			c-1.478-0.111-2.592,0.279-3.333,1.188c-0.764,0.93-0.945,2.109-0.541,3.535c0.397,1.426,1.25,2.678,2.558,3.748
			c1.327,1.092,2.732,1.697,4.211,1.811c1.479,0.115,2.599-0.291,3.36-1.223c0.743-0.906,0.919-2.072,0.515-3.498
			C850.329,585.023,849.46,583.762,848.132,582.67z"/>
		<path fill="#FFF2E7" d="M880.906,549.569c0.652,0.374,1.181,0.849,1.586,1.421c0.158,0.252,0.201,0.467,0.133,0.646
			c0.001,0.046-0.144,0.345-0.44,0.896c-1.781,3.29-3.742,7.433-5.883,12.423l-0.504,1.195c-0.266,0.666-0.808,1.199-1.62,1.609
			c-1.059,0.607-2.605,1.475-4.647,2.596c-0.312,0.139-0.571,0.186-0.774,0.143c-0.362-0.143-0.766-0.334-1.208-0.576
			c-5.519-3.092-11.252-7.079-17.191-11.956c-1.718-1.41-3.054-2.604-4.003-3.587c-1.092-1.097-2.227-2.266-3.403-3.511
			c1.222-3.87,3.043-7.281,5.471-10.24c0.394-0.479,0.806-0.956,1.241-1.439c0.912-0.967,1.584-1.633,2.006-2.003
			c0.774-0.604,1.61-1.034,2.502-1.3c3.86,5.563,8.416,11.074,13.665,16.545c1.981,2.068,3.551,3.555,4.713,4.471
			c0.359,0.297,0.588,0.441,0.686,0.443c0.102,0,0.323-0.137,0.671-0.413c0.204-0.147,0.731-0.794,1.585-1.929
			c2.879-3.704,4.548-5.588,4.998-5.656C880.535,549.34,880.672,549.418,880.906,549.569z"/>
		<path fill="#FFF2E7" d="M872.081,515.017c0.19,0.156,0.487,0.457,0.879,0.9c5.466,6.567,11.297,12.866,17.481,18.901
			c1.381,1.336,2.817,2.574,4.312,3.721c-2.273,5.439-3.832,8.532-4.681,9.272c-0.789,0.668-1.929,0.771-3.421,0.304
			c-4.276-1.308-9.167-4.229-14.675-8.751c-3.719-3.054-7.185-6.375-10.385-9.967c-0.403-0.527-0.606-0.815-0.612-0.858l0.233-0.647
			c0.954-2.767,2.765-5.777,5.43-9.02c1.151-1.407,2.22-2.485,3.197-3.239c0.465-0.377,0.829-0.618,1.079-0.734
			C871.323,514.751,871.709,514.792,872.081,515.017z"/>
		<path fill="#FFF2E7" d="M918.564,506.468c0.347,0.843,0.04,2.517-0.921,5.023c-0.959,2.507-2.184,4.863-3.679,7.07
			c-0.784,1.194-1.622,2.341-2.523,3.439c-2.935,3.578-6.021,6.291-9.261,8.145c-3.488,2.009-6.478,2.565-8.978,1.672
			c-0.798-0.295-1.602-0.776-2.411-1.439c-1.671-1.373-3.189-3.315-4.552-5.833c-1.776-3.334-2.845-7.044-3.202-11.13
			c-0.363-3.933-0.054-7.812,0.928-11.635c1.05-4.05,2.72-7.907,5.012-11.577c0.093-0.16,0.185-0.247,0.271-0.256
			c2.534-0.315,5.359,0.085,8.475,1.206c2.931,1.05,5.394,2.473,7.39,4.271c0.218,0.178,0.47,0.403,0.758,0.685
			c-0.156,0.188-0.291,0.354-0.41,0.499c-1.546,1.884-2.934,4.768-4.164,8.647c-1.231,3.881-1.84,7.127-1.821,9.732
			c0.063,3.328,0.511,5.332,1.346,6.018c0.812,0.664,2.034,0.491,3.666-0.523c1.902-1.152,3.78-3.124,5.63-5.914
			c0.711-1.057,1.438-2.378,2.179-3.966c1.101-2.409,1.733-4.324,1.9-5.743c0.063-0.511,0.222-0.778,0.48-0.804
			c1.007-0.011,1.988,0.374,2.942,1.158C918.096,505.605,918.413,506.023,918.564,506.468z"/>
		<path fill="#FFF2E7" d="M939.718,463.409c2.627,3.954,3.813,8.526,3.553,13.725c-0.255,5.201-1.888,9.66-4.898,13.376
			c-3.006,3.759-7.071,6.302-12.192,7.628c-5.121,1.325-9.898,1.066-14.333-0.779c-1.663-0.887-3.005-2.026-4.018-3.416
			c-1.758-2.481-2.807-5.941-3.16-10.38c-0.348-4.437,0.136-8.212,1.453-11.322c0.821-1.881,1.911-3.644,3.263-5.29
			c1.368-1.67,2.896-3.091,4.58-4.264c2.794-1.896,6.401-3.107,10.823-3.631c4.424-0.52,8.009-0.149,10.764,1.115
			C937.134,460.868,938.525,461.949,939.718,463.409z M932.275,480.175c-1.307-1.074-2.699-1.667-4.174-1.781
			c-1.479-0.112-2.591,0.28-3.334,1.186c-0.765,0.931-0.941,2.111-0.545,3.536c0.398,1.427,1.252,2.676,2.561,3.75
			c1.328,1.092,2.732,1.697,4.212,1.809c1.478,0.116,2.598-0.291,3.361-1.222c0.744-0.905,0.914-2.071,0.517-3.5
			C934.47,482.527,933.606,481.267,932.275,480.175z"/>
	</g>
</g>
<g>
	<path fill="#FFFFFF" d="M484.096,1142.877l-2.491,7.544h-3.203l8.148-23.983h3.736l8.184,23.983h-3.309l-2.562-7.544H484.096z
		 M491.959,1140.457l-2.348-6.902c-0.534-1.566-0.89-2.989-1.246-4.377h-0.071c-0.356,1.423-0.747,2.882-1.21,4.341l-2.348,6.938
		H491.959z"/>
	<path fill="#FFFFFF" d="M524.122,1147.93c0,3.95-0.783,6.37-2.455,7.864c-1.672,1.565-4.092,2.063-6.263,2.063
		c-2.064,0-4.341-0.498-5.729-1.423l0.783-2.384c1.139,0.711,2.918,1.352,5.053,1.352c3.203,0,5.551-1.672,5.551-6.014v-1.921
		h-0.071c-0.96,1.601-2.811,2.882-5.48,2.882c-4.27,0-7.33-3.629-7.33-8.397c0-5.836,3.808-9.146,7.757-9.146
		c2.989,0,4.626,1.566,5.373,2.989h0.071l0.142-2.598h2.74c-0.071,1.246-0.143,2.634-0.143,4.732V1147.93z M521.026,1139.995
		c0-0.534-0.036-0.996-0.178-1.424c-0.569-1.814-2.1-3.309-4.377-3.309c-2.989,0-5.124,2.526-5.124,6.512
		c0,3.38,1.708,6.191,5.088,6.191c1.921,0,3.665-1.21,4.341-3.203c0.178-0.533,0.249-1.139,0.249-1.672V1139.995z"/>
	<path fill="#FFFFFF" d="M541.412,1146.293c0,1.495,0.071,2.954,0.285,4.128h-2.847l-0.249-2.171h-0.106
		c-0.961,1.353-2.811,2.563-5.267,2.563c-3.487,0-5.266-2.455-5.266-4.946c0-4.163,3.701-6.44,10.354-6.405v-0.355
		c0-1.424-0.391-3.985-3.914-3.985c-1.601,0-3.273,0.498-4.483,1.281l-0.712-2.064c1.423-0.925,3.487-1.53,5.658-1.53
		c5.267,0,6.547,3.595,6.547,7.046V1146.293z M538.388,1141.632c-3.416-0.071-7.294,0.534-7.294,3.879
		c0,2.028,1.352,2.988,2.953,2.988c2.242,0,3.665-1.423,4.164-2.882c0.106-0.32,0.178-0.676,0.178-0.996V1141.632z"/>
	<path fill="#FFFFFF" d="M546.462,1137.86c0-1.779-0.036-3.238-0.143-4.662h2.74l0.142,2.775h0.107
		c0.96-1.637,2.562-3.167,5.409-3.167c2.349,0,4.127,1.424,4.875,3.452h0.071c0.534-0.961,1.209-1.708,1.921-2.242
		c1.032-0.782,2.17-1.21,3.807-1.21c2.277,0,5.658,1.495,5.658,7.473v10.142h-3.061v-9.75c0-3.31-1.21-5.302-3.736-5.302
		c-1.779,0-3.167,1.316-3.701,2.847c-0.142,0.427-0.249,0.996-0.249,1.565v10.64h-3.06v-10.319c0-2.74-1.21-4.732-3.594-4.732
		c-1.957,0-3.381,1.565-3.879,3.131c-0.178,0.463-0.249,0.997-0.249,1.53v10.391h-3.06V1137.86z"/>
	<path fill="#FFFFFF" d="M577.878,1142.379c0.071,4.234,2.775,5.979,5.907,5.979c2.242,0,3.594-0.392,4.768-0.89l0.534,2.241
		c-1.103,0.498-2.989,1.104-5.729,1.104c-5.302,0-8.469-3.523-8.469-8.718c0-5.195,3.06-9.288,8.078-9.288
		c5.622,0,7.117,4.946,7.117,8.113c0,0.641-0.071,1.139-0.107,1.459H577.878z M587.059,1140.138
		c0.036-1.993-0.818-5.089-4.341-5.089c-3.167,0-4.555,2.918-4.804,5.089H587.059z"/>
	<path fill="#FFFFFF" d="M601.501,1125.156h3.097v10.817h0.07c1.104-1.921,3.096-3.167,5.872-3.167c4.27,0,7.294,3.559,7.259,8.789
		c0,6.156-3.879,9.217-7.722,9.217c-2.491,0-4.483-0.961-5.765-3.238h-0.106l-0.143,2.847h-2.704
		c0.071-1.174,0.142-2.918,0.142-4.448V1125.156z M604.598,1143.518c0,0.392,0.07,0.783,0.142,1.139
		c0.605,2.171,2.42,3.665,4.697,3.665c3.273,0,5.23-2.669,5.23-6.618c0-3.452-1.779-6.405-5.124-6.405
		c-2.135,0-4.127,1.459-4.768,3.843c-0.071,0.356-0.178,0.783-0.178,1.281V1143.518z"/>
	<path fill="#FFFFFF" d="M622.635,1133.198l3.771,10.177c0.392,1.139,0.818,2.491,1.104,3.523h0.071
		c0.32-1.032,0.676-2.349,1.103-3.594l3.416-10.106h3.31l-4.697,12.276c-2.241,5.907-3.771,8.932-5.906,10.782
		c-1.53,1.352-3.061,1.886-3.844,2.028l-0.782-2.634c0.782-0.249,1.814-0.747,2.739-1.53c0.854-0.676,1.922-1.886,2.634-3.486
		c0.143-0.32,0.249-0.569,0.249-0.748c0-0.178-0.071-0.427-0.214-0.818l-6.369-15.87H622.635z"/>
	<path fill="#FFFFFF" d="M645.901,1126.758c1.886-0.284,4.128-0.498,6.583-0.498c4.448,0,7.615,1.032,9.715,2.989
		c2.135,1.957,3.38,4.732,3.38,8.611c0,3.914-1.21,7.116-3.451,9.322c-2.242,2.242-5.942,3.452-10.604,3.452
		c-2.206,0-4.057-0.107-5.622-0.285V1126.758z M648.997,1147.966c0.783,0.143,1.922,0.178,3.132,0.178
		c6.618,0,10.212-3.7,10.212-10.177c0.036-5.658-3.167-9.252-9.714-9.252c-1.602,0-2.812,0.143-3.63,0.32V1147.966z"/>
	<path fill="#FFFFFF" d="M681.589,1146.293c0,1.495,0.071,2.954,0.284,4.128h-2.847l-0.249-2.171h-0.106
		c-0.961,1.353-2.812,2.563-5.267,2.563c-3.487,0-5.267-2.455-5.267-4.946c0-4.163,3.701-6.44,10.355-6.405v-0.355
		c0-1.424-0.392-3.985-3.915-3.985c-1.601,0-3.273,0.498-4.483,1.281l-0.711-2.064c1.423-0.925,3.487-1.53,5.657-1.53
		c5.267,0,6.548,3.595,6.548,7.046V1146.293z M678.564,1141.632c-3.416-0.071-7.295,0.534-7.295,3.879
		c0,2.028,1.352,2.988,2.953,2.988c2.242,0,3.665-1.423,4.163-2.882c0.107-0.32,0.179-0.676,0.179-0.996V1141.632z"/>
	<path fill="#FFFFFF" d="M701.513,1125.156v20.816c0,1.53,0.035,3.274,0.143,4.448h-2.812l-0.143-2.989h-0.071
		c-0.96,1.922-3.06,3.381-5.871,3.381c-4.163,0-7.365-3.523-7.365-8.754c-0.036-5.729,3.522-9.252,7.722-9.252
		c2.633,0,4.412,1.246,5.194,2.634h0.071v-10.284H701.513z M698.381,1140.208c0-0.391-0.035-0.925-0.142-1.316
		c-0.463-1.992-2.171-3.629-4.52-3.629c-3.238,0-5.159,2.847-5.159,6.653c0,3.487,1.708,6.37,5.088,6.37
		c2.1,0,4.021-1.388,4.591-3.736c0.106-0.427,0.142-0.854,0.142-1.353V1140.208z"/>
	<path fill="#FFFFFF" d="M708.447,1142.379c0.071,4.234,2.775,5.979,5.907,5.979c2.242,0,3.594-0.392,4.769-0.89l0.533,2.241
		c-1.103,0.498-2.989,1.104-5.729,1.104c-5.302,0-8.469-3.523-8.469-8.718c0-5.195,3.06-9.288,8.077-9.288
		c5.622,0,7.116,4.946,7.116,8.113c0,0.641-0.07,1.139-0.106,1.459H708.447z M717.628,1140.138c0.036-1.993-0.818-5.089-4.341-5.089
		c-3.167,0-4.555,2.918-4.804,5.089H717.628z"/>
</g>
</svg>
