<?xml version="1.0" encoding="utf-8"?>
<!-- Generator: Adobe Illustrator 13.0.0, SVG Export Plug-In . SVG Version: 6.00 Build 14948)  -->
<!DOCTYPE svg PUBLIC "-//W3C//DTD SVG 1.1//EN" "http://www.w3.org/Graphics/SVG/1.1/DTD/svg11.dtd">
<svg version="1.1" id="Livello_1" xmlns="http://www.w3.org/2000/svg" xmlns:xlink="http://www.w3.org/1999/xlink" x="0px" y="0px"
	 width="1200px" height="1200px" viewBox="0 0 1200 1200" enable-background="new 0 0 1200 1200" xml:space="preserve">
<title>Skullory Splash Template</title>
<desc>Template vuoto con sfondo gradiente per creare il logo</desc>
<radialGradient id="SVGID_1_" cx="-2.5063" cy="-0.1948" r="0.7002" gradientTransform="matrix(1200 0 0 1200 3607.5 714.5)" gradientUnits="userSpaceOnUse">
	<stop  offset="0" style="stop-color:#2B335C"/>
	<stop  offset="1" style="stop-color:#141724"/>
</radialGradient>
<rect fill="url(#SVGID_1_)" width="1200" height="1200"/>
<g>
	<g>
		<g>
			<path fill="#E8F900" d="M899.223,442.562c-4.503,5.566-291.007,357.633-417.308,510.797l-0.068,0.043
				c-34.98,42.444-57.73,69.649-58.727,69.959c-4.785,1.646,220.629-426.935,220.629-426.935s-0.067,0.064-0.141,0.064
				c-0.064,0-0.064,0.074-0.202,0.141L342.242,753.555c4.251-5.289,276.046-344.592,411.842-512.521
				c43.732-54.21,73.384-90.53,75.313-92.112L607.253,561.597l63.579-25.918c0.039-0.036,0.039-0.036,0.057-0.036L899.223,442.562z"
				/>
		</g>
	</g>
	<g>
		<path fill="#E8FF7F" d="M899.223,442.562c-4.503,5.566-291.007,357.633-417.308,510.797l-0.068,0.043l-33.575,28.037
			l359.445-470.084L612.608,571.15c1.417-0.912,24.151-14.785,58.187-35.474c0.037-0.036,0.037-0.036,0.073-0.036L899.223,442.562z"
			/>
	</g>
	<g>
		<path fill="#E8FF7F" d="M442.301,670.039l201.313-73.545c-0.066,0-0.066,0.07-0.204,0.139l-301.2,156.961
			c0,0,275.01-343.326,411.875-512.56l11.819,5.307L442.301,670.039z"/>
	</g>
	<g>
		<path fill="#E8F900" d="M643.748,585.539c2.819,0,5.638,1.133,7.761,3.201c3.369,3.434,4.13,8.582,1.927,12.815
			C596.26,710.232,519.638,856.714,473.597,946.359c95.175-115.521,284.5-347.732,390.266-477.543L611.386,571.691
			c-4.267,1.752-9.146,0.612-12.243-2.814c-3.091-3.436-3.708-8.424-1.511-12.448L766.14,243.52
			c-95.007,117.447-264.848,329.14-382.918,476.435l255.513-133.142C640.286,585.979,642.038,585.539,643.748,585.539z"/>
	</g>
</g>
<g>
	<path fill="#1D2033" d="M497.306,1028.225c0.094,0.035,0.094,0.285,0.007,0.752c-0.084,0.472-0.223,1.229-0.403,2.275
		c-0.272,1.254-0.697,2.719-1.281,4.4c-0.627,1.875-1.188,3.19-1.686,3.94c-1.054,1.568-1.962,2.521-2.729,2.853
		c-0.767,0.327-1.914,0.323-3.436-0.011c-1.323-0.285-2.571-0.711-3.743-1.272l-0.011,0.229c0.152,4.92-0.031,8.28-0.555,10.084
		c-0.464,1.536-0.855,2.477-1.172,2.813c-1.456,1.479-4.074,2.666-7.854,3.551c-3.785,0.886-6.532,1.009-8.238,0.363
		c-0.682-0.234-1.506-0.597-2.473-1.072c-1.201-0.627-2.696-1.67-4.484-3.139c-3.96-3.252-7.133-6.537-9.521-9.855
		c-0.563-0.816-1.055-1.582-1.474-2.286c-0.246-0.479,0.245-1.73,1.469-3.763c1.226-2.03,2.698-4.016,4.416-5.959
		c1.829-2.088,3.34-3.684,4.526-4.785c1.081-1.028,1.858-1.346,2.338-0.954c0.189,0.157,0.377,0.366,0.557,0.638
		c0.705,1.181,1.749,2.95,3.119,5.314c2.729,4.556,5.932,8.563,9.604,12.013c1.645,1.552,2.938,2.479,3.89,2.772
		c0.249,0.09,0.484,0.043,0.71-0.134c0.226-0.178,0.354-0.407,0.395-0.692c0.403-2.822,0.313-5.474-0.274-7.955l-0.528-0.373
		c-2.27-1.502-4.567-3.211-6.896-5.123c-2.805-2.303-4.496-3.928-5.067-4.881c-0.499-0.846-0.654-1.791-0.473-2.842
		c0.642-3.545,1.871-7.05,3.68-10.513c1.421-2.703,2.533-4.549,3.337-5.524c0.116-0.146,0.198-0.195,0.246-0.158
		c0.17,0.138,0.354,0.272,0.566,0.406c-0.074-0.062,2.296,2.123,7.104,6.551c1.47,1.365,2.949,2.664,4.446,3.894
		C488.984,1022.711,492.95,1025.524,497.306,1028.225z"/>
	<path fill="#1D2033" d="M500.218,978.336c5.142,6.334,10.606,11.879,16.401,16.641c1.265,1.035,2.563,2.104,3.896,3.197
		c0.219,0.178,0.837,0.611,1.874,1.297c-1.242,4.771-3.374,9.07-6.396,12.896c-1.675,2.139-3.529,3.188-5.576,3.145
		c-5.011-0.559-9.978-1.34-14.899-2.348c2.574,3.19,5.312,6.057,8.214,8.6c0.574,0.515,1.172,0.979,1.782,1.402
		c0.867,0.596,1.269,0.858,1.198,0.803c0.096,0.121-0.104,0.396-0.61,0.814c-0.565,0.494-1.032,0.891-1.397,1.188
		c-0.938,0.707-1.696,1.084-2.274,1.125c-0.572,0.049-1.25-0.227-2.033-0.834c-4.559-3.496-8.765-7.588-12.622-12.272l-3.579-4.316
		c-0.097-0.076-0.383-0.195-0.855-0.344c-1.132-0.328-2.352-0.83-3.666-1.513c0.127-0.692,0.329-1.741,0.606-3.153
		c0.463-1.974,1.387-4.361,2.765-7.16c1.384-2.799,2.825-5.117,4.333-6.955c0.509-0.619,0.993-1.139,1.458-1.559
		c0.18-0.168,0.357-0.267,0.528-0.281c0.067,0.018,0.342,0.141,0.828,0.377c0.271,0.106,1.766,1.33,4.472,3.674
		c2.613,2.266,5.398,4.148,8.354,5.65c3.63,1.811,6.925,2.684,9.889,2.619c0.286-0.007,0.461-0.021,0.523-0.056
		c0.021-0.021,0.018-0.045-0.005-0.063c-2.055-1.877-5.216-4.762-9.489-8.652c-1.457-1.385-3.661-3.389-6.62-6.012
		c-0.456-0.371-0.935-0.764-1.433-1.172c0.093-0.408,0.215-0.822,0.365-1.256c0.727-1.806,1.771-3.439,3.139-4.912
		c0.261-0.271,0.501-0.486,0.726-0.666C500.134,978.266,500.171,978.295,500.218,978.336z"/>
	<path fill="#1D2033" d="M559.894,938.396c0.456,0.177,0.935,0.468,1.436,0.884c1.047,0.854,1.772,1.75,2.172,2.678
		c0.637,1.557,0.763,3.643,0.384,6.242c-0.313,2.18-0.879,4.209-1.702,6.086c-1.42,3.188-3.168,6.049-5.238,8.578
		c-3.7,4.506-8.352,7.896-13.934,10.184c-2.741,1.101-5.46,1.469-8.146,1.092c-1.42-0.209-2.658-0.744-3.708-1.604
		c-1.574-1.295-2.732-3.24-3.471-5.843c-0.604-2.135-0.896-4.43-0.875-6.889c0.122-7.926,2.186-15.717,6.188-23.367
		c1.291-2.446,2.452-4.271,3.477-5.471c0.257-0.266,0.601-0.439,1.034-0.531c1.78-0.371,4.251-0.006,7.421,1.101
		c3.165,1.102,5.675,2.473,7.521,4.106c1.064,0.994,1.62,1.605,1.666,1.847c0.004,0.084-0.006,0.151-0.046,0.198
		c-6.515,7.595-10.444,14.541-11.795,20.861c-0.946,4.41-0.872,7.068,0.222,7.967c0.575,0.474,1.465,0.381,2.673-0.26
		c1.936-1.051,3.963-2.857,6.077-5.434c1.19-1.453,2.025-2.709,2.492-3.767c0.362-0.733,0.405-1.203,0.122-1.395
		c-1.373-0.812-2.541-0.912-3.516-0.313c-0.209,0.111-1.099,0.779-2.667,2.004c-0.812,0.65-1.336,0.879-1.575,0.687
		c-0.188-0.16-0.109-0.549,0.244-1.174c0.222-0.468,0.563-1.101,1.03-1.912c1.964-3.219,4.252-6.591,6.862-10.113
		c1.689-2.248,3.372-4.299,5.053-6.156C559.513,938.424,559.711,938.324,559.894,938.396z"/>
	<path fill="#1D2033" d="M556.976,907.736c0.189,0.153,0.484,0.459,0.881,0.896c5.468,6.568,11.294,12.869,17.479,18.902
		c1.379,1.338,2.818,2.574,4.313,3.721c-2.271,5.443-3.831,8.531-4.681,9.275c-0.789,0.668-1.933,0.768-3.422,0.301
		c-4.275-1.309-9.166-4.229-14.675-8.75c-3.721-3.055-7.183-6.377-10.384-9.967c-0.403-0.525-0.606-0.814-0.615-0.857l0.236-0.647
		c0.957-2.769,2.765-5.777,5.425-9.021c1.155-1.406,2.223-2.48,3.202-3.232c0.467-0.377,0.827-0.62,1.076-0.737
		C556.217,907.469,556.602,907.51,556.976,907.736z"/>
	<path fill="#1D2033" d="M600.592,885.389c2.623,3.955,3.81,8.529,3.55,13.729c-0.254,5.199-1.889,9.658-4.896,13.375
		c-3.009,3.758-7.072,6.303-12.192,7.627c-5.121,1.326-9.896,1.07-14.332-0.777c-1.667-0.889-3.009-2.027-4.021-3.418
		c-1.755-2.479-2.81-5.938-3.156-10.379c-0.351-4.438,0.135-8.213,1.449-11.324c0.824-1.879,1.913-3.641,3.264-5.287
		c1.371-1.67,2.896-3.09,4.583-4.264c2.794-1.896,6.4-3.109,10.819-3.633c4.425-0.521,8.011-0.148,10.767,1.117
		C598.004,882.852,599.396,883.932,600.592,885.389z M593.146,902.156c-1.31-1.072-2.698-1.666-4.179-1.781
		c-1.479-0.111-2.589,0.283-3.334,1.188c-0.764,0.929-0.94,2.109-0.541,3.533c0.397,1.431,1.25,2.679,2.56,3.748
		c1.328,1.096,2.731,1.697,4.211,1.812c1.479,0.116,2.599-0.291,3.359-1.222c0.744-0.903,0.918-2.069,0.518-3.502
		C595.343,904.508,594.477,903.25,593.146,902.156z"/>
	<path fill="#1D2033" d="M632.917,863.303c0.346,0.849,0.037,2.521-0.923,5.021c-0.957,2.508-2.186,4.866-3.676,7.069
		c-0.782,1.195-1.62,2.347-2.521,3.441c-2.938,3.576-6.027,6.291-9.264,8.143c-3.487,2.011-6.48,2.566-8.979,1.677
		c-0.799-0.298-1.603-0.775-2.414-1.441c-1.67-1.369-3.188-3.313-4.552-5.834c-1.771-3.332-2.843-7.043-3.2-11.131
		c-0.36-3.932-0.056-7.807,0.927-11.633c1.051-4.056,2.723-7.906,5.015-11.578c0.095-0.158,0.185-0.246,0.271-0.254
		c2.534-0.314,5.36,0.086,8.473,1.207c2.934,1.049,5.396,2.471,7.396,4.268c0.212,0.181,0.466,0.404,0.752,0.687
		c-0.151,0.188-0.291,0.354-0.409,0.5c-1.547,1.885-2.936,4.77-4.166,8.646c-1.229,3.881-1.836,7.125-1.816,9.734
		c0.063,3.325,0.515,5.33,1.348,6.016c0.813,0.664,2.029,0.49,3.663-0.523c1.905-1.149,3.778-3.12,5.635-5.911
		c0.708-1.062,1.434-2.38,2.179-3.964c1.1-2.411,1.729-4.323,1.898-5.745c0.061-0.511,0.223-0.779,0.481-0.81
		c1.005-0.008,1.983,0.377,2.938,1.162C632.449,862.44,632.765,862.858,632.917,863.303z"/>
	<path fill="#1D2033" d="M634.878,811.678c0.515,0.781,1.335,1.974,2.455,3.572c4.475,6.025,9.432,11.271,14.87,15.731
		c1.382,1.14,2.842,2.279,4.378,3.421c0.284,0.188,1.278,0.852,2.99,1.975c-0.347,1.195-0.917,2.283-1.72,3.264
		c-0.728,0.88-1.394,1.23-2.003,1.054c-0.604-0.185-1.993-1-4.152-2.455c-3.855-2.646-7.509-5.586-10.963-8.816
		c-0.787,1.787-2.269,4.27-4.434,7.438c-0.323,0.493-0.313,0.896,0.021,1.214c1.341,1.342,2.688,2.563,4.05,3.68
		c2.768,2.272,5.883,4.336,9.354,6.188c-1.095,2.259-2.111,4.179-3.056,5.759c-0.679,1.12-1.3,2.022-1.866,2.721
		c-1.057,1.285-2.164,2.053-3.327,2.299c-1.736,0.367-4.596-0.604-8.573-2.908c-3.021-1.719-5.582-3.481-7.688-5.295l-4.456-3.836
		c-2.063-1.77-4.17-3.941-6.332-6.516c-0.17-0.181,0.06-1.092,0.688-2.732c1.244-3.166,3.209-6.387,5.893-9.654
		c1.04-1.262,2.021-2.311,2.944-3.149c0.226-0.172,0.363-0.273,0.433-0.303c0.062-0.029,0.188,0.014,0.371,0.125
		c0.691,0.327,2.538,2.481,5.534,6.463l2.01,2.662c0.885-2.349,2.137-4.55,3.756-6.617c0.682-0.881,0.886-1.467,0.611-1.771
		l-6.177-7.281c-0.521-0.625-0.987-1.25-1.398-1.868c0.048-0.158,0.122-0.32,0.218-0.482c1.495-2.161,3.084-3.495,4.771-3.986
		C634.417,811.438,634.684,811.475,634.878,811.678z"/>
	<path fill="#1D2033" d="M648.901,795.762c0.188,0.154,0.479,0.457,0.88,0.902c5.465,6.563,11.294,12.865,17.479,18.896
		c1.381,1.338,2.82,2.576,4.313,3.724c-2.271,5.438-3.83,8.526-4.682,9.271c-0.789,0.668-1.932,0.773-3.424,0.31
		c-4.271-1.313-9.166-4.229-14.674-8.75c-3.722-3.06-7.184-6.381-10.385-9.97c-0.403-0.528-0.604-0.813-0.612-0.856l0.235-0.646
		c0.954-2.771,2.763-5.774,5.423-9.021c1.154-1.408,2.225-2.486,3.202-3.24c0.467-0.377,0.825-0.617,1.079-0.73
		C648.143,795.494,648.526,795.533,648.901,795.762z"/>
	<path fill="#1D2033" d="M673.874,766.797c5.146,6.334,10.608,11.885,16.402,16.639c1.268,1.041,2.564,2.105,3.897,3.203
		c0.215,0.179,0.837,0.609,1.875,1.295c-1.243,4.771-3.378,9.07-6.396,12.896c-1.679,2.137-3.532,3.188-5.579,3.146
		c-5.01-0.559-9.979-1.344-14.896-2.352c2.57,3.189,5.311,6.059,8.211,8.598c0.578,0.519,1.169,0.984,1.783,1.406
		c0.865,0.594,1.27,0.861,1.195,0.803c0.099,0.125-0.104,0.396-0.608,0.818c-0.566,0.49-1.03,0.887-1.396,1.188
		c-0.938,0.709-1.696,1.082-2.274,1.127c-0.575,0.05-1.253-0.229-2.038-0.834c-4.555-3.5-8.761-7.592-12.62-12.274l-3.578-4.316
		c-0.098-0.078-0.384-0.19-0.854-0.344c-1.133-0.328-2.354-0.832-3.668-1.512c0.127-0.695,0.33-1.744,0.608-3.154
		c0.465-1.971,1.384-4.363,2.765-7.16c1.381-2.801,2.823-5.117,4.334-6.957c0.507-0.616,0.992-1.137,1.458-1.555
		c0.181-0.17,0.354-0.266,0.53-0.285c0.066,0.021,0.339,0.146,0.824,0.383c0.275,0.104,1.769,1.328,4.475,3.668
		c2.607,2.269,5.396,4.15,8.354,5.65c3.629,1.814,6.922,2.688,9.885,2.625c0.285-0.008,0.463-0.027,0.522-0.057
		c0.021-0.023,0.021-0.045-0.006-0.063c-2.051-1.879-5.213-4.764-9.487-8.652c-1.455-1.387-3.663-3.389-6.621-6.01
		c-0.451-0.375-0.931-0.764-1.433-1.176c0.097-0.406,0.218-0.822,0.368-1.256c0.725-1.803,1.77-3.438,3.141-4.908
		c0.257-0.27,0.5-0.488,0.726-0.666C673.792,766.729,673.828,766.76,673.874,766.797z"/>
	<path fill="#1D2033" d="M716.804,743.828c2.624,3.953,3.812,8.528,3.554,13.729c-0.256,5.201-1.892,9.658-4.897,13.375
		c-3.009,3.761-7.071,6.306-12.192,7.627c-5.119,1.326-9.896,1.066-14.334-0.774c-1.664-0.892-3.006-2.027-4.021-3.42
		c-1.754-2.48-2.806-5.938-3.157-10.379c-0.349-4.439,0.139-8.215,1.451-11.322c0.821-1.879,1.914-3.646,3.264-5.287
		c1.371-1.67,2.896-3.09,4.581-4.266c2.796-1.896,6.403-3.107,10.82-3.634c4.425-0.52,8.012-0.147,10.768,1.115
		C714.218,741.287,715.608,742.369,716.804,743.828z M709.361,760.594c-1.311-1.067-2.698-1.664-4.18-1.78
		c-1.479-0.109-2.589,0.28-3.334,1.188c-0.764,0.932-0.939,2.111-0.54,3.537c0.396,1.424,1.25,2.676,2.56,3.748
		c1.327,1.092,2.73,1.692,4.21,1.809c1.479,0.116,2.601-0.291,3.361-1.221c0.745-0.908,0.919-2.072,0.519-3.5
		C711.556,762.947,710.689,761.686,709.361,760.594z"/>
	<path fill="#1D2033" d="M761.288,692.197c0.528,0.229,0.981,0.504,1.363,0.813c1.053,0.865,1.567,2.371,1.563,4.521
		c-0.018,2.307-0.688,5.414-2.024,9.33c-1.336,3.911-2.902,7.446-4.696,10.604c-1.457,2.552-3.104,4.953-4.949,7.195
		c-1.563,1.908-2.704,3.006-3.426,3.295c-2.806,1.09-4.683,1.504-5.631,1.246c-0.429-0.111-1.313-0.537-2.66-1.285
		c-1.646-0.912-3.822-2.342-6.537-4.289c-0.625-0.553-1.396-1.166-2.315-1.844c-0.285,0.004-0.735-0.006-1.354-0.033
		c-1.824-0.063-4.235-1.326-7.242-3.795c-0.856-0.703-1.797-1.531-2.81-2.482c-0.724-0.631-1.44-1.262-2.163-1.893
		c-0.877-0.922-1.139-1.656-0.771-2.195c1.833-2.766,4.086-5.486,6.761-8.162c3.214-3.229,6.562-5.994,10.037-8.285
		c4.299-2.854,8.267-4.596,11.888-5.217c1.596-0.286,3.971-0.176,7.118,0.336C756.585,690.57,759.203,691.283,761.288,692.197z
		 M755.771,701.979c-1.613-0.364-4.578,1.271-8.89,4.923c-3.464,2.901-6.021,5.416-7.683,7.528
		c-0.934,1.188-1.453,1.818-1.555,1.896c-0.139,0.17-0.237,0.338-0.297,0.508c-0.063,0.17,0.533,0.764,1.771,1.781
		c2.054,1.684,3.804,2.979,5.25,3.891c0.747,0.455,1.469,0.785,2.172,1.004c1.337-1.141,2.461-2.27,3.384-3.389
		c1.78-2.172,3.383-4.738,4.802-7.707c1.418-2.969,2.283-5.521,2.6-7.656c0.16-1.068-0.084-1.869-0.728-2.396
		C756.36,702.164,756.087,702.037,755.771,701.979z"/>
	<path fill="#1D2033" d="M758.563,662.178c0.19,0.156,0.487,0.455,0.881,0.9c5.469,6.563,11.296,12.867,17.48,18.896
		c1.38,1.336,2.815,2.576,4.313,3.726c-2.271,5.438-3.833,8.533-4.681,9.271c-0.792,0.668-1.932,0.773-3.422,0.308
		c-4.273-1.312-9.165-4.229-14.674-8.75c-3.722-3.056-7.187-6.378-10.385-9.97c-0.403-0.526-0.606-0.813-0.615-0.854l0.235-0.646
		c0.955-2.771,2.765-5.776,5.427-9.021c1.155-1.406,2.222-2.484,3.201-3.238c0.464-0.377,0.823-0.617,1.075-0.73
		C757.804,661.912,758.189,661.949,758.563,662.178z"/>
	<path fill="#1D2033" d="M811.6,647.326c-0.229,1.008-0.405,1.662-0.528,1.959c-0.126,0.297-0.354,0.891-0.683,1.772
		c-1.104,3.052-2.858,6.039-5.268,8.972c-1.396,1.694-2.624,2.854-3.705,3.489c-0.581,0.32-1.014,0.507-1.294,0.556
		c-0.515,0.094-1.008,0.11-1.476,0.045c-0.909-0.15-2.15-0.392-3.722-0.717c-2.819-0.603-5.938-1.38-9.342-2.339
		c-0.133-0.03-0.303-0.069-0.503-0.116c-0.151,0.036-0.438,0.344-0.864,0.909l-3.616,4.693c-0.502,0.664-0.563,1.396-0.181,2.188
		c1.971,3.973,4.192,7.657,6.679,11.053c0.077,0.102,0.337,0.395,0.775,0.875c-1.014,1.283-2.216,2.215-3.604,2.789
		c-0.396,0.192-0.837,0.25-1.313,0.18c-0.479-0.074-0.817-0.254-1.024-0.541c-0.349-0.445-0.688-0.885-1.016-1.313
		c-1.886-2.664-3.841-6.287-5.872-10.867c-1.317-2.961-2.558-6.049-3.708-9.271c-0.146-0.399-0.401-0.672-0.77-0.811
		c-0.995-0.342-2.236-0.484-3.728-0.422c-1.354,0.045-2.078,0.022-2.175-0.052c-0.069-0.061-0.09-0.135-0.057-0.229
		c1.55-6.555,3.826-12.926,6.834-19.121c0.13-0.254,0.276-0.432,0.441-0.537c0.145-0.08,0.928-0.153,2.348-0.229
		c4.008-0.267,9.66,0.244,16.953,1.521c7.295,1.277,13.401,2.841,18.315,4.677c0.799,0.299,1.435,0.541,1.914,0.733
		C811.491,647.24,811.552,647.285,811.6,647.326z M780.354,660l-2.737-0.31c-0.09-0.036-0.261-0.053-0.502-0.051
		c-0.396,0-0.482,0.271-0.27,0.813c0.973,2.422,1.482,3.649,1.526,3.688c0.06,0.035,0.102,0.063,0.128,0.08
		c0.039-0.045,0.079-0.092,0.116-0.141c0.252-0.354,0.622-0.928,1.115-1.723c0.187-0.324,0.479-0.81,0.877-1.435
		C780.925,660.348,780.839,660.041,780.354,660z"/>
	<path fill="#1D2033" d="M823.696,602.465c1.331,1.295,1.014,4.722-0.964,10.285c-0.625,1.84-1.438,3.848-2.433,6.026l0.524-0.348
		c1.152-0.771,2.521-1.305,4.101-1.604c1.586-0.297,2.8-0.234,3.652,0.186c1.061,0.508,1.729,1.078,2.011,1.709
		c0.563,1.264,0.691,2.707,0.395,4.34c-0.485,2.638-1.636,5.66-3.448,9.082c-1.646,3.121-3.438,5.916-5.393,8.394
		c-1.271,1.553-2.146,2.471-2.624,2.756c-2.984,1.699-5.021,2.326-6.096,1.883c-1.248-0.666-2.646-1.611-4.192-2.842l-10.556-8.662
		c-0.046-0.043-0.093-0.08-0.145-0.119c-0.047-0.041-0.385,0.156-1.016,0.586c-0.353,0.229-0.725,0.451-1.128,0.677
		c-0.401,0.227-1.121,0.065-2.157-0.472c-2.58-1.281-5.09-2.848-7.526-4.691c-1.918-1.455-3.073-2.428-3.476-2.912
		c1.904-3.348,4.043-6.466,6.414-9.35c4.053-4.938,8.387-8.902,13-11.898c5.244-3.364,10.147-4.987,14.721-4.866
		C820.419,600.69,822.531,601.307,823.696,602.465z M815.919,617.037c-0.317-0.338-0.74-0.506-1.267-0.498
		c-0.72,0.049-2.02,0.826-3.896,2.338c-1.877,1.514-3.532,3.117-4.967,4.813c-0.85,0.979-1.511,1.84-1.988,2.563
		c-0.176,0.215-0.503,0.762-0.986,1.646c1.485,1.934,3.123,3.653,4.916,5.17c0.389,0.356,1.166-0.183,2.342-1.613
		c1.229-1.502,2.473-3.445,3.719-5.838c1.24-2.396,1.979-4.234,2.199-5.529C816.271,618.484,816.249,617.467,815.919,617.037z
		 M823.277,624.998c-0.715-0.586-1.764-0.447-3.146,0.41c-0.951,0.573-1.902,1.346-2.861,2.313c-0.7,0.705-1.34,1.416-1.929,2.131
		c-1.528,1.861-2.854,3.945-3.989,6.248c-0.076,0.144,0.629,0.814,2.106,2.027c0.55,0.451,1.313,1.002,2.3,1.648
		c0.563,0.383,1.53-0.263,2.9-1.933c1.097-1.336,2.171-2.967,3.216-4.899c1.051-1.938,1.719-3.563,2.005-4.892
		C824.217,626.584,824.015,625.561,823.277,624.998z"/>
	<path fill="#1D2033" d="M857.598,572.324c2.625,3.953,3.809,8.524,3.555,13.729c-0.256,5.199-1.893,9.658-4.897,13.375
		c-3.01,3.758-7.071,6.305-12.192,7.627c-5.12,1.326-9.896,1.066-14.334-0.776c-1.664-0.89-3.006-2.027-4.019-3.418
		c-1.757-2.482-2.813-5.938-3.16-10.384c-0.349-4.436,0.14-8.211,1.451-11.317c0.823-1.879,1.914-3.646,3.265-5.287
		c1.37-1.67,2.896-3.092,4.58-4.264c2.799-1.897,6.401-3.111,10.821-3.636c4.422-0.521,8.012-0.148,10.769,1.116
		C855.012,569.784,856.402,570.863,857.598,572.324z M850.152,589.09c-1.308-1.068-2.698-1.664-4.177-1.781
		c-1.479-0.108-2.592,0.279-3.331,1.188c-0.766,0.93-0.945,2.107-0.541,3.535c0.396,1.426,1.25,2.678,2.558,3.748
		c1.327,1.092,2.73,1.694,4.211,1.811c1.479,0.115,2.6-0.291,3.36-1.223c0.741-0.906,0.918-2.072,0.515-3.498
		C852.35,591.443,851.48,590.182,850.152,589.09z"/>
	<path fill="#1D2033" d="M882.927,555.989c0.651,0.374,1.183,0.849,1.586,1.421c0.158,0.252,0.201,0.467,0.134,0.646
		c0,0.047-0.146,0.348-0.438,0.896c-1.781,3.29-3.742,7.433-5.884,12.423l-0.504,1.195c-0.268,0.666-0.81,1.196-1.62,1.606
		c-1.061,0.607-2.604,1.478-4.646,2.598c-0.313,0.14-0.569,0.187-0.772,0.144c-0.362-0.144-0.768-0.334-1.208-0.576
		c-5.521-3.092-11.252-7.079-17.19-11.956c-1.719-1.41-3.055-2.604-4.003-3.587c-1.093-1.097-2.228-2.266-3.403-3.511
		c1.224-3.87,3.043-7.281,5.473-10.24c0.395-0.479,0.806-0.956,1.24-1.438c0.911-0.97,1.584-1.636,2.007-2.003
		c0.772-0.604,1.608-1.034,2.502-1.303c3.858,5.563,8.416,11.074,13.665,16.545c1.979,2.068,3.551,3.558,4.713,4.474
		c0.357,0.297,0.588,0.438,0.687,0.44c0.104,0,0.322-0.137,0.671-0.413c0.204-0.146,0.73-0.794,1.586-1.929
		c2.879-3.704,4.549-5.588,4.997-5.656C882.556,555.76,882.692,555.838,882.927,555.989z"/>
	<path fill="#1D2033" d="M874.102,521.437c0.19,0.156,0.487,0.457,0.879,0.9c5.468,6.567,11.299,12.866,17.481,18.901
		c1.381,1.336,2.816,2.573,4.313,3.721c-2.272,5.439-3.832,8.532-4.683,9.272c-0.789,0.668-1.93,0.771-3.421,0.304
		c-4.275-1.311-9.167-4.229-14.675-8.751c-3.72-3.055-7.187-6.375-10.386-9.967c-0.403-0.527-0.605-0.815-0.612-0.858l0.233-0.646
		c0.953-2.77,2.765-5.777,5.43-9.021c1.15-1.407,2.221-2.484,3.197-3.239c0.465-0.377,0.828-0.616,1.078-0.731
		C873.344,521.171,873.729,521.212,874.102,521.437z"/>
	<path fill="#1D2033" d="M920.585,512.888c0.347,0.845,0.039,2.52-0.922,5.023c-0.959,2.507-2.185,4.863-3.679,7.068
		c-0.784,1.193-1.622,2.343-2.522,3.438c-2.936,3.578-6.021,6.291-9.262,8.146c-3.487,2.009-6.479,2.563-8.979,1.672
		c-0.798-0.295-1.603-0.776-2.41-1.439c-1.672-1.373-3.188-3.313-4.553-5.833c-1.775-3.334-2.845-7.044-3.202-11.13
		c-0.361-3.933-0.055-7.813,0.929-11.635c1.051-4.052,2.721-7.907,5.013-11.577c0.094-0.16,0.186-0.247,0.271-0.256
		c2.534-0.315,5.359,0.085,8.477,1.206c2.932,1.05,5.395,2.473,7.391,4.271c0.219,0.18,0.471,0.403,0.758,0.688
		c-0.154,0.188-0.291,0.354-0.408,0.499c-1.547,1.884-2.936,4.768-4.164,8.646c-1.23,3.881-1.842,7.127-1.821,9.732
		c0.063,3.328,0.512,5.332,1.347,6.018c0.813,0.664,2.033,0.491,3.666-0.521c1.901-1.151,3.779-3.123,5.63-5.913
		c0.712-1.06,1.438-2.378,2.181-3.968c1.102-2.407,1.731-4.322,1.898-5.742c0.063-0.513,0.224-0.777,0.479-0.806
		c1.007-0.011,1.987,0.374,2.94,1.158C920.116,512.024,920.434,512.443,920.585,512.888z"/>
	<path fill="#1D2033" d="M941.738,469.829c2.627,3.954,3.813,8.525,3.554,13.725c-0.256,5.201-1.889,9.66-4.897,13.376
		c-3.007,3.761-7.07,6.304-12.191,7.628c-5.12,1.325-9.897,1.066-14.333-0.776c-1.663-0.89-3.005-2.026-4.019-3.416
		c-1.759-2.481-2.808-5.941-3.159-10.38c-0.35-4.438,0.136-8.215,1.452-11.322c0.82-1.881,1.91-3.646,3.264-5.29
		c1.368-1.67,2.896-3.091,4.58-4.265c2.794-1.896,6.399-3.106,10.822-3.633c4.425-0.52,8.01-0.146,10.765,1.115
		C939.154,467.288,940.546,468.369,941.738,469.829z M934.296,486.595c-1.308-1.074-2.699-1.667-4.174-1.781
		c-1.479-0.109-2.592,0.28-3.334,1.188c-0.767,0.931-0.941,2.111-0.546,3.536c0.396,1.427,1.253,2.676,2.562,3.75
		c1.328,1.092,2.731,1.697,4.212,1.809c1.479,0.116,2.6-0.291,3.36-1.222c0.744-0.905,0.914-2.071,0.519-3.5
		C936.49,488.947,935.626,487.687,934.296,486.595z"/>
</g>
<g>
	<path fill="#FFFFFF" d="M484.096,1142.877l-2.488,7.544h-3.203l8.146-23.983h3.736l8.184,23.983h-3.309l-2.563-7.544H484.096z
		 M491.959,1140.457l-2.348-6.902c-0.534-1.563-0.893-2.986-1.246-4.377h-0.071c-0.356,1.423-0.747,2.882-1.21,4.341l-2.348,6.938
		H491.959z"/>
	<path fill="#FFFFFF" d="M524.122,1147.93c0,3.95-0.783,6.37-2.455,7.864c-1.672,1.565-4.092,2.063-6.263,2.063
		c-2.064,0-4.342-0.498-5.729-1.423l0.783-2.387c1.139,0.711,2.918,1.354,5.053,1.354c3.203,0,5.552-1.672,5.552-6.017v-1.921
		h-0.069c-0.96,1.604-2.813,2.882-5.48,2.882c-4.27,0-7.33-3.629-7.33-8.396c0-5.836,3.811-9.146,7.76-9.146
		c2.986,0,4.626,1.566,5.372,2.989h0.069l0.145-2.598h2.737c-0.068,1.246-0.143,2.634-0.143,4.729L524.122,1147.93L524.122,1147.93z
		 M521.026,1139.995c0-0.534-0.036-0.996-0.181-1.424c-0.566-1.814-2.1-3.312-4.377-3.312c-2.986,0-5.124,2.526-5.124,6.515
		c0,3.38,1.708,6.188,5.088,6.188c1.923,0,3.665-1.21,4.344-3.203c0.178-0.532,0.249-1.139,0.249-1.672L521.026,1139.995
		L521.026,1139.995z"/>
	<path fill="#FFFFFF" d="M541.412,1146.293c0,1.495,0.071,2.954,0.285,4.128h-2.85l-0.249-2.171h-0.104
		c-0.961,1.353-2.813,2.563-5.27,2.563c-3.484,0-5.266-2.455-5.266-4.946c0-4.163,3.701-6.44,10.354-6.405v-0.355
		c0-1.424-0.393-3.982-3.913-3.982c-1.604,0-3.273,0.498-4.483,1.281l-0.712-2.064c1.423-0.925,3.487-1.53,5.658-1.53
		c5.267,0,6.547,3.598,6.547,7.048L541.412,1146.293L541.412,1146.293z M538.388,1141.632c-3.416-0.071-7.294,0.534-7.294,3.879
		c0,2.028,1.354,2.988,2.953,2.988c2.242,0,3.665-1.423,4.164-2.882c0.106-0.32,0.178-0.676,0.178-0.996L538.388,1141.632
		L538.388,1141.632z"/>
	<path fill="#FFFFFF" d="M546.462,1137.86c0-1.779-0.036-3.238-0.143-4.662h2.737l0.145,2.772h0.104
		c0.96-1.637,2.563-3.167,5.409-3.167c2.352,0,4.127,1.426,4.875,3.452h0.071c0.534-0.961,1.209-1.708,1.921-2.24
		c1.032-0.781,2.17-1.212,3.807-1.212c2.277,0,5.658,1.495,5.658,7.476v10.142h-3.061v-9.75c0-3.311-1.21-5.302-3.736-5.302
		c-1.779,0-3.167,1.314-3.701,2.847c-0.142,0.428-0.249,0.996-0.249,1.565v10.64h-3.06v-10.318c0-2.738-1.21-4.73-3.595-4.73
		c-1.956,0-3.383,1.563-3.881,3.131c-0.178,0.463-0.249,0.997-0.249,1.53v10.391h-3.06v-12.562L546.462,1137.86L546.462,1137.86z"/>
	<path fill="#FFFFFF" d="M577.878,1142.379c0.071,4.234,2.775,5.979,5.907,5.979c2.242,0,3.594-0.395,4.768-0.893l0.534,2.241
		c-1.103,0.498-2.989,1.104-5.729,1.104c-5.305,0-8.472-3.522-8.472-8.72c0-5.192,3.063-9.288,8.078-9.288
		c5.622,0,7.117,4.946,7.117,8.113c0,0.643-0.071,1.141-0.107,1.459h-12.098L577.878,1142.379L577.878,1142.379z M587.059,1140.138
		c0.036-1.993-0.815-5.089-4.341-5.089c-3.167,0-4.555,2.918-4.804,5.089H587.059z"/>
	<path fill="#FFFFFF" d="M601.501,1125.156h3.097v10.814h0.07c1.104-1.921,3.096-3.167,5.872-3.167c4.27,0,7.294,3.562,7.259,8.789
		c0,6.156-3.879,9.218-7.722,9.218c-2.491,0-4.483-0.962-5.768-3.236h-0.104l-0.145,2.847h-2.702
		c0.068-1.174,0.142-2.918,0.142-4.448V1125.156L601.501,1125.156z M604.598,1143.518c0,0.395,0.07,0.783,0.145,1.142
		c0.604,2.171,2.42,3.665,4.697,3.665c3.271,0,5.229-2.669,5.229-6.618c0-3.452-1.779-6.405-5.124-6.405
		c-2.135,0-4.127,1.459-4.768,3.843c-0.071,0.356-0.181,0.783-0.181,1.281L604.598,1143.518L604.598,1143.518z"/>
	<path fill="#FFFFFF" d="M622.635,1133.198l3.771,10.177c0.392,1.139,0.815,2.491,1.104,3.522h0.071
		c0.32-1.031,0.676-2.351,1.103-3.596l3.416-10.104h3.313l-4.697,12.273c-2.241,5.907-3.771,8.935-5.906,10.782
		c-1.527,1.354-3.061,1.886-3.844,2.028l-0.782-2.637c0.782-0.248,1.814-0.744,2.739-1.527c0.854-0.677,1.922-1.888,2.634-3.486
		c0.146-0.318,0.249-0.566,0.249-0.748c0-0.178-0.068-0.427-0.214-0.816l-6.369-15.869H622.635L622.635,1133.198z"/>
	<path fill="#FFFFFF" d="M645.901,1126.758c1.886-0.284,4.128-0.498,6.583-0.498c4.445,0,7.612,1.032,9.715,2.989
		c2.135,1.957,3.38,4.732,3.38,8.611c0,3.914-1.21,7.113-3.451,9.319c-2.242,2.242-5.942,3.452-10.604,3.452
		c-2.206,0-4.06-0.104-5.622-0.285L645.901,1126.758L645.901,1126.758z M648.997,1147.966c0.783,0.143,1.922,0.178,3.132,0.178
		c6.618,0,10.212-3.697,10.212-10.177c0.036-5.658-3.167-9.252-9.714-9.252c-1.602,0-2.812,0.146-3.63,0.32V1147.966z"/>
	<path fill="#FFFFFF" d="M681.589,1146.293c0,1.495,0.071,2.954,0.284,4.128h-2.847l-0.249-2.171h-0.106
		c-0.961,1.353-2.812,2.563-5.267,2.563c-3.487,0-5.27-2.455-5.27-4.946c0-4.163,3.701-6.44,10.355-6.405v-0.355
		c0-1.424-0.395-3.982-3.915-3.982c-1.604,0-3.273,0.498-4.483,1.281l-0.711-2.064c1.423-0.925,3.487-1.53,5.657-1.53
		c5.267,0,6.548,3.598,6.548,7.048L681.589,1146.293L681.589,1146.293z M678.564,1141.632c-3.416-0.071-7.295,0.534-7.295,3.879
		c0,2.028,1.352,2.988,2.95,2.988c2.242,0,3.665-1.423,4.163-2.882c0.107-0.32,0.182-0.676,0.182-0.996V1141.632L678.564,1141.632z"
		/>
	<path fill="#FFFFFF" d="M701.513,1125.156v20.813c0,1.53,0.035,3.274,0.146,4.448h-2.813l-0.143-2.989h-0.071
		c-0.96,1.922-3.06,3.381-5.871,3.381c-4.163,0-7.363-3.521-7.363-8.754c-0.035-5.729,3.521-9.252,7.723-9.252
		c2.633,0,4.412,1.246,5.192,2.637h0.07v-10.284H701.513L701.513,1125.156z M698.381,1140.208c0-0.391-0.035-0.925-0.142-1.316
		c-0.463-1.989-2.171-3.629-4.521-3.629c-3.237,0-5.159,2.85-5.159,6.653c0,3.487,1.708,6.37,5.091,6.37
		c2.1,0,4.021-1.391,4.591-3.736c0.104-0.427,0.142-0.854,0.142-1.353L698.381,1140.208L698.381,1140.208z"/>
	<path fill="#FFFFFF" d="M708.447,1142.379c0.068,4.234,2.772,5.979,5.906,5.979c2.24,0,3.595-0.395,4.77-0.893l0.533,2.241
		c-1.104,0.498-2.989,1.104-5.729,1.104c-5.302,0-8.469-3.522-8.469-8.72c0-5.192,3.06-9.288,8.077-9.288
		c5.622,0,7.116,4.946,7.116,8.113c0,0.643-0.07,1.141-0.106,1.459h-12.098V1142.379L708.447,1142.379z M717.628,1140.138
		c0.036-1.993-0.818-5.089-4.341-5.089c-3.167,0-4.555,2.918-4.804,5.089H717.628z"/>
</g>
<path opacity="0.45" fill="#1F1212" enable-background="new    " d="M699.746,527.438c-0.479-0.646-0.982-1.295-1.5-1.942
	c-0.127-0.158-0.253-0.315-0.381-0.477c-0.53-0.651-1.074-1.308-1.645-1.964c-0.008-0.008-0.016-0.016-0.021-0.022
	c-0.575-0.661-1.176-1.324-1.79-1.987c-0.114-0.123-0.229-0.246-0.344-0.368c-1.309-1.395-2.703-2.789-4.184-4.176
	c-0.041-0.038-0.081-0.077-0.123-0.115c-29.172-27.273-90.728-51.552-160.379-13.371c-74.538,40.855-47.271,149.693-43.93,161.944
	c0.004,0.018,0.008,0.03,0.013,0.047c0.046,0.167,0.087,0.318,0.124,0.447c0.005,0.021,0.009,0.033,0.017,0.053
	c0.03,0.114,0.062,0.22,0.084,0.301c0.01,0.034,0.015,0.053,0.021,0.079c0.038,0.13,0.063,0.22,0.063,0.22
	c6.493,29.098,51.299,24.357,64.716,29.443c10.201,3.842,7.854,34.119,11.484,48.299c3.644,14.191,13.008,9.453,23.207,8.35
	c0.435-0.048,0.827-0.127,1.205-0.223c0.042-0.01,0.081-0.021,0.121-0.032c9.261-2.454,2-18.679,1.385-29.422
	c-0.404-7.131,2.83-8.727,5.461-6.982c0,0.009-0.002,0.016-0.002,0.023c1.296,0.86,2.446,2.521,2.938,4.745
	c0.015,0.068,0.03,0.139,0.043,0.206c0.06,0.295,0.11,0.599,0.146,0.911c1.217,11.17,2.433,23.277,5.68,27.33
	c3.658,4.561,13.49,2.221,23.518,0.084c10.033-2.146-0.5-28.75,3.211-32.604c1.025-1.05,3.093-1.68,4.663-1.03
	c0.003,0.057,0.003,0.109,0.005,0.167c0.759,0.325,1.43,0.85,1.779,1.851c0.055,0.168,0.109,0.339,0.148,0.528
	c1.994,9.602-1.674,30.234,9.242,29.613c4.223-0.242,16.068-0.031,17.648-2.357c4.121-6.043-1.248-21.854-1.533-26.824
	c-0.338-5.951-0.43-22.33,9.456-27.553c-0.021,0.033-0.044,0.064-0.063,0.099c1.537-0.831,3.271-1.44,5.338-1.644
	c0.444-0.043,0.909-0.104,1.383-0.179c0.133-0.021,0.271-0.048,0.405-0.07c0.351-0.06,0.706-0.124,1.069-0.199
	c0.158-0.03,0.32-0.066,0.48-0.104c0.359-0.079,0.723-0.164,1.092-0.256c0.16-0.04,0.32-0.08,0.482-0.123
	c0.396-0.104,0.801-0.216,1.209-0.334c0.14-0.04,0.275-0.078,0.417-0.12c0.507-0.15,1.02-0.313,1.54-0.483
	c0.046-0.015,0.09-0.025,0.135-0.042c0.59-0.194,1.188-0.401,1.794-0.624c0.063-0.021,0.133-0.05,0.199-0.073
	c0.511-0.188,1.024-0.383,1.546-0.585c0.201-0.077,0.402-0.16,0.604-0.24c0.387-0.154,0.771-0.313,1.16-0.475
	c0.257-0.104,0.514-0.216,0.771-0.325c0.327-0.141,0.654-0.281,0.984-0.429c0.309-0.135,0.611-0.27,0.919-0.407
	c0.254-0.114,0.509-0.231,0.765-0.352c0.378-0.175,0.756-0.349,1.136-0.529c0.023-0.012,0.048-0.021,0.072-0.034
	c11.376-5.422,23.283-13.486,28.435-20.044c0.039-0.05,0.075-0.099,0.113-0.146c0.229-0.297,0.449-0.591,0.646-0.881
	c0.066-0.095,0.124-0.188,0.188-0.281c0.164-0.248,0.325-0.494,0.468-0.736c0.08-0.136,0.146-0.269,0.218-0.4
	c0.108-0.2,0.222-0.402,0.313-0.6c0.084-0.182,0.146-0.355,0.217-0.532c0.058-0.146,0.126-0.296,0.172-0.438
	c0.105-0.319,0.188-0.632,0.236-0.936C726.443,647.986,722.443,558.072,699.746,527.438z"/>
<g>
	<g>
		<path fill="#FFF2E7" d="M715.575,510.426c-22.691-30.645-91.318-67.753-170.363-24.423
			c-79.033,43.32-43.608,163.089-43.608,163.089c6.494,29.1,51.3,24.359,64.717,29.445c10.2,3.842,7.854,34.119,11.483,48.299
			c3.645,14.191,13.008,9.453,23.208,8.348c11.261-1.24,3.354-18.451,2.71-29.676c-0.637-11.223,7.748-8.748,8.585-1.096
			c1.219,11.17,2.435,23.276,5.682,27.33c3.658,4.559,13.491,2.221,23.519,0.084c10.032-2.148-0.5-28.75,3.21-32.604
			c1.616-1.65,5.816-2.271,6.598,1.518c1.994,9.602-1.676,30.232,9.242,29.611c4.223-0.24,16.068-0.029,17.648-2.355
			c4.121-6.043-1.248-21.855-1.532-26.824c-0.39-6.863-0.463-27.602,14.729-29.098c15.195-1.484,47.486-20.865,49.173-30.98
			C742.271,630.975,738.271,541.061,715.575,510.426z M569.656,645.26c-19.17,1.115-37.642-12.832-36.1-40.52
			c1.21-21.781,21.771-34.54,35.221-37.824c10.783,4.653,16.063,17.075,19.713,36.141c2.495,13.033,1.146,27.855-5.169,37.553
			C579.131,643.281,574.488,644.977,569.656,645.26z M632.3,658.914c-2.563,4.854-19.224,3.369-22.766,0.063
			c2.348-6.643,7.438-15.518,9.569-14.494c4.438,2.137,10.422,7.863,13.422,13.273C632.446,658.135,632.468,658.588,632.3,658.914z
			 M643.074,583.802c0.753-11.496,9.416-18.507,16.675-22.021c9.043,0.674,23.66,10.116,33.619,19.476
			c11.538,10.843,12.628,57.363-25.781,58.385c-4.769,0.139-8.906-0.441-12.49-1.559
			C638.479,624.668,642.379,594.329,643.074,583.802z"/>
		<path fill="#FFFFFF" d="M655.097,638.08c-16.618-13.412-12.718-43.751-12.021-54.278c0.524-8.063,4.964-13.875,10.059-17.865
			c-0.826-0.179-1.674-0.39-2.432-0.451c-7.253,3.601-15.907,10.82-16.639,22.645c-0.681,10.833-4.526,42.067,12.115,55.911
			c3.584,1.146,7.724,1.748,12.49,1.621c9.943-0.252,17.188-3.688,22.334-8.779c-3.821,1.602-8.23,2.621-13.417,2.758
			C662.818,639.775,658.681,639.195,655.097,638.08z"/>
		<path fill="#FFFFFF" d="M533.559,604.74c0.9-16.159,12.443-27.318,23.834-33.361c-13.368,4.179-31.708,16.928-32.817,38.13
			c-1.495,28.496,16.997,42.887,36.167,41.771c4.832-0.283,9.475-2.021,13.659-4.771c0.458-0.725,0.705-1.65,1.108-2.432
			c-1.916,0.566-3.853,1.063-5.854,1.18C550.486,646.375,532.017,632.428,533.559,604.74z"/>
		<path fill="#FFFFFF" d="M715.575,510.426c-17.188-23.212-60.747-50.047-115.2-42.92c50.11-3.168,89.835,22.646,106.073,45.194
			c22.75,31.582,26.9,124.159,25.218,134.581c-0.5,3.113-3.789,7.096-8.511,11.18c9.217-5.979,16.633-12.674,17.417-17.369
			C742.271,630.975,738.271,541.061,715.575,510.426z"/>
		<path fill="#EFD9CA" d="M588.49,603.057c2.221,11.592,1.174,24.412-3.484,33.973c1.242-0.591,2.526-1.055,3.705-1.813
			c6.316-9.694,7.664-24.518,5.169-37.551c-3.646-19.065-8.927-31.487-19.712-36.14c-8.18,2-18.944,7.548-26.429,16.452
			c6.748-5.758,14.669-9.506,21.038-11.063C579.563,571.569,584.843,583.991,588.49,603.057z M693.368,581.254
			c7.88,7.411,10.864,31.438-0.258,46.27c17.165-13.467,14.596-43.246,5.646-51.658c-9.958-9.358-24.575-18.804-33.618-19.477
			c-4.059,1.958-8.512,5.074-11.815,9.392c2.115-1.621,4.319-2.979,6.427-4C668.792,562.452,683.409,571.896,693.368,581.254z
			 M583.194,721.445c-3.634-14.182-1.284-44.457-11.484-48.3c-13.418-5.084-58.222-0.349-64.717-29.444
			c0,0-27.437-92.871,20.001-144.623c-54.826,50.373-25.394,150.014-25.394,150.014c6.495,29.1,51.301,24.359,64.718,29.445
			c10.199,3.842,7.854,34.119,11.483,48.299c3.645,14.191,13.007,9.453,23.208,8.349c3.605-0.399,5.116-2.536,5.663-5.483
			c-0.108,0.01-0.163,0.084-0.271,0.096C596.201,730.9,586.837,735.637,583.194,721.445z M696.79,666.684
			c-5.195,0.518-8.507,3.35-10.729,7.031c1.537-0.832,3.273-1.439,5.338-1.643c12.869-1.252,37.939-15.338,46.356-25.771
			C726.776,655.641,707.532,665.631,696.79,666.684z M623.378,726.352c-3.248-4.053-3.974-11.677-5.188-22.845
			c-0.79-7.23-9.009-4.958-9.009-4.958c1.506,1,2.821,3.074,3.126,5.863c1.219,11.17,2.435,23.276,5.682,27.33
			c3.657,4.559,13.489,2.221,23.519,0.084c2.391-0.518,3.553-2.463,4.084-5.117C636.026,728.762,626.878,730.709,623.378,726.352z
			 M656.701,701.5c-0.778-3.791-5.701-4.793-7.316-3.141c-0.705,0.736,0,0,0,0c0.88,0.379,1.647,1.021,1.928,2.379
			c1.994,9.602-1.675,30.232,9.242,29.611c4.224-0.24,16.069-0.029,17.649-2.355c0.694-1.021,1.047-2.379,1.271-3.863
			c-4.301,0.693-10.657,0.662-13.531,0.832C655.027,725.584,658.696,711.1,656.701,701.5z"/>
		<g>
			<path fill="#1F1212" d="M571.794,650.744c-24.781,1.442-48.483-13.537-46.173-43.709c2.311-30.192,34.198-44.32,46.651-41.783
				c15.644,3.2,22.532,16.159,27.103,37.183C603.934,623.479,596.58,649.303,571.794,650.744"/>
			<path fill="#1F1212" d="M667.045,645.313c-24.781,1.389-35.023-23.436-32.888-44.857c2.132-21.412,7.512-35.076,22.682-40.024
				c12.09-3.938,45.383,6.476,51.109,36.203C713.67,626.354,691.831,643.924,667.045,645.313"/>
			<path fill="#1F1212" d="M631.479,658.955c-3.067,5.813-24.724,3.285-25.537-1.053c-0.816-4.326,7.806-21.846,10.759-20.436
				C623.672,640.838,634.542,653.146,631.479,658.955"/>
		</g>
	</g>
	<g>
		<path fill="#EFD9CA" d="M673.987,506.784c0,2.042-5.597,7.622-7.632,7.622c-2.037,0-3.69-5.58-3.69-7.622s1.653-3.695,3.69-3.695
			C668.392,503.089,673.987,504.742,673.987,506.784z"/>
		<path fill="#EFD9CA" d="M687.771,518.596c0,1.896-3.438,3.434-5.325,3.434c-1.891,0-3.422-1.537-3.422-3.434
			c0-1.895,1.53-3.421,3.422-3.421C684.336,515.175,687.771,516.701,687.771,518.596z"/>
		<path fill="#EFD9CA" d="M685.752,503.268c1.137,1.055,0.143,3.979-0.916,5.116c-1.058,1.137-2.832,1.2-3.964,0.147
			c-1.142-1.063-1.205-2.843-0.152-3.979C681.777,503.415,684.62,502.215,685.752,503.268z"/>
	</g>
	<g>
		<path fill="#EFD9CA" d="M523.236,559.757c1.898,0.748,5.048,8,4.301,9.896c-0.742,1.895-6.553,1.39-8.454,0.632
			c-1.89-0.737-2.827-2.885-2.079-4.779C517.752,563.61,521.347,559.01,523.236,559.757z"/>
		<path fill="#EFD9CA" d="M539.286,551.262c1.758,0.686,1.926,4.453,1.23,6.211c-0.688,1.76-2.685,2.622-4.441,1.929
			c-1.758-0.695-2.622-2.676-1.927-4.443C534.838,553.209,537.527,550.567,539.286,551.262z"/>
		<path fill="#EFD9CA" d="M524.284,547.524c1.398-0.676,3.753,1.325,4.421,2.727c0.663,1.4,0.074,3.063-1.321,3.737
			c-1.398,0.674-3.073,0.084-3.748-1.307C522.968,551.272,522.889,548.188,524.284,547.524z"/>
	</g>
	<g>
		<path fill="#EFD9CA" d="M673.456,658.146c1.736,0.747,1.811,4.507,1.068,6.243c-0.731,1.736-2.753,2.548-4.495,1.813
			c-1.737-0.729-2.548-2.748-1.808-4.484C668.961,659.967,671.719,657.398,673.456,658.146z"/>
		<path fill="#EFD9CA" d="M658.56,654.021c1.411-0.634,3.712,1.433,4.35,2.843c0.621,1.409-0.011,3.072-1.421,3.705
			c-1.416,0.643-3.074,0-3.717-1.423C657.144,657.746,657.144,654.641,658.56,654.021z"/>
	</g>
</g>
<g>
	<g>
		<path fill="#1D2033" d="M377.061,644.852c3.651,4.212,4.191,10.641,1.641,19.285c-4.069,13.606-13.179,29.188-27.351,46.729
			c-14.23,17.617-26.814,29.136-37.74,34.549c-2.519,1.246-5.033,0.85-7.548-1.182c-0.607-0.49-1.146-1.055-1.632-1.696
			c-0.735-0.976-1.783-2.325-3.156-4.064c14.563-13.189,26.795-25.935,36.715-38.214c10.595-13.116,17.471-24.581,20.614-34.388
			c0.881-2.82,0.636-4.783-0.724-5.881c-2.438-1.973-7.794,1.514-16.049,10.475c-2.331,2.404-7.058,8.034-14.207,16.883
			c-6.839,8.468-12.993,16.48-18.475,24.021c-4.565,6.27-9.04,11.604-13.472,15.965c-5.251,5.088-13.436,3.14-24.57-5.854
			c-5.954-4.811-10.865-11.047-14.75-18.722c-1.957-3.973-2.835-8.974-2.643-14.987c0.433-10.364,3.393-23.163,8.887-38.391
			c6.067-16.397,12.951-29.37,20.653-38.903c1.662-2.058,3.345-3.911,5.057-5.559c1.261-1.248,3.422-1.894,6.488-1.941
			c4.021-0.151,9.308,0.966,15.827,3.332c5.595,2.125,10.263,4.391,14.006,6.775c1.034,0.582,2.271,1.396,3.705,2.426
			c1.203,0.854,1.438,2.05,0.697,3.586c-7.175,13.872-13.961,29.059-20.363,45.566c-3.879,10.098-6.478,18.776-7.797,26.026
			c-0.311,1.644-0.236,2.649,0.215,3.016c0.548,0.441,1.352-0.107,2.449-1.612c1.148-1.592,1.799-2.485,1.903-2.722
			c0.114-0.22,2.436-3.229,6.928-9.05c4.511-5.813,7.084-9.029,7.712-9.654c16.648-19.828,28.954-30.619,36.924-32.374
			c6.531-1.529,12.239-0.323,17.115,3.614C375.205,642.785,376.175,643.758,377.061,644.852z"/>
		<path fill="#1D2033" d="M432.339,567.756c1.189,1.337,2.638,4.456,4.341,9.37c2.924,8.408,3.639,15.094,2.137,20.065
			c-0.624,2.017-1.581,3.825-2.874,5.426c-2.956,3.66-7.332,6.185-13.112,7.563c-5.166,1.245-10.201,1.396-15.112,0.461
			c-2.626-0.486-5.867-1.396-9.696-2.734c-2.892-0.948-4.362-1.317-4.41-1.104c0.709,5.997,1.515,13.576,2.419,22.75
			c0.118,1.732,0.909,3.004,2.396,3.826c2.522,1.402,4.772,2.592,6.762,3.572c1.769,0.926,2.617,1.674,2.539,2.234
			c-0.348,1.361-1.1,2.769-2.271,4.219c-2.28,2.82-4.712,4.581-7.278,5.275c-1.22,0.274-2.439,0.046-3.632-0.67
			c-14.127-8.26-26.145-16.389-36.063-24.4c-10.599-8.563-20.646-18.443-30.128-29.638c0.168-0.368,0.416-0.985,0.738-1.861
			c0.563-1.313,1.363-2.618,2.409-3.913c2.588-3.204,5.2-5.194,7.838-5.963c0.481-0.114,1.028,0.14,1.654,0.769
			c5.729,6.016,12.031,12.182,18.908,18.487c0.278-0.026,0.573-0.168,0.896-0.409l-0.149-7.308
			c-0.556-17.722,1.622-36.257,6.535-55.602c0.481-2.002,1.258-4.273,2.306-6.829c0.51-1.098,1.362-1.609,2.559-1.525
			c4.573,0.421,9.833,3.028,15.786,7.839c1.756,1.419,3.385,2.921,4.873,4.498c2.349,2.402,4.406,5.046,6.175,7.923
			c1.773,2.881,2.501,4.825,2.188,5.831c-2.124,9.503-3.323,14.964-3.596,16.391c-2.123,9.504-2.878,14.565-2.252,15.195
			c3.695,1.974,8.144,3.803,13.328,5.472c6.342,1.979,10.984,2.702,13.92,2.166c1.036-0.168,1.71-0.688,2.022-1.573
			c0.604-1.525,0.665-3.975,0.165-7.338s-1.38-6.439-2.653-9.239c-0.521-0.92-0.974-1.913-1.366-2.993
			c1.802-2.701,3.933-4.697,6.366-6.005C429.472,566.704,431.246,566.614,432.339,567.756z"/>
		<path fill="#1D2033" d="M513.569,488.738c0.237,0.191,0.249,0.859,0.06,2.032s-0.5,3.036-0.928,5.589
			c-1.844,9.471-4.28,16.454-7.286,20.954c-2.557,4.109-4.818,6.514-6.76,7.206c-4.068,1.764-10.064,0.761-17.992-3l-0.039,0.535
			c0.601,12.328,0.24,20.795-1.078,25.409c-1.046,3.814-1.981,6.147-2.798,7.004c-3.647,3.736-10.188,6.74-19.604,9.026
			c-9.42,2.284-16.312,2.671-20.672,1.171c-1.741-0.65-3.833-1.58-6.273-2.801c-3.027-1.563-6.769-4.146-11.213-7.739
			c-10.026-8.1-18.072-16.301-24.146-24.597c-1.476-2.08-2.721-3.975-3.748-5.68c-0.679-1.188,0.51-4.347,3.588-9.492
			c3.078-5.14,6.767-10.13,11.063-14.981c4.465-5.215,8.149-9.228,11.06-12.05c2.727-2.588,4.699-3.392,5.919-2.405
			c0.455,0.368,0.928,0.883,1.417,1.526c1.784,2.951,4.429,7.349,7.912,13.196c6.889,11.481,14.983,21.5,24.258,29.997
			c4.191,3.887,7.501,6.188,9.957,6.903c1.519,0.467,2.377-0.226,2.597-2.059c1.001-7.008,0.705-13.671-0.855-19.98l-1.351-0.897
			c-5.701-3.72-11.532-7.991-17.469-12.786c-7.095-5.731-11.314-9.708-12.671-11.938c-1.349-2.229-1.775-4.652-1.297-7.292
			c1.503-8.864,4.504-17.654,9.019-26.36c5.129-10.098,8.042-14.87,8.728-14.315c0.455,0.368,0.944,0.701,1.463,0.997
			c3.021,2.815,9.002,8.277,17.952,16.389c3.708,3.377,7.429,6.569,11.167,9.59C492.535,475.15,502.545,482.102,513.569,488.738z"/>
		<path fill="#1D2033" d="M558.007,427.65c1.646,0.945,2.946,2.122,3.944,3.563c0.412,0.591,0.549,1.084,0.417,1.479
			c-0.146,0.395-0.537,1.145-1.184,2.257c-4.27,8.274-9.052,18.721-14.337,31.337l-1.237,2.975c-0.727,1.677-2.08,3.042-4.063,4.099
			c-2.641,1.516-6.516,3.688-11.656,6.464c-0.731,0.418-1.346,0.552-1.832,0.404c-0.939-0.247-1.964-0.697-3.078-1.347
			c-13.854-7.66-28.252-17.528-43.202-29.604c-4.348-3.513-7.727-6.5-10.152-8.959c-2.726-2.708-5.578-5.58-8.543-8.609
			c3.396-11.238,8.919-21.022,16.534-29.364c2.247-2.469,3.917-4.147,5.013-5.03c1.921-1.6,3.996-2.696,6.237-3.279
			c9.824,13.737,21.352,27.396,34.574,40.979c4.933,5.119,8.852,8.854,11.757,11.199c0.905,0.732,1.496,1.116,1.746,1.121
			c0.237,0.008,0.812-0.38,1.707-1.174c0.521-0.335,1.858-1.899,3.991-4.714c7.09-9.401,11.188-14.154,12.282-14.28
			C557.196,427.249,557.563,427.414,558.007,427.65z"/>
		<path fill="#1D2033" d="M602.186,372.962c1.648,0.944,2.943,2.125,3.939,3.57c0.414,0.588,0.552,1.081,0.42,1.474
			c-0.143,0.391-0.537,1.145-1.191,2.268c-4.27,8.276-9.055,18.724-14.331,31.333l-1.239,2.975c-0.729,1.68-2.081,3.042-4.068,4.105
			c-2.642,1.516-6.51,3.68-11.648,6.457c-0.734,0.418-1.348,0.553-1.832,0.406c-0.94-0.249-1.965-0.699-3.083-1.344
			c-13.852-7.663-28.249-17.532-43.199-29.609c-4.347-3.511-7.729-6.496-10.155-8.956c-2.727-2.707-5.579-5.579-8.543-8.609
			c3.396-11.238,8.919-21.022,16.54-29.371c2.244-2.465,3.919-4.15,5.01-5.027c1.928-1.604,3.996-2.696,6.245-3.289
			c9.818,13.745,21.347,27.404,34.571,40.985c4.927,5.126,8.854,8.848,11.76,11.196c0.906,0.732,1.497,1.116,1.743,1.124
			c0.239,0.009,0.813-0.38,1.707-1.174c0.521-0.335,1.859-1.899,3.986-4.707c7.093-9.405,11.182-14.146,12.284-14.284
			C601.373,372.564,601.738,372.73,602.186,372.962z"/>
		<path fill="#1D2033" d="M650.206,276.777c6.7,9.814,9.748,21.226,9.186,34.254c-0.565,13.036-4.573,24.229-12.012,33.603
			c-7.493,9.444-17.629,15.878-30.427,19.281c-12.775,3.408-24.703,2.858-35.781-1.683c-4.207-2.134-7.549-4.94-9.997-8.458
			c-4.496-6.141-7.221-14.778-8.199-25.9c-0.968-11.132,0.155-20.55,3.37-28.285c2.001-4.812,4.67-9.29,7.991-13.4
			c3.391-4.197,7.222-7.765,11.512-10.741c6.884-4.772,15.867-7.858,26.945-9.24s20.09-0.526,27.051,2.563
			C643.781,270.445,647.235,273.113,650.206,276.777z M632.092,318.856c-3.361-2.715-6.9-4.176-10.619-4.412
			c-3.709-0.233-6.492,0.816-8.33,3.092c-1.908,2.365-2.35,5.32-1.332,8.868c1.039,3.552,3.264,6.684,6.604,9.384
			c3.354,2.709,6.877,4.2,10.556,4.477c3.696,0.262,6.497-0.786,8.407-3.15c1.839-2.276,2.269-5.227,1.254-8.809
			C637.629,324.716,635.445,321.566,632.092,318.856z"/>
		<path fill="#1D2033" d="M711.466,189.941c1.661,1.219,2.461,2.808,2.392,4.766c-0.076,5.863-2.646,15.199-7.701,27.999
			c-2.555,6.143-5.053,12.249-7.455,18.37l-0.094,0.115c16.465-9.766,29.893-16.246,40.294-19.446
			c0.229,1.579,0.438,2.883,0.604,3.898c0.32,2.902-0.391,5.422-2.114,7.557c-1.104,1.369-2.608,2.619-4.515,3.726
			c-2.743,1.205-7.59,3.534-14.536,6.99c-12.12,6.113-23.719,14.06-34.788,23.871l14.316,10.833c0.075,0.06,0.147,0.12,0.228,0.184
			c0.022,0.141-0.093,0.343-0.343,0.653c-3.521,3.574-6.608,5.998-9.26,7.259c-1.994,0.911-4.037,0.708-6.127-0.604
			c-5.363-3.198-10.533-6.856-15.498-11.003c-9.791-8.163-14.947-12.709-15.457-13.634c-0.242-0.325-0.45-0.542-0.607-0.668
			l-3.62,0.483c-3.688,0.668-8.059-0.463-13.11-3.417c-7.372-4.451-14.332-9.494-20.849-15.158c-1.155-1.064-1.29-2.225-0.37-3.517
			c5.779-7.932,11.854-15.146,18.207-21.606c5.406-5.594,11.776-11.145,19.149-16.678c7.021-5.411,13.079-9.407,18.185-11.972
			c2.827-1.47,6.257-2.431,10.262-2.871c7.139-0.884,13.67-0.928,19.546-0.089C704.549,186.882,708.973,188.182,711.466,189.941z
			 M694.06,215.586c-0.386,0.089-1.093,0.376-2.149,0.908c-8.956,6.257-16.668,13.375-23.145,21.392
			c-3.083,3.815-5.287,6.948-6.627,9.386c3.294,4.178,6.961,7.973,11.029,11.376c9.77-11.772,17.15-24.648,22.145-38.645
			c0.697-2.106,0.577-3.522-0.331-4.258C694.736,215.565,694.43,215.51,694.06,215.586z"/>
		<path fill="#1D2033" d="M739.499,96.498c4.507,3.776,8.142,9.426,10.891,16.936c1.091,3.032,2.032,7.251,2.808,12.673
			c0.322,2.271,0.594,4.51,0.816,6.719c0.09,0.203,1.631,1.812,4.596,4.852c7.416,7.508,13.988,13.571,19.709,18.191
			c1.514,1.223,2.772,2.105,3.726,2.622c1.878,1.263,2.979,2.083,3.3,2.486c0.188,0.399-0.146,1.822-1.004,4.287
			c-2,5.443-3.254,8.782-3.753,10.025c-1.604,3.853-3.343,7.015-5.166,9.432c-3.517,4.841-6.935,6.875-10.229,6.114
			c-10.152-3.037-19.357-7.644-27.606-13.809c-1.119-0.781-2.864-1.994-5.211-3.629c-1.421-0.889-2.534-1.296-3.361-1.211
			c-1.562,0.384-4.019,0.846-7.378,1.424c-6.367,1.168-12.811,1.887-19.326,2.153c-3.129,0.118-10.51-0.1-22.145-0.677l-0.521-0.044
			c1.742-14.479,6.926-27.06,15.553-37.739c1.167-1.444,2.406-2.821,3.699-4.106c1.287-1.29,2.139-2.029,2.539-2.214
			c0.401-0.176,1.084-0.013,2.047,0.512c6.804,3.751,14.453,7.146,22.945,10.215c4.787,1.722,8.213,2.548,10.292,2.47
			c1.259,0.005,1.931-0.277,2.007-0.844c1.293-7.53-0.896-15.976-6.558-25.351c-4.153-6.87-8.081-11.762-11.81-14.632
			c2.391-3.119,4.849-5.842,7.391-8.209C730.906,92.146,734.826,92.606,739.499,96.498z"/>
	</g>
	<g>
		<path fill="#FFFFFF" d="M377.45,634.755c3.65,4.21,4.188,10.636,1.632,19.286c-4.068,13.604-13.171,29.185-27.341,46.727
			c-14.234,17.619-26.817,29.137-37.743,34.55c-2.518,1.247-5.033,0.851-7.547-1.183c-0.612-0.494-1.148-1.051-1.635-1.698
			c-0.732-0.973-1.781-2.319-3.156-4.062c14.563-13.19,26.795-25.935,36.715-38.215c10.596-13.116,17.471-24.58,20.614-34.394
			c0.877-2.815,0.638-4.778-0.726-5.88c-2.436-1.968-7.796,1.518-16.046,10.479c-2.335,2.399-7.058,8.034-14.207,16.884
			c-6.84,8.467-12.998,16.479-18.478,24.017c-4.563,6.273-9.038,11.608-13.468,15.972c-5.251,5.088-13.436,3.14-24.574-5.857
			c-5.95-4.807-10.864-11.049-14.745-18.721c-1.957-3.974-2.835-8.974-2.646-14.991c0.435-10.36,3.395-23.158,8.891-38.386
			c6.062-16.402,12.949-29.368,20.651-38.902c1.662-2.057,3.345-3.912,5.052-5.56c1.266-1.246,3.425-1.897,6.489-1.943
			c4.022-0.15,9.311,0.966,15.832,3.333c5.594,2.126,10.265,4.389,14.001,6.773c1.037,0.586,2.271,1.395,3.703,2.429
			c1.206,0.851,1.442,2.046,0.698,3.585c-7.171,13.875-13.955,29.057-20.363,45.564c-3.875,10.102-6.473,18.779-7.793,26.03
			c-0.312,1.64-0.237,2.646,0.218,3.015c0.548,0.441,1.347-0.11,2.447-1.612c1.149-1.59,1.798-2.484,1.902-2.72
			c0.115-0.22,2.436-3.23,6.93-9.055c4.509-5.811,7.084-9.026,7.706-9.652c16.654-19.828,28.954-30.62,36.924-32.375
			c6.531-1.529,12.239-0.323,17.119,3.617C375.585,632.685,376.565,633.66,377.45,634.755z"/>
		<path fill="#FFFFFF" d="M432.725,557.656c1.19,1.343,2.642,4.462,4.346,9.366c2.924,8.416,3.631,15.102,2.133,20.066
			c-0.627,2.021-1.582,3.827-2.877,5.433c-2.953,3.653-7.325,6.183-13.105,7.562c-5.167,1.246-10.204,1.398-15.113,0.458
			c-2.625-0.481-5.867-1.391-9.698-2.737c-2.892-0.938-4.358-1.313-4.41-1.103c0.713,6,1.514,13.577,2.421,22.756
			c0.119,1.729,0.913,2.999,2.398,3.823c2.521,1.4,4.771,2.593,6.76,3.574c1.766,0.921,2.619,1.672,2.539,2.229
			c-0.348,1.366-1.104,2.771-2.276,4.222c-2.28,2.822-4.712,4.58-7.276,5.273c-1.22,0.273-2.438,0.05-3.629-0.665
			c-14.127-8.26-26.146-16.396-36.063-24.403c-10.602-8.563-20.646-18.441-30.133-29.637c0.171-0.364,0.416-0.987,0.745-1.86
			c0.56-1.312,1.355-2.619,2.404-3.917c2.591-3.204,5.204-5.188,7.841-5.958c0.479-0.119,1.027,0.142,1.649,0.768
			c5.733,6.012,12.029,12.184,18.912,18.488c0.277-0.028,0.576-0.17,0.895-0.41l-0.148-7.31c-0.558-17.717,1.62-36.252,6.537-55.594
			c0.479-2.005,1.26-4.284,2.302-6.833c0.513-1.102,1.363-1.611,2.564-1.528c4.572,0.422,9.836,3.027,15.789,7.836
			c1.757,1.418,3.375,2.917,4.869,4.501c2.352,2.403,4.404,5.049,6.176,7.922c1.77,2.88,2.498,4.822,2.187,5.834
			c-2.124,9.506-3.324,14.957-3.594,16.393c-2.127,9.501-2.883,14.556-2.253,15.188c3.693,1.98,8.142,3.811,13.328,5.473
			c6.341,1.979,10.988,2.701,13.921,2.172c1.039-0.171,1.709-0.697,2.023-1.576c0.603-1.53,0.659-3.975,0.168-7.343
			c-0.504-3.366-1.395-6.439-2.655-9.234c-0.519-0.924-0.979-1.918-1.368-2.991c1.804-2.705,3.93-4.705,6.363-6.01
			C429.865,556.604,431.635,556.517,432.725,557.656z"/>
		<path fill="#FFFFFF" d="M513.952,478.642c0.243,0.196,0.252,0.857,0.063,2.033c-0.19,1.169-0.499,3.037-0.923,5.585
			c-1.854,9.477-4.29,16.458-7.292,20.961c-2.561,4.109-4.812,6.506-6.756,7.204c-4.068,1.762-10.063,0.759-17.99-3.005l-0.041,0.54
			c0.599,12.324,0.239,20.795-1.076,25.409c-1.05,3.813-1.989,6.146-2.801,7.005c-3.647,3.733-10.188,6.743-19.604,9.023
			c-9.42,2.289-16.313,2.678-20.676,1.174c-1.74-0.654-3.833-1.58-6.271-2.798c-3.027-1.57-6.767-4.146-11.216-7.741
			c-10.023-8.099-18.069-16.299-24.134-24.604c-1.479-2.074-2.734-3.971-3.748-5.678c-0.688-1.185,0.5-4.343,3.582-9.485
			c3.077-5.146,6.762-10.134,11.061-14.987c4.469-5.212,8.155-9.227,11.062-12.043c2.725-2.597,4.698-3.398,5.923-2.41
			c0.459,0.371,0.925,0.877,1.417,1.527c1.779,2.946,4.424,7.353,7.904,13.196c6.893,11.484,14.989,21.491,24.267,29.995
			c4.184,3.888,7.5,6.19,9.95,6.905c1.519,0.463,2.38-0.224,2.602-2.062c0.998-7.004,0.706-13.67-0.858-19.98l-1.354-0.896
			c-5.692-3.718-11.524-7.989-17.464-12.787c-7.094-5.731-11.315-9.702-12.667-11.937c-1.352-2.227-1.78-4.657-1.3-7.289
			c1.502-8.872,4.506-17.658,9.017-26.369c5.14-10.093,8.038-14.864,8.726-14.311c0.459,0.371,0.946,0.696,1.474,0.993
			c3.014,2.814,9.003,8.283,17.946,16.396c3.707,3.371,7.429,6.563,11.17,9.584C492.925,465.052,502.932,472.009,513.952,478.642z"
			/>
		<path fill="#FFFFFF" d="M558.392,417.551c1.649,0.949,2.951,2.124,3.946,3.569c0.414,0.586,0.555,1.077,0.419,1.473
			c-0.146,0.396-0.537,1.146-1.185,2.262c-4.268,8.271-9.049,18.717-14.336,31.337l-1.239,2.969c-0.729,1.68-2.077,3.045-4.06,4.101
			c-2.646,1.521-6.518,3.688-11.659,6.46c-0.729,0.421-1.344,0.557-1.832,0.412c-0.941-0.254-1.964-0.705-3.076-1.35
			c-13.857-7.662-28.255-17.524-43.206-29.604c-4.346-3.511-7.726-6.5-10.149-8.963c-2.729-2.711-5.579-5.579-8.55-8.608
			c3.402-11.239,8.922-21.026,16.541-29.364c2.247-2.469,3.913-4.15,5.01-5.034c1.922-1.592,3.996-2.689,6.236-3.271
			c9.828,13.732,21.351,27.392,34.578,40.977c4.929,5.124,8.852,8.852,11.754,11.196c0.91,0.733,1.5,1.12,1.743,1.125
			c0.246,0.008,0.815-0.376,1.706-1.173c0.53-0.338,1.865-1.897,3.997-4.714c7.088-9.399,11.183-14.157,12.282-14.28
			C557.582,417.148,557.951,417.317,558.392,417.551z"/>
		<path fill="#FFFFFF" d="M602.569,362.865c1.653,0.943,2.948,2.125,3.943,3.57c0.413,0.586,0.548,1.085,0.419,1.473
			c-0.146,0.394-0.536,1.146-1.191,2.272c-4.268,8.273-9.054,18.721-14.333,31.333l-1.243,2.972
			c-0.722,1.673-2.076,3.044-4.062,4.104c-2.643,1.516-6.512,3.679-11.657,6.457c-0.729,0.421-1.343,0.555-1.829,0.408
			c-0.941-0.254-1.963-0.705-3.076-1.35c-13.856-7.662-28.255-17.524-43.206-29.602c-4.346-3.511-7.725-6.5-10.148-8.963
			c-2.731-2.708-5.584-5.572-8.55-8.609c3.402-11.239,8.916-21.018,16.546-29.371c2.238-2.458,3.91-4.147,5.004-5.026
			c1.928-1.599,4-2.693,6.245-3.283c9.821,13.741,21.347,27.396,34.571,40.985c4.93,5.122,8.858,8.844,11.76,11.188
			c0.91,0.735,1.5,1.12,1.743,1.125c0.243,0.011,0.818-0.381,1.703-1.17c0.527-0.333,1.868-1.9,3.991-4.704
			c7.095-9.409,11.18-14.153,12.289-14.288C601.758,362.464,602.125,362.637,602.569,362.865z"/>
		<path fill="#FFFFFF" d="M650.592,266.676c6.697,9.818,9.752,21.23,9.188,34.262c-0.563,13.027-4.574,24.229-12.005,33.594
			c-7.5,9.452-17.637,15.886-30.434,19.289c-12.775,3.408-24.702,2.854-35.783-1.69c-4.202-2.131-7.545-4.937-9.999-8.454
			c-4.488-6.141-7.222-14.778-8.191-25.907c-0.972-11.122,0.154-20.544,3.371-28.279c2.002-4.813,4.667-9.286,7.989-13.4
			c3.389-4.192,7.22-7.768,11.511-10.738c6.884-4.782,15.865-7.858,26.942-9.247c11.079-1.382,20.093-0.522,27.048,2.567
			C644.174,260.345,647.625,263.016,650.592,266.676z M632.471,308.757c-3.354-2.709-6.891-4.174-10.607-4.41
			c-3.711-0.229-6.491,0.816-8.329,3.091c-1.913,2.369-2.349,5.317-1.333,8.868c1.037,3.556,3.262,6.685,6.597,9.378
			c3.361,2.715,6.886,4.205,10.563,4.483c3.697,0.258,6.492-0.782,8.406-3.151c1.84-2.275,2.266-5.223,1.252-8.808
			C638.018,314.619,635.832,311.472,632.471,308.757z"/>
		<path fill="#FFFFFF" d="M711.848,179.846c1.668,1.218,2.467,2.811,2.396,4.769c-0.075,5.862-2.643,15.195-7.697,27.995
			c-2.556,6.14-5.052,12.25-7.458,18.373l-0.092,0.112c16.463-9.763,29.891-16.25,40.295-19.446
			c0.227,1.575,0.436,2.879,0.604,3.897c0.318,2.903-0.396,5.427-2.111,7.552c-1.111,1.376-2.616,2.622-4.523,3.731
			c-2.734,1.205-7.588,3.531-14.533,6.994c-12.123,6.109-23.713,14.052-34.782,23.866l14.315,10.833
			c0.074,0.06,0.146,0.117,0.229,0.183c0.016,0.142-0.095,0.344-0.345,0.653c-3.522,3.577-6.609,6.002-9.261,7.252
			c-2,0.918-4.033,0.712-6.133-0.596c-5.362-3.198-10.526-6.864-15.492-11.011c-9.797-8.156-14.945-12.703-15.459-13.624
			c-0.243-0.332-0.447-0.546-0.604-0.672l-3.618,0.48c-3.696,0.676-8.065-0.462-13.119-3.417
			c-7.372-4.451-14.328-9.491-20.843-15.154c-1.156-1.064-1.29-2.226-0.373-3.521c5.78-7.928,11.854-15.142,18.209-21.603
			c5.408-5.595,11.775-11.145,19.146-16.674c7.021-5.418,13.078-9.408,18.182-11.975c2.834-1.471,6.262-2.438,10.263-2.867
			c7.138-0.886,13.671-0.928,19.547-0.09C704.938,176.778,709.363,178.084,711.848,179.846z M694.446,205.492
			c-0.39,0.076-1.089,0.372-2.154,0.905c-8.954,6.254-16.665,13.378-23.137,21.391c-3.083,3.816-5.287,6.949-6.634,9.387
			c3.297,4.174,6.971,7.968,11.034,11.375c9.769-11.769,17.15-24.649,22.146-38.646c0.688-2.105,0.572-3.525-0.338-4.26
			C695.122,205.466,694.82,205.413,694.446,205.492z"/>
		<path fill="#FFFFFF" d="M739.886,86.404c4.507,3.776,8.146,9.422,10.894,16.936c1.092,3.028,2.025,7.243,2.813,12.672
			c0.319,2.271,0.588,4.507,0.813,6.717c0.09,0.202,1.629,1.815,4.591,4.848c7.42,7.511,13.991,13.577,19.706,18.194
			c1.518,1.226,2.776,2.108,3.73,2.621c1.878,1.264,2.979,2.084,3.305,2.483c0.182,0.406-0.15,1.826-1.009,4.291
			c-2.007,5.443-3.254,8.781-3.763,10.022c-1.596,3.859-3.333,7.017-5.153,9.431c-3.519,4.844-6.94,6.876-10.235,6.118
			c-10.146-3.037-19.354-7.644-27.604-13.81c-1.118-0.781-2.868-1.989-5.213-3.625c-1.416-0.896-2.535-1.296-3.357-1.215
			c-1.565,0.381-4.021,0.846-7.382,1.422c-6.364,1.171-12.81,1.89-19.325,2.153c-3.125,0.121-10.506-0.097-22.141-0.678
			l-0.527-0.039c1.74-14.479,6.924-27.061,15.551-37.74c1.17-1.447,2.412-2.824,3.701-4.106c1.291-1.293,2.143-2.029,2.547-2.214
			c0.396-0.172,1.082-0.013,2.045,0.512c6.803,3.75,14.451,7.148,22.947,10.215c4.782,1.725,8.209,2.551,10.295,2.473
			c1.252,0.006,1.928-0.281,2.002-0.848c1.287-7.53-0.899-15.979-6.554-25.354c-4.159-6.862-8.084-11.758-11.815-14.631
			c2.391-3.112,4.852-5.838,7.387-8.205C731.297,82.049,735.213,82.506,739.886,86.404z"/>
	</g>
	<path fill="#E5E5E5" d="M421.041,563.894c0.391,1.074,0.848,2.072,1.362,2.992c0.816,1.795,1.414,3.751,1.913,5.781
		c0.181-1.445,0.128-3.294-0.228-5.62c-0.274-1.88-0.705-3.645-1.223-5.346C422.243,562.405,421.604,563.053,421.041,563.894z
		 M350.776,691.697c-14.232,17.617-26.813,29.136-37.742,34.548c-2.521,1.243-5.033,0.851-7.554-1.188
		c-0.051-0.039-0.084-0.102-0.138-0.144c-1.246,1.16-2.407,2.295-3.689,3.454c1.375,1.739,2.423,3.089,3.154,4.06
		c0.486,0.649,1.023,1.206,1.637,1.7c2.515,2.031,5.029,2.427,7.548,1.181c10.926-5.412,23.509-16.93,37.742-34.549
		c14.17-17.541,23.272-33.122,27.345-46.724c1.948-6.585,2.089-11.872,0.44-15.885c-0.231,2.097-0.682,4.354-1.402,6.813
		C374.05,658.575,364.946,674.156,350.776,691.697z M394.648,568.322c0.53,0.288,1.2,0.551,1.763,0.825
		c0.374-1.975,0.863-4.267,1.455-6.943c0.264-1.426,1.474-6.884,3.598-16.388c0.282-0.933-0.347-2.687-1.829-5.201
		c-1.59,7.112-2.504,11.304-2.727,12.518C394.776,562.631,394.027,567.696,394.648,568.322z M302.959,672.924
		c0.043-0.061,0.076-0.102,0.116-0.158c1.439-5.463,3.405-11.485,5.981-18.204c6.408-16.509,13.191-31.688,20.363-45.563
		c0.744-1.539,0.507-2.734-0.698-3.585c-0.817-0.588-1.544-1.081-2.239-1.529c-6.438,12.805-12.575,26.639-18.39,41.608
		c-3.875,10.102-6.476,18.775-7.793,26.03c-0.312,1.639-0.233,2.647,0.216,3.015C301.065,674.979,301.864,674.424,302.959,672.924z
		 M296.067,717.236c4.43-4.361,8.905-9.696,13.468-15.972c5.476-7.542,11.638-15.55,18.478-24.017
		c7.148-8.85,11.869-14.485,14.207-16.884c7.098-7.7,12.035-11.333,14.83-10.955c0.345-0.915,0.691-1.825,0.979-2.706
		c0.873-2.82,0.638-4.781-0.729-5.883c-2.438-1.973-7.795,1.516-16.042,10.479c-2.339,2.4-7.063,8.031-14.211,16.882
		c-6.841,8.47-12.998,16.479-18.474,24.021c-4.569,6.268-9.046,11.602-13.472,15.967c-5.25,5.088-13.438,3.137-24.57-5.854
		c-5.949-4.809-10.863-11.048-14.745-18.722c-0.717-1.453-1.243-3.092-1.665-4.819c-0.053,5.514,0.79,10.161,2.628,13.885
		c3.881,7.672,8.795,13.914,14.745,18.721C282.631,720.376,290.816,722.324,296.067,717.236z M467.426,495.335l-1.351-0.898
		c-5.69-3.71-11.525-7.985-17.467-12.785c-7.056-5.699-11.258-9.653-12.638-11.893c-0.111,0.574-0.27,1.151-0.368,1.73
		c-0.482,2.636-0.048,5.059,1.302,7.29c1.353,2.23,5.571,6.203,12.667,11.935c5.944,4.804,11.771,9.07,17.467,12.785l1.351,0.9
		c0.18,0.718,0.276,1.442,0.419,2.169C468.752,502.72,468.319,498.96,467.426,495.335z M720.747,93.247
		c3.735,2.87,7.659,7.766,11.819,14.627c2.854,4.729,4.816,9.22,5.902,13.476c0.387-6.81-1.9-14.31-6.873-22.542
		c-2.455-4.063-4.824-7.357-7.134-10.023C723.2,90.181,721.969,91.658,720.747,93.247z M698.117,221.91l-0.087,0.108
		c2.099-1.239,4.146-2.426,6.146-3.565c0.796-1.946,1.553-3.895,2.369-5.847c5.053-12.802,7.619-22.129,7.694-27.991
		c0.052-1.561-0.459-2.874-1.495-3.964c-0.994,5.688-3.383,13.313-7.163,22.892C703.027,209.675,700.536,215.788,698.117,221.91z
		 M621.861,304.347c3.725,0.229,7.26,1.704,10.607,4.41c2.529,2.043,4.396,4.321,5.591,6.864c0.657-1.854,0.696-3.993-0.005-6.482
		c-1-3.587-3.186-6.74-6.543-9.452c-3.355-2.712-6.893-4.181-10.616-4.41c-3.714-0.232-6.495,0.817-8.331,3.089
		c-1.91,2.365-2.349,5.316-1.322,8.862c0.254,0.883,0.587,1.738,0.993,2.571c0.31-0.84,0.7-1.632,1.293-2.364
		C615.369,305.157,618.15,304.118,621.861,304.347z M692.292,206.397c0.093-0.054,0.136-0.062,0.221-0.105
		c0.755-1.82,1.563-3.603,2.22-5.463c0.699-2.104,0.58-3.52-0.328-4.255c-0.242-0.183-0.542-0.246-0.917-0.155
		c-0.39,0.082-1.096,0.369-2.155,0.904c-8.957,6.257-16.666,13.375-23.146,21.396c-3.077,3.813-5.284,6.949-6.624,9.375
		c1.231,1.574,2.579,3.034,3.921,4.497c1.051-1.469,2.252-3.056,3.669-4.809C675.627,219.775,683.338,212.651,692.292,206.397z
		 M403.48,625.777c-1.87,1.908-3.832,3.18-5.875,3.73c-1.23,0.272-2.445,0.043-3.642-0.668
		c-14.122-8.258-26.14-16.389-36.055-24.396c-9.288-7.503-18.121-16.073-26.561-25.601c-0.768,1.05-1.417,2.104-1.867,3.16
		c-0.326,0.877-0.574,1.497-0.745,1.86c9.485,11.193,19.536,21.075,30.136,29.641c2.268,1.832,4.677,3.674,7.157,5.519
		c2.69,0.644,5.202,1.849,7.514,3.718c1.072,0.87,2.046,1.84,2.931,2.934c0.356,0.414,0.654,0.861,0.951,1.313
		c5.441,3.618,11.231,7.258,17.502,10.919c1.192,0.714,2.409,0.938,3.622,0.658c2.57-0.688,5.003-2.444,7.283-5.269
		c1.175-1.455,1.926-2.857,2.27-4.221c0.079-0.563-0.771-1.313-2.535-2.233C404.921,626.528,404.192,626.148,403.48,625.777z
		 M646.805,325.46c-7.498,9.441-17.632,15.882-30.429,19.284c-12.778,3.411-24.705,2.857-35.785-1.687
		c-4.203-2.131-7.546-4.937-10-8.454c-3.55-4.846-5.977-11.289-7.332-19.25c0.046,0.813,0.028,1.576,0.106,2.41
		c0.965,11.129,3.697,19.766,8.186,25.908c2.457,3.514,5.797,6.322,9.999,8.454c5.169,2.117,10.53,3.334,16.065,3.724
		c1.448-1.609,2.44-2.496,2.891-2.547c0.279,0.097,0.646,0.252,1.091,0.487c1.044,0.585,1.896,1.327,2.669,2.107
		c4.249-0.223,8.602-0.894,13.063-2.085c12.794-3.406,22.933-9.836,30.438-19.289c7.43-9.361,11.441-20.563,12-33.593
		c0.216-4.974-0.102-9.704-0.938-14.216c0.054,1.689,0.054,3.398-0.022,5.148C658.245,304.896,654.242,316.093,646.805,325.46z
		 M590.442,392.436l-1.243,2.965c-0.726,1.69-2.078,3.044-4.063,4.098c-2.645,1.526-6.505,3.696-11.654,6.47
		c-0.729,0.419-1.344,0.563-1.833,0.406c-0.943-0.251-1.959-0.695-3.079-1.347c-13.854-7.659-28.251-17.515-43.208-29.598
		c-4.342-3.508-7.725-6.497-10.146-8.961c-1.755-1.75-3.588-3.577-5.44-5.456c-0.76,1.945-1.525,3.871-2.142,5.914
		c2.969,3.04,5.82,5.898,8.55,8.609c2.426,2.463,5.807,5.442,10.155,8.956c14.951,12.078,29.349,21.95,43.2,29.609
		c1.115,0.641,2.137,1.085,3.083,1.343c0.489,0.149,1.098,0.013,1.827-0.416c5.146-2.767,9.021-4.932,11.654-6.453
		c1.987-1.057,3.341-2.418,4.062-4.104l1.247-2.969c5.288-12.62,10.073-23.068,14.337-31.33c0.656-1.127,1.048-1.878,1.189-2.274
		c0.126-0.392-0.002-0.889-0.416-1.483c-0.777-1.122-1.797-2.042-2.963-2.85C599.592,371.434,595.227,380.995,590.442,392.436z
		 M780.01,156.114c-1.599,3.854-3.34,7.018-5.162,9.428c-3.514,4.844-6.936,6.875-10.229,6.113
		c-10.155-3.033-19.357-7.646-27.606-13.808c-1.111-0.775-2.866-1.983-5.221-3.632c-1.422-0.889-2.521-1.283-3.349-1.206
		c-1.564,0.389-4.022,0.844-7.386,1.426c-6.365,1.175-12.813,1.891-19.322,2.15c-2.937,0.107-9.662-0.082-20.1-0.579
		c-0.684,2.906-1.236,5.868-1.609,8.932l0.527,0.039c11.631,0.575,19.018,0.795,22.142,0.675c6.519-0.264,12.963-0.982,19.322-2.149
		c3.356-0.575,5.819-1.045,7.387-1.426c0.818-0.077,1.942,0.325,3.354,1.212c2.349,1.644,4.094,2.845,5.215,3.626
		c8.252,6.168,17.453,10.779,27.604,13.812c3.296,0.758,6.712-1.273,10.237-6.118c1.814-2.416,3.562-5.568,5.147-9.433
		c0.513-1.238,1.756-4.579,3.767-10.02c0.858-2.475,1.193-3.881,1.005-4.294c-0.305-0.367-1.288-1.108-2.914-2.224
		C781.38,152.548,780.418,155.088,780.01,156.114z M736.811,214.029c-1.104,1.369-2.61,2.624-4.514,3.733
		c-2.739,1.208-7.583,3.526-14.53,6.983c-12.126,6.114-23.718,14.06-34.794,23.877l6.204,4.69
		c9.483-7.786,19.313-14.345,29.554-19.498c6.946-3.463,11.795-5.786,14.527-6.987c1.907-1.109,3.412-2.354,4.526-3.734
		c1.714-2.123,2.429-4.646,2.108-7.549c-0.162-1.025-0.38-2.323-0.603-3.901c-0.407,0.121-0.849,0.284-1.248,0.415
		C737.704,212.748,737.311,213.41,736.811,214.029z M687.913,267.545c-1.989,0.914-4.04,0.706-6.12-0.605
		c-5.368-3.189-10.539-6.855-15.504-11.002c-9.793-8.169-14.946-12.708-15.46-13.629c-0.24-0.33-0.447-0.545-0.604-0.672
		l-3.612,0.483c-3.69,0.668-8.068-0.459-13.124-3.42c-6.264-3.771-12.206-8.011-17.855-12.662c-0.79,1.039-1.607,1.992-2.4,3.065
		c-0.914,1.284-0.776,2.449,0.377,3.517c6.515,5.657,13.474,10.7,20.839,15.151c0.262,0.149,0.493,0.244,0.739,0.382
		c1.418,0.419,2.789,0.88,4.07,1.446c0.882,0.373,1.725,0.812,2.559,1.289c2.067,0.5,3.994,0.626,5.758,0.299l3.606-0.476
		c0.156,0.126,0.367,0.34,0.609,0.665c0.514,0.921,5.662,5.468,15.457,13.634c4.976,4.143,10.14,7.808,15.498,11.003
		c2.104,1.312,4.131,1.518,6.123,0.601c2.655-1.251,5.739-3.679,9.265-7.249c0.249-0.309,0.354-0.515,0.347-0.657l-0.229-0.187
		l-5.516-4.171C691.006,265.753,689.385,266.853,687.913,267.545z M435.362,583.458c-2.953,3.655-7.322,6.179-13.108,7.558
		c-5.159,1.25-10.205,1.398-15.112,0.46c-2.63-0.489-5.87-1.395-9.697-2.735c-2.892-0.948-4.361-1.317-4.407-1.107
		c0.31,2.687,0.65,5.741,1.004,9.061c0.161-0.153,1.586,0.204,4.361,1.117c3.838,1.34,7.074,2.253,9.7,2.732
		c4.915,0.938,9.949,0.788,15.115-0.457c5.78-1.378,10.149-3.902,13.108-7.563c1.292-1.602,2.25-3.41,2.871-5.425
		c1.093-3.609,0.976-8.149-0.261-13.572c-0.081,1.622-0.294,3.141-0.699,4.5C437.617,580.04,436.664,581.846,435.362,583.458z
		 M395.563,610.984c-0.313-3.021-0.61-5.846-0.902-8.431c0.253,2.479,0.517,5.063,0.798,7.834
		C395.469,610.596,395.527,610.784,395.563,610.984z M545.021,450.087c-0.722,1.688-2.076,3.043-4.063,4.097
		c-2.642,1.521-6.506,3.695-11.653,6.468c-0.729,0.422-1.342,0.562-1.835,0.408c-0.939-0.254-1.957-0.697-3.076-1.351
		c-13.854-7.659-28.243-17.522-43.201-29.604c-4.344-3.509-7.727-6.492-10.149-8.958c-1.761-1.743-3.585-3.581-5.442-5.456
		c-0.755,1.942-1.524,3.872-2.141,5.915c2.975,3.032,5.82,5.897,8.55,8.608c2.424,2.464,5.799,5.45,10.149,8.963
		c14.951,12.078,29.353,21.943,43.206,29.604c1.11,0.646,2.131,1.093,3.077,1.351c0.491,0.146,1.102,0.009,1.828-0.416
		c5.146-2.77,9.021-4.935,11.658-6.46c1.985-1.053,3.337-2.414,4.061-4.101l1.243-2.965c5.288-12.62,10.071-23.067,14.34-31.333
		c0.646-1.116,1.039-1.867,1.181-2.266c0.132-0.397-0.002-0.889-0.416-1.483c-0.781-1.118-1.802-2.035-2.963-2.85
		c-3.958,7.861-8.32,17.418-13.102,28.855L545.021,450.087z M504.835,498.155c-2.557,4.109-4.813,6.506-6.753,7.207
		c-4.071,1.759-10.063,0.759-18-3.008l-0.035,0.538c0.604,12.328,0.241,20.804-1.081,25.406c-1.043,3.817-1.98,6.154-2.791,7.01
		c-3.649,3.733-10.19,6.733-19.604,9.023c-9.43,2.284-16.318,2.672-20.672,1.171c-1.747-0.653-3.838-1.583-6.278-2.797
		c-3.021-1.565-6.762-4.144-11.212-7.739c-10.03-8.103-18.069-16.299-24.139-24.604c-0.507-0.718-0.953-1.376-1.407-2.052
		c-1.364,2.759-1.863,4.609-1.373,5.438c1.014,1.707,2.269,3.603,3.748,5.678c6.063,8.305,14.109,16.504,24.134,24.604
		c2.477,2.001,4.713,3.659,6.748,5.032c0.119-0.07,0.217-0.179,0.326-0.243c2.459-1.28,4.222-1.372,5.314-0.23
		c0.777,0.875,1.676,2.587,2.67,4.98c0.853,0.366,1.688,0.722,2.422,0.995c4.36,1.507,11.252,1.117,20.675-1.164
		c9.427-2.285,15.962-5.291,19.604-9.03c0.82-0.854,1.755-3.188,2.802-7.001c1.313-4.617,1.672-13.081,1.074-25.412l0.046-0.53
		c7.929,3.763,13.919,4.763,17.992,3.001c1.941-0.692,4.194-3.102,6.752-7.207c3.001-4.51,5.441-11.488,7.289-20.958
		c0.424-2.555,0.735-4.419,0.928-5.588c0.189-1.173,0.181-1.841-0.06-2.034c-0.646-0.384-1.252-0.781-1.891-1.176
		C510.232,486.789,507.813,493.698,504.835,498.155z"/>
</g>
<g>
	<path fill="#FFFFFF" d="M517.244,1021.005c-0.314,1.406-0.557,2.317-0.728,2.731c-0.172,0.415-0.484,1.241-0.938,2.479
		c-1.52,4.248-3.949,8.42-7.287,12.518c-1.927,2.366-3.639,3.992-5.137,4.878c-0.809,0.45-1.409,0.71-1.798,0.779
		c-0.719,0.135-1.404,0.159-2.054,0.073c-1.273-0.206-3.001-0.533-5.186-0.982c-3.931-0.819-8.271-1.888-13.016-3.204
		c-0.188-0.041-0.422-0.095-0.704-0.157c-0.208,0.052-0.609,0.475-1.199,1.268l-5.011,6.56c-0.699,0.927-0.778,1.942-0.238,3.048
		c2.763,5.521,5.881,10.638,9.357,15.353c0.105,0.142,0.468,0.547,1.086,1.217c-1.407,1.793-3.073,3.095-5.007,3.902
		c-0.552,0.271-1.162,0.355-1.83,0.255c-0.667-0.099-1.141-0.348-1.427-0.747c-0.492-0.621-0.966-1.229-1.424-1.824
		c-2.639-3.7-5.383-8.733-8.231-15.101c-1.857-4.116-3.593-8.413-5.212-12.891c-0.211-0.559-0.57-0.934-1.078-1.126
		c-1.392-0.469-3.122-0.658-5.189-0.569c-1.887,0.07-2.895,0.053-3.03-0.057c-0.1-0.082-0.125-0.186-0.077-0.313
		c2.12-9.135,5.259-18.022,9.415-26.663c0.178-0.354,0.381-0.604,0.611-0.749c0.202-0.112,1.29-0.224,3.263-0.335
		c5.581-0.386,13.454,0.291,23.618,2.03c10.165,1.74,18.676,3.879,25.531,6.415c1.112,0.405,2.001,0.743,2.669,1.01
		C517.095,1020.883,517.178,1020.95,517.244,1021.005z M473.805,1038.823l-3.816-0.418c-0.128-0.047-0.36-0.068-0.696-0.063
		c-0.553-0.001-0.676,0.375-0.369,1.129c1.365,3.37,2.081,5.082,2.146,5.136c0.083,0.046,0.141,0.082,0.178,0.112
		c0.054-0.066,0.108-0.133,0.163-0.2c0.347-0.493,0.86-1.295,1.541-2.402c0.259-0.454,0.664-1.121,1.215-2.003
		C474.602,1039.307,474.481,1038.876,473.805,1038.823z"/>
	<path fill="#FFFFFF" d="M564.897,939.537c0.735,0.322,1.37,0.7,1.902,1.134c1.467,1.194,2.2,3.288,2.201,6.28
		c-0.008,3.209-0.932,7.541-2.772,12.996c-1.839,5.458-4,10.389-6.481,14.796c-2.019,3.565-4.303,6.915-6.854,10.046
		c-2.171,2.666-3.754,4.202-4.751,4.608c-3.905,1.529-6.518,2.118-7.836,1.764c-0.596-0.152-1.832-0.744-3.709-1.774
		c-2.298-1.261-5.341-3.24-9.127-5.938c-0.873-0.765-1.953-1.617-3.239-2.555c-0.396,0.01-1.023-0.002-1.882-0.036
		c-2.543-0.076-5.914-1.824-10.111-5.243c-1.199-0.978-2.508-2.126-3.926-3.447c-1.005-0.873-2.011-1.748-3.017-2.624
		c-1.23-1.277-1.593-2.295-1.091-3.049c2.538-3.862,5.661-7.664,9.372-11.403c4.456-4.517,9.1-8.382,13.933-11.594
		c5.974-4,11.481-6.442,16.522-7.324c2.218-0.409,5.523-0.266,9.916,0.43C558.338,937.299,561.989,938.277,564.897,939.537z
		 M557.269,953.189c-2.25-0.502-6.368,1.797-12.351,6.898c-4.808,4.064-8.358,7.573-10.652,10.525
		c-1.296,1.66-2.016,2.543-2.157,2.648c-0.19,0.234-0.327,0.47-0.408,0.707c-0.083,0.237,0.742,1.062,2.475,2.473
		c2.865,2.334,5.309,4.13,7.331,5.389c1.042,0.628,2.051,1.089,3.027,1.386c1.853-1.594,3.417-3.174,4.692-4.74
		c2.469-3.031,4.683-6.618,6.642-10.758s3.153-7.698,3.582-10.674c0.214-1.487-0.129-2.598-1.028-3.331
		C558.089,953.442,557.704,953.268,557.269,953.189z"/>
	<path fill="#FFFFFF" d="M587.892,893.345c0.497,0.683,0.983,1.412,1.461,2.188l-7.035,7.819c-1.036,1.207-2.071,2.442-3.103,3.708
		c-2.416,2.966-5.696,7.47-9.843,13.513c-0.136,0.167-0.473,0.751-1.012,1.752c1.694,1.935,3.47,3.77,5.328,5.503
		c3.113-4.502,6.314-8.739,9.604-12.709c1.709-2.099,3.651-4.313,5.826-6.643c0.467-0.506,0.852-0.774,1.155-0.806
		c1.653-0.261,3.188,0.269,4.606,1.59c0.072,0.115,0.206,0.293,0.397,0.532c0.194,0.24,0.165,0.48-0.087,0.719
		c-6.145,6.798-11.811,13.987-16.996,21.568c0.229,0.187,0.428,0.377,0.597,0.569c1.957,1.871,3.719,2.446,5.282,1.726
		c0.382-0.133,0.897-0.6,1.549-1.399c1.688-2.004,3.791-4.586,6.309-7.746c3.047-3.945,6.458-7.928,10.231-11.949
		c1.707-1.822,2.923-2.772,3.648-2.846c1.396-0.082,2.601,0.345,3.612,1.279c0.272,0.277,0.499,0.546,0.678,0.801
		c0.179,0.258,0.078,0.619-0.302,1.085c-1.179,1.312-2.535,2.978-4.07,4.997l-14.487,18.707c-0.271,0.333-0.534,0.619-0.784,0.858
		c-1.339,1.236-3.058,2.428-5.154,3.573c-2.098,1.146-3.717,1.809-4.859,1.986c-0.967,0.1-1.988-0.178-3.063-0.833
		c-0.747-0.442-1.787-1.206-3.12-2.292c-3.564-2.903-6.823-5.944-9.774-9.125c-0.545-0.555-0.869-0.873-0.968-0.955
		c-0.513-0.527-0.966-0.786-1.362-0.776c-0.729,0.35-1.53,0.722-2.405,1.116c-1.299,0.438-2.777,0.314-4.436-0.371
		c-1.11-0.406-2.822-1.468-5.136-3.186c-2.308-1.658-4.272-3.259-5.897-4.804l-1.467-1.361c0.301-0.641,0.564-1.203,0.79-1.685
		c2.147-4.402,5.886-9.641,11.22-15.715c3.261-3.662,6.974-7.37,11.141-11.126c4.167-3.755,7.128-5.997,8.887-6.727
		c2.075-0.914,5.012,0.175,8.81,3.269C585.427,890.589,586.836,891.986,587.892,893.345z"/>
	<path fill="#FFFFFF" d="M610.604,839.026c1.142,0.71,2.296,1.538,3.461,2.487c5.165,4.206,9.764,10.059,13.798,17.556
		c3.91,7.175,6.408,14.143,7.496,20.902c0.147,0.84,0.355,2.284,0.627,4.334c-6.301,5.286-13.752,8.888-22.351,10.806
		c-2.594,0.326-6.787-0.512-12.58-2.517c-2.69-0.915-6.162-2.454-10.414-4.616c-4.253-2.161-7.609-4.078-10.071-5.75l-1.722-1.153
		c1.713-7.137,5.084-14.063,10.107-20.778c1.046-1.419,2.059-1.98,3.034-1.684c0.509,0.192,1.17,0.675,1.981,1.446
		c1.331,1.362,3.22,3.261,5.667,5.697c1.051,1.022,2.11,1.968,3.177,2.836c4.265,3.475,9.295,6.108,15.093,7.903
		c3.276,1.012,5.746,1.449,7.409,1.313c0.215,0.01,0.336-0.14,0.365-0.449c0.03-0.581-0.002-1.188-0.099-1.819
		c-0.663-3.743-2.513-8.038-5.546-12.885c-2.334-3.667-4.854-6.935-7.562-9.803c-1.615-1.758-3.81-3.793-6.581-6.106
		c-1.205-1.036-2.265-1.845-3.181-2.423c0.649-1.135,1.258-2.053,1.827-2.753C606.794,838.806,608.813,837.958,610.604,839.026z"/>
	<path fill="#FFFFFF" d="M628.919,814.295c0.268,0.218,0.676,0.635,1.228,1.249c7.651,9.114,15.798,17.855,24.44,26.226
		c1.931,1.85,3.939,3.569,6.025,5.156c-3.134,7.589-5.288,11.902-6.466,12.938c-1.095,0.937-2.684,1.085-4.765,0.441
		c-5.957-1.804-12.783-5.84-20.479-12.108c-5.197-4.232-10.035-8.838-14.515-13.817c-0.565-0.735-0.849-1.134-0.855-1.195
		l0.319-0.903c1.315-3.86,3.818-8.056,7.509-12.587c1.601-1.965,3.081-3.476,4.439-4.53c0.648-0.523,1.149-0.864,1.498-1.023
		C627.859,813.931,628.398,813.982,628.919,814.295z"/>
	<path fill="#FFFFFF" d="M685.675,807.99c0.908,0.519,1.648,1.177,2.218,1.973c0.218,0.344,0.279,0.644,0.184,0.897
		c0.006,0.061-0.195,0.479-0.605,1.253c-2.463,4.59-5.171,10.364-8.124,17.323l-0.699,1.675c-0.364,0.922-1.112,1.671-2.244,2.245
		c-1.472,0.853-3.622,2.065-6.455,3.638c-0.438,0.197-0.797,0.264-1.079,0.201c-0.508-0.191-1.069-0.455-1.683-0.789
		c-7.707-4.282-15.708-9.802-24.004-16.559c-2.398-1.953-4.263-3.61-5.593-4.972c-1.53-1.522-3.116-3.146-4.759-4.873
		c1.678-5.394,4.198-10.157,7.563-14.288c0.542-0.666,1.116-1.335,1.72-2.008c1.266-1.352,2.193-2.286,2.782-2.805
		c1.074-0.842,2.235-1.449,3.479-1.821c5.402,7.726,11.773,15.382,19.116,22.968c2.766,2.863,4.962,4.929,6.588,6.197
		c0.5,0.407,0.818,0.613,0.956,0.612c0.139,0.003,0.446-0.189,0.926-0.575c0.284-0.211,1.018-1.111,2.198-2.698
		c3.991-5.172,6.304-7.806,6.935-7.901C685.154,807.679,685.348,807.779,685.675,807.99z"/>
	<path fill="#FFFFFF" d="M673.202,759.927c0.268,0.218,0.676,0.634,1.228,1.249c7.651,9.114,15.798,17.855,24.44,26.226
		c1.931,1.85,3.939,3.568,6.025,5.156c-3.134,7.589-5.288,11.902-6.466,12.938c-1.095,0.937-2.684,1.085-4.765,0.441
		c-5.957-1.804-12.782-5.84-20.478-12.108c-5.197-4.232-10.036-8.838-14.516-13.817c-0.564-0.736-0.849-1.134-0.855-1.195
		l0.319-0.903c1.315-3.86,3.818-8.056,7.509-12.587c1.602-1.966,3.081-3.476,4.439-4.53c0.648-0.524,1.149-0.865,1.498-1.024
		C672.143,759.563,672.682,759.614,673.202,759.927z"/>
	<path fill="#FFFFFF" d="M740.065,740.905c1.596,1.854,1.821,4.671,0.682,8.452c-1.805,5.957-5.826,12.767-12.067,20.429
		c-6.268,7.695-11.803,12.72-16.6,15.073c-1.106,0.541-2.208,0.363-3.308-0.532c-0.267-0.217-0.506-0.466-0.719-0.751
		c-0.317-0.426-0.775-1.019-1.373-1.783c6.406-5.755,11.793-11.314,16.162-16.679c4.667-5.729,7.697-10.742,9.09-15.039
		c0.395-1.23,0.29-2.092-0.31-2.58c-1.065-0.867-3.414,0.655-7.046,4.569c-1.022,1.051-3.107,3.509-6.255,7.373
		c-3.012,3.698-5.723,7.198-8.136,10.498c-2.009,2.741-3.986,5.065-5.929,6.974c-2.309,2.222-5.894,1.352-10.758-2.61
		c-2.599-2.116-4.742-4.859-6.431-8.23c-0.851-1.744-1.228-3.937-1.13-6.572c0.207-4.541,1.528-10.144,3.963-16.806
		c2.686-7.177,5.726-12.848,9.118-17.013c0.732-0.899,1.474-1.708,2.225-2.427c0.556-0.544,1.504-0.824,2.847-0.84
		c1.766-0.058,4.077,0.439,6.933,1.49c2.447,0.941,4.488,1.938,6.124,2.993c0.454,0.259,0.994,0.616,1.621,1.071
		c0.527,0.374,0.627,0.898,0.298,1.572c-3.165,6.066-6.167,12.711-9.002,19.933c-1.717,4.421-2.871,8.219-3.463,11.395
		c-0.141,0.717-0.11,1.156,0.09,1.319c0.233,0.19,0.591-0.045,1.073-0.705c0.51-0.693,0.789-1.088,0.841-1.186
		c0.051-0.097,1.069-1.415,3.055-3.954c1.984-2.539,3.116-3.945,3.394-4.218c7.331-8.66,12.743-13.366,16.239-14.122
		c2.864-0.659,5.363-0.12,7.495,1.616C739.256,739.997,739.683,740.427,740.065,740.905z"/>
	<path fill="#FFFFFF" d="M741.067,674.973c0.723,1.087,1.87,2.741,3.439,4.963c6.263,8.37,13.19,15.647,20.786,21.834
		c1.933,1.574,3.973,3.152,6.118,4.734c0.395,0.266,1.785,1.177,4.175,2.734c-0.472,1.667-1.264,3.184-2.376,4.549
		c-1.004,1.233-1.932,1.725-2.781,1.476c-0.85-0.248-2.783-1.38-5.799-3.393c-5.382-3.664-10.487-7.738-15.313-12.224
		c-1.089,2.493-3.132,5.955-6.13,10.385c-0.45,0.688-0.438,1.251,0.035,1.691c1.869,1.855,3.754,3.556,5.652,5.102
		c3.865,3.148,8.219,6.003,13.062,8.562c-1.511,3.146-2.918,5.825-4.219,8.035c-0.939,1.563-1.803,2.826-2.589,3.792
		c-1.466,1.8-3.006,2.873-4.619,3.221c-2.421,0.522-6.404-0.811-11.953-4c-4.214-2.379-7.793-4.822-10.736-7.331l-6.225-5.319
		c-2.877-2.454-5.827-5.466-8.85-9.037c-0.238-0.249,0.073-1.52,0.939-3.807c1.717-4.42,4.433-8.913,8.15-13.478
		c1.438-1.766,2.801-3.233,4.085-4.403c0.312-0.245,0.512-0.387,0.599-0.428c0.088-0.038,0.262,0.021,0.521,0.176
		c0.963,0.451,3.544,3.441,7.743,8.967l2.807,3.698c1.223-3.271,2.955-6.348,5.194-9.234c0.944-1.227,1.225-2.049,0.848-2.47
		l-8.64-10.111c-0.73-0.871-1.384-1.736-1.959-2.594c0.067-0.221,0.168-0.444,0.297-0.672c2.073-3.021,4.281-4.881,6.622-5.579
		C740.422,674.642,740.794,674.695,741.067,674.973z"/>
	<path fill="#FFFFFF" d="M826.155,620.006c0.635,0.24,1.302,0.645,2.002,1.215c1.467,1.194,2.479,2.435,3.037,3.721
		c0.894,2.169,1.084,5.066,0.568,8.691c-0.422,3.036-1.202,5.865-2.339,8.485c-1.959,4.445-4.376,8.435-7.252,11.966
		c-5.129,6.296-11.576,11.049-19.342,14.254c-3.812,1.551-7.591,2.075-11.338,1.572c-1.983-0.286-3.708-1.025-5.174-2.22
		c-2.198-1.791-3.819-4.496-4.861-8.115c-0.853-2.967-1.271-6.161-1.255-9.585c0.125-11.037,2.953-21.895,8.489-32.569
		c1.788-3.42,3.393-5.966,4.809-7.639c0.359-0.372,0.837-0.619,1.437-0.742c2.48-0.526,5.929-0.033,10.345,1.485
		s7.915,3.413,10.499,5.685c1.484,1.375,2.259,2.228,2.322,2.557c0.013,0.121-0.008,0.215-0.062,0.281
		c-9.025,10.604-14.463,20.308-16.312,29.108c-1.295,6.15-1.177,9.849,0.355,11.096c0.8,0.651,2.039,0.525,3.717-0.38
		c2.69-1.466,5.502-3.998,8.433-7.597c1.654-2.031,2.805-3.782,3.448-5.254c0.505-1.029,0.562-1.675,0.168-1.941
		c-1.917-1.117-3.549-1.256-4.899-0.415c-0.289,0.151-1.521,1.087-3.698,2.806c-1.128,0.91-1.859,1.229-2.193,0.957
		c-0.266-0.217-0.153-0.762,0.337-1.638c0.302-0.641,0.776-1.529,1.423-2.665c2.717-4.491,5.886-9.198,9.506-14.119
		c2.336-3.14,4.67-6.006,7.001-8.595C825.624,620.045,825.901,619.909,826.155,620.006z"/>
	<path fill="#FFFFFF" d="M877.624,578.552c-0.314,1.406-0.558,2.317-0.729,2.731c-0.172,0.415-0.484,1.241-0.938,2.478
		c-1.52,4.249-3.949,8.42-7.287,12.518c-1.927,2.366-3.639,3.992-5.137,4.877c-0.809,0.45-1.408,0.71-1.798,0.779
		c-0.72,0.135-1.405,0.159-2.055,0.073c-1.272-0.206-3-0.533-5.186-0.982c-3.931-0.818-8.271-1.887-13.017-3.204
		c-0.188-0.041-0.422-0.094-0.703-0.157c-0.208,0.052-0.609,0.475-1.198,1.268l-5.011,6.56c-0.7,0.927-0.778,1.942-0.238,3.048
		c2.763,5.521,5.881,10.639,9.357,15.353c0.105,0.142,0.469,0.548,1.086,1.218c-1.406,1.792-3.073,3.094-5.007,3.901
		c-0.552,0.271-1.162,0.355-1.829,0.256s-1.142-0.349-1.428-0.747c-0.491-0.622-0.966-1.229-1.423-1.825
		c-2.64-3.7-5.383-8.733-8.232-15.101c-1.856-4.116-3.593-8.413-5.211-12.891c-0.211-0.558-0.57-0.933-1.078-1.126
		c-1.392-0.469-3.122-0.658-5.189-0.569c-1.887,0.071-2.896,0.053-3.03-0.057c-0.1-0.082-0.124-0.186-0.076-0.313
		c2.119-9.135,5.258-18.022,9.414-26.663c0.178-0.354,0.382-0.604,0.61-0.75c0.202-0.112,1.29-0.223,3.264-0.334
		c5.581-0.386,13.454,0.291,23.618,2.03c10.164,1.741,18.676,3.879,25.53,6.415c1.111,0.406,2.001,0.743,2.67,1.01
		C877.475,578.43,877.558,578.498,877.624,578.552z M834.185,596.37l-3.817-0.417c-0.127-0.047-0.359-0.068-0.695-0.063
		c-0.554-0.001-0.677,0.375-0.369,1.129c1.364,3.371,2.08,5.083,2.146,5.135c0.082,0.047,0.141,0.082,0.178,0.112
		c0.055-0.066,0.108-0.133,0.163-0.2c0.347-0.493,0.859-1.294,1.541-2.402c0.259-0.454,0.664-1.121,1.216-2.002
		C834.981,596.854,834.861,596.423,834.185,596.37z"/>
	<path fill="#FFFFFF" d="M926.54,522.884c-0.174,0.689-0.381,1.353-0.621,1.987c-0.968,3.092-2.915,6.437-5.846,10.035
		c-2.985,3.666-5.884,6.236-8.694,7.714c-0.607,0.337-1.245,0.677-1.911,1.02c-0.095-0.021-0.174-0.058-0.241-0.113
		c-8.229-6.702-15.298-11.324-21.208-13.865c-0.414-0.172-0.689-0.174-0.825-0.008c-0.462,0.567,0.684,2.954,3.436,7.162
		c2.751,4.209,6.357,9.017,10.819,14.424c0.306,0.305,0.577,0.72,0.815,1.245c-0.168,0.751-0.883,2.344-2.146,4.778
		c-1.264,2.435-2.52,4.419-3.767,5.951c-0.598,0.733-1.149,1.308-1.656,1.727c-0.622,0.491-1.401,0.632-2.339,0.422
		c-0.408-0.11-4.351-1.632-11.828-4.563c-2.153-0.756-4.927-1.74-8.317-2.951c-0.415-0.171-0.713-0.248-0.895-0.229
		c-0.055,0.067,0.735,1.513,2.368,4.339c3.047,5.308,6.818,10.099,11.318,14.373c0.032,0.026-0.029,0.171-0.186,0.431
		c-0.598,0.733-1.42,1.49-2.471,2.269c-1.05,0.779-1.896,1.24-2.538,1.382c-0.643,0.142-1.268-0.061-1.873-0.61
		c-5.68-5.069-10.8-10.348-15.362-15.837c-1.664-2.243-4.221-5.6-7.672-10.073c-0.141-0.168-1.213-0.655-3.219-1.458l-2.237-0.825
		c-0.087-2.343,0.697-5.5,2.353-9.472c1.656-3.972,3.568-7.29,5.74-9.955c0.922-1.132,1.836-2.05,2.741-2.754
		c0.649-0.523,5.681,1.191,15.095,5.146c1.537,0.699,3.898,1.679,7.081,2.941l-7.848-13.125c-0.806-1.322-1.915-2.308-3.326-2.958
		c0.09-0.314,0.184-0.599,0.279-0.854c0.605-2.443,1.982-5.562,4.129-9.355c2.147-3.792,4.347-7.071,6.599-9.837
		c0.95-1.166,1.76-2.059,2.429-2.676c0.128,0.048,0.45,0.199,0.963,0.451c0.643,0.302,3.267,1.775,7.873,4.418
		c7.632,4.443,15.458,8.85,23.479,13.222C920.363,518.629,923.533,520.657,926.54,522.884z"/>
	<path fill="#FFFFFF" d="M937.038,464.684c0.496,0.683,0.982,1.411,1.46,2.187l-7.034,7.82c-1.037,1.207-2.072,2.441-3.103,3.708
		c-2.416,2.965-5.696,7.469-9.843,13.513c-0.137,0.167-0.473,0.751-1.012,1.752c1.693,1.935,3.47,3.769,5.327,5.503
		c3.112-4.502,6.313-8.739,9.604-12.709c1.709-2.099,3.65-4.313,5.826-6.643c0.467-0.506,0.852-0.774,1.154-0.805
		c1.653-0.26,3.188,0.269,4.606,1.59c0.072,0.115,0.205,0.292,0.397,0.532c0.193,0.24,0.164,0.48-0.087,0.719
		c-6.146,6.798-11.811,13.988-16.996,21.568c0.229,0.186,0.428,0.377,0.598,0.569c1.956,1.871,3.718,2.446,5.282,1.726
		c0.382-0.132,0.897-0.6,1.548-1.399c1.688-2.004,3.792-4.586,6.31-7.746c3.047-3.946,6.457-7.929,10.231-11.949
		c1.707-1.822,2.923-2.772,3.647-2.847c1.396-0.081,2.601,0.345,3.613,1.28c0.272,0.278,0.499,0.545,0.678,0.801
		c0.179,0.257,0.078,0.619-0.302,1.084c-1.18,1.312-2.536,2.978-4.07,4.998l-14.488,18.706c-0.271,0.333-0.533,0.619-0.783,0.858
		c-1.339,1.237-3.058,2.428-5.154,3.574c-2.098,1.146-3.717,1.808-4.859,1.986c-0.967,0.1-1.988-0.178-3.063-0.833
		c-0.746-0.442-1.787-1.206-3.12-2.292c-3.564-2.903-6.823-5.945-9.773-9.125c-0.546-0.555-0.869-0.874-0.969-0.955
		c-0.512-0.527-0.966-0.787-1.361-0.776c-0.729,0.35-1.53,0.721-2.406,1.116c-1.299,0.438-2.777,0.314-4.436-0.371
		c-1.11-0.406-2.822-1.468-5.136-3.186c-2.309-1.658-4.273-3.258-5.897-4.803l-1.468-1.362c0.301-0.64,0.564-1.203,0.79-1.684
		c2.146-4.403,5.886-9.641,11.22-15.715c3.262-3.662,6.975-7.37,11.142-11.126c4.167-3.754,7.128-5.997,8.887-6.726
		c2.074-0.915,5.012,0.174,8.81,3.268C934.573,461.928,935.982,463.325,937.038,464.684z"/>
</g>
</svg>
