<?xml version="1.0" encoding="utf-8"?>
<!-- Generator: Adobe Illustrator 13.0.0, SVG Export Plug-In . SVG Version: 6.00 Build 14948)  -->
<!DOCTYPE svg PUBLIC "-//W3C//DTD SVG 1.1//EN" "http://www.w3.org/Graphics/SVG/1.1/DTD/svg11.dtd">
<svg version="1.1" id="Livello_1" xmlns="http://www.w3.org/2000/svg" xmlns:xlink="http://www.w3.org/1999/xlink" x="0px" y="0px"
	 width="224px" height="28px" viewBox="0 0 224 28" enable-background="new 0 0 224 28" xml:space="preserve">
<ellipse fill="#FFFFFF" cx="33.828" cy="14.66" rx="30.55" ry="11.553"/>
<g>
	<g>
		<path fill="#FFFFFF" d="M82.307,11.297c-0.08,0.5-0.422,0.912-1.021,1.236c-0.957,0.498-2.264,0.749-3.92,0.749
			c-1.657,0-2.891-0.239-3.7-0.714c-0.246-0.139-0.328-0.412-0.246-0.818c0.017-0.115,0.046-0.277,0.083-0.488
			c1.409,0.292,2.694,0.437,3.85,0.437c1.238,0,2.209-0.175,2.909-0.521c0.199-0.096,0.3-0.223,0.3-0.385
			c0-0.395-0.978-0.591-2.936-0.591c-0.803,0-1.544,0.021-2.227,0.069c-0.564,0.033-1.073,0.017-1.531-0.053
			c-0.524-0.081-0.79-0.79-0.79-2.125c0-0.717,0.129-1.438,0.386-2.157c0.134-0.383,0.381-0.741,0.736-1.079
			c0.61-0.581,1.472-1.113,2.593-1.602c1.212-0.521,2.262-0.783,3.154-0.783c0.198,0,0.382,0.012,0.546,0.035
			c0.138,0.023,0.275,0.145,0.411,0.365c0.199,0.289,0.382,0.737,0.546,1.34c0.135,0.535,0.223,1.005,0.259,1.41
			c0.009,0.117,0.019,0.255,0.028,0.418c0,0.139-0.061,0.227-0.179,0.261c-1.12,0.29-2.292,0.686-3.523,1.185
			c-0.746,0.312-1.359,0.638-1.844,0.973c-0.1,0.07-0.148,0.135-0.148,0.193s0.063,0.086,0.19,0.086
			c0.145-0.01,0.231-0.023,0.261-0.035c0.218-0.045,0.79-0.058,1.72-0.033c1.891,0.045,3.076,0.307,3.548,0.783
			c0.384,0.382,0.574,0.869,0.574,1.461C82.335,11.042,82.327,11.17,82.307,11.297z"/>
		<path fill="#FFFFFF" d="M91.157,2.594c-0.064,0.268-0.154,0.68-0.273,1.237c-0.428,2.157-0.642,4.281-0.642,6.371
			c0,0.521,0.012,1.065,0.04,1.636c0,0.104,0.027,0.452,0.084,1.043c-0.266,0.162-0.547,0.244-0.847,0.244
			c-0.267,0-0.424-0.088-0.479-0.262c-0.054-0.174-0.108-0.648-0.162-1.427c-0.103-1.38-0.115-2.767-0.041-4.16
			c-0.438,0.151-1.098,0.28-1.981,0.382c-0.136,0.025-0.212,0.1-0.23,0.227c-0.037,0.57-0.056,1.109-0.056,1.62
			c0,1.056,0.09,2.158,0.272,3.307c-0.571,0.174-1.07,0.302-1.487,0.384c-0.311,0.059-0.564,0.087-0.768,0.087
			c-0.39,0-0.69-0.11-0.898-0.331c-0.327-0.336-0.58-1.172-0.752-2.506c-0.128-1.021-0.187-1.939-0.178-2.752l0.027-1.757
			c0.019-0.801,0.102-1.694,0.247-2.681c0.009-0.069,0.204-0.186,0.586-0.349c0.755-0.313,1.627-0.47,2.606-0.47
			c0.375,0,0.707,0.035,0.998,0.104c0.064,0.012,0.102,0.023,0.118,0.036c0.012,0.01,0.022,0.045,0.034,0.104
			c0.035,0.221-0.083,1.05-0.356,2.488l-0.178,0.958c0.556-0.243,1.14-0.376,1.748-0.4c0.258,0,0.392-0.063,0.41-0.192l0.396-2.767
			c0.037-0.243,0.077-0.47,0.123-0.679c0.045-0.012,0.087-0.021,0.122-0.035c0.609-0.07,1.083,0.041,1.419,0.331
			C91.135,2.445,91.167,2.514,91.157,2.594z"/>
		<path fill="#FFFFFF" d="M101.344,12.204c-0.201,0.127-0.339,0.207-0.41,0.235c-0.073,0.028-0.204,0.089-0.395,0.183
			c-0.684,0.301-1.444,0.452-2.28,0.452c-0.703,0-1.165-0.122-1.394-0.366c-0.092-0.092-0.165-0.196-0.219-0.314
			c-0.101-0.23-0.233-0.544-0.396-0.938C95.958,10.724,95.652,9.905,95.334,9c-0.009-0.045-0.027-0.094-0.054-0.14
			c-0.018-0.011-0.104-0.017-0.26-0.017l-1.323,0.053c-0.183,0.01-0.315,0.127-0.396,0.348c-0.555,1.578-0.89,2.831-0.998,3.76
			c-0.363,0.012-0.692-0.082-0.983-0.279c-0.219-0.15-0.31-0.342-0.272-0.574c0.035-0.163,0.067-0.319,0.095-0.47
			c0.19-0.883,0.533-1.955,1.025-3.222c0.317-0.812,0.675-1.635,1.063-2.471c0.054-0.104,0.064-0.209,0.03-0.313
			c-0.074-0.278-0.219-0.574-0.438-0.888c-0.203-0.277-0.302-0.436-0.302-0.47c0-0.022,0.01-0.045,0.027-0.07
			c1.34-0.822,2.747-1.462,4.233-1.913c0.063-0.023,0.112-0.023,0.149,0c0.037,0.012,0.164,0.168,0.383,0.47
			c0.601,0.824,1.304,2.144,2.11,3.959c0.805,1.817,1.394,3.427,1.769,4.831C101.293,11.976,101.344,12.18,101.344,12.204z
			 M94.787,7.659l-0.329-0.643c-0.01-0.023-0.029-0.064-0.056-0.121c-0.065-0.094-0.13-0.064-0.192,0.082
			c-0.254,0.594-0.396,0.93-0.422,1.012c0.003,0,0.005,0.006,0.005,0.02c0.018,0,0.036,0,0.055,0c0.09,0,0.24-0.018,0.448-0.053
			c0.084-0.011,0.206-0.034,0.369-0.07C94.804,7.852,94.844,7.776,94.787,7.659z"/>
		<path fill="#FFFFFF" d="M110.398,7.782c0.007,0.244-0.061,0.436-0.208,0.574c-0.425,0.43-1.25,0.889-2.469,1.375
			c-0.594,0.222-1.18,0.447-1.763,0.68h-0.015c1.667,0.789,2.919,1.543,3.755,2.263c-0.099,0.139-0.181,0.256-0.245,0.348
			c-0.189,0.244-0.413,0.365-0.668,0.365c-0.165,0-0.341-0.046-0.533-0.138c-0.246-0.164-0.696-0.437-1.353-0.818
			c-1.145-0.662-2.398-1.139-3.754-1.428l0.055,2.123c0,0.012,0,0.023,0,0.035c-0.008,0.012-0.033,0.018-0.067,0.018
			c-0.467-0.059-0.82-0.162-1.066-0.314c-0.183-0.115-0.287-0.318-0.316-0.608c-0.079-0.731-0.116-1.479-0.106-2.246
			c0.019-1.507,0.046-2.32,0.081-2.437c0.008-0.046,0.015-0.081,0.015-0.104l-0.247-0.297c-0.264-0.29-0.436-0.777-0.519-1.462
			c-0.109-1.01-0.149-2.024-0.122-3.047c0.009-0.184,0.087-0.283,0.233-0.295c0.909-0.058,1.781-0.034,2.62,0.069
			c0.718,0.082,1.491,0.256,2.321,0.523c0.802,0.243,1.443,0.504,1.924,0.783c0.274,0.15,0.545,0.394,0.807,0.729
			c0.482,0.593,0.865,1.19,1.148,1.794C110.217,6.917,110.379,7.422,110.398,7.782z M107.531,8.086
			c-0.028-0.029-0.094-0.072-0.192-0.131c-0.974-0.359-1.938-0.539-2.896-0.539c-0.455,0-0.81,0.029-1.065,0.087
			c-0.109,0.616-0.169,1.235-0.177,1.862c1.418,0.023,2.781-0.255,4.081-0.836c0.192-0.093,0.289-0.209,0.289-0.348
			C107.571,8.148,107.557,8.115,107.531,8.086z"/>
		<path fill="#FFFFFF" d="M118.742,6.668c-0.03,0.174-0.071,0.354-0.126,0.539l-1.747-0.105c-0.857-0.045-2.053,0.014-3.592,0.175
			c-0.037,0-0.145,0.018-0.328,0.052c-0.07,0.547-0.123,1.091-0.15,1.637c0.901-0.093,1.787-0.133,2.652-0.121
			c0.453,0,0.943,0.023,1.474,0.068c0.107,0,0.183,0.024,0.218,0.07c0.207,0.231,0.305,0.557,0.287,0.975
			c-0.009,0.151-0.054,0.227-0.138,0.227c-1.521-0.105-3.045-0.069-4.571,0.104c0,0.057-0.009,0.109-0.017,0.154
			c-0.024,0.584,0.083,0.957,0.329,1.119c0.063,0.045,0.179,0.068,0.341,0.068c0.444,0.012,1.006,0.012,1.679,0
			c0.828-0.035,1.702-0.013,2.624,0.069c0.417,0.034,0.669,0.11,0.75,0.226c0.155,0.221,0.226,0.477,0.22,0.766
			c-0.012,0.082-0.022,0.154-0.035,0.219c-0.016,0.063-0.069,0.096-0.172,0.096c-0.301-0.012-0.658-0.012-1.076,0l-3.947,0.121
			c-0.074,0-0.139-0.006-0.193-0.018c-0.299-0.046-0.636-0.166-1.009-0.356s-0.624-0.368-0.751-0.53
			c-0.127-0.164-0.205-0.372-0.233-0.627c-0.098-0.836-0.058-2.055,0.123-3.655c0.012-0.163,0.02-0.262,0.029-0.298
			c0.008-0.149-0.01-0.26-0.056-0.329c-0.117-0.07-0.251-0.151-0.396-0.243c-0.192-0.151-0.333-0.412-0.425-0.785
			c-0.153-0.637-0.194-1.6-0.123-2.888l0.027-0.435c0.109-0.035,0.207-0.063,0.288-0.088c0.802-0.23,1.875-0.319,3.225-0.261
			c0.817,0.047,1.689,0.163,2.613,0.349c0.924,0.185,1.525,0.37,1.811,0.557c0.336,0.22,0.504,0.853,0.504,1.896
			C118.85,5.902,118.811,6.319,118.742,6.668z"/>
		<path fill="#FFFFFF" d="M134.293,3.413c-0.009,0.697-0.204,1.451-0.588,2.263c-0.154,0.325-0.403,0.726-0.751,1.202
			c-0.144,0.197-0.29,0.389-0.437,0.573c-0.012,0.024-0.035,0.285-0.082,0.783c-0.108,1.243-0.166,2.298-0.166,3.169
			c0,0.232,0.012,0.411,0.03,0.539c0.019,0.268,0.021,0.43,0.011,0.488c-0.017,0.045-0.14,0.121-0.367,0.225
			c-0.508,0.222-0.824,0.354-0.94,0.4c-0.375,0.141-0.703,0.215-0.983,0.228c-0.556,0.035-0.9-0.128-1.037-0.488
			c-0.375-1.159-0.578-2.349-0.616-3.568c-0.009-0.162-0.021-0.412-0.039-0.749c-0.021-0.195-0.056-0.329-0.11-0.398
			c-0.119-0.117-0.295-0.309-0.531-0.575c-0.455-0.498-0.885-1.039-1.283-1.618c-0.191-0.278-0.605-0.976-1.241-2.09l-0.028-0.051
			c1.146-0.917,2.357-1.376,3.631-1.376c0.174,0,0.346,0.012,0.514,0.035c0.17,0.024,0.271,0.046,0.309,0.069
			c0.034,0.023,0.063,0.1,0.08,0.227c0.127,0.904,0.327,1.862,0.602,2.871c0.155,0.57,0.297,0.945,0.424,1.132
			c0.072,0.116,0.132,0.157,0.178,0.122c0.62-0.441,1.104-1.271,1.445-2.489c0.256-0.893,0.381-1.618,0.369-2.176
			c0.366-0.011,0.707,0.012,1.024,0.069C134.107,2.299,134.303,2.694,134.293,3.413z"/>
		<path fill="#FFFFFF" d="M144.223,8.6c-0.32,1.346-0.965,2.478-1.939,3.395s-2.018,1.381-3.129,1.392
			c-1.119,0.011-2.176-0.444-3.17-1.366c-0.988-0.922-1.646-2.063-1.963-3.42c-0.095-0.545-0.082-1.062,0.026-1.549
			c0.183-0.871,0.646-1.764,1.392-2.681c0.748-0.917,1.492-1.515,2.24-1.792c0.463-0.175,0.941-0.263,1.435-0.263
			c0.499,0,0.983,0.088,1.448,0.263c0.746,0.277,1.492,0.875,2.236,1.792c0.748,0.917,1.211,1.81,1.395,2.681
			C144.305,7.539,144.311,8.055,144.223,8.6z M140.123,10.062c0-0.511-0.1-0.945-0.299-1.306c-0.201-0.359-0.438-0.539-0.711-0.539
			c-0.281,0-0.521,0.18-0.717,0.539c-0.194,0.36-0.295,0.795-0.295,1.306s0.101,0.946,0.295,1.306
			c0.194,0.359,0.436,0.54,0.717,0.54c0.272,0,0.51-0.181,0.711-0.54C140.023,11.008,140.123,10.573,140.123,10.062z"/>
		<path fill="#FFFFFF" d="M155.061,11.785c0,0.036-0.047,0.088-0.143,0.157c-0.098,0.068-0.246,0.18-0.457,0.331
			c-0.79,0.534-1.438,0.829-1.938,0.888c-0.448,0.068-0.754,0.04-0.916-0.087c-0.365-0.243-0.643-0.87-0.832-1.88l-0.041,0.035
			c-0.855,0.972-1.49,1.567-1.899,1.789c-0.336,0.188-0.562,0.275-0.668,0.265c-0.481-0.059-1.083-0.438-1.795-1.136
			c-0.715-0.698-1.146-1.304-1.292-1.816c-0.057-0.209-0.107-0.471-0.164-0.785c-0.063-0.396-0.096-0.931-0.096-1.606
			c0-1.525,0.123-2.876,0.369-4.052c0.063-0.29,0.127-0.547,0.188-0.768c0.047-0.152,0.345-0.277,0.896-0.376
			c0.551-0.1,1.127-0.131,1.729-0.097c0.637,0.023,1.143,0.064,1.516,0.122c0.344,0.059,0.519,0.181,0.519,0.367
			c0,0.069-0.007,0.151-0.026,0.243c-0.107,0.383-0.273,0.954-0.49,1.709c-0.429,1.489-0.68,2.978-0.754,4.466
			c-0.033,0.675-0.007,1.151,0.084,1.431c0.053,0.175,0.154,0.203,0.301,0.087c0.564-0.429,1.029-0.952,1.393-1.566l-0.014-0.191
			c-0.063-0.8-0.098-1.655-0.098-2.559c0-1.08,0.043-1.764,0.123-2.055c0.086-0.289,0.233-0.509,0.452-0.662
			c0.728-0.521,1.539-0.898,2.431-1.131c1.028-0.276,1.541-0.365,1.541-0.261c0,0.07,0.008,0.139,0.016,0.209
			c-0.026,0.486-0.072,1.445-0.137,2.872c-0.025,0.591-0.041,1.172-0.041,1.741C154.816,8.837,154.898,10.276,155.061,11.785z"/>
		<path fill="#FFFFFF" d="M165.305,7.782c0.006,0.244-0.061,0.436-0.203,0.574c-0.433,0.43-1.252,0.889-2.475,1.375
			c-0.593,0.222-1.178,0.447-1.762,0.68h-0.014c1.664,0.789,2.916,1.543,3.756,2.263c-0.103,0.139-0.183,0.256-0.248,0.348
			c-0.189,0.244-0.414,0.365-0.668,0.365c-0.164,0-0.342-0.046-0.533-0.138c-0.243-0.164-0.694-0.437-1.352-0.818
			c-1.146-0.662-2.398-1.139-3.755-1.428l0.054,2.123c0,0.012,0,0.023,0,0.035c-0.008,0.012-0.028,0.018-0.066,0.018
			c-0.465-0.059-0.82-0.162-1.064-0.314c-0.182-0.115-0.287-0.318-0.313-0.608c-0.084-0.731-0.119-1.479-0.111-2.246
			c0.019-1.507,0.046-2.32,0.083-2.437c0.01-0.046,0.014-0.081,0.014-0.104L156.4,7.172c-0.267-0.29-0.438-0.777-0.52-1.462
			c-0.107-1.01-0.15-2.024-0.123-3.047c0.01-0.184,0.086-0.283,0.232-0.295c0.91-0.058,1.783-0.034,2.623,0.069
			c0.715,0.082,1.492,0.256,2.32,0.523c0.799,0.243,1.441,0.504,1.924,0.783c0.272,0.15,0.541,0.394,0.807,0.729
			c0.48,0.593,0.865,1.19,1.146,1.794C165.122,6.917,165.284,7.422,165.305,7.782z M162.438,8.086
			c-0.028-0.029-0.092-0.072-0.192-0.131c-0.974-0.359-1.937-0.539-2.896-0.539c-0.455,0-0.81,0.029-1.063,0.087
			c-0.108,0.616-0.168,1.235-0.179,1.862c1.422,0.023,2.781-0.255,4.084-0.836c0.19-0.093,0.285-0.209,0.285-0.348
			C162.475,8.148,162.464,8.115,162.438,8.086z"/>
		<path fill="#FFFFFF" d="M181.648,11.297c-0.084,0.5-0.424,0.912-1.025,1.236c-0.954,0.498-2.264,0.749-3.918,0.749
			c-1.656,0-2.889-0.239-3.701-0.714c-0.245-0.139-0.327-0.412-0.245-0.818c0.021-0.115,0.046-0.277,0.083-0.488
			c1.411,0.292,2.695,0.437,3.852,0.437c1.234,0,2.205-0.175,2.906-0.521c0.202-0.096,0.301-0.223,0.301-0.385
			c0-0.395-0.979-0.591-2.936-0.591c-0.801,0-1.544,0.021-2.227,0.069c-0.563,0.033-1.072,0.017-1.528-0.053
			c-0.526-0.081-0.792-0.79-0.792-2.125c0-0.717,0.128-1.438,0.383-2.157c0.137-0.383,0.381-0.741,0.736-1.079
			c0.607-0.581,1.476-1.113,2.596-1.602c1.209-0.521,2.262-0.783,3.153-0.783c0.2,0,0.383,0.012,0.546,0.035
			c0.136,0.023,0.273,0.145,0.411,0.365c0.196,0.289,0.38,0.737,0.546,1.34c0.138,0.535,0.222,1.005,0.259,1.41
			c0.007,0.117,0.019,0.255,0.027,0.418c0,0.139-0.06,0.227-0.179,0.261c-1.119,0.29-2.295,0.686-3.522,1.185
			c-0.745,0.312-1.36,0.638-1.845,0.973c-0.1,0.07-0.149,0.135-0.149,0.193s0.063,0.086,0.192,0.086
			c0.146-0.01,0.231-0.023,0.26-0.035c0.219-0.045,0.791-0.058,1.719-0.033c1.896,0.045,3.079,0.307,3.553,0.783
			c0.381,0.382,0.572,0.869,0.572,1.461C181.676,11.042,181.667,11.17,181.648,11.297z"/>
		<path fill="#FFFFFF" d="M190.523,11.856c-0.108,0.23-0.461,0.475-1.051,0.729c-0.594,0.257-1.199,0.419-1.815,0.488
			c-0.329,0.046-0.656,0.069-0.983,0.069c-1.076,0-2.02-0.197-2.826-0.592c-0.875-0.418-1.416-0.997-1.627-1.741
			c-0.063-0.243-0.096-0.516-0.096-0.817c0-0.639,0.128-1.352,0.382-2.141c0.328-1.033,0.834-1.979,1.519-2.838
			c0.654-0.813,1.396-1.467,2.225-1.967c0.895-0.521,1.835-0.863,2.826-1.026c0.045,0,0.072,0.005,0.083,0.017
			c0.427,0.523,0.774,1.243,1.036,2.158c0.236,0.883,0.343,1.719,0.313,2.507c0,0.081-0.003,0.18-0.015,0.296
			c-0.053,0-0.104,0-0.148,0c-0.556,0-1.275,0.223-2.156,0.67c-0.885,0.446-1.558,0.921-2.021,1.418
			c-0.59,0.64-0.888,1.116-0.888,1.428c0,0.313,0.214,0.563,0.644,0.748c0.48,0.223,1.113,0.279,1.896,0.175
			c0.291-0.034,0.634-0.116,1.023-0.243c0.602-0.199,1.037-0.412,1.313-0.644c0.107-0.081,0.183-0.093,0.219-0.036
			c0.145,0.221,0.217,0.518,0.217,0.889C190.591,11.586,190.57,11.74,190.523,11.856z"/>
		<path fill="#FFFFFF" d="M201.299,8.6c-0.318,1.346-0.966,2.478-1.939,3.395c-0.975,0.917-2.018,1.381-3.127,1.392
			c-1.119,0.011-2.176-0.444-3.168-1.366c-0.994-0.922-1.647-2.063-1.965-3.42c-0.095-0.545-0.084-1.062,0.025-1.549
			c0.182-0.871,0.646-1.764,1.393-2.681c0.748-0.917,1.496-1.515,2.239-1.792c0.463-0.175,0.942-0.263,1.433-0.263
			c0.502,0,0.982,0.088,1.449,0.263c0.745,0.277,1.493,0.875,2.238,1.792c0.748,0.917,1.21,1.81,1.395,2.681
			C201.377,7.539,201.389,8.055,201.299,8.6z M197.202,10.062c0-0.511-0.101-0.945-0.302-1.306
			c-0.201-0.359-0.436-0.539-0.711-0.539c-0.281,0-0.52,0.18-0.715,0.539c-0.197,0.36-0.295,0.795-0.295,1.306
			s0.098,0.946,0.295,1.306c0.195,0.36,0.434,0.54,0.715,0.54c0.275,0,0.51-0.181,0.711-0.54
			C197.102,11.008,197.202,10.573,197.202,10.062z"/>
		<path fill="#FFFFFF" d="M211.143,7.782c0.01,0.244-0.059,0.436-0.203,0.574c-0.43,0.43-1.252,0.889-2.473,1.375
			c-0.593,0.222-1.177,0.447-1.761,0.68h-0.013c1.666,0.789,2.916,1.543,3.752,2.263c-0.101,0.139-0.182,0.256-0.246,0.348
			c-0.19,0.244-0.414,0.365-0.667,0.365c-0.164,0-0.343-0.046-0.534-0.138c-0.244-0.164-0.695-0.437-1.35-0.818
			c-1.146-0.662-2.397-1.139-3.756-1.428l0.055,2.123c0,0.012,0,0.023,0,0.035c-0.01,0.012-0.033,0.018-0.068,0.018
			c-0.465-0.059-0.818-0.162-1.066-0.314c-0.181-0.115-0.285-0.318-0.313-0.608c-0.083-0.731-0.118-1.479-0.109-2.246
			c0.017-1.507,0.045-2.32,0.082-2.437c0.01-0.046,0.012-0.081,0.012-0.104l-0.242-0.297c-0.268-0.29-0.44-0.777-0.52-1.462
			c-0.109-1.01-0.152-2.024-0.125-3.047c0.01-0.184,0.088-0.283,0.231-0.295c0.912-0.058,1.787-0.034,2.623,0.069
			c0.718,0.082,1.491,0.256,2.319,0.523c0.803,0.243,1.443,0.504,1.927,0.783c0.274,0.15,0.54,0.394,0.807,0.729
			c0.483,0.593,0.864,1.19,1.146,1.794C210.959,6.917,211.124,7.422,211.143,7.782z M208.273,8.086
			c-0.026-0.029-0.088-0.072-0.19-0.131c-0.974-0.359-1.938-0.539-2.896-0.539c-0.453,0-0.81,0.029-1.062,0.087
			c-0.112,0.616-0.173,1.235-0.181,1.862c1.421,0.023,2.779-0.255,4.085-0.836c0.192-0.093,0.286-0.209,0.286-0.348
			C208.316,8.148,208.303,8.115,208.273,8.086z"/>
		<path fill="#FFFFFF" d="M219.482,6.668c-0.024,0.174-0.065,0.354-0.118,0.539l-1.75-0.105c-0.854-0.045-2.052,0.014-3.589,0.175
			c-0.037,0-0.149,0.018-0.327,0.052c-0.076,0.547-0.124,1.091-0.15,1.637c0.9-0.093,1.78-0.133,2.646-0.121
			c0.459,0,0.949,0.023,1.477,0.068c0.11,0,0.182,0.024,0.217,0.07c0.213,0.231,0.307,0.557,0.289,0.975
			c-0.011,0.151-0.056,0.227-0.136,0.227c-1.521-0.105-3.047-0.069-4.578,0.104c0,0.057-0.002,0.109-0.011,0.154
			c-0.029,0.584,0.081,0.957,0.324,1.119c0.068,0.045,0.179,0.068,0.347,0.068c0.442,0.012,1.005,0.012,1.677,0
			c0.829-0.035,1.703-0.013,2.624,0.069c0.416,0.034,0.667,0.11,0.749,0.226c0.155,0.221,0.229,0.477,0.216,0.766
			c-0.008,0.082-0.019,0.154-0.03,0.219c-0.015,0.063-0.072,0.096-0.172,0.096c-0.3-0.012-0.658-0.012-1.078,0l-3.945,0.121
			c-0.073,0-0.137-0.006-0.192-0.018c-0.298-0.046-0.636-0.166-1.008-0.356c-0.375-0.19-0.626-0.368-0.751-0.53
			c-0.131-0.164-0.207-0.372-0.232-0.627c-0.103-0.836-0.059-2.055,0.121-3.655c0.006-0.163,0.019-0.262,0.025-0.298
			c0.011-0.149-0.008-0.26-0.051-0.329c-0.12-0.07-0.251-0.151-0.399-0.243c-0.188-0.151-0.329-0.412-0.422-0.785
			c-0.155-0.637-0.196-1.6-0.121-2.888l0.026-0.435c0.109-0.035,0.203-0.063,0.285-0.088c0.803-0.23,1.875-0.319,3.223-0.261
			c0.818,0.047,1.689,0.163,2.617,0.349c0.924,0.185,1.525,0.37,1.808,0.557c0.336,0.22,0.507,0.853,0.507,1.896
			C219.598,5.902,219.561,6.319,219.482,6.668z"/>
	</g>
	<g>
		<path fill="#FFFFFF" d="M80.929,18.299c0.064,0.213,0.097,0.58,0.097,1.1c0,0.744-0.048,1.394-0.141,1.949
			c-0.015,0.111-0.041,0.25-0.077,0.418c-0.998-0.147-2.001-0.199-3.015-0.154c-0.32,1.431-0.479,2.841-0.479,4.232
			c0,0.279,0,0.566,0,0.863c0,0.01,0,0.02,0,0.027c-0.008,0.026-0.072,0.021-0.194-0.021c-0.12-0.041-0.269-0.09-0.438-0.146
			c-0.23-0.092-0.369-0.168-0.419-0.229c-0.051-0.061-0.086-0.262-0.108-0.605c-0.028-0.491-0.042-0.965-0.042-1.42
			c0-0.834,0.055-1.713,0.163-2.631c-0.176,0.01-0.441,0.031-0.798,0.07c-0.518,0.064-1.142,0.143-1.879,0.234
			c-0.231,0.029-0.362-0.019-0.392-0.137c-0.08-0.408-0.12-0.804-0.12-1.187c0-0.687,0.13-1.367,0.393-2.045
			c0.029-0.084,0.077-0.209,0.143-0.375c0.537,0.037,1.092,0.032,1.66-0.017c0.749-0.063,1.353-0.119,1.813-0.166
			c0.495-0.063,0.956-0.098,1.387-0.098c0.705,0,1.419,0.084,2.14,0.25C80.658,18.225,80.76,18.252,80.929,18.299z"/>
		<path fill="#FFFFFF" d="M89.37,22.754c-0.257,1.076-0.773,1.982-1.552,2.715c-0.779,0.732-1.612,1.104-2.501,1.113
			c-0.896,0.008-1.739-0.355-2.533-1.094c-0.794-0.736-1.318-1.648-1.573-2.734c-0.071-0.438-0.064-0.85,0.021-1.238
			c0.146-0.697,0.518-1.412,1.115-2.145c0.596-0.734,1.193-1.213,1.791-1.434c0.37-0.14,0.753-0.209,1.147-0.209
			c0.4,0,0.786,0.069,1.156,0.209c0.597,0.221,1.193,0.698,1.791,1.434c0.597,0.732,0.969,1.447,1.113,2.145
			C89.435,21.904,89.441,22.316,89.37,22.754z M86.094,23.922c0-0.408-0.083-0.756-0.24-1.043c-0.16-0.287-0.351-0.432-0.567-0.432
			c-0.228,0-0.419,0.145-0.574,0.432c-0.158,0.287-0.234,0.635-0.234,1.043c0,0.41,0.076,0.758,0.234,1.045
			c0.155,0.287,0.347,0.432,0.574,0.432c0.217,0,0.407-0.145,0.567-0.432C86.011,24.68,86.094,24.332,86.094,23.922z"/>
		<path fill="#FFFFFF" d="M101.634,25.357c-0.087,0.184-0.368,0.381-0.842,0.584c-0.474,0.205-0.957,0.334-1.454,0.389
			c-0.262,0.037-0.522,0.057-0.784,0.057c-0.861,0-1.613-0.158-2.262-0.473c-0.699-0.336-1.132-0.799-1.299-1.393
			c-0.05-0.195-0.076-0.412-0.076-0.654c0-0.51,0.103-1.08,0.306-1.713c0.261-0.826,0.667-1.582,1.213-2.271
			c0.524-0.647,1.117-1.172,1.78-1.571c0.714-0.416,1.468-0.689,2.261-0.82c0.035,0,0.055,0.004,0.064,0.014
			c0.342,0.418,0.618,0.994,0.829,1.725c0.19,0.707,0.274,1.375,0.251,2.006c0,0.064-0.003,0.146-0.011,0.236
			c-0.041,0-0.083,0-0.118,0c-0.445,0-1.022,0.178-1.725,0.537c-0.707,0.357-1.246,0.734-1.619,1.133
			c-0.473,0.513-0.711,0.894-0.711,1.144s0.172,0.45,0.515,0.598c0.386,0.179,0.893,0.224,1.518,0.142
			c0.234-0.027,0.507-0.094,0.82-0.195c0.479-0.158,0.83-0.33,1.049-0.516c0.086-0.064,0.146-0.074,0.176-0.027
			c0.116,0.176,0.172,0.412,0.172,0.711C101.687,25.143,101.671,25.264,101.634,25.357z"/>
		<path fill="#FFFFFF" d="M109.079,17.951c-0.049,0.213-0.123,0.543-0.218,0.988c-0.343,1.725-0.513,3.424-0.513,5.096
			c0,0.416,0.013,0.852,0.032,1.309c0,0.082,0.022,0.361,0.066,0.834c-0.21,0.131-0.437,0.195-0.678,0.195
			c-0.209,0-0.337-0.07-0.384-0.209c-0.041-0.139-0.085-0.52-0.129-1.141c-0.08-1.105-0.093-2.215-0.032-3.328
			c-0.35,0.121-0.878,0.223-1.585,0.307c-0.108,0.02-0.17,0.08-0.186,0.18c-0.028,0.455-0.044,0.887-0.044,1.297
			c0,0.845,0.073,1.726,0.22,2.646c-0.459,0.14-0.854,0.24-1.19,0.306c-0.247,0.047-0.453,0.069-0.61,0.069
			c-0.314,0-0.554-0.088-0.722-0.265c-0.263-0.27-0.463-0.938-0.6-2.006c-0.102-0.815-0.152-1.549-0.143-2.198l0.021-1.404
			c0.016-0.644,0.082-1.354,0.197-2.146c0.007-0.057,0.162-0.147,0.47-0.278c0.602-0.25,1.3-0.375,2.087-0.375
			c0.299,0,0.562,0.026,0.797,0.082c0.049,0.01,0.082,0.021,0.093,0.028c0.011,0.008,0.02,0.037,0.025,0.082
			c0.029,0.179-0.063,0.84-0.283,1.992l-0.142,0.766c0.443-0.194,0.91-0.303,1.398-0.319c0.203,0,0.313-0.051,0.326-0.153
			l0.317-2.214c0.029-0.192,0.062-0.375,0.098-0.543c0.038-0.01,0.069-0.018,0.1-0.026c0.487-0.058,0.865,0.033,1.134,0.264
			C109.063,17.83,109.088,17.887,109.079,17.951z"/>
		<path fill="#FFFFFF" d="M117.229,25.635c-0.16,0.104-0.271,0.166-0.328,0.188s-0.164,0.071-0.317,0.146
			c-0.545,0.242-1.153,0.361-1.823,0.361c-0.561,0-0.932-0.096-1.115-0.291c-0.069-0.074-0.129-0.158-0.172-0.252
			c-0.08-0.184-0.188-0.436-0.318-0.75c-0.231-0.586-0.478-1.238-0.73-1.963c-0.009-0.037-0.021-0.074-0.043-0.111
			c-0.015-0.01-0.084-0.014-0.207-0.014l-1.06,0.041c-0.146,0.01-0.254,0.102-0.318,0.279c-0.443,1.262-0.708,2.264-0.797,3.006
			c-0.293,0.01-0.554-0.064-0.785-0.224c-0.176-0.12-0.248-0.272-0.219-0.459c0.027-0.131,0.056-0.256,0.077-0.377
			c0.153-0.705,0.425-1.563,0.817-2.573c0.256-0.65,0.539-1.31,0.853-1.979c0.045-0.082,0.05-0.166,0.022-0.25
			c-0.061-0.222-0.175-0.459-0.352-0.709c-0.159-0.224-0.238-0.349-0.238-0.377c0-0.019,0.007-0.035,0.021-0.056
			c1.07-0.657,2.197-1.17,3.386-1.53c0.05-0.019,0.091-0.019,0.12,0c0.027,0.01,0.131,0.135,0.305,0.375
			c0.483,0.659,1.043,1.715,1.688,3.168c0.646,1.452,1.115,2.739,1.416,3.862C117.188,25.453,117.229,25.617,117.229,25.635z
			 M111.985,22.002l-0.266-0.514c-0.008-0.021-0.023-0.053-0.042-0.1c-0.053-0.074-0.104-0.052-0.155,0.065
			c-0.203,0.476-0.315,0.744-0.337,0.81c0.001,0,0.001,0.006,0.001,0.016c0.018,0,0.031,0,0.046,0c0.071,0,0.193-0.012,0.36-0.041
			c0.064-0.008,0.164-0.027,0.294-0.057C111.995,22.154,112.028,22.096,111.985,22.002z"/>
		<path fill="#FFFFFF" d="M122.131,24.939c0.021,0.176,0.014,0.344-0.021,0.5c-0.017,0.065-0.039,0.104-0.064,0.119
			c-0.027,0.014-0.092,0.03-0.186,0.049c-0.68,0.176-1.504,0.444-2.48,0.807l-0.229,0.084c-0.129,0.047-0.272,0.027-0.428-0.055
			c-0.209-0.104-0.517-0.26-0.916-0.476c-0.059-0.026-0.094-0.063-0.109-0.11c-0.028-0.084-0.053-0.187-0.067-0.308
			c-0.202-1.475-0.302-3.12-0.302-4.94c0-0.527,0.012-0.955,0.041-1.281c0.029-0.361,0.063-0.74,0.099-1.141
			c0.808-0.416,1.632-0.595,2.47-0.529c0.248,0.02,0.422,0.043,0.523,0.07c0.184,0.047,0.341,0.135,0.479,0.264
			c-0.332,1.541-0.584,3.203-0.75,4.984c-0.065,0.668-0.1,1.18-0.1,1.53c0,0.111,0.005,0.179,0.016,0.195
			c0.013,0.018,0.063,0.037,0.147,0.055c0.045,0.021,0.195,0.023,0.46,0.015c0.872-0.035,1.339-0.019,1.396,0.057
			C122.116,24.855,122.123,24.893,122.131,24.939z"/>
		<path fill="#FFFFFF" d="M127.35,24.939c0.022,0.176,0.017,0.344-0.021,0.5c-0.015,0.065-0.034,0.104-0.063,0.119
			c-0.029,0.014-0.093,0.03-0.187,0.049c-0.677,0.176-1.503,0.444-2.479,0.807l-0.229,0.084c-0.13,0.047-0.274,0.027-0.425-0.055
			c-0.213-0.104-0.52-0.26-0.92-0.476c-0.057-0.026-0.094-0.063-0.109-0.11c-0.027-0.084-0.048-0.187-0.063-0.308
			c-0.205-1.475-0.307-3.12-0.307-4.94c0-0.527,0.014-0.955,0.044-1.281c0.027-0.361,0.062-0.74,0.097-1.141
			c0.81-0.416,1.631-0.595,2.47-0.529c0.247,0.02,0.423,0.043,0.522,0.07c0.184,0.047,0.344,0.135,0.482,0.264
			c-0.336,1.541-0.586,3.203-0.753,4.984c-0.067,0.668-0.099,1.18-0.099,1.53c0,0.111,0.004,0.179,0.015,0.195
			c0.012,0.018,0.06,0.037,0.147,0.055c0.043,0.021,0.196,0.023,0.459,0.015c0.873-0.035,1.34-0.019,1.396,0.057
			C127.335,24.855,127.342,24.893,127.35,24.939z"/>
		<path fill="#FFFFFF" d="M133.98,21.209c-0.023,0.139-0.057,0.281-0.1,0.432l-1.398-0.086c-0.685-0.035-1.642,0.012-2.871,0.141
			c-0.029,0-0.115,0.015-0.264,0.041c-0.057,0.438-0.1,0.873-0.119,1.312c0.721-0.075,1.426-0.106,2.119-0.098
			c0.363,0,0.756,0.02,1.178,0.055c0.092,0,0.146,0.019,0.177,0.058c0.169,0.184,0.245,0.444,0.229,0.778
			c-0.008,0.121-0.043,0.181-0.111,0.181c-1.215-0.082-2.435-0.056-3.656,0.084c0,0.045-0.006,0.086-0.014,0.123
			c-0.021,0.469,0.066,0.766,0.266,0.895c0.05,0.037,0.141,0.055,0.271,0.055c0.355,0.01,0.807,0.01,1.346,0
			c0.66-0.027,1.357-0.008,2.096,0.057c0.335,0.027,0.536,0.089,0.6,0.181c0.125,0.178,0.184,0.381,0.176,0.612
			c-0.006,0.064-0.018,0.123-0.025,0.175c-0.012,0.051-0.059,0.075-0.139,0.075c-0.239-0.01-0.527-0.01-0.863,0l-3.154,0.099
			c-0.058,0-0.107-0.006-0.154-0.015c-0.239-0.036-0.51-0.133-0.808-0.286c-0.297-0.15-0.497-0.293-0.6-0.425
			c-0.103-0.129-0.165-0.297-0.187-0.5c-0.082-0.668-0.049-1.643,0.1-2.924c0.007-0.129,0.014-0.209,0.021-0.237
			c0.007-0.119-0.008-0.207-0.046-0.263c-0.093-0.059-0.199-0.121-0.314-0.194c-0.153-0.121-0.266-0.33-0.338-0.627
			c-0.123-0.513-0.158-1.281-0.101-2.312l0.022-0.348c0.086-0.029,0.162-0.051,0.229-0.07c0.641-0.186,1.5-0.256,2.577-0.209
			c0.655,0.037,1.353,0.131,2.09,0.279c0.74,0.148,1.222,0.297,1.45,0.445c0.27,0.176,0.402,0.682,0.402,1.518
			C134.066,20.596,134.037,20.93,133.98,21.209z"/>
		<path fill="#FFFFFF" d="M141.46,18.355c-0.313,1.883-0.469,3.715-0.469,5.498c0,0.391,0.005,0.789,0.012,1.196
			c0.005,0.064,0.021,0.24,0.043,0.527c-0.83,0.491-1.7,0.752-2.608,0.78c-0.502,0.009-0.871-0.176-1.104-0.557
			c-0.514-1.002-0.984-2.029-1.422-3.076c-0.159,0.945-0.25,1.875-0.271,2.783c-0.009,0.186-0.004,0.371,0.012,0.557
			c0.014,0.242,0.021,0.353,0.021,0.334c0,0.027-0.062,0.027-0.187,0c-0.129-0.018-0.323-0.073-0.579-0.166
			c-0.196-0.104-0.298-0.319-0.306-0.655c-0.037-1.354,0.055-2.736,0.272-4.146l0.197-1.31c0-0.027-0.021-0.099-0.056-0.209
			c-0.08-0.261-0.149-0.558-0.207-0.892c0.108-0.084,0.283-0.205,0.523-0.36c0.333-0.216,0.784-0.404,1.35-0.572
			c0.563-0.166,1.067-0.25,1.514-0.25c0.146,0,0.275,0.011,0.392,0.027c0.05,0.01,0.086,0.024,0.099,0.049
			c0.015,0.022,0.033,0.096,0.056,0.217c0.013,0.063,0.011,0.521-0.011,1.363c-0.017,0.825,0.047,1.619,0.185,2.381
			c0.168,0.938,0.428,1.67,0.774,2.199c0.029,0.057,0.054,0.088,0.068,0.098c0.041-0.018,0.076-0.399,0.096-1.143
			c0.016-0.642,0.029-1.275,0.045-1.906c0.029-0.474,0.06-1.181,0.088-2.117c0-0.139,0-0.28,0-0.43
			c0.326-0.232,0.758-0.33,1.289-0.293c0.07,0.01,0.133,0.021,0.185,0.026C141.46,18.322,141.46,18.336,141.46,18.355z"/>
		<path fill="#FFFFFF" d="M149.979,23.281c0.045,0.15,0.056,0.344,0.031,0.586c-0.014,0.242-0.054,0.439-0.117,0.598
			c-0.152,0.354-0.438,0.693-0.853,1.016c-0.351,0.271-0.707,0.472-1.069,0.601c-0.629,0.224-1.242,0.334-1.849,0.334
			c-1.084,0-2.117-0.342-3.101-1.026c-0.486-0.334-0.863-0.775-1.125-1.32c-0.139-0.287-0.207-0.594-0.207-0.918
			c0-0.908,0.439-1.808,1.319-2.695c1.151-1.178,2.515-1.975,4.084-2.391c0.505-0.129,0.9-0.189,1.192-0.183
			c0.064,0.011,0.129,0.048,0.195,0.111c0.271,0.271,0.512,0.774,0.722,1.518c0.212,0.742,0.308,1.406,0.296,1.99
			c-0.016,0.371-0.044,0.569-0.088,0.601c0,0.01-0.004,0.014-0.012,0.014c-1.857-0.057-3.321,0.268-4.392,0.969
			c-0.749,0.49-1.124,0.902-1.124,1.234c0,0.176,0.12,0.322,0.36,0.442c0.378,0.193,0.878,0.291,1.496,0.291
			c0.35,0,0.629-0.032,0.844-0.098c0.144-0.047,0.213-0.111,0.206-0.195c-0.053-0.37-0.175-0.602-0.374-0.696
			c-0.035-0.019-0.235-0.076-0.601-0.181c-0.188-0.045-0.281-0.106-0.281-0.182c0-0.056,0.064-0.103,0.195-0.14
			c0.095-0.018,0.225-0.047,0.392-0.082c0.692-0.131,1.45-0.219,2.272-0.266c0.522-0.037,1.017-0.041,1.476-0.014
			C149.934,23.209,149.973,23.236,149.979,23.281z"/>
		<path fill="#FFFFFF" d="M156.813,21.209c-0.021,0.139-0.053,0.281-0.098,0.432l-1.396-0.086c-0.686-0.035-1.644,0.012-2.873,0.141
			c-0.027,0-0.117,0.015-0.264,0.041c-0.057,0.438-0.098,0.873-0.117,1.312c0.721-0.075,1.424-0.106,2.119-0.098
			c0.361,0,0.754,0.02,1.176,0.055c0.091,0,0.146,0.019,0.177,0.058c0.169,0.184,0.245,0.444,0.229,0.778
			c-0.01,0.121-0.045,0.181-0.108,0.181c-1.216-0.082-2.437-0.056-3.658,0.084c0,0.045-0.004,0.086-0.013,0.123
			c-0.021,0.469,0.064,0.766,0.265,0.895c0.051,0.037,0.14,0.055,0.271,0.055c0.359,0.01,0.807,0.01,1.344,0
			c0.662-0.027,1.361-0.008,2.098,0.057c0.335,0.027,0.537,0.089,0.6,0.181c0.127,0.178,0.184,0.381,0.177,0.612
			c-0.007,0.064-0.017,0.123-0.026,0.175c-0.01,0.051-0.059,0.075-0.136,0.075c-0.24-0.01-0.53-0.01-0.863,0l-3.155,0.099
			c-0.061,0-0.11-0.006-0.152-0.015c-0.24-0.036-0.508-0.133-0.809-0.286c-0.3-0.15-0.5-0.293-0.601-0.425
			c-0.104-0.129-0.164-0.297-0.187-0.5c-0.082-0.668-0.051-1.643,0.099-2.924c0.005-0.129,0.013-0.209,0.021-0.237
			c0.008-0.119-0.009-0.207-0.041-0.263c-0.1-0.059-0.205-0.121-0.32-0.194c-0.153-0.121-0.265-0.33-0.338-0.627
			c-0.125-0.513-0.156-1.281-0.098-2.312l0.021-0.348c0.089-0.029,0.166-0.051,0.229-0.07c0.641-0.186,1.499-0.256,2.578-0.209
			c0.654,0.037,1.35,0.131,2.088,0.279c0.742,0.148,1.225,0.297,1.451,0.445c0.27,0.176,0.404,0.682,0.404,1.518
			C156.902,20.596,156.873,20.93,156.813,21.209z"/>
		<path fill="#FFFFFF" d="M169.516,21.209c-0.029,0.139-0.062,0.281-0.099,0.432l-1.408-0.086c-0.686-0.035-1.644,0.012-2.87,0.141
			c-0.031,0-0.121,0.019-0.267,0.058c-0.056,0.429-0.097,0.856-0.119,1.295c0.728-0.075,1.435-0.106,2.12-0.098
			c0.299,0,0.542,0.004,0.73,0.014c0.379,0.019,0.584,0.052,0.623,0.099c0.168,0.184,0.244,0.444,0.229,0.778
			c-0.008,0.121-0.045,0.181-0.109,0.181c-1.215-0.082-2.437-0.056-3.658,0.084c0,0.065-0.004,0.166-0.021,0.307
			c-0.037,0.455-0.05,0.844-0.036,1.168l0.023,0.67c0,0.047-0.016,0.082-0.049,0.111c-0.032,0.027-0.074,0.031-0.125,0.014
			c-0.402-0.094-0.672-0.227-0.81-0.404c-0.087-0.102-0.147-0.297-0.174-0.584c-0.03-0.25-0.032-0.719-0.015-1.406
			c0.017-0.696,0.054-1.28,0.112-1.754c0.005-0.129,0.013-0.209,0.021-0.237c0.006-0.119-0.009-0.201-0.043-0.25
			c-0.097-0.064-0.203-0.134-0.319-0.207c-0.15-0.121-0.266-0.326-0.339-0.613c-0.123-0.521-0.155-1.295-0.097-2.324l0.021-0.348
			c0.088-0.029,0.165-0.052,0.229-0.07c0.642-0.186,1.5-0.256,2.578-0.209c0.656,0.037,1.352,0.132,2.095,0.279
			c0.737,0.147,1.219,0.297,1.444,0.444c0.27,0.177,0.404,0.677,0.404,1.504C169.593,20.582,169.564,20.922,169.516,21.209z"/>
		<path fill="#FFFFFF" d="M177.782,22.1c0.008,0.195-0.048,0.349-0.163,0.459c-0.344,0.344-1.001,0.711-1.977,1.101
			c-0.477,0.178-0.944,0.356-1.41,0.543h-0.012c1.334,0.633,2.336,1.233,3.004,1.812c-0.08,0.11-0.145,0.204-0.197,0.276
			c-0.152,0.194-0.332,0.293-0.532,0.293c-0.134,0-0.274-0.037-0.429-0.11c-0.194-0.132-0.557-0.349-1.078-0.654
			c-0.922-0.529-1.92-0.91-3.004-1.144l0.043,1.699c0,0.01,0,0.019,0,0.026c-0.01,0.011-0.026,0.015-0.055,0.015
			c-0.373-0.047-0.654-0.129-0.854-0.25c-0.146-0.095-0.227-0.256-0.25-0.488c-0.066-0.584-0.098-1.184-0.09-1.795
			c0.016-1.205,0.037-1.854,0.066-1.946c0.008-0.039,0.01-0.066,0.01-0.084l-0.194-0.238c-0.212-0.23-0.349-0.621-0.413-1.168
			c-0.088-0.81-0.122-1.619-0.102-2.438c0.008-0.146,0.07-0.227,0.187-0.233c0.729-0.047,1.427-0.029,2.099,0.055
			c0.572,0.064,1.193,0.203,1.854,0.418c0.642,0.195,1.155,0.402,1.541,0.625c0.216,0.121,0.431,0.316,0.646,0.584
			c0.387,0.475,0.69,0.953,0.916,1.436C177.639,21.408,177.768,21.813,177.782,22.1z M175.488,22.344
			c-0.021-0.023-0.072-0.059-0.153-0.104c-0.778-0.287-1.549-0.433-2.313-0.433c-0.364,0-0.649,0.023-0.851,0.07
			c-0.091,0.492-0.138,0.988-0.144,1.49c1.136,0.018,2.224-0.205,3.267-0.67c0.151-0.074,0.228-0.166,0.228-0.277
			C175.521,22.391,175.511,22.367,175.488,22.344z"/>
		<path fill="#FFFFFF" d="M181.777,18.133c0,0.055-0.008,0.152-0.021,0.291c-0.298,1.994-0.517,4.01-0.655,6.041
			c-0.029,0.457-0.037,0.906-0.021,1.352l-0.101,0.041c-0.996,0.371-1.595,0.533-1.791,0.488c-0.182-0.037-0.33-0.231-0.446-0.584
			c-0.313-0.975-0.47-2.303-0.47-3.981c0-1.142,0.069-2.279,0.207-3.41c0.027-0.147,0.047-0.229,0.055-0.236l0.109-0.057
			c0.517-0.24,1.162-0.361,1.945-0.361c0.333,0,0.614,0.033,0.84,0.099c0.108,0.026,0.184,0.061,0.23,0.096
			C181.73,17.955,181.77,18.029,181.777,18.133z"/>
		<path fill="#FFFFFF" d="M189.141,21.209c-0.021,0.139-0.056,0.281-0.099,0.432l-1.397-0.086c-0.685-0.035-1.643,0.012-2.875,0.141
			c-0.027,0-0.113,0.015-0.261,0.041c-0.058,0.438-0.1,0.873-0.12,1.312c0.721-0.075,1.428-0.106,2.118-0.098
			c0.365,0,0.759,0.02,1.181,0.055c0.09,0,0.146,0.019,0.174,0.058c0.171,0.184,0.246,0.444,0.231,0.778
			c-0.009,0.121-0.046,0.181-0.112,0.181c-1.215-0.082-2.434-0.056-3.655,0.084c0,0.045-0.003,0.086-0.015,0.123
			c-0.019,0.469,0.067,0.766,0.266,0.895c0.05,0.037,0.143,0.055,0.271,0.055c0.355,0.01,0.807,0.01,1.344,0
			c0.662-0.027,1.359-0.008,2.097,0.057c0.338,0.027,0.536,0.089,0.601,0.181c0.123,0.178,0.184,0.381,0.176,0.612
			c-0.006,0.064-0.018,0.123-0.027,0.175c-0.01,0.051-0.057,0.075-0.135,0.075c-0.239-0.01-0.53-0.01-0.865,0l-3.156,0.099
			c-0.057,0-0.109-0.006-0.15-0.015c-0.242-0.036-0.512-0.133-0.809-0.286c-0.298-0.15-0.498-0.293-0.602-0.425
			c-0.103-0.129-0.166-0.297-0.187-0.5c-0.079-0.668-0.047-1.643,0.099-2.924c0.008-0.129,0.016-0.209,0.022-0.237
			c0.008-0.119-0.008-0.207-0.045-0.263c-0.094-0.059-0.2-0.121-0.315-0.194c-0.154-0.121-0.265-0.33-0.34-0.627
			c-0.121-0.513-0.154-1.281-0.099-2.312l0.021-0.348c0.09-0.029,0.164-0.051,0.23-0.07c0.64-0.186,1.501-0.256,2.576-0.209
			c0.656,0.037,1.354,0.131,2.092,0.279c0.74,0.148,1.221,0.297,1.447,0.445c0.271,0.176,0.404,0.682,0.404,1.518
			C189.229,20.596,189.197,20.93,189.141,21.209z"/>
		<path fill="#FFFFFF" d="M196.62,18.355c-0.313,1.883-0.47,3.715-0.47,5.498c0,0.391,0.002,0.789,0.009,1.196
			c0.009,0.064,0.024,0.24,0.047,0.527c-0.831,0.491-1.7,0.752-2.608,0.78c-0.506,0.009-0.871-0.176-1.105-0.557
			c-0.51-1.002-0.981-2.029-1.419-3.076c-0.16,0.945-0.253,1.875-0.271,2.783c-0.01,0.186-0.004,0.371,0.009,0.557
			c0.017,0.242,0.023,0.353,0.023,0.334c0,0.027-0.063,0.027-0.186,0c-0.131-0.018-0.326-0.073-0.58-0.166
			c-0.196-0.104-0.301-0.319-0.305-0.655c-0.037-1.354,0.055-2.736,0.271-4.146l0.196-1.31c0-0.027-0.02-0.099-0.057-0.209
			c-0.078-0.261-0.146-0.558-0.207-0.892c0.11-0.084,0.283-0.205,0.526-0.36c0.334-0.216,0.784-0.404,1.347-0.572
			c0.566-0.166,1.069-0.25,1.516-0.25c0.145,0,0.277,0.011,0.393,0.027c0.051,0.01,0.086,0.024,0.098,0.049
			c0.014,0.022,0.033,0.096,0.055,0.217c0.015,0.063,0.013,0.521-0.012,1.363c-0.015,0.825,0.049,1.619,0.187,2.381
			c0.168,0.938,0.426,1.67,0.776,2.199c0.029,0.057,0.053,0.088,0.063,0.098c0.045-0.018,0.076-0.399,0.101-1.143
			c0.014-0.642,0.028-1.275,0.043-1.906c0.029-0.474,0.058-1.181,0.088-2.117c0-0.139,0-0.28,0-0.43
			c0.328-0.232,0.758-0.33,1.289-0.293c0.071,0.01,0.133,0.021,0.186,0.026C196.62,18.322,196.62,18.336,196.62,18.355z"/>
		<path fill="#FFFFFF" d="M205.368,23.506c0,0.334-0.154,0.658-0.459,0.975c-0.334,0.345-0.862,0.688-1.585,1.029
			c-0.719,0.344-1.411,0.59-2.073,0.738c-0.541,0.111-1.077,0.166-1.615,0.166c-0.46,0-0.754-0.047-0.885-0.139
			c-0.481-0.344-0.762-0.621-0.842-0.836c-0.028-0.092-0.073-0.318-0.134-0.683c-0.055-0.437-0.105-1.049-0.141-1.836
			c0-0.194-0.005-0.428-0.012-0.696c-0.035-0.058-0.089-0.144-0.164-0.265c-0.203-0.344-0.305-0.971-0.305-1.879
			c0-0.271,0.012-0.565,0.033-0.894c0-0.229,0.002-0.459,0.01-0.682c0.029-0.307,0.103-0.465,0.218-0.473
			c0.612-0.084,1.271-0.08,1.978,0.014c2.03,0.25,3.539,0.91,4.521,1.977c0.263,0.287,0.564,0.83,0.906,1.629
			C205.188,22.49,205.368,23.107,205.368,23.506z M203.271,23.604c-0.139-0.354-0.72-0.649-1.748-0.893
			c-0.83-0.193-1.494-0.287-1.998-0.277c-0.276,0.01-0.426,0.015-0.448,0.015c-0.043-0.011-0.079-0.011-0.108,0
			c-0.044,0.036-0.059,0.37-0.044,1.002c0.015,0.528,0.033,0.903,0.058,1.127c0.02,0.225,0.056,0.414,0.107,0.571
			c0.325,0.074,0.623,0.111,0.887,0.111c0.521,0,1.08-0.092,1.674-0.279c0.594-0.186,1.062-0.414,1.404-0.682
			c0.176-0.129,0.262-0.291,0.262-0.488C203.314,23.736,203.3,23.668,203.271,23.604z"/>
		<path fill="#FFFFFF" d="M213.064,24.912c-0.063,0.398-0.336,0.729-0.815,0.988c-0.767,0.397-1.81,0.598-3.138,0.598
			c-1.323,0-2.31-0.189-2.957-0.57c-0.198-0.111-0.262-0.33-0.198-0.654c0.017-0.092,0.038-0.223,0.065-0.391
			c1.127,0.232,2.155,0.35,3.08,0.35c0.987,0,1.766-0.141,2.325-0.418c0.16-0.073,0.24-0.176,0.24-0.307
			c0-0.316-0.78-0.473-2.349-0.473c-0.641,0-1.232,0.018-1.778,0.055c-0.452,0.027-0.86,0.014-1.224-0.041
			c-0.424-0.064-0.633-0.633-0.633-1.699c0-0.574,0.101-1.149,0.305-1.725c0.109-0.307,0.306-0.596,0.59-0.863
			c0.486-0.465,1.179-0.893,2.076-1.281c0.969-0.418,1.808-0.627,2.523-0.627c0.155,0,0.303,0.011,0.436,0.027
			c0.105,0.02,0.22,0.117,0.326,0.293c0.162,0.232,0.309,0.59,0.438,1.072c0.108,0.428,0.179,0.803,0.208,1.127
			c0.006,0.094,0.014,0.203,0.021,0.334c0,0.111-0.047,0.182-0.143,0.209c-0.896,0.23-1.836,0.547-2.816,0.947
			c-0.6,0.25-1.09,0.51-1.477,0.779c-0.078,0.055-0.117,0.106-0.117,0.151c0,0.047,0.049,0.07,0.151,0.07
			c0.117-0.011,0.187-0.021,0.209-0.027c0.173-0.037,0.632-0.047,1.372-0.028c1.516,0.037,2.463,0.248,2.841,0.627
			c0.308,0.307,0.46,0.696,0.46,1.17C213.089,24.707,213.082,24.809,213.064,24.912z"/>
		<path fill="#FFFFFF" d="M219.422,15.432c-0.247,0.976-0.521,2.062-0.82,3.258c-0.262,1.121-0.473,2.156-0.633,3.104
			c-0.052,0.345-0.098,0.688-0.141,1.031c-0.016,0.026-0.235,0.041-0.657,0.041c-0.555,0-1.063-0.089-1.54-0.267
			c-0.313-0.108-0.578-0.397-0.795-0.863c-0.191-0.396-0.339-0.811-0.447-1.237c-0.258-1.029-0.445-2.004-0.568-2.924
			c-0.045-0.38-0.092-0.783-0.145-1.211c-0.014-0.103-0.023-0.25-0.031-0.445c0.321-0.166,0.531-0.271,0.636-0.305
			c0.079-0.037,0.194-0.084,0.35-0.14c0.849-0.309,1.679-0.461,2.488-0.461c0.714,0,1.442,0.115,2.184,0.348
			C219.368,15.381,219.407,15.402,219.422,15.432z M218.493,24.66c0.036,0.121,0.055,0.246,0.055,0.377
			c0,0.26-0.071,0.49-0.218,0.695c-0.094,0.131-0.148,0.199-0.163,0.209c-0.038,0.047-0.097,0.088-0.176,0.125
			c-0.509,0.25-1.005,0.377-1.486,0.377c-0.224,0-0.459-0.029-0.698-0.086c-0.291-0.056-0.547-0.162-0.763-0.32
			c-0.338-0.234-0.505-0.531-0.505-0.896c0-0.41,0.143-0.717,0.427-0.922c0.548-0.383,0.974-0.563,1.277-0.547
			c0.096,0,0.2-0.014,0.317-0.041C217.623,23.594,218.27,23.938,218.493,24.66z"/>
	</g>
	<g>
		<g>
			<path fill="#F7DF00" d="M20.847,13.719c-0.757,0-1.474-0.045-2.134-0.134c-0.37-0.06-0.646-0.131-0.855-0.226
				c-0.547-0.251-1.007-0.592-1.374-1.014c-0.399-0.458-0.603-0.917-0.603-1.361c0-0.249,0.12-0.557,0.387-0.997l3.183-5.148
				c-0.642,0.088-1.293,0.214-1.931,0.376c-0.076,0.029-0.191,0.052-0.309,0.052c-0.492,0-1.016-0.296-1.016-1.129
				c0-0.421,0.158-0.841,0.473-1.246c0.307-0.399,0.742-0.691,1.293-0.87c1.657-0.531,3.341-0.8,5.007-0.8
				c1.125,0,2.288,0.121,3.46,0.362c0.565,0.111,1.024,0.275,1.396,0.506l0.238,0.146l0.056,0.354c0,0.168-0.076,0.321-0.208,0.528
				c-0.212,0.364-0.952,1.573-2.21,3.611c-0.286,0.438-0.582,1.032-0.886,1.77c-0.494,1.156-0.547,1.604-0.535,1.769
				c0.004,0.082,0.039,0.167,0.103,0.257c0.049,0.068,0.082,0.072,0.104,0.076c0.091,0.012,0.181,0.019,0.278,0.019
				c0.267,0,0.606-0.041,1.014-0.124c0.557-0.111,1.018-0.253,1.363-0.421c0.193-0.097,0.335-0.138,0.469-0.138h0.397l0.133,0.401
				c0.115,0.491,0.041,0.973-0.216,1.431c-0.38,0.629-1.285,1.102-2.776,1.458C23.842,13.553,22.391,13.719,20.847,13.719
				L20.847,13.719z"/>
			<path fill="#FFFFFF" d="M22.969,1.722c1.096,0,2.215,0.116,3.359,0.351c0.504,0.099,0.916,0.246,1.236,0.443
				c0.024,0.012,0.043,0.036,0.055,0.073c0,0.037-0.043,0.123-0.129,0.259c-0.222,0.381-0.96,1.586-2.214,3.617
				c-0.296,0.455-0.604,1.07-0.923,1.845c-0.406,0.947-0.598,1.612-0.572,1.993c0.012,0.172,0.076,0.342,0.193,0.508
				c0.117,0.166,0.268,0.262,0.452,0.285c0.103,0.014,0.216,0.021,0.339,0.021c0.306,0,0.676-0.044,1.11-0.132
				c0.608-0.122,1.104-0.276,1.485-0.462c0.12-0.06,0.205-0.089,0.252-0.089c0.021,0,0.035,0.005,0.042,0.017
				c0.086,0.369,0.03,0.726-0.166,1.07c-0.295,0.492-1.113,0.898-2.454,1.218c-1.28,0.32-2.676,0.479-4.189,0.479
				c-0.738,0-1.427-0.043-2.066-0.129c-0.308-0.05-0.548-0.111-0.72-0.186c-0.479-0.221-0.88-0.517-1.199-0.885
				c-0.32-0.369-0.48-0.714-0.48-1.034c0-0.147,0.104-0.394,0.314-0.738l3.229-5.222c0.136-0.32,0.203-0.542,0.203-0.665
				c0-0.063-0.018-0.095-0.055-0.095c-0.005,0-0.012,0.001-0.018,0.002c-0.898,0.087-1.784,0.24-2.657,0.462
				c-0.063,0.024-0.123,0.037-0.185,0.037c-0.345,0-0.517-0.209-0.517-0.628c0-0.307,0.122-0.621,0.368-0.941
				c0.246-0.319,0.597-0.553,1.053-0.701C19.727,1.98,21.345,1.722,22.969,1.722 M22.969,0.722c-1.721,0-3.456,0.276-5.158,0.822
				c-0.653,0.212-1.17,0.563-1.54,1.043c-0.382,0.497-0.576,1.019-0.576,1.551c0,1.125,0.762,1.628,1.517,1.628
				c0.158,0,0.318-0.027,0.476-0.079c0.25-0.063,0.502-0.12,0.757-0.171l-2.6,4.206c-0.326,0.533-0.463,0.91-0.463,1.264
				c0,0.566,0.244,1.134,0.724,1.689c0.413,0.476,0.929,0.858,1.537,1.138c0.269,0.118,0.574,0.2,0.979,0.265
				c0.707,0.095,1.447,0.142,2.226,0.142c1.587,0,3.078-0.171,4.431-0.509c1.642-0.392,2.62-0.925,3.069-1.674
				c0.332-0.582,0.425-1.202,0.282-1.813l-0.181-0.771l-0.835-0.017c-0.271,0-0.505,0.098-0.698,0.194
				c-0.296,0.144-0.714,0.272-1.235,0.376c-0.354,0.072-0.651,0.11-0.885,0.113c0.023-0.181,0.125-0.591,0.478-1.413
				c0.299-0.727,0.581-1.292,0.842-1.695c1.308-2.117,2.016-3.273,2.24-3.658c0.125-0.197,0.265-0.445,0.265-0.763v-0.16
				l-0.05-0.152c-0.089-0.271-0.267-0.492-0.505-0.627c-0.42-0.254-0.925-0.437-1.544-0.558C25.332,0.847,24.133,0.722,22.969,0.722
				L22.969,0.722z"/>
		</g>
		<g>
			<path fill="#F7DF00" d="M32.54,13.59h-0.006h-0.006c-0.132,0-0.247-0.01-0.341-0.027c-0.426-0.051-0.93-0.189-1.47-0.407
				c-0.567-0.228-0.954-0.448-1.18-0.674c-0.249-0.245-0.401-0.565-0.455-0.95c-0.144-0.925-0.09-2.241,0.165-4.014
				c0.008-0.107,0.015-0.185,0.022-0.245c-0.103-0.049-0.209-0.103-0.325-0.161c-0.401-0.247-0.666-0.619-0.822-1.128
				c-0.23-0.745-0.292-1.806-0.189-3.249l0.039-0.462L28,1.916l0.346-0.088c0.152-0.037,0.286-0.07,0.401-0.094
				c0.895-0.204,2.038-0.309,3.395-0.309c0.348,0,0.709,0.008,1.088,0.021c1.116,0.049,2.325,0.175,3.594,0.374
				c1.304,0.204,2.153,0.414,2.595,0.638c0.644,0.333,0.954,1.137,0.954,2.459c0,0.569-0.053,1.046-0.162,1.458
				c-0.035,0.179-0.099,0.397-0.183,0.619l-0.127,0.339l-0.362-0.017l-2.363-0.111c-0.243-0.01-0.508-0.015-0.795-0.015
				c-1.042,0-2.387,0.066-3.995,0.197c-0.015,0.002-0.031,0.002-0.047,0.004c-0.037,0.247-0.068,0.498-0.092,0.749
				c0.894-0.06,1.78-0.091,2.644-0.091l0.396,0.002c0.617,0,1.3,0.024,2.021,0.074c0.072,0,0.395,0,0.615,0.22
				c0.253,0.218,0.574,0.662,0.532,1.415c-0.039,0.496-0.372,0.711-0.685,0.711c-0.79-0.041-1.554-0.062-2.319-0.062
				c-1.121,0-2.257,0.045-3.388,0.134c0.014,0.163,0.053,0.378,0.177,0.442c0.002,0,0.063,0.017,0.234,0.017
				c0.311,0.006,0.646,0.01,1.02,0.01c0.376,0,0.79-0.004,1.242-0.01c0.327-0.01,0.666-0.017,1.014-0.017
				c0.812,0,1.678,0.031,2.57,0.091c0.747,0.049,1.139,0.167,1.355,0.405c0.294,0.327,0.44,0.73,0.424,1.168
				c-0.021,0.158-0.041,0.255-0.064,0.341c-0.033,0.113-0.175,0.469-0.713,0.469c-0.214-0.006-0.432-0.008-0.668-0.008
				c-0.241,0-0.5,0.002-0.779,0.008L32.54,13.59L32.54,13.59z"/>
			<path fill="#FFFFFF" d="M32.152,1.925c0.338,0,0.69,0.006,1.058,0.019c1.107,0.049,2.285,0.172,3.534,0.369
				c1.249,0.196,2.063,0.394,2.445,0.59c0.455,0.234,0.683,0.904,0.683,2.012c0,0.516-0.049,0.959-0.147,1.328
				c-0.037,0.186-0.092,0.376-0.166,0.572l-2.362-0.11c-0.255-0.011-0.534-0.016-0.835-0.016c-1.059,0-2.399,0.067-4.019,0.201
				c-0.049,0-0.196,0.019-0.442,0.055c-0.099,0.579-0.166,1.157-0.203,1.735c1.087-0.088,2.155-0.132,3.203-0.132
				c0.126,0,0.251,0.001,0.376,0.002c0.615,0,1.279,0.025,1.993,0.074c0.147,0,0.246,0.025,0.295,0.074
				c0.283,0.246,0.412,0.59,0.388,1.033c-0.013,0.16-0.074,0.24-0.185,0.24c-0.773-0.042-1.546-0.063-2.321-0.063
				c-1.285,0-2.572,0.058-3.861,0.172c0,0.061-0.007,0.115-0.019,0.164c-0.037,0.619,0.11,1.015,0.442,1.186
				c0.086,0.049,0.24,0.072,0.462,0.072c0.301,0.006,0.641,0.01,1.019,0.01s0.795-0.003,1.251-0.01
				c0.334-0.011,0.673-0.017,1.018-0.017c0.811,0,1.652,0.03,2.525,0.091c0.565,0.037,0.904,0.117,1.015,0.24
				c0.209,0.233,0.308,0.504,0.296,0.812c-0.013,0.086-0.028,0.163-0.047,0.23c-0.018,0.067-0.095,0.102-0.23,0.102
				c-0.203-0.006-0.425-0.01-0.668-0.01s-0.507,0.003-0.79,0.01l-5.333,0.13c-0.099,0-0.185-0.007-0.258-0.02
				c-0.406-0.049-0.861-0.175-1.366-0.378c-0.504-0.203-0.843-0.391-1.015-0.563c-0.173-0.172-0.276-0.393-0.313-0.664
				c-0.136-0.885-0.08-2.178,0.166-3.875c0.012-0.172,0.024-0.277,0.037-0.313C29.79,7.117,29.766,7,29.704,6.926
				c-0.16-0.074-0.339-0.16-0.535-0.259c-0.259-0.159-0.449-0.437-0.572-0.83c-0.209-0.677-0.265-1.698-0.166-3.063l0.037-0.461
				c0.147-0.037,0.276-0.068,0.388-0.093C29.719,2.023,30.819,1.925,32.152,1.925 M32.152,0.925c-1.399,0-2.583,0.107-3.518,0.32
				c-0.118,0.027-0.254,0.059-0.411,0.099l-0.696,0.175l-0.057,0.716l-0.037,0.461c-0.109,1.509-0.042,2.631,0.208,3.437
				c0.198,0.634,0.536,1.099,1.003,1.387l0.036,0.022l0.037,0.019c0.006,0.003,0.012,0.006,0.017,0.009
				c-0.248,1.755-0.296,3.081-0.147,4.049c0.064,0.476,0.266,0.893,0.597,1.222c0.273,0.273,0.702,0.521,1.346,0.781
				c0.582,0.234,1.104,0.378,1.594,0.44c0.123,0.02,0.258,0.03,0.403,0.03l5.357-0.13c0.273-0.006,0.529-0.009,0.765-0.009
				c0.231,0,0.444,0.003,0.637,0.009c0.751,0,1.126-0.457,1.229-0.849c0.023-0.08,0.048-0.199,0.069-0.332l0.008-0.056l0.002-0.057
				c0.021-0.567-0.169-1.092-0.552-1.518c-0.32-0.355-0.8-0.487-1.418-0.548c0.173-0.187,0.297-0.448,0.325-0.788
				c0.052-0.963-0.353-1.535-0.71-1.853c-0.1-0.093-0.215-0.167-0.344-0.221l1.617,0.075l0.726,0.034l0.256-0.681
				c0.088-0.234,0.157-0.468,0.204-0.696c0.116-0.45,0.173-0.959,0.173-1.556c0-0.562,0-2.27-1.226-2.901
				c-0.312-0.16-0.934-0.404-2.747-0.688c-1.28-0.202-2.507-0.33-3.645-0.38C32.865,0.931,32.501,0.925,32.152,0.925L32.152,0.925z"
				/>
		</g>
		<g>
			<path fill="#F7DF00" d="M42.507,13.654c-0.072,0-0.179-0.01-0.323-0.037c-0.214-0.022-0.551-0.099-1.028-0.234
				c-0.349-0.138-0.855-0.469-0.88-1.332c-0.063-1.824,0.097-3.711,0.471-5.611l0.308-1.62c-0.01-0.029-0.022-0.062-0.039-0.101
				c-0.15-0.376-0.275-0.8-0.378-1.265L40.56,3.103l0.309-0.187c0.191-0.113,0.498-0.28,0.919-0.496
				c0.599-0.3,1.402-0.57,2.389-0.798c0.987-0.23,1.886-0.345,2.671-0.345c0.268,0,0.51,0.014,0.726,0.041
				c0.09,0.012,0.335,0.047,0.496,0.247c0.086,0.107,0.127,0.234,0.187,0.479c0.022,0.083,0.055,0.208-0.006,1.945
				c-0.021,1.051,0.08,2.07,0.302,3.026c0.152,0.668,0.352,1.254,0.596,1.754c0-0.041,0.002-0.084,0.004-0.127l0.037-1.32
				l0.035-1.205c0.051-0.65,0.101-1.577,0.148-2.809V2.753V2.459l0.257-0.144c0.551-0.304,1.242-0.458,2.058-0.458
				c0.125,0,0.255,0.004,0.389,0.01c0.154,0.015,0.267,0.029,0.357,0.041l0.531,0.076l-0.111,0.578
				c-0.52,2.457-0.783,4.875-0.783,7.188c0,0.512,0.006,1.036,0.019,1.573c0.008,0.031,0.033,0.273,0.072,0.664l0.035,0.354
				l-0.323,0.15c-1.46,0.678-3.01,1.041-4.608,1.08c-1.048,0-1.789-0.313-2.27-0.93c-0.627-0.964-1.215-1.935-1.764-2.909
				c-0.113,0.759-0.181,1.505-0.201,2.229c-0.013,0.23-0.006,0.453,0.016,0.675c0.021,0.255,0.031,0.395,0.035,0.43v0.002
				c0,0.006,0.002,0.01,0.002,0.014l0.06,0.539L42.507,13.654L42.507,13.654z"/>
			<path fill="#FFFFFF" d="M46.847,1.777c0.246,0,0.468,0.012,0.665,0.037c0.086,0.012,0.141,0.033,0.166,0.064
				c0.024,0.03,0.055,0.126,0.092,0.285c0.024,0.086,0.019,0.689-0.019,1.809c-0.024,1.096,0.08,2.147,0.314,3.156
				c0.282,1.242,0.72,2.214,1.31,2.916c0.05,0.073,0.086,0.116,0.111,0.129c0.073-0.025,0.129-0.529,0.166-1.514
				c0.024-0.849,0.049-1.691,0.073-2.528c0.05-0.628,0.099-1.562,0.148-2.805c0-0.185,0-0.375,0-0.572
				c0.476-0.266,1.082-0.398,1.814-0.398c0.118,0,0.239,0.003,0.363,0.01c0.123,0.013,0.228,0.025,0.314,0.037
				c0.001,0.014,0.001,0.033,0.001,0.056c-0.529,2.498-0.794,4.928-0.794,7.29c0,0.517,0.006,1.046,0.019,1.587
				c0.012,0.086,0.037,0.32,0.074,0.701c-1.403,0.652-2.873,0.996-4.411,1.033c-0.021,0-0.043,0-0.064,0
				c-0.816,0-1.415-0.246-1.798-0.738c-0.861-1.328-1.661-2.688-2.399-4.078c-0.271,1.256-0.425,2.485-0.461,3.691
				c-0.013,0.246-0.007,0.492,0.019,0.738c0.022,0.294,0.034,0.443,0.036,0.445c-0.002,0.017-0.028,0.025-0.078,0.025
				c-0.052,0-0.13-0.009-0.235-0.028c-0.222-0.024-0.548-0.099-0.978-0.222c-0.333-0.135-0.505-0.424-0.518-0.867
				c-0.062-1.796,0.093-3.629,0.462-5.499l0.332-1.735c0-0.036-0.031-0.129-0.093-0.276c-0.135-0.345-0.252-0.737-0.351-1.181
				c0.185-0.111,0.48-0.271,0.887-0.479c0.565-0.282,1.325-0.535,2.278-0.756C45.244,1.887,46.097,1.777,46.847,1.777
				 M42.585,13.125c0,0.002,0,0.003,0,0.003C42.585,13.127,42.585,13.126,42.585,13.125 M46.847,0.777
				c-0.825,0-1.761,0.121-2.783,0.358c-1.037,0.241-1.854,0.514-2.498,0.836c-0.436,0.224-0.745,0.391-0.954,0.516l-0.619,0.371
				l0.157,0.705c0.109,0.489,0.236,0.917,0.388,1.309l-0.283,1.478c-0.381,1.937-0.543,3.864-0.479,5.722
				c0.025,0.833,0.441,1.475,1.143,1.759l0.049,0.02l0.051,0.015c0.482,0.138,0.836,0.218,1.11,0.251
				c0.153,0.026,0.27,0.038,0.377,0.038c0.509,0,0.841-0.285,0.989-0.613c0.034-0.075,0.059-0.154,0.074-0.237
				c0.002-0.01,0.003-0.02,0.005-0.03l0.018-0.122l-0.01-0.095c-0.001-0.02-0.003-0.041-0.006-0.061
				c-0.005-0.057-0.015-0.187-0.031-0.389c-0.022-0.219-0.027-0.415-0.018-0.61c0.007-0.233,0.019-0.467,0.035-0.702
				c0.32,0.533,0.65,1.061,0.988,1.581l0.023,0.037l0.026,0.034c0.399,0.513,1.172,1.124,2.587,1.124l0.079,0
				c1.679-0.04,3.296-0.418,4.818-1.126l0.643-0.298l-0.069-0.705c-0.032-0.332-0.056-0.558-0.071-0.68
				c-0.012-0.515-0.018-1.019-0.018-1.512c0-2.28,0.26-4.663,0.772-7.083l0.022-0.103V2.459c0-0.049-0.001-0.09-0.003-0.121
				l-0.053-0.816l-0.81-0.11c-0.095-0.013-0.211-0.026-0.347-0.041c-0.19-0.012-0.329-0.016-0.465-0.016
				c-0.902,0-1.677,0.176-2.301,0.524l-0.513,0.286v0.587v0.572c-0.029,0.734-0.06,1.37-0.089,1.894
				c-0.031-0.402-0.042-0.812-0.033-1.226c0.062-1.815,0.029-1.934-0.017-2.1c-0.057-0.248-0.125-0.452-0.271-0.637
				c-0.201-0.245-0.469-0.386-0.81-0.434C47.401,0.792,47.135,0.777,46.847,0.777L46.847,0.777z"/>
		</g>
		<g>
			<path fill="#F7DF00" d="M19.766,27.756c-1.162,0-2.076-0.145-2.795-0.443c-0.161-0.068-0.319-0.138-0.476-0.216l-0.274-0.141
				l-0.019-0.362c0-1.796-0.115-3.31-0.34-4.521c-0.047,0.138-0.101,0.298-0.161,0.481c-0.34,1.069-0.663,2.379-0.964,3.893
				c-0.015,0.115-0.068,0.268-0.155,0.443l-0.065,0.132l-0.126,0.074c-0.15,0.088-0.408,0.193-1.279,0.372
				c-0.657,0.137-1.222,0.206-1.677,0.206c-0.241,0-0.459-0.019-0.646-0.058c-0.229-0.049-0.542-0.195-0.754-0.618
				c-0.045-0.103-0.138-0.368-0.915-2.784l-0.303-0.856c-0.433,1.192-0.7,2.442-0.791,3.709l-0.006,0.099l-0.045,0.091
				c-0.047,0.093-0.194,0.312-0.556,0.312H7.315c-0.632,0-1.156-0.15-1.557-0.447c-0.15-0.115-0.383-0.371-0.35-0.843
				c0.074-1.711,0.276-3.4,0.599-5.009l0.2-0.83l0.449-1.866c-0.027-0.111-0.093-0.305-0.188-0.585L6.3,17.457l-0.101-0.313
				l0.25-0.217c0.5-0.433,1.295-0.793,2.426-1.1c0.9-0.243,1.715-0.367,2.424-0.367c0.158,0,0.313,0.007,0.463,0.019
				c0.21,0.015,0.406,0.046,0.57,0.091c0.309,0.06,0.536,0.105,1.603,3.697c0.014,0.065,0.033,0.138,0.053,0.216l0.655-1.828
				c0.093-0.235,0.103-0.462,0.043-0.707l-0.107-0.422l0.439-0.178l0.171-0.065c0.519-0.239,1.287-0.447,2.307-0.622
				c0.995-0.171,1.919-0.258,2.75-0.258c0.356,0,0.647,0.015,0.872,0.042l0.373,0.043l0.066,0.397
				c0.006,0.033,0.021,0.091,0.043,0.179c0.016,0.068,0.062,0.254,0.342,2.027c0.309,1.909,0.653,3.863,1.05,5.973
				c0.148,0.856,0.243,1.73,0.282,2.598l0.014,0.337l-0.307,0.141C22.083,27.548,21.001,27.756,19.766,27.756L19.766,27.756z"/>
			<path fill="#FFFFFF" d="M20.246,15.904c0.332,0,0.603,0.012,0.813,0.037c0,0.024,0.019,0.106,0.055,0.248
				c0.037,0.143,0.147,0.803,0.332,1.979c0.32,1.967,0.671,3.961,1.053,5.988c0.147,0.839,0.238,1.679,0.275,2.526
				c-0.837,0.381-1.839,0.572-3.008,0.572c-1.083,0-1.95-0.135-2.603-0.404c-0.147-0.063-0.295-0.129-0.442-0.203
				c-0.013-0.012-0.019-0.03-0.019-0.055c0-2.393-0.197-4.281-0.591-5.668c-0.024-0.098-0.062-0.148-0.11-0.148
				c-0.173,0-0.431,0.543-0.775,1.625c-0.344,1.082-0.671,2.398-0.978,3.949c-0.013,0.086-0.05,0.191-0.111,0.313
				c-0.147,0.088-0.522,0.19-1.125,0.313c-0.633,0.132-1.159,0.197-1.577,0.197c-0.208,0-0.39-0.017-0.545-0.049
				c-0.173-0.037-0.309-0.154-0.406-0.352c-0.037-0.086-0.332-0.99-0.886-2.713c-0.173-0.492-0.395-1.119-0.665-1.883
				c-0.036-0.099-0.067-0.166-0.092-0.201c-0.013,0.012-0.154,0.354-0.425,1.032c-0.492,1.304-0.787,2.646-0.886,4.021
				c-0.012,0.024-0.049,0.036-0.11,0.036c-0.032,0.001-0.063,0.001-0.094,0.001c-0.534,0-0.957-0.118-1.271-0.351
				c-0.111-0.086-0.16-0.223-0.148-0.406c0.074-1.711,0.271-3.358,0.591-4.944c0.147-0.615,0.369-1.539,0.664-2.769
				c0.013-0.051-0.062-0.309-0.221-0.774l-0.166-0.519c0.442-0.381,1.187-0.713,2.232-0.996c0.857-0.232,1.62-0.349,2.288-0.349
				c0.146,0,0.289,0.005,0.426,0.017c0.185,0.013,0.344,0.037,0.479,0.074c0.185,0.037,0.603,1.156,1.255,3.357
				c0.086,0.369,0.252,0.924,0.498,1.662l1.163-3.248c0.123-0.32,0.142-0.652,0.056-0.998c0.061-0.023,0.122-0.049,0.185-0.072
				c0.517-0.234,1.257-0.434,2.224-0.6C18.545,15.988,19.434,15.904,20.246,15.904 M20.246,14.904c-0.861,0-1.816,0.089-2.835,0.265
				c-1.046,0.18-1.845,0.396-2.441,0.662l-0.089,0.035l-0.067,0.026l-0.825,0.316l0.213,0.858c0.036,0.146,0.03,0.27-0.02,0.399
				l-0.147,0.412c-0.729-2.315-1.028-2.674-1.605-2.8c-0.19-0.05-0.4-0.082-0.639-0.099c-0.15-0.012-0.32-0.019-0.495-0.019
				c-0.752,0-1.61,0.129-2.549,0.384c-1.204,0.326-2.062,0.72-2.623,1.203l-0.501,0.433l0.201,0.63l0.166,0.519
				c0.077,0.225,0.122,0.366,0.149,0.455l-0.252,1.049l-0.36,1.502c-0.336,1.666-0.542,3.381-0.617,5.134
				c-0.034,0.499,0.156,0.947,0.536,1.241c0.506,0.375,1.134,0.559,1.881,0.559l0.118-0.001c0.429,0,0.807-0.226,0.988-0.604
				l0.082-0.171l0.014-0.188c0.051-0.709,0.159-1.411,0.323-2.103c0.649,2.017,0.685,2.098,0.716,2.17
				c0.253,0.517,0.641,0.831,1.115,0.933c0.23,0.048,0.475,0.071,0.755,0.071c0.492,0,1.075-0.071,1.78-0.218
				c0.895-0.183,1.213-0.302,1.435-0.435l0.251-0.15l0.13-0.262c0.108-0.216,0.175-0.415,0.205-0.608
				c0.132-0.664,0.27-1.294,0.413-1.882c0.035,0.613,0.053,1.271,0.053,1.973c0,0.308,0.128,0.599,0.352,0.799l0.099,0.089
				l0.118,0.06c0.167,0.084,0.334,0.16,0.501,0.23c0.792,0.327,1.768,0.484,2.994,0.484c1.305,0,2.457-0.223,3.422-0.662
				l0.614-0.279l-0.029-0.675c-0.039-0.889-0.136-1.782-0.289-2.655c-0.383-2.033-0.736-4.04-1.052-5.977
				c-0.284-1.809-0.327-1.977-0.35-2.066c-0.018-0.069-0.03-0.119-0.037-0.15l-0.143-0.709l-0.725-0.134
				C20.933,14.919,20.627,14.904,20.246,14.904L20.246,14.904z"/>
		</g>
		<g>
			<path fill="#F7DF00" d="M30.346,27.867h-0.002h-0.06c-1.594,0-3.114-0.519-4.519-1.545c-1.425-1.04-2.381-2.348-2.842-3.887
				c-0.146-0.695-0.132-1.328,0.035-1.923c0.27-1.002,0.947-2.035,2.016-3.067c1.067-1.023,2.155-1.703,3.234-2.019
				c0.673-0.195,1.372-0.297,2.078-0.297c0.711,0,1.415,0.102,2.095,0.297c1.077,0.313,2.165,0.993,3.234,2.019
				c1.073,1.036,1.753,2.07,2.021,3.075c0.167,0.589,0.181,1.224,0.041,1.876c-0.469,1.563-1.411,2.861-2.812,3.896
				C33.468,27.323,31.948,27.853,30.346,27.867L30.346,27.867z M30.286,22.385c-0.134,0-0.335,0.037-0.56,0.358
				c-0.206,0.296-0.305,0.656-0.305,1.1c0,0.44,0.099,0.799,0.307,1.098c0.218,0.317,0.414,0.356,0.558,0.356
				c0.128,0,0.321-0.037,0.552-0.36c0.21-0.299,0.313-0.657,0.313-1.094c0-0.438-0.103-0.797-0.313-1.098
				C30.607,22.422,30.412,22.385,30.286,22.385L30.286,22.385z"/>
			<path fill="#FFFFFF" d="M30.286,15.63c0.677,0,1.329,0.095,1.956,0.277c1.009,0.295,2.018,0.93,3.027,1.899
				c1.008,0.974,1.636,1.92,1.882,2.842c0.147,0.518,0.16,1.064,0.037,1.643c-0.431,1.428-1.305,2.627-2.621,3.6
				c-1.316,0.971-2.725,1.463-4.226,1.476c-0.021,0-0.042,0-0.063,0c-1.49,0-2.896-0.483-4.218-1.447
				c-1.341-0.978-2.227-2.188-2.657-3.627c-0.123-0.578-0.11-1.125,0.037-1.644c0.246-0.922,0.873-1.868,1.882-2.842
				c1.009-0.971,2.018-1.604,3.026-1.899C28.976,15.723,29.621,15.63,30.286,15.63 M30.285,25.797c0.369,0,0.689-0.189,0.96-0.572
				c0.271-0.381,0.406-0.842,0.406-1.383s-0.136-1.002-0.406-1.385c-0.271-0.381-0.591-0.572-0.96-0.572
				c-0.381,0-0.704,0.191-0.969,0.572c-0.265,0.383-0.396,0.844-0.396,1.385s0.132,1.002,0.396,1.383
				C29.581,25.607,29.904,25.797,30.285,25.797 M30.286,14.63c-0.755,0-1.502,0.106-2.22,0.318
				c-1.157,0.338-2.314,1.058-3.438,2.138c-1.154,1.113-1.858,2.194-2.155,3.305c-0.188,0.661-0.205,1.376-0.049,2.109l0.008,0.04
				l0.012,0.038c0.493,1.649,1.511,3.045,3.026,4.149c1.492,1.087,3.109,1.639,4.807,1.639h0.07c1.71-0.015,3.329-0.576,4.813-1.671
				c1.488-1.101,2.492-2.484,2.985-4.115l0.012-0.04l0.009-0.041c0.156-0.734,0.138-1.449-0.053-2.124
				c-0.292-1.093-0.996-2.174-2.149-3.287c-1.126-1.083-2.283-1.802-3.441-2.141C31.799,14.736,31.047,14.63,30.286,14.63
				L30.286,14.63z M30.285,24.798L30.285,24.798c-0.01-0.001-0.014-0.002-0.014-0.002c-0.009-0.003-0.06-0.036-0.133-0.141
				c-0.146-0.212-0.218-0.478-0.218-0.813c0-0.337,0.071-0.604,0.218-0.815c0.072-0.104,0.124-0.138,0.134-0.141
				c0,0,0.001,0,0.001,0c0.014,0,0.069,0.027,0.157,0.151c0.147,0.209,0.221,0.474,0.221,0.805c0,0.332-0.072,0.595-0.221,0.803
				C30.339,24.773,30.285,24.798,30.285,24.798L30.285,24.798z"/>
		</g>
		<g>
			<path fill="#F7DF00" d="M41.801,27.645c-1.147,0-1.532-0.132-1.738-0.247c-0.939-0.527-1.441-0.938-1.629-1.328
				c-0.054-0.132-0.12-0.336-0.262-1.018c-0.105-0.616-0.188-1.454-0.247-2.509c-0.002-0.239-0.006-0.488-0.015-0.771
				c-0.051-0.062-0.109-0.136-0.177-0.225c-0.422-0.556-0.625-1.471-0.625-2.799c0-0.371,0.021-0.778,0.06-1.226
				c-0.002-0.273,0.002-0.581,0.019-0.886c0.105-0.875,0.509-1.079,0.83-1.102c0.482-0.052,1.009-0.08,1.544-0.08
				c0.602,0,1.234,0.034,1.885,0.103c3.518,0.338,6.181,1.261,7.911,2.735c0.496,0.426,1.034,1.178,1.647,2.301
				c0.661,1.194,0.984,2.076,0.984,2.691c0,0.6-0.323,1.166-0.962,1.683c-0.616,0.494-1.536,0.966-2.815,1.444
				c-1.236,0.463-2.445,0.801-3.596,1.003C43.676,27.568,42.73,27.645,41.801,27.645L41.801,27.645z M41.258,25.021
				c0.408,0.062,0.783,0.093,1.116,0.093c0.838,0,1.75-0.119,2.712-0.354c0.95-0.232,1.697-0.517,2.227-0.845
				c0.206-0.121,0.206-0.195,0.206-0.22c-0.045-0.104-0.323-0.542-2.616-0.966c-1.306-0.241-2.373-0.363-3.17-0.363l-0.109,0.003
				c-0.227,0.006-0.402,0.01-0.53,0.012c-0.004,0.167-0.006,0.427,0.006,0.82c0.023,0.682,0.054,1.17,0.089,1.447
				C41.206,24.784,41.229,24.907,41.258,25.021L41.258,25.021z"/>
			<path fill="#FFFFFF" d="M39.568,15.957c0.586,0,1.196,0.032,1.827,0.098c3.433,0.332,5.979,1.205,7.64,2.619
				c0.443,0.383,0.953,1.102,1.532,2.16c0.614,1.107,0.922,1.926,0.922,2.453c0,0.443-0.259,0.875-0.775,1.293
				c-0.566,0.455-1.458,0.91-2.676,1.365c-1.218,0.455-2.387,0.781-3.507,0.979c-0.91,0.146-1.82,0.221-2.73,0.221
				c-0.775,0-1.273-0.061-1.495-0.184c-0.812-0.455-1.286-0.824-1.421-1.107c-0.049-0.123-0.123-0.426-0.222-0.903
				c-0.099-0.578-0.179-1.392-0.239-2.437c0-0.26-0.007-0.565-0.019-0.924c-0.062-0.074-0.154-0.189-0.277-0.35
				c-0.345-0.455-0.517-1.287-0.517-2.492c0-0.357,0.019-0.75,0.056-1.182c0-0.308,0.006-0.607,0.019-0.904
				c0.049-0.404,0.172-0.613,0.369-0.627C38.542,15.982,39.046,15.957,39.568,15.957 M40.859,21.885
				c-0.037-0.006-0.071-0.009-0.102-0.009c-0.031,0-0.059,0.003-0.083,0.009c-0.074,0.051-0.099,0.492-0.074,1.33
				c0.025,0.701,0.056,1.199,0.093,1.494c0.037,0.295,0.099,0.547,0.185,0.756c0.554,0.1,1.052,0.148,1.495,0.148
				c0.886,0,1.829-0.123,2.832-0.369s1.793-0.547,2.371-0.904c0.296-0.172,0.443-0.387,0.443-0.646
				c0.001-0.098-0.024-0.189-0.074-0.275c-0.233-0.469-1.218-0.861-2.952-1.182c-1.341-0.246-2.429-0.37-3.264-0.37
				c-0.038,0-0.076,0.001-0.113,0.001C41.148,21.879,40.896,21.885,40.859,21.885 M39.568,14.957c-0.557,0-1.102,0.028-1.62,0.084
				c-0.299,0.02-1.1,0.213-1.255,1.501l-0.004,0.038l-0.002,0.037c-0.013,0.298-0.02,0.599-0.02,0.906
				c-0.038,0.451-0.056,0.853-0.056,1.225c0,1.464,0.229,2.447,0.72,3.096c0.03,0.039,0.058,0.076,0.084,0.109
				c0.005,0.208,0.008,0.395,0.008,0.561v0.028l0.001,0.029c0.063,1.092,0.146,1.926,0.252,2.548
				c0.154,0.744,0.224,0.968,0.278,1.104l0.012,0.031l0.015,0.03c0.238,0.498,0.787,0.962,1.835,1.549
				c0.399,0.222,0.973,0.312,1.983,0.312c0.955,0,1.927-0.078,2.889-0.233c1.19-0.21,2.429-0.555,3.698-1.029
				c1.331-0.497,2.296-0.995,2.952-1.522c0.763-0.618,1.149-1.314,1.149-2.072c0-0.716-0.333-1.649-1.048-2.938
				c-0.64-1.169-1.214-1.966-1.752-2.432c-1.818-1.548-4.574-2.507-8.198-2.857C40.833,14.991,40.185,14.957,39.568,14.957
				L39.568,14.957z M41.592,22.868c0.016-0.001,0.032-0.001,0.049-0.001l0.088-0.001c0.77,0,1.808,0.119,3.083,0.354
				c0.953,0.176,1.519,0.35,1.848,0.48c-0.446,0.214-1.013,0.405-1.694,0.573c-0.92,0.226-1.793,0.34-2.594,0.34
				c-0.213,0-0.443-0.014-0.689-0.041c-0.022-0.187-0.055-0.581-0.084-1.393C41.596,23.063,41.594,22.96,41.592,22.868
				L41.592,22.868z"/>
		</g>
		<g>
			<path fill="#F7DF00" d="M55.395,27.591h-0.006h-0.006c-0.136,0-0.255-0.011-0.356-0.031c-0.412-0.05-0.9-0.182-1.454-0.401
				c-0.587-0.239-0.962-0.453-1.185-0.678c-0.247-0.243-0.401-0.564-0.453-0.952c-0.144-0.922-0.09-2.238,0.167-4.012
				c0.006-0.107,0.014-0.186,0.022-0.245c-0.101-0.05-0.208-0.101-0.321-0.156c-0.408-0.252-0.671-0.624-0.828-1.131
				c-0.231-0.746-0.292-1.809-0.188-3.25l0.037-0.464l0.029-0.358l0.346-0.086c0.152-0.039,0.287-0.07,0.402-0.095
				c0.898-0.204,2.047-0.31,3.417-0.31c0.34,0,0.694,0.007,1.063,0.019c1.121,0.052,2.33,0.178,3.596,0.375
				c1.312,0.208,2.161,0.418,2.595,0.641c0.643,0.332,0.956,1.135,0.956,2.457c0,0.566-0.054,1.042-0.167,1.458
				c-0.033,0.178-0.097,0.396-0.177,0.616l-0.127,0.344l-0.365-0.017l-2.362-0.108c-0.249-0.013-0.523-0.017-0.82-0.017
				c-1.036,0-2.371,0.065-3.971,0.197c-0.015,0-0.031,0.002-0.049,0.004c-0.035,0.245-0.066,0.494-0.091,0.748
				c0.892-0.062,1.792-0.093,2.686-0.093l0.352,0.002c0.595,0,1.258,0.024,2.022,0.076c0.004,0,0.006,0,0.01,0
				c0.245,0,0.449,0.07,0.597,0.212c0.262,0.227,0.583,0.674,0.54,1.424c-0.037,0.494-0.371,0.71-0.684,0.71
				c-0.787-0.041-1.547-0.062-2.309-0.062c-1.125,0-2.264,0.045-3.398,0.134c0.012,0.163,0.051,0.377,0.177,0.443
				c0.002,0,0.064,0.016,0.235,0.016c0.309,0.009,0.645,0.011,1.018,0.011c0.377,0,0.791-0.002,1.244-0.011
				c0.332-0.01,0.68-0.016,1.032-0.016c0.815,0,1.674,0.03,2.554,0.092c0.744,0.046,1.135,0.163,1.352,0.404
				c0.298,0.334,0.44,0.725,0.426,1.163c-0.025,0.169-0.043,0.262-0.066,0.345c-0.031,0.113-0.173,0.472-0.713,0.472
				c-0.216-0.009-0.433-0.011-0.669-0.011c-0.239,0-0.498,0.002-0.776,0.011L55.395,27.591L55.395,27.591z"/>
			<path fill="#FFFFFF" d="M55.016,15.923c0.335,0,0.685,0.006,1.049,0.019c1.107,0.05,2.285,0.173,3.534,0.369
				c1.249,0.197,2.063,0.396,2.445,0.59c0.455,0.234,0.683,0.904,0.683,2.013c0,0.519-0.049,0.96-0.148,1.329
				c-0.037,0.186-0.092,0.377-0.166,0.572l-2.362-0.109c-0.257-0.011-0.538-0.017-0.841-0.017c-1.059,0-2.396,0.066-4.013,0.2
				c-0.049,0-0.196,0.021-0.442,0.055c-0.099,0.58-0.166,1.158-0.203,1.736c1.088-0.089,2.157-0.133,3.206-0.133
				c0.125,0,0.25,0.001,0.374,0.002c0.615,0,1.279,0.025,1.993,0.074c0.147,0,0.246,0.025,0.295,0.074
				c0.283,0.246,0.412,0.59,0.388,1.033c-0.013,0.16-0.074,0.239-0.185,0.239c-0.771-0.041-1.542-0.062-2.315-0.062
				c-1.287,0-2.576,0.057-3.867,0.171c0,0.062-0.007,0.114-0.019,0.164c-0.037,0.618,0.11,1.016,0.442,1.187
				c0.086,0.049,0.24,0.071,0.462,0.071c0.302,0.007,0.641,0.011,1.019,0.011c0.378,0,0.795-0.004,1.251-0.011
				c0.333-0.011,0.673-0.017,1.018-0.017c0.811,0,1.652,0.03,2.525,0.091c0.565,0.036,0.904,0.116,1.015,0.239
				c0.209,0.234,0.308,0.504,0.296,0.813c-0.013,0.086-0.028,0.162-0.047,0.229c-0.018,0.066-0.095,0.103-0.23,0.103
				c-0.202-0.008-0.425-0.011-0.668-0.011s-0.506,0.003-0.79,0.011l-5.333,0.129c-0.099,0-0.185-0.006-0.258-0.021
				c-0.406-0.049-0.861-0.174-1.366-0.377c-0.504-0.202-0.843-0.391-1.015-0.563c-0.173-0.172-0.276-0.394-0.313-0.664
				c-0.136-0.885-0.08-2.178,0.166-3.875c0.012-0.172,0.024-0.276,0.037-0.313c0.012-0.159-0.013-0.276-0.074-0.352
				c-0.16-0.074-0.339-0.16-0.535-0.258c-0.259-0.16-0.449-0.438-0.572-0.83c-0.209-0.678-0.265-1.699-0.166-3.064l0.037-0.461
				c0.147-0.037,0.276-0.067,0.388-0.092C52.576,16.021,53.678,15.923,55.016,15.923 M55.016,14.923c-1.403,0-2.59,0.107-3.526,0.32
				c-0.113,0.025-0.252,0.058-0.411,0.098l-0.694,0.176l-0.057,0.714l-0.038,0.461c-0.109,1.51-0.042,2.632,0.208,3.439
				c0.198,0.632,0.535,1.097,1.001,1.386l0.04,0.024l0.041,0.021c0.004,0.002,0.007,0.003,0.011,0.005
				c-0.248,1.756-0.296,3.082-0.147,4.05c0.064,0.476,0.266,0.894,0.597,1.222c0.271,0.272,0.7,0.522,1.346,0.781
				c0.578,0.232,1.097,0.376,1.586,0.438c0.123,0.021,0.257,0.032,0.41,0.032l5.357-0.129c0.276-0.008,0.531-0.011,0.766-0.011
				c0.23,0,0.44,0.003,0.632,0.01c0,0,0.001,0,0.002,0c0.749,0,1.124-0.451,1.229-0.838c0.026-0.094,0.051-0.21,0.071-0.341
				l0.009-0.057l0.002-0.059c0.021-0.564-0.169-1.089-0.549-1.517c-0.322-0.356-0.802-0.489-1.421-0.549
				c0.173-0.188,0.297-0.448,0.325-0.787c0.052-0.965-0.354-1.537-0.711-1.854c-0.1-0.092-0.214-0.165-0.342-0.22l1.615,0.075
				l0.726,0.033l0.256-0.68c0.088-0.232,0.157-0.468,0.205-0.697c0.117-0.448,0.174-0.958,0.174-1.557c0-0.562,0-2.271-1.225-2.901
				c-0.314-0.16-0.935-0.402-2.747-0.688c-1.281-0.202-2.507-0.329-3.646-0.381C55.723,14.929,55.361,14.923,55.016,14.923
				L55.016,14.923z"/>
		</g>
	</g>
</g>
</svg>
