<?xml version="1.0" encoding="utf-8"?>
<!-- Generator: Adobe Illustrator 13.0.0, SVG Export Plug-In . SVG Version: 6.00 Build 14948)  -->
<!DOCTYPE svg PUBLIC "-//W3C//DTD SVG 1.1//EN" "http://www.w3.org/Graphics/SVG/1.1/DTD/svg11.dtd">
<svg version="1.1" id="Livello_1" xmlns="http://www.w3.org/2000/svg" xmlns:xlink="http://www.w3.org/1999/xlink" x="0px" y="0px"
	 width="224px" height="28px" viewBox="0 0 224 28" enable-background="new 0 0 224 28" xml:space="preserve">
<g>
	<g>
		<path fill="#FFFFFF" d="M82.307,11.297c-0.08,0.5-0.422,0.912-1.021,1.236c-0.957,0.498-2.264,0.749-3.92,0.749
			c-1.657,0-2.891-0.239-3.7-0.714c-0.246-0.139-0.328-0.412-0.246-0.818c0.017-0.115,0.046-0.277,0.083-0.488
			c1.409,0.292,2.694,0.437,3.85,0.437c1.238,0,2.209-0.175,2.909-0.521c0.199-0.096,0.3-0.223,0.3-0.385
			c0-0.395-0.978-0.591-2.936-0.591c-0.803,0-1.544,0.021-2.227,0.069c-0.564,0.033-1.073,0.017-1.531-0.053
			c-0.524-0.081-0.79-0.79-0.79-2.125c0-0.717,0.129-1.438,0.386-2.157c0.134-0.383,0.381-0.741,0.736-1.079
			c0.61-0.581,1.472-1.113,2.593-1.602c1.212-0.521,2.262-0.783,3.154-0.783c0.198,0,0.382,0.012,0.546,0.035
			c0.138,0.023,0.275,0.145,0.411,0.365c0.199,0.289,0.382,0.737,0.546,1.34c0.135,0.535,0.223,1.005,0.259,1.41
			c0.009,0.117,0.019,0.255,0.028,0.418c0,0.139-0.061,0.227-0.179,0.261c-1.12,0.29-2.292,0.686-3.523,1.185
			c-0.746,0.312-1.359,0.638-1.844,0.973c-0.1,0.07-0.148,0.135-0.148,0.193c0,0.058,0.063,0.086,0.19,0.086
			c0.145-0.01,0.231-0.023,0.261-0.035c0.218-0.045,0.79-0.058,1.72-0.033c1.891,0.045,3.076,0.307,3.548,0.783
			c0.384,0.382,0.574,0.869,0.574,1.461C82.335,11.042,82.327,11.17,82.307,11.297z"/>
		<path fill="#FFFFFF" d="M91.157,2.594c-0.064,0.268-0.154,0.68-0.273,1.237c-0.428,2.157-0.642,4.281-0.642,6.371
			c0,0.521,0.012,1.065,0.04,1.636c0,0.104,0.027,0.452,0.084,1.043c-0.266,0.162-0.547,0.244-0.847,0.244
			c-0.267,0-0.424-0.088-0.479-0.262c-0.054-0.174-0.108-0.648-0.162-1.427c-0.103-1.38-0.115-2.767-0.041-4.16
			c-0.438,0.151-1.098,0.28-1.981,0.382c-0.136,0.025-0.212,0.1-0.23,0.227c-0.037,0.57-0.056,1.109-0.056,1.62
			c0,1.056,0.09,2.158,0.272,3.307c-0.571,0.174-1.07,0.302-1.487,0.384c-0.311,0.059-0.564,0.087-0.768,0.087
			c-0.39,0-0.69-0.11-0.898-0.331c-0.327-0.336-0.58-1.172-0.752-2.506c-0.128-1.021-0.187-1.939-0.178-2.752l0.027-1.757
			c0.019-0.801,0.102-1.694,0.247-2.681c0.009-0.069,0.204-0.186,0.586-0.349c0.755-0.313,1.627-0.47,2.606-0.47
			c0.375,0,0.707,0.035,0.998,0.104c0.064,0.012,0.102,0.023,0.118,0.036c0.012,0.01,0.022,0.045,0.034,0.104
			c0.035,0.221-0.083,1.05-0.356,2.488l-0.178,0.958c0.556-0.243,1.14-0.376,1.748-0.4c0.258,0,0.392-0.063,0.41-0.192l0.396-2.767
			c0.037-0.243,0.077-0.47,0.123-0.679c0.045-0.012,0.087-0.021,0.122-0.035c0.609-0.07,1.083,0.041,1.419,0.331
			C91.135,2.445,91.167,2.514,91.157,2.594z"/>
		<path fill="#FFFFFF" d="M101.344,12.204c-0.201,0.127-0.339,0.207-0.41,0.235c-0.073,0.028-0.204,0.089-0.395,0.183
			c-0.684,0.301-1.444,0.452-2.28,0.452c-0.703,0-1.165-0.122-1.394-0.366c-0.092-0.092-0.165-0.196-0.219-0.314
			c-0.101-0.23-0.233-0.544-0.396-0.938C95.958,10.724,95.652,9.905,95.334,9c-0.009-0.045-0.027-0.094-0.054-0.14
			c-0.018-0.011-0.104-0.017-0.26-0.017l-1.323,0.053c-0.183,0.01-0.315,0.127-0.396,0.348c-0.555,1.578-0.89,2.831-0.998,3.76
			c-0.363,0.012-0.692-0.082-0.983-0.279c-0.219-0.15-0.31-0.342-0.272-0.574c0.035-0.163,0.067-0.319,0.095-0.47
			c0.19-0.883,0.533-1.955,1.025-3.222c0.317-0.812,0.675-1.635,1.063-2.471c0.054-0.104,0.064-0.209,0.03-0.313
			c-0.074-0.278-0.219-0.574-0.438-0.888c-0.203-0.277-0.302-0.436-0.302-0.47c0-0.022,0.01-0.045,0.027-0.07
			c1.34-0.822,2.747-1.462,4.233-1.913c0.063-0.023,0.112-0.023,0.149,0c0.037,0.012,0.164,0.168,0.383,0.47
			c0.601,0.824,1.304,2.144,2.11,3.959c0.805,1.817,1.394,3.427,1.769,4.831C101.293,11.976,101.344,12.18,101.344,12.204z
			 M94.787,7.659l-0.329-0.643c-0.01-0.023-0.029-0.064-0.056-0.121c-0.065-0.094-0.13-0.064-0.192,0.082
			c-0.254,0.594-0.396,0.93-0.422,1.012c0.003,0,0.005,0.006,0.005,0.02c0.018,0,0.036,0,0.055,0c0.09,0,0.24-0.018,0.448-0.053
			c0.084-0.011,0.206-0.034,0.369-0.07C94.804,7.852,94.844,7.776,94.787,7.659z"/>
		<path fill="#FFFFFF" d="M110.398,7.782c0.007,0.244-0.061,0.436-0.208,0.574c-0.425,0.43-1.25,0.889-2.469,1.375
			c-0.594,0.222-1.18,0.447-1.763,0.68h-0.015c1.667,0.789,2.919,1.543,3.755,2.263c-0.099,0.139-0.181,0.256-0.245,0.348
			c-0.189,0.244-0.413,0.365-0.668,0.365c-0.165,0-0.341-0.046-0.533-0.138c-0.246-0.164-0.696-0.437-1.353-0.818
			c-1.145-0.662-2.398-1.139-3.754-1.428l0.055,2.123c0,0.012,0,0.023,0,0.035c-0.008,0.012-0.033,0.018-0.067,0.018
			c-0.467-0.059-0.82-0.162-1.066-0.314c-0.183-0.115-0.287-0.318-0.316-0.608c-0.079-0.731-0.116-1.479-0.106-2.246
			c0.019-1.507,0.046-2.32,0.081-2.437c0.008-0.046,0.015-0.081,0.015-0.104l-0.247-0.297c-0.264-0.29-0.436-0.777-0.519-1.462
			c-0.109-1.01-0.149-2.024-0.122-3.047c0.009-0.184,0.087-0.283,0.233-0.295c0.909-0.058,1.781-0.034,2.62,0.069
			c0.718,0.082,1.491,0.256,2.321,0.523c0.802,0.243,1.443,0.504,1.924,0.783c0.274,0.15,0.545,0.394,0.807,0.729
			c0.482,0.593,0.865,1.19,1.148,1.794C110.217,6.917,110.379,7.422,110.398,7.782z M107.531,8.086
			c-0.028-0.029-0.094-0.072-0.192-0.131c-0.974-0.359-1.938-0.539-2.896-0.539c-0.455,0-0.81,0.029-1.065,0.087
			c-0.109,0.616-0.169,1.235-0.177,1.862c1.418,0.023,2.781-0.255,4.081-0.836c0.192-0.093,0.289-0.209,0.289-0.348
			C107.571,8.148,107.557,8.115,107.531,8.086z"/>
		<path fill="#FFFFFF" d="M118.742,6.668c-0.03,0.174-0.071,0.354-0.126,0.539l-1.747-0.105c-0.857-0.045-2.053,0.014-3.592,0.175
			c-0.037,0-0.144,0.018-0.328,0.052c-0.07,0.547-0.123,1.091-0.15,1.637c0.901-0.093,1.787-0.133,2.652-0.121
			c0.454,0,0.944,0.023,1.474,0.068c0.107,0,0.183,0.024,0.217,0.07c0.208,0.231,0.305,0.557,0.287,0.975
			c-0.008,0.151-0.053,0.227-0.137,0.227c-1.521-0.105-3.045-0.069-4.572,0.104c0,0.057-0.008,0.109-0.016,0.154
			c-0.025,0.584,0.083,0.957,0.329,1.119c0.063,0.045,0.179,0.068,0.341,0.068c0.445,0.012,1.006,0.012,1.679,0
			c0.828-0.035,1.702-0.013,2.624,0.069c0.417,0.034,0.669,0.11,0.75,0.226c0.155,0.221,0.226,0.477,0.219,0.766
			c-0.011,0.082-0.022,0.154-0.034,0.219c-0.017,0.063-0.07,0.096-0.172,0.096c-0.302-0.012-0.659-0.012-1.077,0l-3.947,0.121
			c-0.074,0-0.138-0.006-0.193-0.018c-0.299-0.046-0.636-0.166-1.009-0.356s-0.624-0.368-0.751-0.53
			c-0.127-0.164-0.205-0.372-0.233-0.627c-0.098-0.836-0.058-2.055,0.123-3.655c0.012-0.163,0.02-0.262,0.029-0.298
			c0.008-0.149-0.01-0.26-0.056-0.329c-0.117-0.07-0.251-0.151-0.396-0.243c-0.192-0.151-0.333-0.412-0.425-0.785
			c-0.153-0.637-0.194-1.6-0.123-2.888l0.027-0.435c0.109-0.035,0.207-0.063,0.288-0.088c0.802-0.23,1.875-0.319,3.225-0.261
			c0.817,0.047,1.69,0.163,2.613,0.349c0.924,0.185,1.526,0.37,1.811,0.557c0.336,0.22,0.503,0.853,0.503,1.896
			C118.849,5.902,118.811,6.319,118.742,6.668z"/>
		<path fill="#FFFFFF" d="M134.293,3.413c-0.009,0.697-0.204,1.451-0.588,2.263c-0.154,0.325-0.403,0.726-0.751,1.202
			c-0.144,0.197-0.29,0.389-0.436,0.573c-0.012,0.024-0.036,0.285-0.082,0.783c-0.109,1.243-0.166,2.298-0.166,3.169
			c0,0.232,0.011,0.411,0.03,0.539c0.019,0.268,0.021,0.43,0.01,0.488c-0.016,0.045-0.139,0.121-0.366,0.225
			c-0.509,0.222-0.825,0.354-0.941,0.4c-0.375,0.141-0.703,0.215-0.983,0.228c-0.556,0.035-0.901-0.128-1.037-0.488
			c-0.375-1.159-0.579-2.349-0.617-3.568c-0.009-0.162-0.021-0.412-0.039-0.749c-0.02-0.195-0.055-0.329-0.11-0.398
			c-0.119-0.117-0.295-0.309-0.532-0.575c-0.454-0.498-0.884-1.039-1.282-1.618c-0.192-0.278-0.606-0.976-1.242-2.09l-0.028-0.051
			c1.147-0.917,2.357-1.376,3.631-1.376c0.173,0,0.345,0.012,0.514,0.035c0.169,0.024,0.27,0.046,0.308,0.069
			c0.034,0.023,0.063,0.1,0.08,0.227c0.127,0.904,0.327,1.862,0.602,2.871c0.155,0.57,0.296,0.945,0.424,1.132
			c0.072,0.116,0.131,0.157,0.177,0.122c0.62-0.441,1.103-1.271,1.445-2.489c0.257-0.893,0.381-1.618,0.37-2.176
			c0.366-0.011,0.707,0.012,1.024,0.069C134.107,2.299,134.303,2.694,134.293,3.413z"/>
		<path fill="#FFFFFF" d="M144.222,8.6c-0.32,1.346-0.964,2.478-1.939,3.395c-0.975,0.917-2.018,1.381-3.129,1.392
			c-1.119,0.011-2.175-0.444-3.169-1.366c-0.989-0.922-1.646-2.063-1.964-3.42c-0.094-0.545-0.082-1.062,0.027-1.549
			c0.183-0.871,0.646-1.764,1.391-2.681c0.748-0.917,1.493-1.515,2.24-1.792c0.464-0.175,0.942-0.263,1.435-0.263
			c0.499,0,0.983,0.088,1.448,0.263c0.746,0.277,1.493,0.875,2.237,1.792c0.748,0.917,1.211,1.81,1.395,2.681
			C144.304,7.539,144.31,8.055,144.222,8.6z M140.123,10.062c0-0.511-0.1-0.945-0.299-1.306c-0.201-0.359-0.438-0.539-0.711-0.539
			c-0.281,0-0.521,0.18-0.717,0.539c-0.194,0.36-0.294,0.795-0.294,1.306s0.1,0.946,0.294,1.306c0.195,0.359,0.436,0.54,0.717,0.54
			c0.273,0,0.51-0.181,0.711-0.54C140.023,11.008,140.123,10.573,140.123,10.062z"/>
		<path fill="#FFFFFF" d="M155.061,11.785c0,0.036-0.047,0.088-0.143,0.157c-0.097,0.068-0.246,0.18-0.457,0.331
			c-0.79,0.534-1.437,0.829-1.938,0.888c-0.448,0.068-0.753,0.04-0.916-0.087c-0.365-0.243-0.642-0.87-0.831-1.88l-0.041,0.035
			c-0.856,0.972-1.491,1.567-1.9,1.789c-0.336,0.188-0.561,0.275-0.668,0.265c-0.482-0.059-1.083-0.438-1.795-1.136
			c-0.715-0.698-1.146-1.304-1.292-1.816c-0.056-0.209-0.108-0.471-0.164-0.785c-0.063-0.396-0.096-0.931-0.096-1.606
			c0-1.525,0.124-2.876,0.369-4.052c0.063-0.29,0.128-0.547,0.189-0.768c0.047-0.152,0.345-0.277,0.896-0.376
			c0.55-0.1,1.126-0.131,1.728-0.097c0.637,0.023,1.143,0.064,1.516,0.122c0.344,0.059,0.518,0.181,0.518,0.367
			c0,0.069-0.007,0.151-0.026,0.243c-0.108,0.383-0.274,0.954-0.491,1.709c-0.428,1.489-0.679,2.978-0.753,4.466
			c-0.034,0.675-0.007,1.151,0.084,1.431c0.053,0.175,0.154,0.203,0.3,0.087c0.565-0.429,1.029-0.952,1.393-1.566l-0.014-0.191
			c-0.063-0.8-0.098-1.655-0.098-2.559c0-1.08,0.043-1.764,0.124-2.055c0.085-0.289,0.233-0.509,0.452-0.662
			c0.727-0.521,1.539-0.898,2.431-1.131c1.028-0.276,1.541-0.365,1.541-0.261c0,0.07,0.007,0.139,0.015,0.209
			c-0.026,0.486-0.072,1.445-0.137,2.872c-0.025,0.591-0.04,1.172-0.04,1.741C154.816,8.837,154.898,10.276,155.061,11.785z"/>
		<path fill="#FFFFFF" d="M165.304,7.782c0.007,0.244-0.06,0.436-0.203,0.574c-0.432,0.43-1.252,0.889-2.474,1.375
			c-0.593,0.222-1.178,0.447-1.762,0.68h-0.013c1.664,0.789,2.916,1.543,3.756,2.263c-0.103,0.139-0.183,0.256-0.248,0.348
			c-0.19,0.244-0.414,0.365-0.668,0.365c-0.164,0-0.342-0.046-0.534-0.138c-0.243-0.164-0.694-0.437-1.351-0.818
			c-1.146-0.662-2.399-1.139-3.755-1.428l0.053,2.123c0,0.012,0,0.023,0,0.035c-0.008,0.012-0.028,0.018-0.066,0.018
			c-0.465-0.059-0.82-0.162-1.065-0.314c-0.181-0.115-0.287-0.318-0.313-0.608c-0.084-0.731-0.119-1.479-0.111-2.246
			c0.019-1.507,0.045-2.32,0.083-2.437c0.01-0.046,0.013-0.081,0.013-0.104L156.4,7.172c-0.266-0.29-0.438-0.777-0.519-1.462
			c-0.108-1.01-0.151-2.024-0.123-3.047c0.009-0.184,0.086-0.283,0.232-0.295c0.91-0.058,1.783-0.034,2.623,0.069
			c0.715,0.082,1.493,0.256,2.32,0.523c0.8,0.243,1.442,0.504,1.925,0.783c0.272,0.15,0.541,0.394,0.806,0.729
			c0.481,0.593,0.866,1.19,1.147,1.794C165.122,6.917,165.284,7.422,165.304,7.782z M162.437,8.086
			c-0.028-0.029-0.091-0.072-0.192-0.131c-0.973-0.359-1.937-0.539-2.896-0.539c-0.454,0-0.809,0.029-1.063,0.087
			c-0.108,0.616-0.168,1.235-0.179,1.862c1.423,0.023,2.782-0.255,4.085-0.836c0.19-0.093,0.284-0.209,0.284-0.348
			C162.475,8.148,162.464,8.115,162.437,8.086z"/>
		<path fill="#FFFFFF" d="M181.649,11.297c-0.084,0.5-0.424,0.912-1.026,1.236c-0.954,0.498-2.263,0.749-3.918,0.749
			c-1.656,0-2.889-0.239-3.701-0.714c-0.245-0.139-0.327-0.412-0.245-0.818c0.02-0.115,0.045-0.277,0.083-0.488
			c1.411,0.292,2.695,0.437,3.851,0.437c1.235,0,2.206-0.175,2.907-0.521c0.202-0.096,0.301-0.223,0.301-0.385
			c0-0.395-0.979-0.591-2.936-0.591c-0.801,0-1.544,0.021-2.227,0.069c-0.563,0.033-1.072,0.017-1.528-0.053
			c-0.527-0.081-0.792-0.79-0.792-2.125c0-0.717,0.128-1.438,0.383-2.157c0.137-0.383,0.381-0.741,0.736-1.079
			c0.608-0.581,1.476-1.113,2.596-1.602c1.209-0.521,2.261-0.783,3.153-0.783c0.2,0,0.383,0.012,0.546,0.035
			c0.136,0.023,0.273,0.145,0.411,0.365c0.197,0.289,0.38,0.737,0.546,1.34c0.138,0.535,0.222,1.005,0.259,1.41
			c0.007,0.117,0.018,0.255,0.027,0.418c0,0.139-0.06,0.227-0.178,0.261c-1.12,0.29-2.295,0.686-3.523,1.185
			c-0.745,0.312-1.361,0.638-1.844,0.973c-0.1,0.07-0.15,0.135-0.15,0.193c0,0.058,0.064,0.086,0.192,0.086
			c0.146-0.01,0.232-0.023,0.26-0.035c0.219-0.045,0.791-0.058,1.719-0.033c1.896,0.045,3.079,0.307,3.553,0.783
			c0.381,0.382,0.572,0.869,0.572,1.461C181.676,11.042,181.667,11.17,181.649,11.297z"/>
		<path fill="#FFFFFF" d="M190.523,11.856c-0.108,0.23-0.46,0.475-1.05,0.729c-0.594,0.257-1.2,0.419-1.816,0.488
			c-0.329,0.046-0.656,0.069-0.983,0.069c-1.076,0-2.019-0.197-2.827-0.592c-0.875-0.418-1.416-0.997-1.627-1.741
			c-0.063-0.243-0.095-0.516-0.095-0.817c0-0.639,0.128-1.352,0.382-2.141c0.328-1.033,0.834-1.979,1.518-2.838
			c0.655-0.813,1.396-1.467,2.225-1.967c0.894-0.521,1.835-0.863,2.826-1.026c0.045,0,0.072,0.005,0.083,0.017
			c0.427,0.523,0.774,1.243,1.037,2.158c0.236,0.883,0.342,1.719,0.313,2.507c0,0.081-0.003,0.18-0.015,0.296
			c-0.052,0-0.104,0-0.149,0c-0.555,0-1.274,0.223-2.156,0.67c-0.884,0.446-1.557,0.921-2.021,1.418
			c-0.59,0.64-0.888,1.116-0.888,1.428c0,0.313,0.214,0.563,0.644,0.748c0.48,0.223,1.113,0.279,1.896,0.175
			c0.291-0.034,0.634-0.116,1.024-0.243c0.602-0.199,1.037-0.412,1.312-0.644c0.108-0.081,0.183-0.093,0.219-0.036
			c0.145,0.221,0.217,0.518,0.217,0.889C190.591,11.586,190.57,11.74,190.523,11.856z"/>
		<path fill="#FFFFFF" d="M201.299,8.6c-0.319,1.346-0.966,2.478-1.94,3.395s-2.017,1.381-3.127,1.392
			c-1.119,0.011-2.176-0.444-3.167-1.366c-0.994-0.922-1.648-2.063-1.966-3.42c-0.094-0.545-0.083-1.062,0.026-1.549
			c0.181-0.871,0.646-1.764,1.392-2.681c0.748-0.917,1.496-1.515,2.24-1.792c0.463-0.175,0.942-0.263,1.433-0.263
			c0.502,0,0.982,0.088,1.449,0.263c0.745,0.277,1.493,0.875,2.238,1.792c0.748,0.917,1.21,1.81,1.395,2.681
			C201.377,7.539,201.388,8.055,201.299,8.6z M197.202,10.062c0-0.511-0.101-0.945-0.301-1.306
			c-0.202-0.359-0.436-0.539-0.712-0.539c-0.281,0-0.519,0.18-0.715,0.539c-0.196,0.36-0.294,0.795-0.294,1.306
			s0.098,0.946,0.294,1.306s0.434,0.54,0.715,0.54c0.276,0,0.51-0.181,0.712-0.54C197.102,11.008,197.202,10.573,197.202,10.062z"/>
		<path fill="#FFFFFF" d="M211.142,7.782c0.01,0.244-0.058,0.436-0.203,0.574c-0.429,0.43-1.252,0.889-2.472,1.375
			c-0.593,0.222-1.177,0.447-1.761,0.68h-0.013c1.666,0.789,2.916,1.543,3.753,2.263c-0.101,0.139-0.182,0.256-0.247,0.348
			c-0.19,0.244-0.414,0.365-0.667,0.365c-0.164,0-0.342-0.046-0.534-0.138c-0.244-0.164-0.695-0.437-1.35-0.818
			c-1.146-0.662-2.397-1.139-3.756-1.428l0.055,2.123c0,0.012,0,0.023,0,0.035c-0.01,0.012-0.033,0.018-0.068,0.018
			c-0.465-0.059-0.819-0.162-1.066-0.314c-0.181-0.115-0.285-0.318-0.313-0.608c-0.083-0.731-0.118-1.479-0.11-2.246
			c0.017-1.507,0.046-2.32,0.082-2.437c0.01-0.046,0.013-0.081,0.013-0.104l-0.243-0.297c-0.268-0.29-0.44-0.777-0.52-1.462
			c-0.109-1.01-0.152-2.024-0.125-3.047c0.011-0.184,0.088-0.283,0.232-0.295c0.912-0.058,1.787-0.034,2.623,0.069
			c0.718,0.082,1.492,0.256,2.32,0.523c0.802,0.243,1.443,0.504,1.926,0.783c0.275,0.15,0.54,0.394,0.807,0.729
			c0.483,0.593,0.864,1.19,1.146,1.794C210.959,6.917,211.124,7.422,211.142,7.782z M208.274,8.086
			c-0.027-0.029-0.089-0.072-0.191-0.131c-0.974-0.359-1.938-0.539-2.895-0.539c-0.454,0-0.81,0.029-1.062,0.087
			c-0.112,0.616-0.173,1.235-0.18,1.862c1.42,0.023,2.779-0.255,4.084-0.836c0.192-0.093,0.286-0.209,0.286-0.348
			C208.317,8.148,208.303,8.115,208.274,8.086z"/>
		<path fill="#FFFFFF" d="M219.483,6.668c-0.025,0.174-0.066,0.354-0.119,0.539l-1.75-0.105c-0.854-0.045-2.052,0.014-3.589,0.175
			c-0.037,0-0.149,0.018-0.327,0.052c-0.076,0.547-0.124,1.091-0.15,1.637c0.9-0.093,1.78-0.133,2.646-0.121
			c0.458,0,0.949,0.023,1.476,0.068c0.11,0,0.182,0.024,0.217,0.07c0.212,0.231,0.307,0.557,0.289,0.975
			c-0.011,0.151-0.056,0.227-0.136,0.227c-1.521-0.105-3.047-0.069-4.578,0.104c0,0.057-0.002,0.109-0.011,0.154
			c-0.029,0.584,0.081,0.957,0.325,1.119c0.068,0.045,0.178,0.068,0.346,0.068c0.443,0.012,1.005,0.012,1.677,0
			c0.829-0.035,1.703-0.013,2.624,0.069c0.416,0.034,0.667,0.11,0.749,0.226c0.155,0.221,0.228,0.477,0.216,0.766
			c-0.008,0.082-0.019,0.154-0.031,0.219c-0.014,0.063-0.072,0.096-0.172,0.096c-0.299-0.012-0.658-0.012-1.077,0l-3.946,0.121
			c-0.073,0-0.136-0.006-0.192-0.018c-0.298-0.046-0.636-0.166-1.008-0.356c-0.375-0.19-0.626-0.368-0.751-0.53
			c-0.131-0.164-0.207-0.372-0.232-0.627c-0.103-0.836-0.059-2.055,0.12-3.655c0.007-0.163,0.019-0.262,0.026-0.298
			c0.011-0.149-0.008-0.26-0.051-0.329c-0.12-0.07-0.251-0.151-0.399-0.243c-0.188-0.151-0.329-0.412-0.422-0.785
			c-0.156-0.637-0.196-1.6-0.121-2.888l0.026-0.435c0.109-0.035,0.204-0.063,0.286-0.088c0.802-0.23,1.875-0.319,3.222-0.261
			c0.818,0.047,1.689,0.163,2.617,0.349c0.924,0.185,1.525,0.37,1.808,0.557c0.336,0.22,0.507,0.853,0.507,1.896
			C219.597,5.902,219.56,6.319,219.483,6.668z"/>
	</g>
	<g>
		<path fill="#FFFFFF" d="M80.929,18.299c0.064,0.213,0.097,0.58,0.097,1.1c0,0.744-0.048,1.393-0.141,1.949
			c-0.015,0.111-0.041,0.25-0.077,0.418c-0.998-0.148-2.001-0.199-3.015-0.154c-0.32,1.43-0.479,2.84-0.479,4.232
			c0,0.279,0,0.566,0,0.863c0,0.01,0,0.02,0,0.027c-0.008,0.027-0.072,0.021-0.194-0.021c-0.12-0.041-0.269-0.09-0.438-0.146
			c-0.23-0.092-0.369-0.168-0.419-0.229c-0.051-0.061-0.086-0.262-0.108-0.605c-0.028-0.492-0.042-0.965-0.042-1.42
			c0-0.834,0.055-1.713,0.163-2.631c-0.176,0.01-0.441,0.031-0.798,0.07c-0.518,0.064-1.142,0.143-1.879,0.234
			c-0.231,0.029-0.362-0.018-0.392-0.137c-0.08-0.408-0.12-0.803-0.12-1.186c0-0.686,0.13-1.367,0.393-2.045
			c0.029-0.084,0.077-0.209,0.143-0.375c0.537,0.037,1.092,0.033,1.66-0.016c0.749-0.064,1.353-0.119,1.813-0.166
			c0.495-0.064,0.956-0.098,1.387-0.098c0.705,0,1.419,0.084,2.14,0.25C80.658,18.225,80.76,18.252,80.929,18.299z"/>
		<path fill="#FFFFFF" d="M89.37,22.754c-0.257,1.076-0.773,1.982-1.552,2.715c-0.779,0.732-1.612,1.104-2.501,1.113
			c-0.896,0.008-1.739-0.355-2.533-1.094c-0.794-0.736-1.318-1.648-1.573-2.734c-0.071-0.438-0.064-0.85,0.021-1.238
			c0.146-0.697,0.518-1.412,1.115-2.145c0.596-0.734,1.193-1.213,1.791-1.434c0.37-0.139,0.753-0.209,1.147-0.209
			c0.4,0,0.786,0.07,1.156,0.209c0.597,0.221,1.193,0.699,1.791,1.434c0.597,0.732,0.969,1.447,1.113,2.145
			C89.435,21.904,89.441,22.316,89.37,22.754z M86.094,23.922c0-0.408-0.083-0.756-0.24-1.043c-0.16-0.287-0.351-0.432-0.567-0.432
			c-0.228,0-0.419,0.145-0.574,0.432c-0.158,0.287-0.234,0.635-0.234,1.043c0,0.41,0.076,0.758,0.234,1.045
			c0.155,0.287,0.347,0.432,0.574,0.432c0.217,0,0.407-0.145,0.567-0.432C86.011,24.68,86.094,24.332,86.094,23.922z"/>
		<path fill="#FFFFFF" d="M101.634,25.357c-0.087,0.184-0.368,0.381-0.842,0.584c-0.474,0.205-0.957,0.334-1.454,0.389
			c-0.262,0.037-0.522,0.057-0.784,0.057c-0.861,0-1.613-0.158-2.262-0.473c-0.699-0.336-1.132-0.799-1.299-1.393
			c-0.05-0.195-0.076-0.412-0.076-0.654c0-0.51,0.103-1.08,0.306-1.713c0.261-0.826,0.667-1.582,1.213-2.27
			c0.524-0.648,1.117-1.172,1.78-1.572c0.714-0.416,1.468-0.689,2.261-0.82c0.035,0,0.055,0.004,0.064,0.014
			c0.342,0.418,0.618,0.994,0.829,1.725c0.19,0.707,0.274,1.375,0.251,2.006c0,0.064-0.003,0.145-0.011,0.236
			c-0.041,0-0.083,0-0.118,0c-0.445,0-1.022,0.178-1.725,0.537c-0.707,0.357-1.246,0.734-1.619,1.133
			c-0.473,0.512-0.711,0.893-0.711,1.143s0.172,0.451,0.515,0.598c0.386,0.178,0.893,0.223,1.518,0.141
			c0.234-0.027,0.507-0.094,0.82-0.195c0.479-0.158,0.83-0.33,1.049-0.516c0.086-0.064,0.146-0.074,0.176-0.027
			c0.116,0.176,0.172,0.412,0.172,0.711C101.687,25.143,101.671,25.264,101.634,25.357z"/>
		<path fill="#FFFFFF" d="M109.079,17.951c-0.049,0.213-0.123,0.543-0.218,0.988c-0.343,1.725-0.513,3.424-0.513,5.096
			c0,0.416,0.013,0.852,0.032,1.309c0,0.082,0.022,0.361,0.066,0.834c-0.21,0.131-0.437,0.195-0.678,0.195
			c-0.209,0-0.337-0.07-0.384-0.209c-0.041-0.139-0.085-0.52-0.129-1.141c-0.08-1.105-0.093-2.215-0.032-3.328
			c-0.35,0.121-0.878,0.223-1.585,0.307c-0.108,0.02-0.17,0.08-0.186,0.18c-0.028,0.455-0.044,0.887-0.044,1.297
			c0,0.844,0.073,1.725,0.22,2.645c-0.459,0.139-0.854,0.24-1.19,0.305c-0.247,0.047-0.453,0.07-0.61,0.07
			c-0.314,0-0.554-0.088-0.722-0.264c-0.263-0.27-0.463-0.938-0.6-2.006c-0.102-0.816-0.152-1.549-0.143-2.199l0.021-1.404
			c0.016-0.643,0.082-1.355,0.197-2.145c0.007-0.057,0.162-0.148,0.47-0.279c0.602-0.25,1.3-0.375,2.087-0.375
			c0.299,0,0.562,0.027,0.797,0.082c0.049,0.01,0.082,0.02,0.093,0.029c0.011,0.008,0.02,0.037,0.025,0.082
			c0.029,0.178-0.063,0.84-0.283,1.992l-0.142,0.766c0.443-0.195,0.91-0.303,1.398-0.32c0.203,0,0.313-0.051,0.326-0.154
			l0.317-2.213c0.029-0.193,0.062-0.375,0.098-0.543c0.038-0.01,0.069-0.018,0.1-0.027c0.487-0.057,0.865,0.033,1.134,0.264
			C109.063,17.83,109.088,17.887,109.079,17.951z"/>
		<path fill="#FFFFFF" d="M117.228,25.635c-0.16,0.104-0.27,0.166-0.327,0.188c-0.058,0.023-0.164,0.072-0.318,0.146
			c-0.545,0.242-1.153,0.361-1.823,0.361c-0.561,0-0.932-0.096-1.115-0.291c-0.07-0.074-0.129-0.158-0.172-0.252
			c-0.081-0.184-0.188-0.436-0.319-0.75c-0.231-0.586-0.477-1.238-0.73-1.963c-0.009-0.037-0.021-0.074-0.043-0.111
			c-0.015-0.01-0.084-0.014-0.207-0.014l-1.06,0.041c-0.146,0.01-0.254,0.102-0.318,0.279c-0.443,1.262-0.708,2.264-0.797,3.006
			c-0.293,0.01-0.554-0.064-0.785-0.223c-0.176-0.121-0.248-0.273-0.219-0.459c0.027-0.131,0.056-0.256,0.077-0.377
			c0.153-0.705,0.425-1.563,0.817-2.574c0.256-0.65,0.539-1.309,0.853-1.979c0.045-0.082,0.05-0.166,0.022-0.25
			c-0.061-0.221-0.175-0.459-0.352-0.709c-0.159-0.223-0.238-0.348-0.238-0.377c0-0.018,0.007-0.035,0.021-0.055
			c1.07-0.658,2.197-1.17,3.386-1.531c0.05-0.018,0.091-0.018,0.12,0c0.027,0.01,0.131,0.135,0.305,0.375
			c0.483,0.66,1.043,1.715,1.688,3.168c0.646,1.453,1.115,2.74,1.415,3.863C117.188,25.453,117.228,25.617,117.228,25.635z
			 M111.985,22.002l-0.266-0.514c-0.008-0.02-0.023-0.053-0.042-0.1c-0.053-0.074-0.104-0.051-0.155,0.066
			c-0.203,0.475-0.315,0.744-0.337,0.809c0.001,0,0.001,0.006,0.001,0.016c0.018,0,0.031,0,0.046,0c0.071,0,0.193-0.012,0.36-0.041
			c0.064-0.008,0.164-0.027,0.294-0.057C111.995,22.154,112.028,22.096,111.985,22.002z"/>
		<path fill="#FFFFFF" d="M122.131,24.939c0.022,0.176,0.014,0.344-0.022,0.5c-0.016,0.066-0.038,0.105-0.064,0.119
			c-0.028,0.014-0.092,0.031-0.185,0.049c-0.681,0.176-1.505,0.445-2.481,0.807l-0.228,0.084c-0.13,0.047-0.273,0.027-0.428-0.055
			c-0.21-0.104-0.517-0.26-0.917-0.475c-0.058-0.027-0.093-0.064-0.109-0.111c-0.028-0.084-0.052-0.186-0.067-0.307
			c-0.202-1.475-0.302-3.121-0.302-4.941c0-0.527,0.012-0.955,0.041-1.281c0.03-0.361,0.062-0.74,0.099-1.141
			c0.808-0.416,1.631-0.594,2.47-0.529c0.247,0.02,0.422,0.043,0.523,0.07c0.184,0.047,0.341,0.135,0.479,0.264
			c-0.333,1.541-0.584,3.203-0.75,4.984c-0.066,0.668-0.1,1.18-0.1,1.531c0,0.111,0.005,0.178,0.015,0.195
			c0.013,0.018,0.063,0.037,0.148,0.055c0.045,0.02,0.195,0.023,0.46,0.014c0.872-0.035,1.339-0.018,1.396,0.057
			C122.116,24.855,122.123,24.893,122.131,24.939z"/>
		<path fill="#FFFFFF" d="M127.35,24.939c0.022,0.176,0.016,0.344-0.021,0.5c-0.014,0.066-0.034,0.105-0.064,0.119
			c-0.029,0.014-0.092,0.031-0.186,0.049c-0.677,0.176-1.503,0.445-2.479,0.807l-0.23,0.084c-0.13,0.047-0.274,0.027-0.425-0.055
			c-0.212-0.104-0.519-0.26-0.919-0.475c-0.057-0.027-0.095-0.064-0.11-0.111c-0.027-0.084-0.048-0.186-0.063-0.307
			c-0.204-1.475-0.306-3.121-0.306-4.941c0-0.527,0.014-0.955,0.044-1.281c0.027-0.361,0.062-0.74,0.096-1.141
			c0.81-0.416,1.631-0.594,2.47-0.529c0.248,0.02,0.423,0.043,0.522,0.07c0.185,0.047,0.345,0.135,0.483,0.264
			c-0.336,1.541-0.586,3.203-0.753,4.984c-0.067,0.668-0.099,1.18-0.099,1.531c0,0.111,0.004,0.178,0.015,0.195
			c0.012,0.018,0.06,0.037,0.147,0.055c0.044,0.02,0.197,0.023,0.46,0.014c0.872-0.035,1.34-0.018,1.396,0.057
			C127.335,24.855,127.342,24.893,127.35,24.939z"/>
		<path fill="#FFFFFF" d="M133.98,21.209c-0.023,0.139-0.056,0.281-0.099,0.432l-1.399-0.086c-0.684-0.035-1.641,0.012-2.87,0.141
			c-0.03,0-0.116,0.014-0.265,0.041c-0.056,0.438-0.099,0.873-0.119,1.311c0.721-0.076,1.427-0.107,2.12-0.098
			c0.363,0,0.756,0.02,1.178,0.055c0.091,0,0.146,0.018,0.176,0.057c0.169,0.184,0.245,0.445,0.23,0.779
			c-0.008,0.121-0.044,0.18-0.111,0.18c-1.216-0.082-2.435-0.055-3.657,0.084c0,0.045-0.006,0.086-0.014,0.123
			c-0.02,0.469,0.067,0.766,0.266,0.895c0.05,0.037,0.141,0.055,0.271,0.055c0.356,0.01,0.807,0.01,1.346,0
			c0.661-0.027,1.358-0.008,2.096,0.057c0.335,0.027,0.536,0.088,0.6,0.18c0.124,0.178,0.183,0.381,0.176,0.613
			c-0.006,0.064-0.018,0.123-0.026,0.174c-0.012,0.051-0.058,0.076-0.139,0.076c-0.239-0.01-0.527-0.01-0.863,0l-3.155,0.098
			c-0.057,0-0.107-0.006-0.154-0.014c-0.239-0.037-0.51-0.133-0.807-0.287c-0.297-0.15-0.497-0.293-0.6-0.424
			c-0.103-0.129-0.165-0.297-0.186-0.5c-0.082-0.668-0.049-1.643,0.099-2.924c0.007-0.129,0.014-0.209,0.021-0.238
			c0.007-0.119-0.008-0.207-0.046-0.262c-0.093-0.059-0.199-0.121-0.315-0.195c-0.153-0.121-0.265-0.33-0.338-0.627
			c-0.123-0.512-0.157-1.281-0.1-2.311l0.022-0.348c0.087-0.029,0.163-0.051,0.229-0.07c0.64-0.186,1.5-0.256,2.577-0.209
			c0.656,0.037,1.352,0.131,2.09,0.279c0.74,0.148,1.222,0.297,1.45,0.445c0.27,0.176,0.402,0.682,0.402,1.518
			C134.066,20.596,134.037,20.93,133.98,21.209z"/>
		<path fill="#FFFFFF" d="M141.46,18.355c-0.313,1.883-0.469,3.715-0.469,5.498c0,0.391,0.005,0.789,0.012,1.197
			c0.005,0.064,0.021,0.24,0.043,0.527c-0.83,0.492-1.7,0.752-2.609,0.781c-0.502,0.008-0.871-0.176-1.103-0.557
			c-0.513-1.002-0.984-2.029-1.422-3.076c-0.159,0.945-0.25,1.875-0.271,2.783c-0.009,0.186-0.005,0.371,0.011,0.557
			c0.014,0.242,0.021,0.352,0.021,0.334c0,0.027-0.062,0.027-0.186,0c-0.13-0.018-0.324-0.074-0.58-0.166
			c-0.196-0.104-0.297-0.32-0.305-0.656c-0.037-1.354,0.054-2.736,0.272-4.146l0.197-1.309c0-0.027-0.021-0.098-0.055-0.209
			c-0.081-0.26-0.15-0.557-0.208-0.891c0.109-0.084,0.284-0.205,0.524-0.361c0.333-0.215,0.784-0.404,1.349-0.572
			c0.563-0.166,1.068-0.25,1.514-0.25c0.146,0,0.276,0.01,0.392,0.027c0.05,0.01,0.086,0.025,0.099,0.049
			c0.014,0.023,0.033,0.096,0.055,0.217c0.013,0.064,0.011,0.52-0.011,1.363c-0.016,0.826,0.047,1.619,0.185,2.381
			c0.168,0.938,0.428,1.67,0.775,2.199c0.029,0.057,0.053,0.088,0.068,0.098c0.041-0.018,0.076-0.4,0.096-1.143
			c0.015-0.641,0.029-1.275,0.044-1.906c0.029-0.473,0.06-1.18,0.089-2.117c0-0.139,0-0.281,0-0.43
			c0.326-0.232,0.757-0.33,1.288-0.293c0.071,0.01,0.133,0.02,0.185,0.027C141.46,18.322,141.46,18.336,141.46,18.355z"/>
		<path fill="#FFFFFF" d="M149.978,23.281c0.046,0.15,0.056,0.344,0.032,0.586c-0.014,0.242-0.054,0.439-0.118,0.598
			c-0.152,0.354-0.437,0.693-0.852,1.016c-0.35,0.27-0.707,0.471-1.069,0.6c-0.629,0.223-1.242,0.334-1.849,0.334
			c-1.084,0-2.117-0.342-3.101-1.027c-0.486-0.334-0.863-0.775-1.124-1.32c-0.139-0.287-0.207-0.594-0.207-0.918
			c0-0.908,0.439-1.807,1.319-2.695c1.151-1.178,2.515-1.975,4.084-2.391c0.505-0.129,0.9-0.189,1.192-0.182
			c0.064,0.01,0.129,0.047,0.195,0.111c0.271,0.27,0.512,0.775,0.722,1.518c0.212,0.742,0.308,1.406,0.296,1.99
			c-0.015,0.371-0.044,0.57-0.088,0.6c0,0.01-0.004,0.014-0.011,0.014c-1.858-0.057-3.322,0.268-4.392,0.969
			c-0.749,0.49-1.124,0.902-1.124,1.234c0,0.176,0.12,0.322,0.36,0.443c0.378,0.193,0.878,0.291,1.496,0.291
			c0.35,0,0.629-0.033,0.844-0.098c0.144-0.047,0.213-0.111,0.206-0.195c-0.053-0.371-0.175-0.602-0.374-0.697
			c-0.035-0.018-0.235-0.076-0.6-0.18c-0.188-0.045-0.282-0.107-0.282-0.182c0-0.055,0.064-0.102,0.195-0.139
			c0.095-0.018,0.225-0.047,0.392-0.082c0.693-0.131,1.45-0.219,2.272-0.266c0.523-0.037,1.017-0.041,1.476-0.014
			C149.934,23.209,149.972,23.236,149.978,23.281z"/>
		<path fill="#FFFFFF" d="M156.813,21.209c-0.021,0.139-0.053,0.281-0.098,0.432l-1.397-0.086c-0.685-0.035-1.643,0.012-2.873,0.141
			c-0.027,0-0.117,0.014-0.264,0.041c-0.056,0.438-0.097,0.873-0.117,1.311c0.721-0.076,1.425-0.107,2.119-0.098
			c0.362,0,0.755,0.02,1.177,0.055c0.09,0,0.146,0.018,0.176,0.057c0.169,0.184,0.245,0.445,0.23,0.779
			c-0.01,0.121-0.045,0.18-0.109,0.18c-1.215-0.082-2.436-0.055-3.658,0.084c0,0.045-0.004,0.086-0.012,0.123
			c-0.021,0.469,0.064,0.766,0.264,0.895c0.051,0.037,0.14,0.055,0.27,0.055c0.36,0.01,0.807,0.01,1.344,0
			c0.663-0.027,1.362-0.008,2.098,0.057c0.335,0.027,0.537,0.088,0.599,0.18c0.128,0.178,0.184,0.381,0.177,0.613
			c-0.007,0.064-0.016,0.123-0.026,0.174s-0.058,0.076-0.136,0.076c-0.24-0.01-0.53-0.01-0.863,0l-3.156,0.098
			c-0.06,0-0.11-0.006-0.152-0.014c-0.24-0.037-0.508-0.133-0.809-0.287c-0.299-0.15-0.499-0.293-0.6-0.424
			c-0.104-0.129-0.164-0.297-0.187-0.5c-0.082-0.668-0.05-1.643,0.099-2.924c0.005-0.129,0.013-0.209,0.021-0.238
			c0.007-0.119-0.009-0.207-0.042-0.262c-0.099-0.059-0.204-0.121-0.32-0.195c-0.153-0.121-0.264-0.33-0.338-0.627
			c-0.124-0.512-0.156-1.281-0.097-2.311l0.021-0.348c0.089-0.029,0.166-0.051,0.229-0.07c0.64-0.186,1.499-0.256,2.578-0.209
			c0.654,0.037,1.35,0.131,2.088,0.279c0.742,0.148,1.224,0.297,1.451,0.445c0.27,0.176,0.404,0.682,0.404,1.518
			C156.903,20.596,156.873,20.93,156.813,21.209z"/>
		<path fill="#FFFFFF" d="M169.516,21.209c-0.029,0.139-0.062,0.281-0.099,0.432l-1.408-0.086c-0.686-0.035-1.644,0.012-2.871,0.141
			c-0.03,0-0.12,0.018-0.266,0.057c-0.056,0.428-0.096,0.857-0.119,1.295c0.728-0.076,1.435-0.107,2.12-0.098
			c0.299,0,0.542,0.004,0.73,0.014c0.379,0.018,0.585,0.051,0.623,0.098c0.168,0.184,0.245,0.445,0.229,0.779
			c-0.008,0.121-0.045,0.18-0.109,0.18c-1.215-0.082-2.437-0.055-3.659,0.084c0,0.066-0.004,0.166-0.02,0.307
			c-0.037,0.455-0.05,0.844-0.036,1.168l0.023,0.67c0,0.047-0.016,0.082-0.049,0.111c-0.032,0.027-0.074,0.031-0.125,0.014
			c-0.402-0.094-0.672-0.227-0.809-0.404c-0.087-0.102-0.147-0.297-0.174-0.584c-0.03-0.25-0.032-0.719-0.014-1.406
			c0.016-0.697,0.053-1.281,0.112-1.754c0.005-0.129,0.012-0.209,0.021-0.238c0.006-0.119-0.009-0.201-0.043-0.25
			c-0.097-0.064-0.203-0.133-0.319-0.207c-0.15-0.121-0.265-0.326-0.339-0.613c-0.123-0.52-0.155-1.295-0.096-2.324l0.021-0.348
			c0.088-0.029,0.165-0.051,0.229-0.07c0.641-0.186,1.499-0.256,2.578-0.209c0.656,0.037,1.351,0.131,2.094,0.279
			c0.738,0.148,1.219,0.297,1.445,0.445c0.269,0.176,0.404,0.676,0.404,1.504C169.593,20.582,169.565,20.922,169.516,21.209z"/>
		<path fill="#FFFFFF" d="M177.782,22.1c0.008,0.195-0.047,0.348-0.163,0.459c-0.343,0.344-1.001,0.711-1.977,1.1
			c-0.476,0.178-0.944,0.357-1.41,0.543h-0.011c1.334,0.633,2.335,1.234,3.004,1.811c-0.081,0.111-0.145,0.205-0.197,0.277
			c-0.153,0.195-0.332,0.293-0.533,0.293c-0.133,0-0.274-0.037-0.428-0.111c-0.195-0.131-0.557-0.348-1.079-0.654
			c-0.921-0.529-1.92-0.91-3.003-1.143l0.042,1.699c0,0.01,0,0.018,0,0.027c-0.01,0.01-0.026,0.014-0.055,0.014
			c-0.372-0.047-0.654-0.129-0.853-0.25c-0.147-0.094-0.227-0.256-0.25-0.488c-0.066-0.584-0.097-1.184-0.089-1.795
			c0.015-1.205,0.037-1.855,0.066-1.947c0.007-0.039,0.009-0.066,0.009-0.084l-0.194-0.238c-0.212-0.23-0.349-0.621-0.413-1.168
			c-0.088-0.809-0.122-1.619-0.101-2.438c0.008-0.146,0.07-0.227,0.186-0.234c0.729-0.047,1.427-0.029,2.098,0.055
			c0.573,0.064,1.194,0.203,1.855,0.418c0.642,0.195,1.155,0.402,1.541,0.625c0.216,0.121,0.431,0.316,0.646,0.584
			c0.386,0.475,0.69,0.953,0.915,1.436C177.638,21.408,177.768,21.813,177.782,22.1z M175.488,22.344
			c-0.021-0.023-0.072-0.059-0.153-0.105c-0.778-0.287-1.549-0.432-2.314-0.432c-0.364,0-0.649,0.023-0.85,0.07
			c-0.091,0.492-0.138,0.988-0.144,1.49c1.136,0.018,2.224-0.205,3.267-0.67c0.151-0.074,0.227-0.166,0.227-0.277
			C175.521,22.391,175.511,22.367,175.488,22.344z"/>
		<path fill="#FFFFFF" d="M181.778,18.133c0,0.055-0.009,0.152-0.021,0.291c-0.298,1.994-0.517,4.01-0.656,6.041
			c-0.029,0.457-0.037,0.906-0.02,1.352l-0.1,0.041c-0.997,0.371-1.595,0.533-1.791,0.488c-0.182-0.037-0.33-0.232-0.447-0.584
			c-0.313-0.975-0.469-2.303-0.469-3.982c0-1.141,0.069-2.279,0.207-3.41c0.027-0.148,0.047-0.229,0.054-0.236l0.109-0.057
			c0.517-0.24,1.163-0.361,1.946-0.361c0.333,0,0.614,0.033,0.839,0.098c0.109,0.027,0.185,0.061,0.231,0.096
			C181.73,17.955,181.77,18.029,181.778,18.133z"/>
		<path fill="#FFFFFF" d="M189.14,21.209c-0.021,0.139-0.055,0.281-0.098,0.432l-1.397-0.086c-0.685-0.035-1.643,0.012-2.875,0.141
			c-0.028,0-0.114,0.014-0.261,0.041c-0.058,0.438-0.1,0.873-0.121,1.311c0.722-0.076,1.429-0.107,2.119-0.098
			c0.365,0,0.758,0.02,1.18,0.055c0.09,0,0.147,0.018,0.174,0.057c0.171,0.184,0.246,0.445,0.232,0.779
			c-0.009,0.121-0.046,0.18-0.112,0.18c-1.216-0.082-2.434-0.055-3.656,0.084c0,0.045-0.002,0.086-0.014,0.123
			c-0.019,0.469,0.067,0.766,0.265,0.895c0.05,0.037,0.143,0.055,0.271,0.055c0.356,0.01,0.807,0.01,1.345,0
			c0.662-0.027,1.359-0.008,2.096,0.057c0.338,0.027,0.536,0.088,0.601,0.18c0.123,0.178,0.183,0.381,0.176,0.613
			c-0.007,0.064-0.018,0.123-0.028,0.174s-0.056,0.076-0.135,0.076c-0.239-0.01-0.53-0.01-0.865,0l-3.156,0.098
			c-0.057,0-0.109-0.006-0.15-0.014c-0.242-0.037-0.512-0.133-0.809-0.287c-0.298-0.15-0.498-0.293-0.601-0.424
			c-0.103-0.129-0.166-0.297-0.187-0.5c-0.079-0.668-0.047-1.643,0.099-2.924c0.008-0.129,0.015-0.209,0.022-0.238
			c0.008-0.119-0.008-0.207-0.045-0.262c-0.094-0.059-0.2-0.121-0.316-0.195c-0.154-0.121-0.264-0.33-0.339-0.627
			c-0.122-0.512-0.154-1.281-0.099-2.311l0.021-0.348c0.089-0.029,0.163-0.051,0.23-0.07c0.64-0.186,1.501-0.256,2.576-0.209
			c0.656,0.037,1.354,0.131,2.092,0.279c0.74,0.148,1.221,0.297,1.448,0.445c0.271,0.176,0.404,0.682,0.404,1.518
			C189.228,20.596,189.197,20.93,189.14,21.209z"/>
		<path fill="#FFFFFF" d="M196.62,18.355c-0.313,1.883-0.469,3.715-0.469,5.498c0,0.391,0.002,0.789,0.008,1.197
			c0.009,0.064,0.024,0.24,0.047,0.527c-0.831,0.492-1.7,0.752-2.609,0.781c-0.505,0.008-0.871-0.176-1.105-0.557
			c-0.509-1.002-0.981-2.029-1.419-3.076c-0.16,0.945-0.252,1.875-0.271,2.783c-0.01,0.186-0.004,0.371,0.009,0.557
			c0.016,0.242,0.023,0.352,0.023,0.334c0,0.027-0.063,0.027-0.186,0c-0.131-0.018-0.326-0.074-0.58-0.166
			c-0.196-0.104-0.3-0.32-0.305-0.656c-0.037-1.354,0.055-2.736,0.271-4.146l0.197-1.309c0-0.027-0.02-0.098-0.057-0.209
			c-0.079-0.26-0.147-0.557-0.207-0.891c0.11-0.084,0.283-0.205,0.526-0.361c0.334-0.215,0.784-0.404,1.347-0.572
			c0.566-0.166,1.069-0.25,1.515-0.25c0.145,0,0.278,0.01,0.393,0.027c0.051,0.01,0.086,0.025,0.097,0.049
			c0.015,0.023,0.034,0.096,0.055,0.217c0.015,0.064,0.013,0.52-0.011,1.363c-0.015,0.826,0.049,1.619,0.186,2.381
			c0.168,0.938,0.426,1.67,0.776,2.199c0.03,0.057,0.053,0.088,0.064,0.098c0.045-0.018,0.076-0.4,0.101-1.143
			c0.013-0.641,0.028-1.275,0.043-1.906c0.029-0.473,0.057-1.18,0.087-2.117c0-0.139,0-0.281,0-0.43
			c0.329-0.232,0.759-0.33,1.289-0.293c0.072,0.01,0.134,0.02,0.186,0.027C196.62,18.322,196.62,18.336,196.62,18.355z"/>
		<path fill="#FFFFFF" d="M205.368,23.506c0,0.334-0.154,0.658-0.459,0.975c-0.334,0.344-0.862,0.688-1.585,1.029
			c-0.719,0.344-1.411,0.59-2.073,0.738c-0.541,0.111-1.077,0.166-1.615,0.166c-0.46,0-0.754-0.047-0.885-0.139
			c-0.482-0.344-0.762-0.621-0.842-0.836c-0.028-0.092-0.073-0.318-0.134-0.682c-0.055-0.436-0.105-1.049-0.14-1.836
			c0-0.195-0.005-0.428-0.012-0.697c-0.035-0.057-0.089-0.143-0.164-0.264c-0.203-0.344-0.304-0.971-0.304-1.879
			c0-0.271,0.011-0.566,0.032-0.893c0-0.23,0.003-0.459,0.01-0.682c0.03-0.307,0.103-0.465,0.218-0.473
			c0.612-0.084,1.271-0.08,1.978,0.014c2.03,0.25,3.539,0.91,4.521,1.977c0.263,0.287,0.565,0.83,0.907,1.629
			C205.187,22.49,205.368,23.107,205.368,23.506z M203.271,23.604c-0.138-0.354-0.719-0.65-1.747-0.893
			c-0.83-0.193-1.495-0.287-1.998-0.277c-0.277,0.01-0.427,0.014-0.449,0.014c-0.043-0.01-0.079-0.01-0.108,0
			c-0.044,0.037-0.059,0.371-0.044,1.002c0.014,0.529,0.033,0.904,0.057,1.127c0.02,0.225,0.056,0.414,0.108,0.572
			c0.325,0.074,0.623,0.111,0.886,0.111c0.522,0,1.081-0.092,1.675-0.279c0.593-0.186,1.061-0.414,1.403-0.682
			c0.176-0.129,0.262-0.291,0.262-0.488C203.314,23.736,203.3,23.668,203.271,23.604z"/>
		<path fill="#FFFFFF" d="M213.065,24.912c-0.063,0.398-0.337,0.729-0.816,0.988c-0.767,0.398-1.81,0.598-3.138,0.598
			c-1.323,0-2.309-0.189-2.957-0.57c-0.198-0.111-0.262-0.33-0.198-0.654c0.016-0.092,0.038-0.223,0.066-0.391
			c1.126,0.232,2.155,0.35,3.079,0.35c0.988,0,1.766-0.141,2.326-0.418c0.16-0.074,0.24-0.176,0.24-0.307
			c0-0.316-0.78-0.473-2.349-0.473c-0.64,0-1.232,0.018-1.778,0.055c-0.452,0.027-0.86,0.014-1.224-0.041
			c-0.424-0.064-0.633-0.633-0.633-1.699c0-0.574,0.101-1.15,0.305-1.725c0.109-0.307,0.306-0.596,0.59-0.863
			c0.486-0.465,1.179-0.893,2.076-1.281c0.969-0.418,1.808-0.627,2.524-0.627c0.155,0,0.303,0.01,0.435,0.027
			c0.106,0.02,0.22,0.117,0.327,0.293c0.161,0.232,0.308,0.59,0.438,1.072c0.109,0.428,0.178,0.803,0.208,1.127
			c0.006,0.094,0.013,0.203,0.021,0.334c0,0.111-0.046,0.182-0.142,0.209c-0.896,0.23-1.836,0.547-2.817,0.947
			c-0.599,0.25-1.09,0.51-1.476,0.779c-0.078,0.055-0.118,0.107-0.118,0.152c0,0.047,0.049,0.07,0.152,0.07
			c0.117-0.01,0.186-0.02,0.209-0.027c0.173-0.037,0.632-0.047,1.372-0.029c1.516,0.037,2.463,0.248,2.841,0.627
			c0.307,0.307,0.46,0.697,0.46,1.17C213.089,24.707,213.082,24.809,213.065,24.912z"/>
		<path fill="#FFFFFF" d="M219.422,15.432c-0.247,0.975-0.521,2.061-0.82,3.258c-0.262,1.121-0.473,2.156-0.633,3.104
			c-0.052,0.344-0.098,0.688-0.141,1.031c-0.015,0.027-0.235,0.041-0.657,0.041c-0.555,0-1.064-0.088-1.54-0.266
			c-0.312-0.109-0.578-0.398-0.795-0.863c-0.191-0.396-0.339-0.811-0.447-1.238c-0.258-1.029-0.445-2.004-0.568-2.924
			c-0.045-0.379-0.092-0.783-0.145-1.211c-0.014-0.102-0.023-0.25-0.032-0.445c0.322-0.166,0.532-0.27,0.636-0.305
			c0.079-0.037,0.195-0.084,0.35-0.139c0.849-0.309,1.679-0.461,2.488-0.461c0.714,0,1.442,0.115,2.184,0.348
			C219.368,15.381,219.407,15.402,219.422,15.432z M218.493,24.66c0.036,0.121,0.055,0.246,0.055,0.377
			c0,0.26-0.072,0.49-0.218,0.695c-0.094,0.131-0.149,0.199-0.163,0.209c-0.038,0.047-0.096,0.088-0.176,0.125
			c-0.509,0.25-1.005,0.377-1.486,0.377c-0.224,0-0.459-0.029-0.699-0.086c-0.291-0.055-0.546-0.162-0.762-0.32
			c-0.338-0.234-0.505-0.531-0.505-0.896c0-0.41,0.143-0.717,0.427-0.922c0.547-0.383,0.973-0.564,1.277-0.547
			c0.096,0,0.201-0.014,0.317-0.041C217.623,23.594,218.269,23.938,218.493,24.66z"/>
	</g>
	<g>
		<path fill="#FFFF00" d="M27.655,10.451c0.086,0.369,0.03,0.726-0.166,1.07c-0.295,0.492-1.113,0.898-2.454,1.218
			c-1.28,0.32-2.676,0.48-4.189,0.48c-0.738,0-1.427-0.043-2.066-0.129c-0.308-0.05-0.548-0.111-0.72-0.186
			c-0.479-0.221-0.88-0.517-1.199-0.885c-0.32-0.369-0.48-0.714-0.48-1.034c0-0.147,0.104-0.394,0.314-0.738l3.229-5.222
			c0.136-0.32,0.203-0.542,0.203-0.665c0-0.073-0.024-0.104-0.073-0.093c-0.898,0.087-1.784,0.24-2.657,0.462
			c-0.063,0.024-0.123,0.037-0.185,0.037c-0.345,0-0.517-0.209-0.517-0.628c0-0.307,0.122-0.621,0.368-0.941
			c0.246-0.319,0.597-0.553,1.053-0.701c1.611-0.516,3.229-0.774,4.853-0.774c1.096,0,2.215,0.116,3.359,0.351
			c0.504,0.099,0.916,0.246,1.236,0.443c0.024,0.012,0.043,0.036,0.055,0.073c0,0.037-0.043,0.123-0.129,0.259
			c-0.222,0.381-0.96,1.586-2.214,3.617c-0.296,0.455-0.604,1.07-0.923,1.845c-0.406,0.947-0.598,1.612-0.572,1.993
			c0.012,0.172,0.076,0.342,0.193,0.508s0.268,0.262,0.452,0.285c0.357,0.05,0.84,0.013,1.449-0.11
			c0.608-0.122,1.104-0.276,1.485-0.462C27.532,10.438,27.631,10.414,27.655,10.451z"/>
		<path fill="#FFFF00" d="M39.725,6.243c-0.037,0.186-0.092,0.376-0.166,0.572l-2.362-0.11c-1.156-0.049-2.774,0.013-4.854,0.185
			c-0.049,0-0.196,0.019-0.442,0.055c-0.099,0.579-0.166,1.157-0.203,1.735c1.218-0.099,2.411-0.142,3.58-0.13
			c0.615,0,1.279,0.025,1.993,0.074c0.147,0,0.246,0.025,0.295,0.074c0.283,0.246,0.412,0.59,0.388,1.033
			c-0.013,0.16-0.074,0.24-0.185,0.24c-2.055-0.111-4.115-0.074-6.182,0.109c0,0.061-0.007,0.115-0.019,0.164
			c-0.037,0.619,0.11,1.015,0.442,1.186c0.086,0.049,0.24,0.072,0.462,0.072c0.603,0.013,1.358,0.013,2.27,0
			c1.119-0.037,2.3-0.012,3.543,0.074c0.565,0.037,0.904,0.117,1.015,0.24c0.209,0.233,0.308,0.504,0.296,0.812
			c-0.013,0.086-0.028,0.163-0.047,0.23c-0.018,0.067-0.095,0.102-0.23,0.102c-0.405-0.013-0.892-0.013-1.458,0l-5.333,0.13
			c-0.099,0-0.185-0.007-0.258-0.02c-0.406-0.049-0.861-0.175-1.366-0.378c-0.504-0.203-0.843-0.391-1.015-0.563
			c-0.173-0.172-0.276-0.393-0.313-0.664c-0.136-0.885-0.08-2.178,0.166-3.875c0.012-0.172,0.024-0.277,0.037-0.313
			C29.79,7.117,29.766,7,29.704,6.926c-0.16-0.074-0.339-0.16-0.535-0.259c-0.259-0.159-0.449-0.437-0.572-0.83
			c-0.209-0.677-0.265-1.698-0.166-3.063l0.037-0.461c0.147-0.037,0.276-0.068,0.388-0.093c1.082-0.246,2.534-0.339,4.354-0.276
			c1.107,0.049,2.285,0.172,3.534,0.369c1.249,0.196,2.063,0.394,2.445,0.59c0.455,0.234,0.683,0.904,0.683,2.012
			C39.872,5.431,39.823,5.874,39.725,6.243z"/>
		<path fill="#FFFF00" d="M52.365,2.459c-0.529,2.498-0.794,4.928-0.794,7.29c0,0.517,0.006,1.046,0.019,1.587
			c0.012,0.086,0.037,0.32,0.074,0.701c-1.403,0.652-2.873,0.996-4.411,1.033c-0.849,0.013-1.47-0.233-1.863-0.738
			c-0.861-1.328-1.661-2.688-2.399-4.078c-0.271,1.256-0.425,2.485-0.461,3.691c-0.013,0.246-0.007,0.492,0.019,0.738
			c0.024,0.319,0.036,0.467,0.036,0.442c0,0.037-0.104,0.037-0.313,0c-0.222-0.024-0.548-0.099-0.978-0.222
			c-0.333-0.135-0.505-0.424-0.518-0.867c-0.062-1.796,0.093-3.629,0.462-5.499l0.332-1.735c0-0.036-0.031-0.129-0.093-0.276
			c-0.135-0.345-0.252-0.737-0.351-1.181c0.185-0.111,0.48-0.271,0.887-0.48c0.565-0.282,1.325-0.535,2.278-0.756
			c0.953-0.222,1.806-0.332,2.556-0.332c0.246,0,0.468,0.012,0.665,0.037c0.086,0.012,0.141,0.033,0.166,0.064
			c0.024,0.03,0.055,0.126,0.092,0.285c0.024,0.086,0.019,0.689-0.019,1.809c-0.024,1.096,0.08,2.147,0.314,3.156
			c0.282,1.242,0.72,2.214,1.31,2.916c0.05,0.073,0.086,0.116,0.111,0.129c0.073-0.025,0.129-0.529,0.166-1.514
			c0.024-0.849,0.049-1.691,0.073-2.528c0.05-0.628,0.099-1.562,0.148-2.805c0-0.185,0-0.375,0-0.572
			c0.553-0.308,1.279-0.437,2.177-0.388c0.123,0.013,0.228,0.025,0.314,0.037C52.365,2.417,52.365,2.436,52.365,2.459z"/>
		<path fill="#FFFF00" d="M22.774,26.684c-0.837,0.381-1.839,0.572-3.008,0.572c-1.083,0-1.95-0.135-2.603-0.404
			c-0.147-0.063-0.295-0.129-0.442-0.203c-0.013-0.012-0.019-0.031-0.019-0.055c0-2.393-0.197-4.281-0.591-5.668
			c-0.024-0.098-0.062-0.148-0.11-0.148c-0.173,0-0.431,0.543-0.775,1.625s-0.671,2.398-0.978,3.949
			c-0.013,0.086-0.05,0.191-0.111,0.313c-0.147,0.088-0.522,0.191-1.125,0.314c-0.948,0.197-1.655,0.246-2.122,0.148
			c-0.173-0.037-0.309-0.154-0.406-0.352c-0.037-0.086-0.332-0.99-0.886-2.713c-0.173-0.492-0.395-1.119-0.665-1.883
			c-0.036-0.098-0.067-0.166-0.092-0.201c-0.013,0.012-0.154,0.355-0.425,1.033c-0.492,1.303-0.787,2.645-0.886,4.021
			c-0.012,0.025-0.049,0.037-0.11,0.037c-0.578,0.014-1.033-0.104-1.365-0.35c-0.111-0.086-0.16-0.223-0.148-0.406
			c0.074-1.711,0.271-3.359,0.591-4.945c0.147-0.615,0.369-1.539,0.664-2.768c0.013-0.051-0.062-0.309-0.221-0.775l-0.166-0.518
			c0.442-0.381,1.187-0.713,2.232-0.996s1.95-0.395,2.713-0.332c0.185,0.012,0.344,0.037,0.479,0.074
			c0.185,0.037,0.603,1.156,1.255,3.357c0.086,0.369,0.252,0.924,0.498,1.662l1.163-3.248c0.123-0.32,0.142-0.652,0.056-0.998
			c0.061-0.023,0.122-0.049,0.185-0.072c0.517-0.234,1.257-0.434,2.224-0.6c0.965-0.166,1.854-0.25,2.666-0.25
			c0.332,0,0.603,0.012,0.813,0.037c0,0.025,0.019,0.107,0.055,0.248c0.037,0.143,0.147,0.803,0.332,1.98
			c0.32,1.967,0.671,3.961,1.053,5.988C22.646,24.996,22.737,25.836,22.774,26.684z"/>
		<path fill="#FFFF00" d="M37.188,22.291c-0.431,1.428-1.305,2.627-2.621,3.6c-1.316,0.971-2.725,1.463-4.226,1.475
			c-1.513,0.014-2.94-0.469-4.281-1.447s-2.227-2.188-2.657-3.627c-0.123-0.578-0.11-1.125,0.037-1.643
			c0.246-0.922,0.873-1.869,1.882-2.842c1.009-0.971,2.018-1.605,3.026-1.9c0.628-0.184,1.273-0.277,1.938-0.277
			c0.677,0,1.329,0.094,1.956,0.277c1.009,0.295,2.018,0.93,3.027,1.9c1.008,0.973,1.636,1.92,1.882,2.842
			C37.298,21.166,37.311,21.713,37.188,22.291z M31.651,23.842c0-0.541-0.136-1.002-0.406-1.385
			c-0.271-0.381-0.591-0.572-0.96-0.572c-0.381,0-0.704,0.191-0.969,0.572c-0.265,0.383-0.396,0.844-0.396,1.385
			s0.132,1.002,0.396,1.383c0.265,0.383,0.588,0.572,0.969,0.572c0.369,0,0.689-0.189,0.96-0.572
			C31.516,24.844,31.651,24.383,31.651,23.842z"/>
		<path fill="#FFFF00" d="M51.489,23.287c0,0.443-0.259,0.875-0.775,1.293c-0.566,0.455-1.458,0.91-2.676,1.365
			s-2.387,0.781-3.507,0.979c-0.91,0.146-1.82,0.221-2.73,0.221c-0.775,0-1.273-0.061-1.495-0.184
			c-0.812-0.455-1.286-0.824-1.421-1.107c-0.049-0.123-0.123-0.426-0.222-0.904c-0.099-0.578-0.179-1.391-0.239-2.436
			c0-0.26-0.007-0.566-0.019-0.924c-0.062-0.074-0.154-0.189-0.277-0.35c-0.345-0.455-0.517-1.287-0.517-2.492
			c0-0.357,0.019-0.75,0.056-1.182c0-0.307,0.006-0.607,0.019-0.904c0.049-0.404,0.172-0.613,0.369-0.627
			c1.033-0.111,2.146-0.104,3.34,0.02c3.433,0.332,5.979,1.205,7.64,2.619c0.443,0.383,0.953,1.102,1.532,2.16
			C51.181,21.941,51.489,22.76,51.489,23.287z M47.945,23.418c-0.233-0.469-1.218-0.861-2.952-1.182
			c-1.402-0.258-2.528-0.381-3.377-0.369c-0.468,0.012-0.72,0.018-0.757,0.018c-0.074-0.012-0.136-0.012-0.185,0
			c-0.074,0.051-0.099,0.492-0.074,1.33c0.025,0.701,0.056,1.199,0.093,1.494s0.099,0.547,0.185,0.756
			c0.554,0.1,1.052,0.148,1.495,0.148c0.886,0,1.829-0.123,2.832-0.369s1.793-0.547,2.371-0.904
			c0.296-0.172,0.443-0.387,0.443-0.646C48.02,23.596,47.995,23.504,47.945,23.418z"/>
		<path fill="#FFFF00" d="M62.579,20.242c-0.037,0.186-0.092,0.377-0.166,0.572l-2.362-0.109c-1.156-0.049-2.774,0.012-4.854,0.184
			c-0.049,0-0.196,0.02-0.442,0.055c-0.099,0.58-0.166,1.158-0.203,1.736c1.218-0.1,2.411-0.143,3.58-0.131
			c0.615,0,1.279,0.025,1.993,0.074c0.147,0,0.246,0.025,0.295,0.074c0.283,0.246,0.412,0.59,0.388,1.033
			c-0.013,0.16-0.074,0.24-0.185,0.24c-2.055-0.111-4.115-0.074-6.182,0.109c0,0.061-0.007,0.115-0.019,0.164
			c-0.037,0.619,0.11,1.016,0.442,1.186c0.086,0.049,0.24,0.072,0.462,0.072c0.603,0.014,1.358,0.014,2.27,0
			c1.119-0.037,2.3-0.012,3.543,0.074c0.565,0.037,0.904,0.117,1.015,0.24c0.209,0.234,0.308,0.504,0.296,0.813
			c-0.013,0.086-0.028,0.162-0.047,0.23c-0.018,0.066-0.095,0.102-0.23,0.102c-0.405-0.014-0.892-0.014-1.458,0l-5.333,0.129
			c-0.099,0-0.185-0.006-0.258-0.02c-0.406-0.049-0.861-0.174-1.366-0.377c-0.504-0.203-0.843-0.391-1.015-0.564
			c-0.173-0.172-0.276-0.393-0.313-0.664c-0.136-0.885-0.08-2.178,0.166-3.875c0.012-0.172,0.024-0.277,0.037-0.313
			c0.012-0.16-0.013-0.277-0.074-0.352c-0.16-0.074-0.339-0.16-0.535-0.258c-0.259-0.16-0.449-0.438-0.572-0.83
			c-0.209-0.678-0.265-1.699-0.166-3.064l0.037-0.461c0.147-0.037,0.276-0.068,0.388-0.092c1.082-0.246,2.534-0.34,4.354-0.277
			c1.107,0.049,2.285,0.172,3.534,0.369s2.063,0.395,2.445,0.59c0.455,0.234,0.683,0.904,0.683,2.012
			C62.727,19.432,62.678,19.873,62.579,20.242z"/>
	</g>
</g>
</svg>
